<?xml version="1.0" encoding="UTF-8"?>
<svg id="illustration" xmlns="http://www.w3.org/2000/svg" viewBox="0 0 1008.13 322.84">
  <defs>
    <style>
      .cls-1 {
        opacity: .09;
      }

      .cls-2 {
        opacity: .12;
      }

      .cls-3 {
        fill: #f4b678;
      }

      .cls-4 {
        fill: #f7a859;
      }

      .cls-5 {
        fill: #f7a96d;
      }

      .cls-6 {
        fill: #f49067;
      }

      .cls-7 {
        fill: #f9ac78;
      }

      .cls-8 {
        fill: #f0fcff;
      }

      .cls-9 {
        fill: #eab9a4;
      }

      .cls-10 {
        fill: #f5f5f5;
      }

      .cls-11 {
        fill: #e7eff2;
      }

      .cls-12 {
        fill: #fff4e6;
      }

      .cls-13 {
        fill: #fff2e9;
      }

      .cls-14 {
        fill: #ffd5ab;
      }

      .cls-15 {
        fill: #ffd8bb;
      }

      .cls-16 {
        fill: #ffce61;
      }

      .cls-17 {
        fill: #fbffff;
      }

      .cls-18 {
        fill: #fcc68b;
      }

      .cls-19 {
        fill: #e2e2e2;
      }

      .cls-20 {
        fill: #ff9173;
      }

      .cls-21 {
        fill: #fcdfcd;
      }

      .cls-22 {
        fill: #72c5ce;
      }

      .cls-23 {
        fill: #7f6262;
      }

      .cls-24 {
        fill: #7ebc69;
      }

      .cls-25 {
        fill: #9fc445;
      }

      .cls-26, .cls-27 {
        fill: #86cfef;
      }

      .cls-28 {
        fill: #9ccde5;
      }

      .cls-29 {
        fill: #9e7a7a;
      }

      .cls-30 {
        fill: #9e8585;
      }

      .cls-31 {
        fill: #917171;
      }

      .cls-32 {
        fill: #90a4ae;
      }

      .cls-33 {
        fill: #bac9ce;
      }

      .cls-34 {
        fill: #318653;
      }

      .cls-35 {
        fill: #8e7272;
      }

      .cls-36 {
        fill: #8e7676;
      }

      .cls-37 {
        fill: #8dc963;
      }

      .cls-38 {
        fill: #a8837e;
      }

      .cls-39 {
        fill: #b2877f;
      }

      .cls-40 {
        fill: #b0bec5;
      }

      .cls-41 {
        fill: #b2b2b2;
      }

      .cls-42 {
        fill: #c0d67c;
      }

      .cls-43 {
        fill: #c2ebff;
      }

      .cls-44 {
        fill: #d17b5d;
      }

      .cls-45 {
        fill: #c95647;
      }

      .cls-46 {
        fill: #dddbdb;
      }

      .cls-47 {
        fill: #d39e8c;
      }

      .cls-48 {
        fill: #d1e0e5;
      }

      .cls-49 {
        fill: #cfd8dc;
      }

      .cls-50 {
        fill: #aed366;
      }

      .cls-51 {
        fill: #e1f7ff;
      }

      .cls-52 {
        fill: #e2906d;
      }

      .cls-53 {
        fill: #e29149;
      }

      .cls-54 {
        fill: #e26b54;
      }

      .cls-55 {
        fill: #212d26;
      }

      .cls-56 {
        fill: #358756;
      }

      .cls-57 {
        fill: #3d838e;
      }

      .cls-58 {
        fill: #7fbf4c;
      }

      .cls-59 {
        fill: #725757;
      }

      .cls-60 {
        fill: #88cc75;
      }

      .cls-61 {
        fill: #6ec1f4;
      }

      .cls-62 {
        fill: #58b5bc;
      }

      .cls-63 {
        fill: #604545;
      }

      .cls-64 {
        fill: #5eb3b7;
      }

      .cls-65 {
        fill: #79b264;
      }

      .cls-66 {
        fill: #4e9fa8;
      }

      .cls-67 {
        fill: #7c5d5d;
      }

      .cls-68 {
        fill: #755d5d;
      }

      .cls-69 {
        fill: #448d99;
      }

      .cls-70 {
        opacity: .43;
      }

      .cls-71 {
        opacity: .73;
      }

      .cls-72 {
        fill: #f9f9f9;
      }

      .cls-72, .cls-73, .cls-74, .cls-75, .cls-76, .cls-27, .cls-77 {
        fill-rule: evenodd;
      }

      .cls-73 {
        fill: #7ac6e5;
      }

      .cls-74 {
        fill: #a2daf9;
      }

      .cls-75 {
        fill: #c6c6c6;
      }

      .cls-76 {
        fill: #dddcdb;
      }

      .cls-77 {
        fill: #ededed;
      }
    </style>
  </defs>
  <g>
    <path class="cls-31" d="m893.2,260.82c-1.68-31.71-1.54-28.69-1.54-29.73l-.02.36-.02-.36c0,1.04.14-1.98-1.54,29.73h3.12Z"/>
    <path class="cls-24" d="m899,218.98s-5.18-14.63-7.28-14.63c-2.41.1-7.62,14.49-9.94,23.98l5.98,2.24-6.44-.22c-.43,2.02-.68,3.69-.68,4.78,0,6.13,4.96,11.1,11.09,11.11h.03c6.14,0,11.11-4.98,11.11-11.11,0-2.84-1.71-9.65-3.86-16.15Z"/>
  </g>
  <g>
    <path class="cls-31" d="m961.2,260.82c-1.33-25.01-1.21-22.63-1.21-23.45l-.02.29-.02-.29c0,.82.11-1.56-1.21,23.45h2.46Z"/>
    <path class="cls-24" d="m965.77,227.82s-4.09-11.54-5.74-11.54c-1.9.08-6.01,11.43-7.84,18.91l4.72,1.77-5.08-.18c-.34,1.59-.54,2.91-.54,3.77,0,4.84,3.91,8.76,8.75,8.77h.02c4.84,0,8.77-3.92,8.77-8.77,0-2.24-1.35-7.61-3.05-12.74Z"/>
  </g>
  <g>
    <path class="cls-31" d="m47.43,260.82c-1.33-25.01-1.21-22.63-1.21-23.45l-.02.29-.02-.29c0,.82.11-1.56-1.21,23.45h2.46Z"/>
    <path class="cls-24" d="m52.01,227.82s-4.09-11.54-5.74-11.54c-1.9.08-6.01,11.43-7.84,18.91l4.72,1.77-5.08-.18c-.34,1.59-.54,2.91-.54,3.77,0,4.84,3.91,8.76,8.75,8.77h.02c4.84,0,8.77-3.92,8.77-8.77,0-2.24-1.35-7.61-3.05-12.74Z"/>
  </g>
  <g>
    <path class="cls-31" d="m818.09,260.82c-1.68-31.71-1.54-28.69-1.54-29.73l-.02.36-.02-.36c0,1.04.14-1.98-1.54,29.73h3.12Z"/>
    <path class="cls-24" d="m823.88,218.98s-5.18-14.63-7.28-14.63c-2.41.1-7.62,14.49-9.94,23.98l5.98,2.24-6.44-.22c-.43,2.02-.68,3.69-.68,4.78,0,6.13,4.96,11.1,11.09,11.11h.03c6.14,0,11.11-4.98,11.11-11.11,0-2.84-1.71-9.65-3.86-16.15Z"/>
  </g>
  <g class="cls-70">
    <g>
      <polygon class="cls-40" points="639.78 74.99 533.18 269.05 728.26 269.05 639.78 74.99"/>
      <polygon class="cls-32" points="533.18 269.05 638.78 268.35 631.23 201.7 619.91 186.97 639.28 75.76 533.18 269.05"/>
      <polygon class="cls-11" points="646.71 131.01 671.25 143.56 639.78 74.99 618.51 137.09 627.83 140.91 646.71 131.01"/>
      <polygon class="cls-48" points="607.76 132.73 627.83 140.91 639.28 75.76 607.76 132.73"/>
    </g>
    <g>
      <polygon class="cls-40" points="357.43 85.41 257.71 266.96 457.16 266.96 357.43 85.41"/>
      <polygon class="cls-32" points="257.71 266.96 350.17 266.31 347.31 181.22 337.13 172.65 356.97 86.13 257.71 266.96"/>
      <polygon class="cls-11" points="368.27 132.15 389.95 143.67 357.43 85.41 345.92 131.48 358.11 137.57 368.27 132.15"/>
      <polygon class="cls-48" points="327.48 139.43 345.92 131.48 356.97 86.13 327.48 139.43"/>
    </g>
    <g>
      <polygon class="cls-40" points="487.49 11.53 363.77 269.05 636.97 269.05 551.13 109.8 541.22 107.74 487.49 11.53"/>
      <polygon class="cls-32" points="335.7 269.05 407.51 268.12 428.97 184.91 452.08 161.8 486.83 12.56 423.19 128.78 405.86 138.69 335.7 269.05"/>
      <polygon class="cls-49" points="551.13 109.8 541.22 107.74 518.11 66.33 527.19 154.78 529.67 186.83 571.74 269.05 636.97 269.05 551.13 109.8"/>
      <polygon class="cls-11" points="487.49 11.53 452.91 74.72 473.52 69.74 520.59 92.47 529.52 86.78 487.49 11.53"/>
      <polygon class="cls-17" points="520.59 92.47 529.53 86.78 518.11 66.33 520.59 92.47"/>
      <polygon class="cls-48" points="454.65 71.32 452.91 74.72 473.52 69.74 486.83 12.56 454.65 71.32"/>
    </g>
    <g>
      <polygon class="cls-40" points="720.03 129.62 700.52 170.77 694.29 184.95 646.48 269.05 788.15 269.05 748.87 186.83 742.98 182.11 720.03 129.62"/>
      <polygon class="cls-32" points="666.52 216.27 629.73 229.4 609.11 269.05 685.03 269.05 697.13 220.54 718.01 195.06 720.03 129.62 666.52 216.27"/>
    </g>
    <g>
      <polygon class="cls-40" points="280.35 154.33 262.24 205.49 219.32 269.05 345.92 269.05 338.55 238.22 319.08 219.32 308.51 188.27 280.35 154.33"/>
      <polygon class="cls-32" points="253.79 210.95 226.07 240.23 216.63 269.05 255.62 269.05 255.62 238.06 275.45 213.85 280.35 154.33 253.79 210.95"/>
    </g>
  </g>
  <path class="cls-42" d="m969.38,260.95H35.41c-10.75,0-19.46,8.71-19.46,19.46h972.89c0-10.75-8.71-19.46-19.46-19.46Z"/>
  <g>
    <polygon class="cls-33" points="97.35 167.01 84.99 147.27 76.74 134.1 69.73 132.02 70.21 130.47 67.66 127.73 69.56 121.54 69.56 121.54 81.04 83.98 81.04 83.98 81.04 83.98 78.27 85.61 66.9 107.06 66.9 107.06 60.08 119.91 61.8 127.09 60.3 127.43 59.24 130.88 59.2 131.02 14.64 141.3 17.44 142.89 41.71 142.01 41.71 142.01 56.25 141.49 61.49 136.52 59.52 260.8 69.24 260.8 67.29 137.95 70.59 141.49 70.59 141.49 87.25 159.36 97.38 170.23 97.38 170.23 97.38 170.23 97.35 167.01"/>
    <polygon class="cls-33" points="219.5 102.84 168.71 93.02 160.32 97.96 160.22 97.79 160.22 97.79 159.24 96.08 154.26 96.08 147.75 84.8 123.78 43.3 123.78 43.3 123.78 43.3 123.48 44.67 122.86 47.48 133.42 78.06 133.42 78.06 139.75 96.37 148.3 101.21 147.28 102.99 149.78 107.31 130.85 140.1 119.32 160.07 119.32 160.07 119.32 160.07 123.4 158.78 144.6 134.34 144.6 134.34 151.14 126.8 148.78 260.56 161.72 260.56 159.06 109.89 159.24 109.89 161.64 105.73 170.32 105.73 222.66 105.73 222.66 105.73 219.5 102.84"/>
  </g>
  <g>
    <polygon class="cls-33" points="904.12 167.36 916.48 147.62 924.73 134.45 931.73 132.37 931.26 130.81 933.81 128.08 931.91 121.89 931.91 121.89 920.42 84.32 920.42 84.32 920.42 84.32 923.19 85.95 934.57 107.41 934.57 107.41 941.39 120.26 939.67 127.43 941.17 127.78 942.22 131.22 942.27 131.36 986.83 141.65 984.03 143.23 959.76 142.36 959.76 142.36 945.22 141.84 939.97 136.86 941.95 261.14 932.23 261.14 934.18 138.3 930.88 141.84 930.88 141.84 914.22 159.7 904.09 170.57 904.09 170.57 904.09 170.57 904.12 167.36"/>
    <polygon class="cls-33" points="780.56 103.18 831.34 93.37 839.73 98.31 839.83 98.14 839.83 98.14 840.82 96.43 845.8 96.43 852.31 85.15 876.27 43.64 876.27 43.64 876.27 43.64 876.58 45.01 877.2 47.83 866.63 78.4 866.63 78.4 860.3 96.71 851.75 101.56 852.78 103.33 850.28 107.66 869.21 140.44 880.74 160.41 880.74 160.41 880.74 160.41 876.65 159.12 855.46 134.68 855.46 134.68 848.92 127.14 851.28 260.91 838.33 260.91 841 110.24 840.82 110.24 838.42 106.07 829.73 106.07 777.4 106.07 777.4 106.07 780.56 103.18"/>
  </g>
  <path class="cls-8" d="m798.69,73.84c.15-.85.24-1.72.24-2.62,0-8.02-6.5-14.51-14.51-14.51-5.51,0-10.3,3.07-12.76,7.59-2.3-2.4-5.54-3.89-9.13-3.89-2.11,0-4.1.52-5.86,1.44-2.74-5.01-8.06-8.41-14.18-8.41-1.33,0-2.61.16-3.85.47-2.28-7.68-9.38-13.28-17.8-13.28-9.46,0-17.27,7.08-18.42,16.23-.65-.09-1.32-.14-1.99-.14-8.02,0-14.51,6.5-14.51,14.51,0,.89.09,1.77.24,2.62h112.53Z"/>
  <g class="cls-71">
    <polygon class="cls-75" points="221.37 56.68 220.67 60.24 220.47 60.23 221.17 56.66 221.37 56.68"/>
    <polygon class="cls-73" points="210.79 42.73 219.65 64.69 219.77 64.64 210.91 42.68 210.79 42.73"/>
    <polygon class="cls-73" points="216.74 51.28 221.16 57.5 221.27 57.42 216.85 51.2 216.74 51.28"/>
    <rect class="cls-26" x="221.72" y="55.8" width="1.98" height=".8" rx=".1" ry=".1"/>
    <polygon class="cls-74" points="228.69 51.28 224.27 57.5 224.16 57.42 228.58 51.2 228.69 51.28"/>
    <polygon class="cls-74" points="234.64 42.73 225.78 64.69 225.66 64.64 234.52 42.68 234.64 42.73"/>
    <path class="cls-27" d="m209.65,20.94c-2.75,2.75-4.23,6.87-3.51,11.42,1.1,6.9,8.68,16.01,12.7,21.88h7.74c4.03-5.88,11.61-14.98,12.7-21.88.72-4.55-.76-8.67-3.51-11.42-5.89-5.88-20.24-5.88-26.12,0Z"/>
    <path class="cls-77" d="m213.96,20.94c-1.85,2.75-2.84,6.87-2.35,11.42.73,6.9,5.82,16.01,8.51,21.88h5.19c2.7-5.88,7.78-14.98,8.51-21.88.48-4.55-.51-8.67-2.35-11.42-3.95-5.88-13.56-5.88-17.51,0Z"/>
    <path class="cls-27" d="m218.37,32.35c.29,6.9,2.28,16.01,3.33,21.88h2.03c1.78-9.89,5.04-23.29,2.41-33.3-2.07-7.89-8.49-5.88-7.77,11.42Z"/>
    <path class="cls-72" d="m223.73,54.24h1.58c2.7-5.88,7.78-14.98,8.51-21.88.87-8.15-2.74-15.83-11.11-15.83,1.33,0,2.65,1.47,3.43,4.41,2.63,10.02-.64,23.46-2.41,33.3Z"/>
    <path class="cls-74" d="m222.73,54.13V16.53c4.22,0,4.51,11.54,4.33,15.78-.29,6.88-2.27,15.96-3.32,21.82h-1.01Z"/>
    <path class="cls-74" d="m225.31,54.24h1.28c4.03-5.88,11.61-14.98,12.7-21.88,1.37-8.63-4.62-15.83-16.58-15.83,8.37,0,11.97,7.69,11.11,15.83-.73,6.9-5.82,16.01-8.51,21.88Z"/>
    <polygon class="cls-73" points="216.74 51.28 228.69 51.28 226.59 54.24 218.84 54.24 216.74 51.28"/>
    <polygon class="cls-27" points="222.73 51.28 228.69 51.28 226.59 54.24 222.73 54.24 222.73 51.28"/>
    <polygon class="cls-76" points="224.06 56.68 224.77 60.24 224.96 60.23 224.26 56.66 224.06 56.68"/>
    <path class="cls-27" d="m220.47,60.22c.06,0,4.53-.02,4.54.04l.79,4.4s-.02.05-.04.05h0c-.07,0-6.11.03-6.11-.04,0,0,.79-4.41.79-4.41,0-.02.02-.04.04-.04h0Z"/>
    <path class="cls-74" d="m222.73,56.6v-.8c.73,0,.97-.06.97.1v.6c0,.16-.24.1-.97.1Z"/>
    <path class="cls-75" d="m221.33,56.51c2.85,0,2.88-.1,2.93.17l.2,1c.02.09-.08.17-.17.17-2.98,0-3.38.1-3.32-.17l.2-1c.02-.09.08-.17.17-.17Z"/>
    <path class="cls-76" d="m222.73,57.84v-1.34h1.37c.09,0,.15.08.17.17l.2,1c.02.09-.08.17-.17.17h-1.57Z"/>
    <path class="cls-74" d="m222.73,64.71v-4.49h2.23s.88,4.48.8,4.49c0,0,0,0,0,0h0s-3.02,0-3.02,0Z"/>
    <polygon class="cls-73" points="223.72 60.22 224.04 64.71 221.39 64.71 221.71 60.22 223.72 60.22"/>
    <polygon class="cls-27" points="222.73 64.71 222.73 60.22 223.72 60.22 224.04 64.71 222.73 64.71"/>
  </g>
  <g>
    <path class="cls-29" d="m128.16,260.82c-1.64-30.99-1.5-28.04-1.5-29.06l-.02.36-.02-.36c0,1.02.14-1.93-1.5,29.06h3.05Z"/>
    <path class="cls-60" d="m133.83,219.92l-5.75.46,4.94-2.83c-.68-1.94-4.25-11.93-6.31-11.93-2.36.1-7.45,14.16-9.72,23.43l5.84,2.19-6.3-.22c-.42,1.97-.67,3.61-.67,4.67,0,5.99,4.85,10.85,10.84,10.86h.03c6,0,10.86-4.86,10.86-10.86,0-2.78-1.67-9.44-3.77-15.78Z"/>
  </g>
  <g>
    <path class="cls-29" d="m907.38,260.82c-1.8-34.04-1.65-30.8-1.65-31.92l-.02.39-.02-.39c0,1.12.15-2.12-1.65,31.92h3.35Z"/>
    <path class="cls-60" d="m913.6,215.9l-6.32.51,5.43-3.11c-.75-2.13-4.67-13.11-6.93-13.11-2.59.11-8.19,15.55-10.67,25.74l6.42,2.41-6.92-.24c-.46,2.17-.73,3.96-.73,5.13,0,6.58,5.33,11.92,11.9,11.93h.03c6.59,0,11.93-5.34,11.93-11.93,0-3.05-1.84-10.36-4.14-17.33Z"/>
  </g>
  <g>
    <path class="cls-29" d="m98.92,260.82c-1.78-33.56-1.63-30.37-1.63-31.47l-.02.39-.02-.39c0,1.1.15-2.09-1.63,31.47h3.3Z"/>
    <path class="cls-60" d="m105.06,216.53l-6.23.5,5.35-3.06c-.74-2.1-4.61-12.92-6.83-12.92-2.55.11-8.07,15.33-10.52,25.38l6.33,2.37-6.82-.24c-.46,2.14-.72,3.91-.72,5.06,0,6.49,5.25,11.75,11.74,11.76h.03c6.5,0,11.76-5.27,11.76-11.76,0-3.01-1.81-10.22-4.09-17.09Z"/>
  </g>
  <path class="cls-8" d="m23.3,90.77c-7.3,0-13.21,5.92-13.21,13.21h26.43c0-7.3-5.92-13.21-13.21-13.21Z"/>
  <path class="cls-8" d="m980.38,94.86c-7.3,0-13.21,5.92-13.21,13.21h26.43c0-7.3-5.92-13.21-13.21-13.21Z"/>
  <path class="cls-8" d="m159.48,5.18c-3.27,0-6.24,1.25-8.49,3.3-3.14-5.08-8.74-8.48-15.15-8.48-9.84,0-17.82,7.98-17.82,17.82h54.09c0-6.98-5.66-12.63-12.63-12.63Z"/>
  <path class="cls-8" d="m835.75,14.09c-3.27,0-6.24,1.25-8.49,3.3-3.14-5.08-8.74-8.48-15.15-8.48-9.84,0-17.82,7.98-17.82,17.82h54.09c0-6.98-5.66-12.63-12.63-12.63Z"/>
  <g>
    <path class="cls-51" d="m622.98,48.56c-.52-.98-2.23-5.22-8.12-7.1l.65-2.05c3.92,1.25,6.28,3.53,7.47,5,1.18-1.47,3.55-3.75,7.47-5l.65,2.05c-5.14,1.64-7.15,5.29-7.17,5.33l-.95,1.76Z"/>
    <path class="cls-51" d="m603.33,61.02c-.68-1.08-1.76-3.48-6-4.64l.57-2.07c2.75.75,4.49,2.1,5.44,3.06.95-.96,2.69-2.31,5.44-3.06l.57,2.07c-4.07,1.11-5.18,3.35-6.02,4.64Z"/>
  </g>
  <path class="cls-8" d="m384.03,69.18s0-.02,0-.03c0-11.16-9.04-20.2-20.2-20.2-6.49,0-12.25,3.06-15.95,7.81-3.59-8.23-11.8-13.99-21.35-13.99-8.24,0-15.47,4.28-19.61,10.73-3.48-2.85-7.93-4.56-12.78-4.56-11.16,0-20.2,9.04-20.2,20.2,0,.01,0,.02,0,.03h110.09Z"/>
  <path class="cls-41" d="m1008.13,294.11H0c0-8,6.49-14.49,14.49-14.49h979.14c8,0,14.49,6.48,14.49,14.49Z"/>
  <path class="cls-50" d="m1008.13,294.11c0,8-6.48,14.49-14.49,14.49H14.49c-8,0-14.49-6.49-14.49-14.49h1008.13Z"/>
  <path class="cls-50" d="m644.14,294.42c6-14.64,27.9-10.35,27.9,5.49h-47.76c2.14-9.02,13.4-12.11,19.86-5.49Z"/>
  <path class="cls-25" d="m993.59,308.47H10.08c0,7.93,9.05,14.37,20.22,14.37h943.07c11.17,0,20.22-6.43,20.22-14.37h0Z"/>
  <g>
    <polygon class="cls-67" points="831.8 152.83 686.82 152.83 646.69 199.92 791.73 199.92 831.8 152.83"/>
    <polygon class="cls-5" points="830.18 199.92 830.18 210.97 802.67 210.97 802.66 265.98 653.9 265.98 653.9 199.92 830.18 199.92"/>
    <rect class="cls-2" x="653.82" y="202.63" width="141.56" height="2.71"/>
    <polygon class="cls-18" points="831.8 152.83 791.73 199.92 792.3 202.33 792.28 265.99 866.43 265.99 866.44 202.62 831.8 152.83"/>
    <polygon class="cls-59" points="794.34 202.65 649.32 202.65 646.61 199.94 791.63 199.94 794.34 202.65"/>
    <polygon class="cls-35" points="831.71 158.31 794.34 202.65 791.63 199.94 831.79 152.83 872.12 200.21 869.69 202.62 831.71 158.31"/>
    <polygon class="cls-59" points="831.71 158.31 829.8 160.6 866.44 202.62 869.69 202.62 831.71 158.31"/>
    <polygon class="cls-2" points="792.28 205.33 796.86 205.33 829.94 165.96 862.12 202.62 866.44 202.62 829.8 160.6 794.34 202.65 792.3 202.65 792.28 205.33"/>
    <g>
      <rect class="cls-44" x="835.54" y="220.04" width="11.42" height="46.09" transform="translate(1682.49 486.17) rotate(180)"/>
      <polygon class="cls-35" points="837.77 221.2 813.82 221.2 813.69 266.01 837.63 266.01 837.77 221.2"/>
      <polygon class="cls-3" points="838.84 220.62 813.28 220.62 813.28 220.66 813.28 223.33 813.28 266.1 815.99 266.1 815.99 223.33 835.57 223.33 835.57 266.1 838.91 266.1 838.84 220.62"/>
      <rect class="cls-67" x="832.24" y="223.34" width="3.55" height="42.79"/>
      <polygon class="cls-52" points="813.3 216.63 847.84 216.63 847.88 266.13 843.79 266.13 843.79 220.72 813.3 220.72 813.3 216.63"/>
      <rect class="cls-44" x="813.23" y="216.63" width="5.14" height="4.14" transform="translate(1631.6 437.39) rotate(180)"/>
    </g>
    <rect class="cls-35" x="765.62" y="274.67" width="109.08" height="4.4"/>
    <rect class="cls-67" x="645.71" y="274.67" width="158.47" height="4.4"/>
    <g>
      <rect class="cls-66" x="675.46" y="223.98" width="23.9" height="24.96"/>
      <g>
        <polygon class="cls-15" points="673.27 221.81 675.7 224.29 699.37 224.29 699.37 221.86 699.37 221.81 673.27 221.81"/>
        <polygon class="cls-13" points="675.7 224.25 675.7 248.93 673.26 248.91 673.26 221.82 675.7 224.25"/>
      </g>
      <rect class="cls-69" x="675.7" y="224.34" width="2.71" height="24.51" transform="translate(1354.11 473.19) rotate(180)"/>
      <rect class="cls-69" x="686.24" y="213.79" width="2.71" height="23.54" transform="translate(462.03 913.15) rotate(-90)"/>
      <rect class="cls-69" x="687.69" y="225.66" width="1.38" height="23.06" transform="translate(1376.75 474.37) rotate(180)"/>
    </g>
    <g>
      <rect class="cls-66" x="713.34" y="223.98" width="23.9" height="24.96"/>
      <g>
        <polygon class="cls-15" points="711.15 221.81 713.59 224.29 737.25 224.29 737.25 221.86 737.25 221.81 711.15 221.81"/>
        <polygon class="cls-13" points="713.58 224.25 713.58 248.93 711.14 248.91 711.14 221.82 713.58 224.25"/>
      </g>
      <rect class="cls-69" x="713.58" y="224.34" width="2.71" height="24.51" transform="translate(1429.87 473.19) rotate(180)"/>
      <rect class="cls-69" x="724.12" y="213.79" width="2.71" height="23.54" transform="translate(499.92 951.03) rotate(-90)"/>
      <rect class="cls-69" x="725.57" y="225.66" width="1.38" height="23.06" transform="translate(1452.52 474.37) rotate(180)"/>
    </g>
    <g>
      <rect class="cls-66" x="751.22" y="223.98" width="23.9" height="24.96"/>
      <g>
        <polygon class="cls-15" points="749.03 221.81 751.47 224.29 775.13 224.29 775.14 221.86 775.14 221.81 749.03 221.81"/>
        <polygon class="cls-13" points="751.47 224.25 751.47 248.93 749.02 248.91 749.02 221.82 751.47 224.25"/>
      </g>
      <rect class="cls-69" x="751.47" y="224.34" width="2.71" height="24.51" transform="translate(1505.64 473.19) rotate(180)"/>
      <rect class="cls-69" x="762" y="213.79" width="2.71" height="23.54" transform="translate(537.8 988.91) rotate(-90)"/>
      <rect class="cls-69" x="763.45" y="225.66" width="1.38" height="23.06" transform="translate(1528.29 474.37) rotate(180)"/>
    </g>
    <rect class="cls-6" x="653.9" y="265.98" width="138.27" height="9.02"/>
    <rect class="cls-7" x="792.13" y="265.98" width="74.68" height="9.02"/>
    <rect class="cls-14" x="817.49" y="266.01" width="34.39" height="4.71"/>
    <rect class="cls-18" x="821.66" y="270.73" width="34.39" height="4.26"/>
    <polygon class="cls-6" points="818.03 266.01 818.03 270.81 821.68 270.81 821.68 275.01 813.39 275.01 813.39 265.99 818.03 266.01"/>
    <g>
      <circle class="cls-13" cx="831.63" cy="197.55" r="9.02"/>
      <path class="cls-66" d="m830.28,188.64c-4.34.65-7.67,4.39-7.67,8.91s3.33,8.25,7.67,8.91c4.34-.65,7.67-4.39,7.67-8.91s-3.33-8.25-7.67-8.91Z"/>
      <path class="cls-64" d="m827.57,205.47l8.74-8.71-.02-2.9-10.55,10.5c.82.7.8.73,1.83,1.11Z"/>
      <path class="cls-64" d="m835.8,191.95c-.33-.36-.7-.69-1.08-1l-10.97,10.97c.28.6.39.66.79,1.18l11.27-11.15Z"/>
      <path class="cls-69" d="m830.34,188.64c-.35.05-.68.13-1.01.22,3.83,1.04,6.65,4.53,6.65,8.69s-2.82,7.65-6.65,8.69c.33.09.67.17,1.01.22,4.34-.65,7.67-4.39,7.67-8.91s-3.33-8.25-7.67-8.91Z"/>
    </g>
    <g>
      <polygon class="cls-57" points="809.19 162.77 786.91 188.24 741.24 188.24 763.48 162.77 809.19 162.77"/>
      <path class="cls-62" d="m812.48,161.47l-49.81-.15-24.15,27.91h50.31l23.65-27.76Zm-21.23,2.57l-7.51,8.81h-11.87l7.51-8.81h11.87Zm-22.96,8.81h-11.87l7.51-8.81h11.87l-7.51,8.81Zm-14.19,2.73h11.87l-9.25,10.91h-11.87l9.25-10.91Zm15.45,0h11.87l-9.25,10.91h-11.87l9.25-10.91Zm6.2,10.91l9.25-10.91h11.87l-9.25,10.91h-11.87Zm23.45-13.64h-11.87l7.51-8.81h11.87l-7.51,8.81Z"/>
      <polygon class="cls-69" points="738.52 189.23 740.72 191.43 790.99 191.43 788.83 189.23 738.52 189.23"/>
      <polygon class="cls-22" points="788.83 189.23 812.48 161.47 814.32 163.31 790.99 191.43 788.83 189.23"/>
    </g>
    <g>
      <polygon class="cls-57" points="734.75 162.77 712.46 188.24 666.79 188.24 689.03 162.77 734.75 162.77"/>
      <path class="cls-62" d="m738.03,161.47l-49.81-.15-24.15,27.91h50.31l23.65-27.76Zm-21.23,2.57l-7.51,8.81h-11.87l7.51-8.81h11.87Zm-22.96,8.81h-11.87l7.51-8.81h11.87l-7.51,8.81Zm-14.19,2.73h11.87l-9.25,10.91h-11.87l9.25-10.91Zm15.45,0h11.87l-9.25,10.91h-11.87l9.25-10.91Zm6.2,10.91l9.25-10.91h11.87l-9.25,10.91h-11.87Zm23.45-13.64h-11.87l7.51-8.81h11.87l-7.51,8.81Z"/>
      <polygon class="cls-69" points="664.08 189.23 666.28 191.43 716.54 191.43 714.39 189.23 664.08 189.23"/>
      <polygon class="cls-22" points="714.39 189.23 738.03 161.47 739.87 163.31 716.54 191.43 714.39 189.23"/>
    </g>
    <rect class="cls-59" x="729.21" y="141.37" width="10.32" height="44.12"/>
    <polygon class="cls-35" points="748.32 174.32 748.32 141.47 739.08 141.37 739.08 185.49 739.31 185.49 748.32 174.32"/>
    <rect class="cls-35" x="739.87" y="140.84" width="10.03" height="3.83"/>
    <rect class="cls-59" x="728.03" y="140.84" width="12.29" height="3.83"/>
    <rect class="cls-63" x="729.21" y="144.62" width="9.81" height="1.63"/>
    <rect class="cls-59" x="739.08" y="144.62" width="9.19" height="1.63"/>
  </g>
  <g>
    <g>
      <rect class="cls-46" x="154.19" y="264.98" width="36.59" height="1.86"/>
      <rect class="cls-46" x="154.19" y="272.99" width="36.59" height="1.86"/>
      <polygon class="cls-10" points="159.38 279.61 156.68 279.61 156.68 262.03 158.03 259.83 159.38 262.03 159.38 279.61"/>
      <polygon class="cls-10" points="166.55 279.61 163.86 279.61 163.86 260.03 165.21 257.84 166.55 260.03 166.55 279.61"/>
      <polygon class="cls-10" points="173.73 279.61 171.03 279.61 171.03 257.84 172.38 255.64 173.73 257.84 173.73 279.61"/>
      <polygon class="cls-10" points="180.9 279.61 178.21 279.61 178.21 260.03 179.56 257.84 180.9 260.03 180.9 279.61"/>
      <polygon class="cls-10" points="188.08 279.61 185.38 279.61 185.38 262.03 186.73 259.83 188.08 262.03 188.08 279.61"/>
    </g>
    <g>
      <rect class="cls-46" x="190.18" y="264.98" width="36.59" height="1.86"/>
      <rect class="cls-46" x="190.18" y="272.99" width="36.59" height="1.86"/>
      <polygon class="cls-10" points="195.37 279.61 192.67 279.61 192.67 262.03 194.02 259.83 195.37 262.03 195.37 279.61"/>
      <polygon class="cls-10" points="202.54 279.61 199.85 279.61 199.85 260.03 201.2 257.84 202.54 260.03 202.54 279.61"/>
      <polygon class="cls-10" points="209.72 279.61 207.02 279.61 207.02 257.84 208.37 255.64 209.72 257.84 209.72 279.61"/>
      <polygon class="cls-10" points="216.89 279.61 214.2 279.61 214.2 260.03 215.55 257.84 216.89 260.03 216.89 279.61"/>
      <polygon class="cls-10" points="224.07 279.61 221.37 279.61 221.37 262.03 222.72 259.83 224.07 262.03 224.07 279.61"/>
    </g>
    <g>
      <rect class="cls-46" x="118.36" y="264.98" width="36.59" height="1.86"/>
      <rect class="cls-46" x="118.36" y="272.99" width="36.59" height="1.86"/>
      <polygon class="cls-10" points="123.55 279.61 120.85 279.61 120.85 262.03 122.2 259.83 123.55 262.03 123.55 279.61"/>
      <polygon class="cls-10" points="130.72 279.61 128.03 279.61 128.03 260.03 129.37 257.84 130.72 260.03 130.72 279.61"/>
      <polygon class="cls-10" points="137.9 279.61 135.2 279.61 135.2 257.84 136.55 255.64 137.9 257.84 137.9 279.61"/>
      <polygon class="cls-10" points="145.07 279.61 142.38 279.61 142.38 260.03 143.72 257.84 145.07 260.03 145.07 279.61"/>
      <polygon class="cls-10" points="152.25 279.61 149.55 279.61 149.55 262.03 150.9 259.83 152.25 262.03 152.25 279.61"/>
    </g>
  </g>
  <g>
    <g>
      <rect class="cls-46" x="840.93" y="264.98" width="36.59" height="1.86"/>
      <rect class="cls-46" x="840.93" y="272.99" width="36.59" height="1.86"/>
      <polygon class="cls-10" points="846.12 279.61 843.43 279.61 843.43 262.03 844.77 259.83 846.12 262.03 846.12 279.61"/>
      <polygon class="cls-10" points="853.3 279.61 850.6 279.61 850.6 260.03 851.95 257.84 853.3 260.03 853.3 279.61"/>
      <polygon class="cls-10" points="860.47 279.61 857.78 279.61 857.78 257.84 859.12 255.64 860.47 257.84 860.47 279.61"/>
      <polygon class="cls-10" points="867.65 279.61 864.95 279.61 864.95 260.03 866.3 257.84 867.65 260.03 867.65 279.61"/>
      <polygon class="cls-10" points="874.82 279.61 872.13 279.61 872.13 262.03 873.47 259.83 874.82 262.03 874.82 279.61"/>
    </g>
    <g>
      <rect class="cls-46" x="876.92" y="264.98" width="36.59" height="1.86"/>
      <rect class="cls-46" x="876.92" y="272.99" width="36.59" height="1.86"/>
      <polygon class="cls-10" points="882.11 279.61 879.42 279.61 879.42 262.03 880.76 259.83 882.11 262.03 882.11 279.61"/>
      <polygon class="cls-10" points="889.29 279.61 886.59 279.61 886.59 260.03 887.94 257.84 889.29 260.03 889.29 279.61"/>
      <polygon class="cls-10" points="896.46 279.61 893.77 279.61 893.77 257.84 895.11 255.64 896.46 257.84 896.46 279.61"/>
      <polygon class="cls-10" points="903.64 279.61 900.94 279.61 900.94 260.03 902.29 257.84 903.64 260.03 903.64 279.61"/>
      <polygon class="cls-10" points="910.81 279.61 908.12 279.61 908.12 262.03 909.46 259.83 910.81 262.03 910.81 279.61"/>
    </g>
    <g>
      <rect class="cls-46" x="805.1" y="264.98" width="36.59" height="1.86"/>
      <rect class="cls-46" x="805.1" y="272.99" width="36.59" height="1.86"/>
      <polygon class="cls-10" points="810.29 279.61 807.59 279.61 807.59 262.03 808.94 259.83 810.29 262.03 810.29 279.61"/>
      <polygon class="cls-10" points="817.46 279.61 814.77 279.61 814.77 260.03 816.12 257.84 817.46 260.03 817.46 279.61"/>
      <polygon class="cls-10" points="824.64 279.61 821.94 279.61 821.94 257.84 823.29 255.64 824.64 257.84 824.64 279.61"/>
      <polygon class="cls-10" points="831.81 279.61 829.12 279.61 829.12 260.03 830.47 257.84 831.81 260.03 831.81 279.61"/>
      <polygon class="cls-10" points="838.99 279.61 836.29 279.61 836.29 262.03 837.64 259.83 838.99 262.03 838.99 279.61"/>
    </g>
  </g>
  <g>
    <g>
      <polygon class="cls-39" points="618.14 279.39 611.12 279.39 613.08 191.21 616.58 187.41 618.14 279.39"/>
      <path class="cls-38" d="m615.36,187.41l-2.29,3.19-1.66,73.8h0c2.67,0,4.54,1.87,4.54,4.54v10.45h2.38v-14.99l-1.56-76.99h-1.41Z"/>
    </g>
    <polygon class="cls-60" points="611.09 187.01 598.19 198.35 602.88 200.07 588.9 205.24 584.46 212.57 597.21 212.44 581.25 221.81 581.25 230.41 603.43 223.54 613.15 211.62 648.46 219.01 648.46 209.83 634.91 204.02 642.24 203.38 638.67 198.35 618.31 192.72 624.81 192.72 613.15 174.5 611.09 187.01"/>
    <polygon class="cls-65" points="613.15 211.62 648.46 219.01 648.46 209.83 634.91 204.02 642.24 203.38 638.67 198.35 618.31 192.72 624.81 192.72 613.93 175.72 617.41 189.29 613.23 191.51 629.61 204.69 611.99 206.42 598.19 218.24 581.79 221.5 581.25 221.81 581.25 230.41 603.43 223.54 613.15 211.62"/>
    <polygon class="cls-60" points="611.09 159.68 598.19 171.02 602.88 172.74 588.9 177.91 584.46 185.24 597.21 185.11 581.25 194.48 581.25 203.08 603.43 196.21 613.15 184.29 648.46 191.68 648.46 182.5 634.91 176.69 642.24 176.05 638.67 171.02 618.31 165.39 624.81 165.39 613.15 147.17 611.09 159.68"/>
    <polygon class="cls-65" points="613.15 184.29 648.46 191.68 648.46 182.5 634.91 176.69 642.24 176.05 638.67 171.02 618.31 165.39 624.81 165.39 613.93 148.39 617.41 161.96 613.23 164.18 629.61 177.36 611.99 179.09 598.19 190.91 581.79 194.17 581.25 194.48 581.25 203.08 603.43 196.21 613.15 184.29"/>
  </g>
  <g>
    <path class="cls-28" d="m212.65,322.21h-70.04c-3.09,0-5.59-2.38-5.59-5.31h0c0-2.93,2.5-5.31,5.59-5.31h70.04c3.09,0,5.59,2.38,5.59,5.31h0c0,2.93-2.5,5.31-5.59,5.31Z"/>
    <path class="cls-43" d="m503.06,322.21h-83.89c-3.09,0-5.59-2.38-5.59-5.31s2.5-5.31,5.59-5.31h83.89c3.09,0,5.59,2.38,5.59,5.31h0c0,2.93-2.5,5.31-5.59,5.31Z"/>
    <path class="cls-61" d="m267.2,322.21h-9.6c-3.09,0-5.59-2.38-5.59-5.31s2.5-5.31,5.59-5.31h9.6c3.09,0,5.59,2.38,5.59,5.31h0c0,2.93-2.5,5.31-5.59,5.31Z"/>
    <path class="cls-61" d="m665.15,322.42h-9.6c-3.09,0-5.59-2.38-5.59-5.31s2.5-5.31,5.59-5.31h9.6c3.09,0,5.59,2.38,5.59,5.31h0c0,2.93-2.5,5.31-5.59,5.31Z"/>
    <g>
      <path class="cls-4" d="m343.37,300.24s-4.62,2.86-7.02,5.72c-2.41,2.86-6.82,8.52-10.43,9.11-3.61.59-40.34,0-40.34,0,0,0-10.21-2.22-10.21-9.87,0-4.01,2.31-5.6,4.43-8.12h7.82c-1.02,2.59,1.87,5.08,5.4,1.64,3.87-3.77,5.78-8,14.8-8.17,9.03-.17,18.49,3.79,22.51,3.41l-4.62,2.47c6.56.41,5.73.36,6.22.38-3.08,3.5-3.01,3.42-3.01,3.42,7.56-1.18,11.23-1.01,14.44,0h0Z"/>
      <ellipse class="cls-56" cx="282.42" cy="284.53" rx="8.45" ry="8.02"/>
      <path class="cls-16" d="m274.08,283.26s-5.52,5.76-8.53,6.14-2.61,3.84,2.41,3.15c5.01-.68,7.58-2.1,10.12-1.14v-5.25l-4-2.91Z"/>
      <path class="cls-34" d="m287.93,296.48c-.13.2-.23.41-.31.61h-7.82c3.33-3.93,1.64-4.34,8.56-18.26,0,0,7.61,5.15-.44,17.65Z"/>
      <polygon class="cls-19" points="279.8 297.08 278.21 298.79 287.42 298.79 287.62 297.08 279.8 297.08"/>
      <path class="cls-55" d="m280.34,282.6l-.53,1.32h2.89c-.68-1.32-2.35-1.32-2.35-1.32Z"/>
      <path class="cls-53" d="m328.99,300.24c-7.47,6.23-20.42,7.69-29.07,3.57,11.12,1.09,18.52.21,29.07-3.57Z"/>
      <path class="cls-53" d="m332.14,296.73c-4.33,3.69-12.06,5.45-17.65,4.11,12.58-2.37,7.86-1.32,17.65-4.11Z"/>
      <path class="cls-53" d="m278.21,298.79s-3.1,2.23-3.1,7.73,5.26,8.55,10.48,8.55c0,0-6.07-2.64-6.07-7.59,0-3.79,3.17-8.69,3.17-8.69h-4.48Z"/>
    </g>
    <g>
      <path class="cls-37" d="m175.11,307.16c-3.96,0-7.36,2.23-8.9,5.44-1.19-1.95-3.41-3.26-5.96-3.26-3.32,0-6.09,2.22-6.75,5.18h31.19c-.94-4.2-4.87-7.36-9.58-7.36Z"/>
      <g>
        <path class="cls-58" d="m241.79,294.1c.15,3.5-.51,7.72-1.24,12.51-1.68,11.09-1,10.08-1.59,15.04-1.1-1.94-1.65-6.84-1.89-9-.45-4.28.35-8.71,1.82-12.72.75-2.01,1.66-3.97,2.9-5.82Z"/>
        <path class="cls-58" d="m245.44,302.93c.02,3.32-2.49,11.06-3.42,13.62-2.12-4.05.07-10.42,3.42-13.62Z"/>
        <path class="cls-58" d="m231.56,302.93c3.37,3.23,5.52,9.59,3.42,13.62-.63-1.73-3.44-10.01-3.42-13.62Z"/>
      </g>
      <g>
        <path class="cls-58" d="m689.12,294.1c.09,2.2-.12,4.3-.36,6.38-.25,2.07-.57,4.11-.88,6.13-.31,2.02-.61,4.02-.87,6.05-.27,2.03-.47,6.81-.73,8.99-1.1-1.94-1.65-6.84-1.89-9-.23-2.17-.14-4.36.19-6.49.33-2.13.89-4.22,1.63-6.23.75-2.01,1.66-3.97,2.9-5.82Z"/>
        <path class="cls-58" d="m692.78,302.93c0,1.27-.2,2.46-.44,3.61-.25,1.15-.55,2.26-.87,3.35l-.99,3.26c-.35,1.09-.68,2.2-1.11,3.4-.6-1.15-.81-2.41-.83-3.64-.01-1.24.19-2.47.53-3.65.34-1.18.83-2.3,1.44-3.36.62-1.06,1.33-2.06,2.28-2.97Z"/>
        <path class="cls-58" d="m678.9,302.93c.95.9,1.66,1.91,2.28,2.97.61,1.06,1.09,2.18,1.44,3.36.34,1.17.54,2.4.53,3.65-.02,1.24-.23,2.5-.83,3.64-.44-1.2-.77-2.31-1.11-3.4l-.99-3.26c-.32-1.09-.62-2.2-.87-3.35-.24-1.15-.45-2.33-.44-3.61Z"/>
      </g>
      <path class="cls-37" d="m754.69,322.84H135.31c-2.89,0-5.23-2.22-5.23-4.97h0c0-2.74,2.34-4.97,5.23-4.97h619.38c2.89,0,5.23,2.22,5.23,4.97h0c0,2.74-2.34,4.97-5.23,4.97Z"/>
    </g>
    <path class="cls-61" d="m665.97,322.84h-407.96c-2.89,0-5.23-2.22-5.23-4.97s2.34-4.97,5.23-4.97h407.96c2.89,0,5.23,2.22,5.23,4.97h0c0,2.74-2.34,4.97-5.23,4.97Z"/>
  </g>
  <g>
    <rect class="cls-23" x="320.87" y="245.91" width="11.18" height="16.79"/>
    <rect class="cls-23" x="351.5" y="245.91" width="11.33" height="16.79"/>
    <rect class="cls-35" x="332.05" y="245.91" width="19.46" height="16.79"/>
    <g>
      <polygon class="cls-21" points="332.21 248.1 318.1 248.1 326.11 201.91 337.07 201.91 332.21 248.1"/>
      <polygon class="cls-12" points="351.99 248.1 332.05 248.1 336.9 201.91 347.13 201.91 351.99 248.1"/>
      <polygon class="cls-21" points="365.94 248.1 351.82 248.1 346.97 201.91 357.93 201.91 365.94 248.1"/>
      <rect class="cls-20" x="318.1" y="248.1" width="47.84" height="1.41"/>
      <polygon class="cls-1" points="358.23 204.49 325.81 204.49 326.11 202.77 357.93 202.77 358.23 204.49"/>
    </g>
    <g>
      <path class="cls-54" d="m344.49,188.18c-7.3,1.01-13.19,6.43-14.89,13.49h-4.95c.94-3.92,3.18-7.33,6.23-9.77,3.05-2.43,6.92-3.89,11.13-3.89.84,0,1.67.06,2.48.18Z"/>
      <path class="cls-20" d="m359.38,201.66h-29.78c1.7-7.06,7.58-12.48,14.89-13.49,7.3,1.01,13.19,6.43,14.89,13.49Z"/>
      <rect class="cls-54" x="324.65" y="201.66" width="4.95" height="1.23"/>
      <rect class="cls-20" x="329.6" y="201.66" width="29.78" height="1.23"/>
    </g>
    <g>
      <path class="cls-36" d="m341.51,198.05c-.77,0-1.53-.29-2.11-.87-1.17-1.17-1.17-3.06,0-4.23,1.16-1.16,3.06-1.17,4.23,0,1.17,1.17,1.17,3.06,0,4.23h0c-.58.58-1.35.87-2.11.87Zm0-4.16c-.3,0-.6.11-.83.34-.46.46-.46,1.2,0,1.65.46.45,1.2.45,1.65,0,.46-.46.46-1.2,0-1.65-.23-.23-.53-.34-.83-.34Z"/>
      <g>
        <path class="cls-36" d="m352.24,190.21l-6.08-6.08,17.43-19.04,7.69,7.69-19.04,17.43Zm-3.56-6.14l3.62,3.62,16.35-14.97-5-5-14.97,16.35Z"/>
        <rect class="cls-36" x="337.84" y="180.56" width="34.34" height="1.82" transform="translate(-24.34 304.19) rotate(-45)"/>
        <rect class="cls-36" x="360.77" y="171.02" width="1.82" height="7.5" transform="translate(-17.65 306.94) rotate(-45)"/>
        <rect class="cls-36" x="354.36" y="177.79" width="1.82" height="6.78" transform="translate(-24.06 304.28) rotate(-45)"/>
      </g>
      <g>
        <path class="cls-30" d="m352.53,190.54l-6.08-6.08,17.43-19.04,7.69,7.69-19.04,17.43Zm-3.56-6.14l3.62,3.62,16.35-14.97-5-5-14.97,16.35Z"/>
        <rect class="cls-30" x="338.13" y="180.89" width="34.34" height="1.82" transform="translate(-24.48 304.49) rotate(-45)"/>
        <rect class="cls-30" x="361.06" y="171.35" width="1.82" height="7.5" transform="translate(-17.8 307.24) rotate(-45)"/>
        <rect class="cls-30" x="354.66" y="178.12" width="1.82" height="6.78" transform="translate(-24.2 304.59) rotate(-45)"/>
      </g>
      <g>
        <path class="cls-36" d="m337.26,184.51l-6.08,6.08-19.04-17.43,7.69-7.69,17.43,19.04Zm-6.14,3.56l3.62-3.62-14.97-16.35-5,5,16.35,14.97Z"/>
        <rect class="cls-36" x="327.6" y="164.57" width="1.82" height="34.34" transform="translate(-32.29 285.52) rotate(-45)"/>
        <rect class="cls-36" x="318.07" y="174.16" width="7.5" height="1.82" transform="translate(-29.54 278.84) rotate(-45)"/>
        <rect class="cls-36" x="324.83" y="180.57" width="6.78" height="1.82" transform="translate(-32.19 285.25) rotate(-45)"/>
      </g>
      <g>
        <path class="cls-30" d="m337.59,184.22l-6.08,6.08-19.04-17.43,7.69-7.69,17.43,19.04Zm-6.14,3.56l3.62-3.62-14.97-16.35-5,5,16.35,14.97Z"/>
        <rect class="cls-30" x="327.93" y="164.28" width="1.82" height="34.34" transform="translate(-31.99 285.67) rotate(-45)"/>
        <rect class="cls-30" x="318.4" y="173.87" width="7.5" height="1.82" transform="translate(-29.24 278.99) rotate(-45)"/>
        <rect class="cls-30" x="325.16" y="180.28" width="6.78" height="1.82" transform="translate(-31.89 285.39) rotate(-45)"/>
      </g>
      <g>
        <path class="cls-36" d="m331.55,199.5l6.08,6.08-17.43,19.04-7.69-7.69,19.04-17.43Zm3.56,6.14l-3.62-3.62-16.35,14.97,5,5,14.97-16.35Z"/>
        <rect class="cls-36" x="311.62" y="207.33" width="34.34" height="1.82" transform="translate(-50.95 293.48) rotate(-45)"/>
        <rect class="cls-36" x="321.21" y="211.19" width="1.82" height="7.5" transform="translate(-57.64 290.72) rotate(-45)"/>
        <rect class="cls-36" x="327.61" y="205.14" width="1.82" height="6.78" transform="translate(-51.23 293.38) rotate(-45)"/>
      </g>
      <g>
        <path class="cls-30" d="m331.26,199.17l6.08,6.08-17.43,19.04-7.69-7.69,19.04-17.43Zm3.56,6.14l-3.62-3.62-16.35,14.97,5,5,14.97-16.35Z"/>
        <rect class="cls-30" x="311.32" y="207" width="34.34" height="1.82" transform="translate(-50.8 293.18) rotate(-45)"/>
        <rect class="cls-30" x="320.92" y="210.86" width="1.82" height="7.5" transform="translate(-57.49 290.42) rotate(-45)"/>
        <rect class="cls-30" x="327.32" y="204.81" width="1.82" height="6.78" transform="translate(-51.08 293.08) rotate(-45)"/>
      </g>
      <g>
        <path class="cls-36" d="m346.54,205.2l6.08-6.08,19.04,17.43-7.69,7.69-17.43-19.04Zm6.14-3.56l-3.62,3.62,14.97,16.35,5-5-16.35-14.97Z"/>
        <rect class="cls-36" x="354.38" y="190.8" width="1.82" height="34.34" transform="translate(-43 312.14) rotate(-45)"/>
        <rect class="cls-36" x="358.23" y="213.73" width="7.5" height="1.82" transform="translate(-45.75 318.82) rotate(-45)"/>
        <rect class="cls-36" x="352.18" y="207.32" width="6.78" height="1.82" transform="translate(-43.1 312.42) rotate(-45)"/>
      </g>
      <g>
        <path class="cls-30" d="m346.21,205.49l6.08-6.08,19.04,17.43-7.69,7.69-17.43-19.04Zm6.14-3.56l-3.62,3.62,14.97,16.35,5-5-16.35-14.97Z"/>
        <rect class="cls-30" x="354.05" y="191.09" width="1.82" height="34.34" transform="translate(-43.3 311.98) rotate(-45)"/>
        <rect class="cls-30" x="357.9" y="214.02" width="7.5" height="1.82" transform="translate(-46.05 318.68) rotate(-45)"/>
        <rect class="cls-30" x="351.85" y="207.61" width="6.78" height="1.82" transform="translate(-43.4 312.27) rotate(-45)"/>
      </g>
      <path class="cls-30" d="m342.02,198.05c-.77,0-1.53-.29-2.11-.87-1.17-1.17-1.17-3.06,0-4.23,1.16-1.16,3.06-1.17,4.23,0,1.17,1.17,1.17,3.06,0,4.23h0c-.58.58-1.35.87-2.11.87Zm0-4.16c-.3,0-.6.11-.83.34-.46.46-.46,1.2,0,1.65.46.45,1.2.45,1.65,0,.46-.46.46-1.2,0-1.65-.23-.23-.53-.34-.83-.34Z"/>
    </g>
    <rect class="cls-45" x="318.77" y="262.7" width="11.58" height="2.06"/>
    <rect class="cls-54" x="330.34" y="262.7" width="22.91" height="2.06"/>
    <rect class="cls-45" x="353.25" y="262.7" width="11.39" height="2.06"/>
    <g>
      <path class="cls-68" d="m342.28,254.23h0c2.2,0,3.99,1.79,3.99,3.99v4.48h-7.98v-4.48c0-2.2,1.79-3.99,3.99-3.99Z"/>
      <path class="cls-36" d="m344.82,258.22v4.48h-.87v-4.48c0-1.65-1.24-3.02-2.83-3.23.14-.02.29-.04.44-.04,1.8,0,3.26,1.47,3.26,3.26Z"/>
      <path class="cls-30" d="m343.95,258.22v4.48h-5.65v-4.48c0-1.65,1.23-3.02,2.83-3.23,1.59.21,2.83,1.58,2.83,3.23Z"/>
    </g>
    <rect class="cls-1" x="320.87" y="249.5" width="41.96" height="1.9"/>
    <g>
      <g>
        <path class="cls-36" d="m342.61,233.32c-.19,0-.39.02-.57.07-.1.02-.21.05-.3.09.95.35,1.63,1.27,1.63,2.34v5.25h1.74v-5.25c0-1.38-1.12-2.5-2.5-2.5Z"/>
        <path class="cls-30" d="m343.37,235.82v5.25h-3.26v-5.25c0-1.07.68-1.99,1.63-2.34.95.35,1.63,1.27,1.63,2.34Z"/>
      </g>
      <rect class="cls-9" x="340.11" y="241.06" width="6.16" height="1.33"/>
      <rect class="cls-47" x="338.77" y="241.06" width="1.82" height="1.33"/>
    </g>
    <g>
      <g>
        <path class="cls-36" d="m342.61,215.61c-.19,0-.39.02-.57.07-.1.02-.21.05-.3.09.95.35,1.63,1.27,1.63,2.34v5.25h1.74v-5.25c0-1.38-1.12-2.5-2.5-2.5Z"/>
        <path class="cls-30" d="m343.37,218.11v5.25h-3.26v-5.25c0-1.07.68-1.99,1.63-2.34.95.35,1.63,1.27,1.63,2.34Z"/>
      </g>
      <rect class="cls-9" x="340.11" y="223.36" width="6.16" height="1.33"/>
      <rect class="cls-47" x="338.77" y="223.36" width="1.82" height="1.33"/>
    </g>
  </g>
  <g>
    <g>
      <rect class="cls-46" x="471.02" y="264.86" width="36.59" height="1.86"/>
      <rect class="cls-46" x="471.02" y="272.86" width="36.59" height="1.86"/>
      <polygon class="cls-10" points="476.21 279.48 473.52 279.48 473.52 261.9 474.86 259.71 476.21 261.9 476.21 279.48"/>
      <polygon class="cls-10" points="483.39 279.48 480.69 279.48 480.69 259.91 482.04 257.71 483.39 259.91 483.39 279.48"/>
      <polygon class="cls-10" points="490.56 279.48 487.87 279.48 487.87 257.71 489.21 255.51 490.56 257.71 490.56 279.48"/>
      <polygon class="cls-10" points="497.74 279.48 495.04 279.48 495.04 259.91 496.39 257.71 497.74 259.91 497.74 279.48"/>
      <polygon class="cls-10" points="504.91 279.48 502.22 279.48 502.22 261.9 503.56 259.71 504.91 261.9 504.91 279.48"/>
    </g>
    <g>
      <rect class="cls-46" x="507.01" y="264.86" width="36.59" height="1.86"/>
      <rect class="cls-46" x="507.01" y="272.86" width="36.59" height="1.86"/>
      <polygon class="cls-10" points="512.2 279.48 509.51 279.48 509.51 261.9 510.86 259.71 512.2 261.9 512.2 279.48"/>
      <polygon class="cls-10" points="519.38 279.48 516.68 279.48 516.68 259.91 518.03 257.71 519.38 259.91 519.38 279.48"/>
      <polygon class="cls-10" points="526.55 279.48 523.86 279.48 523.86 257.71 525.21 255.51 526.55 257.71 526.55 279.48"/>
      <polygon class="cls-10" points="533.73 279.48 531.03 279.48 531.03 259.91 532.38 257.71 533.73 259.91 533.73 279.48"/>
      <polygon class="cls-10" points="540.9 279.48 538.21 279.48 538.21 261.9 539.55 259.71 540.9 261.9 540.9 279.48"/>
    </g>
    <g>
      <rect class="cls-46" x="542.98" y="264.86" width="36.59" height="1.86"/>
      <rect class="cls-46" x="542.98" y="272.86" width="36.59" height="1.86"/>
      <polygon class="cls-10" points="548.17 279.48 545.48 279.48 545.48 261.9 546.83 259.71 548.17 261.9 548.17 279.48"/>
      <polygon class="cls-10" points="555.35 279.48 552.65 279.48 552.65 259.91 554 257.71 555.35 259.91 555.35 279.48"/>
      <polygon class="cls-10" points="562.52 279.48 559.83 279.48 559.83 257.71 561.17 255.51 562.52 257.71 562.52 279.48"/>
      <polygon class="cls-10" points="569.7 279.48 567 279.48 567 259.91 568.35 257.71 569.7 259.91 569.7 279.48"/>
      <polygon class="cls-10" points="576.87 279.48 574.18 279.48 574.18 261.9 575.52 259.71 576.87 261.9 576.87 279.48"/>
    </g>
    <g>
      <rect class="cls-46" x="435.19" y="264.86" width="36.59" height="1.86"/>
      <rect class="cls-46" x="435.19" y="272.86" width="36.59" height="1.86"/>
      <polygon class="cls-10" points="440.38 279.48 437.69 279.48 437.69 261.9 439.03 259.71 440.38 261.9 440.38 279.48"/>
      <polygon class="cls-10" points="447.56 279.48 444.86 279.48 444.86 259.91 446.21 257.71 447.56 259.91 447.56 279.48"/>
      <polygon class="cls-10" points="454.73 279.48 452.03 279.48 452.03 257.71 453.38 255.51 454.73 257.71 454.73 279.48"/>
      <polygon class="cls-10" points="461.91 279.48 459.21 279.48 459.21 259.91 460.56 257.71 461.91 259.91 461.91 279.48"/>
      <polygon class="cls-10" points="469.08 279.48 466.38 279.48 466.38 261.9 467.73 259.71 469.08 261.9 469.08 279.48"/>
    </g>
  </g>
  <g>
    <g>
      <polygon class="cls-39" points="247.91 280.2 238.76 280.2 241.31 165.31 245.88 160.37 247.91 280.2"/>
      <path class="cls-38" d="m244.29,160.37l-2.98,4.15-2.17,96.15h0c3.48,0,5.91,2.44,5.91,5.91v13.62h3.1v-19.53l-2.04-100.3h-1.84Z"/>
    </g>
    <polygon class="cls-60" points="238.73 159.85 221.92 174.62 228.02 176.86 209.81 183.6 204.03 193.15 220.64 192.98 199.85 205.19 199.85 216.39 228.74 207.44 241.41 191.9 287.42 201.53 287.42 189.58 269.76 182 279.31 181.18 274.66 174.62 248.14 167.29 256.6 167.29 241.41 143.55 238.73 159.85"/>
    <polygon class="cls-65" points="241.41 191.9 287.42 201.53 287.42 189.58 269.76 182 279.31 181.18 274.66 174.62 248.14 167.29 256.6 167.29 242.43 145.13 246.97 162.81 241.51 165.7 262.86 182.88 239.9 185.13 221.92 200.54 200.55 204.78 199.85 205.19 199.85 216.39 228.74 207.44 241.41 191.9"/>
    <polygon class="cls-60" points="238.73 124.24 221.92 139.01 228.02 141.26 209.81 147.99 204.03 157.54 220.64 157.37 199.85 169.58 199.85 180.78 228.74 171.83 241.41 156.3 287.42 165.93 287.42 153.97 269.76 146.4 279.31 145.57 274.66 139.01 248.14 131.68 256.6 131.68 241.41 107.94 238.73 124.24"/>
    <polygon class="cls-65" points="241.41 156.3 287.42 165.93 287.42 153.97 269.76 146.4 279.31 145.57 274.66 139.01 248.14 131.68 256.6 131.68 242.43 109.53 246.97 127.2 241.51 130.09 262.86 147.27 239.9 149.52 221.92 164.93 200.55 169.17 199.85 169.58 199.85 180.78 228.74 171.83 241.41 156.3"/>
  </g>
</svg>