<?xml version="1.0" encoding="UTF-8"?>
<svg xmlns="http://www.w3.org/2000/svg" xmlns:xlink="http://www.w3.org/1999/xlink" viewBox="0 0 1883.19 557.46">
  <defs>
    <style>
      .cls-1 {
        fill: url(#_15);
      }

      .cls-2 {
        fill: url(#_26);
      }

      .cls-3 {
        fill: #00123a;
      }

      .cls-3, .cls-4 {
        opacity: .12;
      }

      .cls-5 {
        fill: url(#linear-gradient);
      }

      .cls-6 {
        fill: url(#_ÂÁ_Ï_ÌÌ_È_ËÂÌÚ_37);
      }

      .cls-7 {
        fill: url(#_ÂÁ_Ï_ÌÌ_È_ËÂÌÚ_13);
      }

      .cls-8 {
        opacity: .1;
      }

      .cls-9 {
        fill: #005564;
      }

      .cls-10 {
        fill: #005d6c;
      }

      .cls-11 {
        fill: #f15a24;
      }

      .cls-12 {
        fill: #eb813e;
      }

      .cls-13 {
        fill: #ffb024;
      }

      .cls-14, .cls-15, .cls-16, .cls-17 {
        fill: #fff;
      }

      .cls-18 {
        fill: #ffba00;
      }

      .cls-19 {
        fill: #ffbf66;
      }

      .cls-20 {
        fill: #ff9069;
      }

      .cls-21 {
        fill: #96a3b5;
      }

      .cls-22 {
        fill: #b8eeff;
      }

      .cls-23 {
        fill: #b3b3b3;
      }

      .cls-24 {
        fill: #8ec017;
      }

      .cls-25, .cls-26 {
        fill: #b85d28;
      }

      .cls-27, .cls-28 {
        fill: #314e5c;
      }

      .cls-29 {
        fill: #ad3215;
      }

      .cls-30 {
        fill: #d0d0dd;
      }

      .cls-31 {
        fill: #d1461c;
      }

      .cls-32 {
        fill: #c48037;
      }

      .cls-33 {
        fill: #d61e2c;
      }

      .cls-34 {
        fill: #0c1317;
      }

      .cls-35 {
        fill: #453200;
      }

      .cls-36 {
        fill: #9a9aa5;
      }

      .cls-37 {
        fill: #646a6b;
      }

      .cls-38 {
        fill: #263d47;
      }

      .cls-39 {
        fill: #3a444e;
      }

      .cls-40 {
        fill: #262e35;
      }

      .cls-41 {
        fill: #58606d;
      }

      .cls-42 {
        fill: #82888a;
      }

      .cls-43 {
        fill: #262f36;
      }

      .cls-44 {
        fill: url(#_ÂÁ_Ï_ÌÌ_È_ËÂÌÚ_13-2);
      }

      .cls-45 {
        fill: url(#_ÂÁ_Ï_ÌÌ_È_ËÂÌÚ_37-4);
      }

      .cls-46 {
        fill: url(#_ÂÁ_Ï_ÌÌ_È_ËÂÌÚ_37-5);
      }

      .cls-47 {
        fill: url(#_ÂÁ_Ï_ÌÌ_È_ËÂÌÚ_37-6);
      }

      .cls-48 {
        fill: url(#_ÂÁ_Ï_ÌÌ_È_ËÂÌÚ_37-2);
      }

      .cls-49 {
        fill: url(#_ÂÁ_Ï_ÌÌ_È_ËÂÌÚ_37-3);
      }

      .cls-50 {
        opacity: .15;
      }

      .cls-50, .cls-28, .cls-51 {
        mix-blend-mode: multiply;
      }

      .cls-50, .cls-51 {
        fill: #606060;
      }

      .cls-28, .cls-15, .cls-52 {
        opacity: .2;
      }

      .cls-53 {
        fill: url(#_26-2);
      }

      .cls-51 {
        opacity: .25;
      }

      .cls-54 {
        fill: url(#linear-gradient-8);
      }

      .cls-55 {
        fill: url(#linear-gradient-9);
      }

      .cls-56 {
        fill: url(#linear-gradient-3);
      }

      .cls-57 {
        fill: url(#linear-gradient-4);
      }

      .cls-58 {
        fill: url(#linear-gradient-2);
      }

      .cls-59 {
        fill: url(#linear-gradient-6);
      }

      .cls-60 {
        fill: url(#linear-gradient-7);
      }

      .cls-61 {
        fill: url(#linear-gradient-5);
      }

      .cls-62 {
        opacity: .14;
      }

      .cls-63 {
        opacity: .3;
      }

      .cls-64, .cls-26, .cls-65, .cls-17 {
        opacity: .4;
      }

      .cls-66 {
        fill: url(#linear-gradient-10);
      }

      .cls-67 {
        isolation: isolate;
      }

      .cls-16 {
        opacity: .6;
      }

      .cls-65 {
        fill: #9ee2f2;
      }
    </style>
    <linearGradient id="_ÂÁ_Ï_ÌÌ_È_ËÂÌÚ_37" data-name="¡ÂÁ˚ÏˇÌÌ˚È „‡‰ËÂÌÚ 37" x1="1415.45" y1="428.19" x2="1415.45" y2="389.04" gradientUnits="userSpaceOnUse">
      <stop offset="0" stop-color="#efa13c"/>
      <stop offset="1" stop-color="#efaf5b"/>
    </linearGradient>
    <linearGradient id="_ÂÁ_Ï_ÌÌ_È_ËÂÌÚ_37-2" data-name="¡ÂÁ˚ÏˇÌÌ˚È „‡‰ËÂÌÚ 37" y1="425.58" y2="391.65" xlink:href="#_ÂÁ_Ï_ÌÌ_È_ËÂÌÚ_37"/>
    <linearGradient id="_ÂÁ_Ï_ÌÌ_È_ËÂÌÚ_37-3" data-name="¡ÂÁ˚ÏˇÌÌ˚È „‡‰ËÂÌÚ 37" x1="1441.55" x2="1441.55" xlink:href="#_ÂÁ_Ï_ÌÌ_È_ËÂÌÚ_37"/>
    <linearGradient id="_ÂÁ_Ï_ÌÌ_È_ËÂÌÚ_37-4" data-name="¡ÂÁ˚ÏˇÌÌ˚È „‡‰ËÂÌÚ 37" x1="1441.55" y1="425.58" x2="1441.55" y2="391.65" xlink:href="#_ÂÁ_Ï_ÌÌ_È_ËÂÌÚ_37"/>
    <linearGradient id="_ÂÁ_Ï_ÌÌ_È_ËÂÌÚ_37-5" data-name="¡ÂÁ˚ÏˇÌÌ˚È „‡‰ËÂÌÚ 37" x1="1421.98" y1="389.04" x2="1421.98" y2="349.89" xlink:href="#_ÂÁ_Ï_ÌÌ_È_ËÂÌÚ_37"/>
    <linearGradient id="_ÂÁ_Ï_ÌÌ_È_ËÂÌÚ_37-6" data-name="¡ÂÁ˚ÏˇÌÌ˚È „‡‰ËÂÌÚ 37" x1="1421.98" y1="386.43" x2="1421.98" y2="352.5" xlink:href="#_ÂÁ_Ï_ÌÌ_È_ËÂÌÚ_37"/>
    <linearGradient id="_ÂÁ_Ï_ÌÌ_È_ËÂÌÚ_13" data-name="¡ÂÁ˚ÏˇÌÌ˚È „‡‰ËÂÌÚ 13" x1="1376.36" y1="439.5" x2="1376.36" y2="406.88" gradientUnits="userSpaceOnUse">
      <stop offset="0" stop-color="#2e2729"/>
      <stop offset="1" stop-color="#433d3f"/>
    </linearGradient>
    <linearGradient id="_ÂÁ_Ï_ÌÌ_È_ËÂÌÚ_13-2" data-name="¡ÂÁ˚ÏˇÌÌ˚È „‡‰ËÂÌÚ 13" x1="1290.87" x2="1290.87" xlink:href="#_ÂÁ_Ï_ÌÌ_È_ËÂÌÚ_13"/>
    <linearGradient id="_26" data-name="  26" x1="1199.5" y1="448.76" x2="1199.5" y2="355.28" gradientTransform="translate(1646.92) rotate(-180) scale(1 -1)" gradientUnits="userSpaceOnUse">
      <stop offset=".14" stop-color="#c9e3ff"/>
      <stop offset=".37" stop-color="#cce4ff"/>
      <stop offset=".58" stop-color="#d7eaff"/>
      <stop offset=".79" stop-color="#eaf3ff"/>
      <stop offset=".79" stop-color="#ebf4ff"/>
    </linearGradient>
    <linearGradient id="linear-gradient" x1="409.04" y1="383.3" x2="419.1" y2="383.3" gradientTransform="translate(828.14 766.6) rotate(-180)" gradientUnits="userSpaceOnUse">
      <stop offset="0" stop-color="#3cacf0"/>
      <stop offset="1" stop-color="#66c5ff"/>
    </linearGradient>
    <linearGradient id="linear-gradient-2" x1="736.68" y1="380.2" x2="799.51" y2="380.2" gradientTransform="matrix(1,0,0,1,0,0)" xlink:href="#linear-gradient"/>
    <linearGradient id="_26-2" data-name="  26" x1="1092.02" y1="479.78" x2="1092.02" y2="432.82" xlink:href="#_26"/>
    <linearGradient id="_15" data-name="  15" x1="1141.73" y1="471.77" x2="1141.73" y2="441.48" gradientTransform="translate(1646.92) rotate(-180) scale(1 -1)" gradientUnits="userSpaceOnUse">
      <stop offset=".21" stop-color="#9abce3"/>
      <stop offset=".81" stop-color="#c9e3ff"/>
    </linearGradient>
    <linearGradient id="linear-gradient-3" x1="650.68" x2="660.75" gradientTransform="translate(1311.44 766.6) rotate(-180)" xlink:href="#linear-gradient"/>
    <linearGradient id="linear-gradient-4" x1="610.41" x2="620.48" gradientTransform="translate(1230.89 766.6) rotate(-180)" xlink:href="#linear-gradient"/>
    <linearGradient id="linear-gradient-5" x1="570.13" x2="580.2" gradientTransform="translate(1150.34 766.6) rotate(-180)" xlink:href="#linear-gradient"/>
    <linearGradient id="linear-gradient-6" x1="529.86" x2="539.93" gradientTransform="translate(1069.79 766.6) rotate(-180)" xlink:href="#linear-gradient"/>
    <linearGradient id="linear-gradient-7" x1="489.58" x2="499.65" gradientTransform="translate(989.24 766.6) rotate(-180)" xlink:href="#linear-gradient"/>
    <linearGradient id="linear-gradient-8" x1="449.31" x2="459.38" gradientTransform="translate(908.69 766.6) rotate(-180)" xlink:href="#linear-gradient"/>
    <linearGradient id="linear-gradient-9" x1="368.76" x2="378.83" gradientTransform="translate(747.59 766.6) rotate(-180)" xlink:href="#linear-gradient"/>
    <linearGradient id="linear-gradient-10" x1="328.49" x2="338.56" gradientTransform="translate(667.04 766.6) rotate(-180)" xlink:href="#linear-gradient"/>
  </defs>
  <g class="cls-67">
    <g id="Layer_1" data-name="Layer 1">
      <rect class="cls-27" y="294.17" width="1883.19" height="263.29"/>
      <rect class="cls-24" y="281.91" width="1883.19" height="12.28"/>
      <rect class="cls-38" y="294.17" width="1883.19" height="14.58"/>
      <g>
        <rect class="cls-42" x="1679.19" y="248.4" width="2.58" height="36.99"/>
        <rect class="cls-42" x="1666.17" y="249.87" width="2.58" height="36.99" transform="translate(298.63 1257.67) rotate(-45)"/>
        <rect class="cls-42" x="1672.76" y="250.02" width="1.58" height="20.76" transform="translate(2672.67 1628.01) rotate(-134.99)"/>
        <rect class="cls-42" x="1675.38" y="282.41" width="10.21" height="7"/>
        <rect class="cls-37" x="1684.98" y="279.43" width="6.67" height="14.71" rx="1.34" ry="1.34"/>
        <rect class="cls-37" x="1669.47" y="279.43" width="6.67" height="14.71" rx="1.34" ry="1.34"/>
        <rect class="cls-42" x="1578.7" y="248.4" width="2.58" height="36.99" transform="translate(3159.98 533.78) rotate(180)"/>
        <rect class="cls-42" x="1591.72" y="249.87" width="2.58" height="36.99" transform="translate(2529.84 1584.44) rotate(-135.01)"/>
        <rect class="cls-42" x="1586.13" y="250.02" width="1.58" height="20.76" transform="translate(280.67 1198.39) rotate(-45)"/>
        <rect class="cls-42" x="1574.88" y="282.41" width="10.21" height="7" transform="translate(3159.98 571.81) rotate(180)"/>
        <rect class="cls-37" x="1568.82" y="279.43" width="6.67" height="14.71" rx="1.34" ry="1.34" transform="translate(3144.31 573.58) rotate(180)"/>
        <rect class="cls-37" x="1584.34" y="279.43" width="6.67" height="14.71" rx="1.34" ry="1.34" transform="translate(3175.35 573.58) rotate(180)"/>
        <path class="cls-22" d="m1634.75,210.59h-8.41c-1.87,0-3.33-1.59-3.18-3.45l1.94-23.92.36-4.4.24-2.89.36-4.4.26-3.21,1.05-12.91c.14-1.66,1.52-2.93,3.18-2.93.83,0,1.59.32,2.16.85.57.52.95,1.26,1.02,2.09l1.05,12.91.26,3.21.36,4.4.24,2.89.36,4.4,1.94,23.92c.15,1.86-1.32,3.45-3.18,3.45Z"/>
        <path class="cls-19" d="m1634.75,210.59h-8.41c-1.87,0-3.33-1.59-3.18-3.45l1.12-13.77.82-10.14.36-4.4.24-2.89.36-4.4.26-3.21,1.05-12.91c.14-1.66,1.52-2.93,3.18-2.93.83,0,1.59.32,2.16.85.57.52.95,1.26,1.02,2.09l1.05,12.91.26,3.21.36,4.4.24,2.89.36,4.4.84,10.34,1.1,13.57c.15,1.86-1.32,3.45-3.18,3.45Z"/>
        <path class="cls-12" d="m1634.78,168.31h-8.46l1.05-12.91c.14-1.66,1.52-2.93,3.18-2.93.83,0,1.59.32,2.16.85.57.52.95,1.26,1.02,2.09l1.05,12.91Z"/>
        <path class="cls-50" d="m1634.75,210.59h-8.41c-1.87,0-3.33-1.59-3.18-3.45l1.12-13.77c1.84-.27,3.72-.41,5.63-.41,2.36,0,4.68.21,6.92.61l1.1,13.57c.15,1.86-1.32,3.45-3.18,3.45Z"/>
        <path class="cls-19" d="m1597.3,259.57l-8.34-3.28-75.12-29.58-6.37-2.51-7.15-2.82-6.37-2.51-5.75-2.26-20.48-8.06s0-3.25,2.53-3.98c.71-.2,10.53,2.17,24.29,5.7,2.04.52,4.17,1.07,6.37,1.64,2.28.59,4.63,1.2,7.05,1.83,2.57.67,5.21,1.36,7.9,2.06,2.31.61,4.66,1.23,7.03,1.85,25.89,6.83,53.74,14.35,64.16,17.16,2.72.74,4.26,1.15,4.26,1.15l5.98,23.6Z"/>
        <path class="cls-19" d="m1467.73,208.56l20.48,8.06,6.35-6.34c-13.77-3.53-23.59-5.9-24.29-5.7-2.53.73-2.53,3.98-2.53,3.98Z"/>
        <path class="cls-12" d="m1493.96,218.88l6.37,2.51,7.64-7.64c-2.41-.63-4.77-1.24-7.05-1.83l-6.97,6.97Z"/>
        <path class="cls-12" d="m1507.48,219.32l6.37,1.05,9.05-3.79c-2.37-.26-4.71-.52-7.03-.78l-8.39,3.51Z"/>
        <path class="cls-50" d="m1591.32,235.98l5.98,23.6-8.34-3.28-1.24-9.3c-.33-1.69-.56-3.42-.69-5.17l-.03-.22h0c-.07-1.02-.11-2.03-.11-3.07,0-1.25.05-2.48.16-3.7,2.72.74,4.26,1.15,4.26,1.15Z"/>
        <path class="cls-19" d="m1793.37,208.56l-20.48,8.06-5.75,2.26-6.37,2.51-7.15,2.82-6.37,2.51-75.03,29.54-8.42,3.32,5.98-23.6s1.54-.42,4.27-1.16c10.43-2.82,38.27-10.32,64.15-17.16,2.37-.62,4.71-1.24,7.03-1.85,2.68-.7,5.32-1.39,7.9-2.06,2.41-.63,4.77-1.24,7.05-1.83,2.2-.57,4.33-1.12,6.37-1.64,13.76-3.53,23.59-5.9,24.29-5.7,2.53.73,2.53,3.98,2.53,3.98Z"/>
        <path class="cls-50" d="m1674.09,241.59h.11l-1.99,14.66-8.42,3.32,5.98-23.6s1.54-.42,4.27-1.16c.11,1.22.16,2.46.16,3.71,0,1.03-.05,2.05-.11,3.07Z"/>
        <path class="cls-19" d="m1793.37,208.56l-20.48,8.06-6.35-6.34c13.76-3.53,23.59-5.9,24.29-5.7,2.53.73,2.53,3.98,2.53,3.98Z"/>
        <path class="cls-12" d="m1767.14,218.88l-6.37,2.51-7.64-7.64c2.41-.63,4.77-1.24,7.05-1.83l6.97,6.97Z"/>
        <path class="cls-12" d="m1753.62,224.21l-6.37,2.51-9.05-9.05c2.37-.62,4.71-1.24,7.03-1.85l8.39,8.39Z"/>
        <path class="cls-19" d="m1607.56,219.4l-2.43,4.24c-.54.94-3.68,2.2-5.25,1.2,0,0-3.41-2.41-8.33-5.92-12.85-9.15-36-25.77-35.61-26.33.4-.56,26.72,11.32,41.17,17.89,5.47,2.5,9.24,4.23,9.24,4.23,1.66.85,1.75,3.75,1.21,4.69Z"/>
        <path class="cls-50" d="m1607.56,219.4l-2.43,4.24c-.54.94-3.68,2.2-5.25,1.2,0,0-3.41-2.41-8.33-5.92,1.53-3.03,3.4-5.86,5.56-8.44,5.47,2.5,9.24,4.23,9.24,4.23,1.66.85,1.75,3.75,1.21,4.69Z"/>
        <path class="cls-19" d="m1670.22,220.28c-3.87,2.76-6.42,4.56-6.42,4.56-1.57,1-4.71-.26-5.25-1.2l-2.43-4.24c-.54-.94-.45-3.84,1.21-4.69,0,0,2.93-1.35,7.38-3.37,13.9-6.33,42.62-19.33,43.03-18.75.42.59-25.22,18.94-37.52,27.69Z"/>
        <path class="cls-50" d="m1663.8,224.84c-1.57,1-4.71-.26-5.25-1.2l-2.43-4.24c-.54-.94-.45-3.84,1.21-4.69,0,0,2.93-1.35,7.38-3.37,2.18,2.74,4.04,5.73,5.51,8.94-3.87,2.76-6.42,4.56-6.42,4.56Z"/>
        <path class="cls-19" d="m1669.76,241.3h.1l-2.75,20.27c-.68,4.99-3.25,9.31-6.92,12.28-3.3,2.68-7.5,4.26-12.03,4.26h-35.19c-4.61,0-8.88-1.64-12.21-4.4-3.59-2.98-6.08-7.26-6.74-12.19l-2.05-15.36c-.3-1.52-.51-3.08-.62-4.66l-.03-.2h0c-.06-.91-.1-1.83-.1-2.76,0-21.71,17.6-39.31,39.31-39.31s39.31,17.6,39.31,39.31c0,.93-.04,1.85-.1,2.76Z"/>
        <path class="cls-9" d="m1663.6,233.4c-.28.77-2.24,2.88-5.16,5.5-.77.69-1.61,1.42-2.49,2.16-2.97,2.5-6.54,5.21-10.19,7.57-4.8,3.1-9.75,5.57-13.72,6.09-.51.07-1.01.1-1.48.1-2.17,0-4.74-.74-7.48-1.94-3.4-1.49-7.04-3.7-10.49-6.11-7.78-5.44-14.55-11.9-15.08-13.37-.4-1.11-.17-3.38.47-5.67.9-3.21,2.63-6.45,4.6-6.51.06,0,.12,0,.19,0,1.5.1,4.74,1.96,8.72,4.13,5.82,3.18,13.23,7.02,19.07,7.03h0c1.13,0,2.32-.15,3.55-.4,3.93-.82,8.21-2.79,12.12-4.81,1-.52,1.98-1.04,2.92-1.56,4.37-2.38,7.92-4.45,9.38-4.4,3.38.12,6.03,9.53,5.07,12.18Z"/>
        <path class="cls-10" d="m1630.56,232.4v22.43c-10.98,0-32.09-18.78-33.05-21.43-.96-2.65,1.69-12.06,5.07-12.18,3.37-.12,17.97,11.16,27.98,11.18Z"/>
        <path class="cls-50" d="m1660.36,273.67l-.16.17c-3.3,2.68-7.5,4.26-12.03,4.26h-35.19c-4.61,0-8.88-1.64-12.21-4.4l-.03-.03s25.57-15.06,29.8-15.06,29.81,15.06,29.81,15.06Z"/>
        <g class="cls-52">
          <path class="cls-14" d="m1645.76,248.63c-4.8,3.1-9.75,5.57-13.72,6.09l-20.56-29.36c5.82,3.18,13.23,7.02,19.07,7.03h0c1.13,0,2.32-.15,3.55-.4l11.65,16.64Z"/>
          <path class="cls-14" d="m1658.44,238.9c-.77.69-1.61,1.42-2.49,2.16l-9.72-13.88c1-.52,1.98-1.04,2.92-1.56l9.29,13.28Z"/>
          <path class="cls-14" d="m1623.08,252.89c-3.4-1.49-7.04-3.7-10.49-6.11l-14.62-19.04c.9-3.21,2.63-6.45,4.6-6.51.06,0,.12,0,.19,0l20.32,31.66Z"/>
        </g>
        <circle class="cls-12" cx="1715.86" cy="246.31" r="16.24"/>
        <circle class="cls-37" cx="1715.86" cy="246.31" r="13.99"/>
        <path class="cls-51" d="m1704.12,248.56c0-7.73,6.26-13.99,13.99-13.99,3.29,0,6.31,1.14,8.7,3.04-2.56-3.22-6.51-5.29-10.95-5.29-7.73,0-13.99,6.26-13.99,13.99,0,4.44,2.07,8.39,5.29,10.95-1.9-2.39-3.04-5.41-3.04-8.7Z"/>
        <path class="cls-12" d="m1719.8,246.31c0,2.18-1.76,3.94-3.94,3.94s-3.94-1.76-3.94-3.94,1.76-3.94,3.94-3.94,3.94,1.76,3.94,3.94Z"/>
        <path class="cls-12" d="m1561.06,246.31c0,8.97-7.27,16.24-16.24,16.24s-16.24-7.27-16.24-16.24,7.27-16.24,16.24-16.24,16.24,7.27,16.24,16.24Z"/>
        <circle class="cls-37" cx="1544.82" cy="246.31" r="13.99"/>
        <path class="cls-51" d="m1533.08,248.56c0-7.73,6.26-13.99,13.99-13.99,3.29,0,6.31,1.14,8.7,3.04-2.56-3.22-6.51-5.29-10.95-5.29-7.73,0-13.99,6.26-13.99,13.99,0,4.44,2.07,8.39,5.29,10.95-1.9-2.39-3.04-5.41-3.04-8.7Z"/>
        <path class="cls-12" d="m1548.76,246.31c0,2.18-1.76,3.94-3.94,3.94s-3.94-1.76-3.94-3.94,1.76-3.94,3.94-3.94,3.94,1.76,3.94,3.94Z"/>
        <path class="cls-51" d="m1599.07,230.15c-.4-.69-.17-2.12.47-3.56.9-2.02,2.63-4.05,4.6-4.1.06,0,.12,0,.19,0,1.5.07,4.74,1.23,8.72,2.6,5.82,2,13.23,4.42,19.07,4.42h0c1.13,0,2.32-.09,3.55-.25,3.93-.52,8.21-1.75,12.12-3.03,1-.33,1.98-.66,2.92-.98,4.37-1.49,7.92-2.8,9.38-2.77.52.01,1.02.16,1.49.41-.86-.96-1.92-1.65-3.05-1.68-1.46-.03-5.01,1.27-9.38,2.77-.94.32-1.92.65-2.92.98-3.91,1.27-8.2,2.51-12.12,3.03-1.23.16-2.42.25-3.55.25h0c-5.84,0-13.25-2.42-19.07-4.42-3.98-1.37-7.22-2.53-8.72-2.6-.07,0-.13,0-.19,0-1.97.04-3.7,2.08-4.6,4.1-.64,1.44-.87,2.87-.47,3.56.14.24.7.69,1.58,1.28,0,0,0,0-.01-.01Z"/>
      </g>
      <g>
        <path class="cls-28" d="m845.86,499.15H44.27c-2.7,0-4.91-2.98-4.91-6.61h0c0-3.64,2.21-6.61,4.91-6.61h801.59c2.7,0,4.91,2.98,4.91,6.61h0c0,3.64-2.21,6.61-4.91,6.61Z"/>
        <g>
          <g>
            <rect class="cls-6" x="1402.4" y="389.04" width="26.1" height="39.15"/>
            <g class="cls-63">
              <path d="m1402.4,389.04v39.15h26.1v-39.15h-26.1Zm25.78,38.83h-25.45v-38.5h25.45v38.5Z"/>
            </g>
            <rect class="cls-32" x="1405.01" y="391.65" width="20.88" height="33.93"/>
            <g class="cls-52">
              <rect x="1421.33" y="418.41" width="2.61" height="5.22"/>
            </g>
            <g class="cls-52">
              <rect x="1406.97" y="394.26" width="5.22" height="1.31"/>
            </g>
            <g class="cls-52">
              <rect x="1421.33" y="411.88" width="2.61" height="5.22"/>
            </g>
            <g class="cls-52">
              <path d="m1405.01,391.65v33.93h20.88v-33.93h-20.88Zm20.23,33.28h-19.58v-32.63h19.58v32.63Z"/>
            </g>
            <g class="cls-52">
              <rect x="1413.5" y="392.3" width="3.92" height="32.63"/>
            </g>
            <rect class="cls-48" x="1414.15" y="391.65" width="2.61" height="33.93"/>
          </g>
          <g>
            <rect class="cls-49" x="1428.5" y="389.04" width="26.1" height="39.15"/>
            <g class="cls-63">
              <path d="m1428.5,389.04v39.15h26.1v-39.15h-26.1Zm25.78,38.83h-25.45v-38.5h25.45v38.5Z"/>
            </g>
            <rect class="cls-32" x="1431.11" y="391.65" width="20.88" height="33.93"/>
            <g class="cls-52">
              <rect x="1447.43" y="418.41" width="2.61" height="5.22"/>
            </g>
            <g class="cls-52">
              <rect x="1433.07" y="394.26" width="5.22" height="1.31"/>
            </g>
            <g class="cls-52">
              <rect x="1447.43" y="411.88" width="2.61" height="5.22"/>
            </g>
            <g class="cls-52">
              <path d="m1431.11,391.65v33.93h20.88v-33.93h-20.88Zm20.23,33.28h-19.58v-32.63h19.58v32.63Z"/>
            </g>
            <g class="cls-52">
              <rect x="1439.6" y="392.3" width="3.92" height="32.63"/>
            </g>
            <rect class="cls-45" x="1440.25" y="391.65" width="2.61" height="33.93"/>
          </g>
          <g>
            <rect class="cls-46" x="1408.93" y="349.89" width="26.1" height="39.15"/>
            <g class="cls-63">
              <path d="m1408.93,349.89v39.15h26.1v-39.15h-26.1Zm25.78,38.83h-25.45v-38.5h25.45v38.5Z"/>
            </g>
            <rect class="cls-32" x="1411.54" y="352.5" width="20.88" height="33.93"/>
            <g class="cls-52">
              <rect x="1427.85" y="379.25" width="2.61" height="5.22"/>
            </g>
            <g class="cls-52">
              <rect x="1413.5" y="355.11" width="5.22" height="1.31"/>
            </g>
            <g class="cls-52">
              <rect x="1427.85" y="372.73" width="2.61" height="5.22"/>
            </g>
            <g class="cls-52">
              <path d="m1411.54,352.5v33.93h20.88v-33.93h-20.88Zm20.23,33.28h-19.58v-32.63h19.58v32.63Z"/>
            </g>
            <g class="cls-52">
              <rect x="1420.02" y="353.15" width="3.92" height="32.63"/>
            </g>
            <rect class="cls-47" x="1420.67" y="352.5" width="2.61" height="33.93"/>
          </g>
          <g>
            <rect class="cls-21" x="1379.62" y="326.61" width="1.96" height="86.14"/>
            <g class="cls-52">
              <rect x="1380.92" y="326.61" width=".65" height="86.14"/>
            </g>
            <path class="cls-39" d="m1372.2,394.05l-7.85,4.55h-17.9v.8h25.92c0-1.71-.05-3.48-.17-5.35Z"/>
            <path class="cls-41" d="m1384.19,430.8h9.14v-109.63c0-.72-.58-1.31-1.3-1.31h-13.05c-.72,0-1.31.58-1.31,1.31v4.68c0,.35.14.68.38.92l5.76,5.76c.24.24.38.58.38.92v97.34Z"/>
            <path class="cls-39" d="m1340.39,389.55h-33.68c-.79-6.98-1.65-16.74-1.65-26.21,0-14.42,5.38-33.46,5.38-33.46h-4.64s-5.47,14.46-6.45,30.78c-1.05,17.49-.07,25.69-.07,25.69h0c0,4.94,2.75,9.23,6.8,11.44v.02c1.86,1.01,3.98,1.59,6.25,1.59h35.31c0-3.83-.65-9.85-7.25-9.85Z"/>
            <g class="cls-52">
              <path d="m1312.33,398.1c-2.26,0-4.39-.58-6.25-1.59v-.02c-4.05-2.21-6.8-6.5-6.8-11.44h0s-.39-3.25-.41-10.02c-.02,7.65.41,11.32.41,11.32h0c0,4.94,2.75,9.23,6.8,11.44v.02c1.86,1.01,3.98,1.59,6.25,1.59h35.31c0-.41-.01-.85-.03-1.31h-35.28Z"/>
            </g>
            <path class="cls-41" d="m1399.85,430.8h-3.92v-30.67c0-1.08.88-1.96,1.96-1.96h0c1.08,0,1.96.88,1.96,1.96v30.67Z"/>
            <rect class="cls-39" x="1393.32" y="404.7" width="2.61" height="19.58"/>
            <path class="cls-41" d="m1457.92,428.86c0,.36-.28.65-.64.67l-28.4,1.28h-29.04v-2.61h57.41c.37,0,.67.3.67.67h0Z"/>
            <path class="cls-41" d="m1374.98,399.4h-2.61c0-9.61-1.69-21.29-5.84-40.31-.37-1.69-.71-3.33-1.04-4.93-3.03-14.62-5.04-24.27-17.91-24.27h-41.76c0-1.44,1.17-2.61,2.61-2.61h39.15c15,0,17.41,11.63,20.47,26.35.33,1.59.67,3.23,1.04,4.91,4.19,19.22,5.9,31.06,5.9,40.87Z"/>
            <path class="cls-39" d="m1364.35,380.69l-9.31-8.43c-.26-.24-.66-.22-.9.03l-1.77,1.81c-.22.22-.25.56-.08.82l7.32,11.03,3.93,3.61.81-8.86Z"/>
            <path class="cls-40" d="m1352.87,368.16l1.85-1.85c.25-.25.25-.67,0-.92h0c-.25-.25-.67-.25-.92,0l-8.31,8.31c-.25.25-.25.67,0,.92h0c.25.25.67.25.92,0l1.85-1.85c.25-.25.67-.25.92,0l.92.92c.25.25.67.25.92,0l2.77-2.77c.25-.25.25-.67,0-.92l-.92-.92c-.25-.25-.25-.67,0-.92Z"/>
            <path class="cls-39" d="m1329.13,389.58h-15.01c-.54,0-.98-.44-.98-.98h0c0-.54.44-.98.98-.98h15.01c.54,0,.98.44.98.98h0c0,.54-.44.98-.98.98Z"/>
            <path class="cls-39" d="m1329.13,385.66h-15.01c-.54,0-.98-.44-.98-.98h0c0-.54.44-.98.98-.98h15.01c.54,0,.98.44.98.98h0c0,.54-.44.98-.98.98Z"/>
            <path class="cls-40" d="m1324.71,373.95h-7.88v-2.25h7.88c.62,0,1.13.5,1.13,1.13h0c0,.62-.5,1.13-1.13,1.13Z"/>
            <g class="cls-52">
              <path d="m1324.71,373.3h-7.88v.65h7.88c.62,0,1.13-.5,1.13-1.13,0-.11-.02-.22-.05-.33-.14.46-.56.8-1.07.8Z"/>
            </g>
            <path class="cls-40" d="m1331.09,387.62h-18.92c-.54,0-.98-.44-.98-.98h0c0-.54.44-.98.98-.98h18.92c.54,0,.98.44.98.98h0c0,.54-.44.98-.98.98Z"/>
            <path class="cls-40" d="m1335.05,381.61h0c0-1.16-.94-2.09-2.09-2.09h-16.31s.28-2.06.84-4.13c.56-2.06.94-5.23.28-8.91-.84-4.71-6.32-10.5-8.35-9.38-1.88,1.03-.28,4.2.75,9.01,1.41,6.57-.28,9.76-.75,12.67-.47,2.91.19,4.94,4.41,4.94h19.13c1.16,0,2.09-.94,2.09-2.09Z"/>
            <g class="cls-52">
              <path d="m1340.06,384.02h-24.87c-4.33,0-5.77-1.64-5.89-4.19-.16,3.03,1.1,5.03,5.89,5.03h24.87c1.5,0,2.72-1.22,2.72-2.72,0-.15-.02-.29-.04-.42-.2,1.3-1.32,2.3-2.68,2.3Z"/>
            </g>
            <path class="cls-39" d="m1370.51,379.56s-9.16-.41-9.16,5.57,10.85,8.92,10.86,8.93c-.25-4.23-.8-8.95-1.69-14.49Z"/>
            <polygon class="cls-40" points="1353.97 372.45 1353.12 371.6 1351.8 372.92 1352.64 373.81 1353.97 372.45"/>
            <path class="cls-18" d="m1374.98,432.03h-78.3l-19.58-13.05v-27.41c0-2.88,2.34-5.22,5.22-5.22h16.97c0,7.21,5.84,13.05,13.05,13.05h62.64v32.63Z"/>
            <g class="cls-4">
              <path d="m1279.71,391.57c0-2.88,2.34-5.22,5.22-5.22h-2.61c-2.88,0-5.22,2.34-5.22,5.22v27.41l19.58,13.05h2.61l-15.66-13.05-3.92-27.41Z"/>
            </g>
            <g class="cls-8">
              <polygon class="cls-35" points="1374.98 428.19 1277.1 417.06 1277.1 432.03 1374.98 432.03 1374.98 428.19"/>
            </g>
            <path class="cls-25" d="m1374.98,403.01c-10.51.71-18.85,9.49-18.85,20.18,0,3.17.73,6.17,2.04,8.84h16.82v-29.01Z"/>
            <g class="cls-52">
              <path d="m1358.08,425.15c0-10.02,7.32-18.35,16.89-19.95v-2.19c-10.51.71-18.85,9.49-18.85,20.18,0,3.17.73,6.17,2.04,8.84h1.13c-.78-2.15-1.21-4.46-1.21-6.88Z"/>
            </g>
            <path class="cls-25" d="m1311.1,423.19c0-11.15-9.07-20.23-20.23-20.23-5.32,0-10.16,2.07-13.78,5.43v23.63h31.97c1.3-2.67,2.04-5.67,2.04-8.84Z"/>
            <g class="cls-52">
              <path d="m1290.87,402.96c-5.32,0-10.16,2.07-13.78,5.43v.35c3.33-2.41,7.41-3.83,11.82-3.83,11.15,0,20.23,9.07,20.23,20.23,0,2.41-.43,4.73-1.21,6.88h1.13c1.3-2.67,2.04-5.67,2.04-8.84,0-11.15-9.07-20.23-20.23-20.23Z"/>
            </g>
            <g>
              <path class="cls-7" d="m1392.67,423.19c0,9.01-7.3,16.31-16.31,16.31s-16.31-7.3-16.31-16.31,7.3-16.31,16.31-16.31,16.31,7.3,16.31,16.31Z"/>
              <g class="cls-52">
                <path d="m1376.36,410.14c-7.2,0-13.05,5.85-13.05,13.05s5.85,13.05,13.05,13.05,13.05-5.85,13.05-13.05-5.85-13.05-13.05-13.05Zm0,24.14c-6.12,0-11.09-4.98-11.09-11.09s4.98-11.09,11.09-11.09,11.09,4.98,11.09,11.09-4.98,11.09-11.09,11.09Z"/>
              </g>
              <g class="cls-52">
                <path d="m1376.36,431.67c-4.68,0-8.48-3.81-8.48-8.48s3.81-8.48,8.48-8.48,8.48,3.81,8.48,8.48-3.81,8.48-8.48,8.48Z"/>
              </g>
              <path class="cls-36" d="m1376.36,429.72c-3.6,0-6.53-2.93-6.53-6.53s2.93-6.53,6.53-6.53,6.53,2.93,6.53,6.53-2.93,6.53-6.53,6.53Z"/>
              <g class="cls-52">
                <path d="m1376.36,417.97c3.38,0,6.16,2.58,6.49,5.87.02-.21.03-.43.03-.65,0-3.6-2.93-6.53-6.53-6.53s-6.53,2.93-6.53,6.53c0,.22.01.44.03.65.33-3.29,3.11-5.87,6.49-5.87Z"/>
              </g>
              <g class="cls-52">
                <path d="m1376.36,427.11c-1.8,0-3.26-1.46-3.26-3.26s1.46-3.26,3.26-3.26,3.26,1.46,3.26,3.26-1.46,3.26-3.26,3.26Z"/>
              </g>
              <circle class="cls-43" cx="1376.36" cy="423.19" r="3.26"/>
              <path class="cls-30" d="m1376.36,416.01c-3.96,0-7.18,3.22-7.18,7.18s3.22,7.18,7.18,7.18,7.18-3.22,7.18-7.18-3.22-7.18-7.18-7.18Zm0,13.7c-3.6,0-6.53-2.93-6.53-6.53s2.93-6.53,6.53-6.53,6.53,2.93,6.53,6.53-2.93,6.53-6.53,6.53Z"/>
            </g>
            <g>
              <circle class="cls-44" cx="1290.87" cy="423.19" r="16.31"/>
              <g class="cls-52">
                <path d="m1290.87,410.14c-7.2,0-13.05,5.85-13.05,13.05s5.85,13.05,13.05,13.05,13.05-5.85,13.05-13.05-5.85-13.05-13.05-13.05Zm0,24.14c-6.12,0-11.09-4.98-11.09-11.09s4.98-11.09,11.09-11.09,11.09,4.98,11.09,11.09-4.98,11.09-11.09,11.09Z"/>
              </g>
              <g class="cls-52">
                <path d="m1290.87,431.67c-4.68,0-8.48-3.81-8.48-8.48s3.81-8.48,8.48-8.48,8.48,3.81,8.48,8.48-3.81,8.48-8.48,8.48Z"/>
              </g>
              <circle class="cls-36" cx="1290.87" cy="423.19" r="6.53"/>
              <g class="cls-52">
                <path d="m1290.87,417.97c3.38,0,6.16,2.58,6.49,5.87.02-.21.03-.43.03-.65,0-3.6-2.93-6.53-6.53-6.53s-6.53,2.93-6.53,6.53c0,.22.01.44.03.65.33-3.29,3.11-5.87,6.49-5.87Z"/>
              </g>
              <g class="cls-52">
                <path d="m1290.87,427.11c-1.8,0-3.26-1.46-3.26-3.26s1.46-3.26,3.26-3.26,3.26,1.46,3.26,3.26-1.46,3.26-3.26,3.26Z"/>
              </g>
              <circle class="cls-43" cx="1290.87" cy="423.19" r="3.26"/>
              <path class="cls-30" d="m1290.87,416.01c-3.96,0-7.18,3.22-7.18,7.18s3.22,7.18,7.18,7.18,7.18-3.22,7.18-7.18-3.22-7.18-7.18-7.18Zm0,13.7c-3.6,0-6.53-2.93-6.53-6.53s2.93-6.53,6.53-6.53,6.53,2.93,6.53,6.53-2.93,6.53-6.53,6.53Z"/>
            </g>
            <path class="cls-13" d="m1358.57,433.49c-.23,0-.46-.12-.57-.34-1.65-3.04-2.52-6.48-2.52-9.95,0-11.51,9.37-20.88,20.88-20.88,2.55,0,5.05.46,7.41,1.35.34.13.51.5.38.84-.13.34-.5.51-.84.38-2.22-.84-4.55-1.27-6.95-1.27-10.79,0-19.58,8.78-19.58,19.58,0,3.26.82,6.49,2.36,9.33.17.32.05.71-.26.89-.1.05-.21.08-.31.08Z"/>
            <rect class="cls-33" x="1277.1" y="393.85" width="1.62" height="6.53"/>
            <g class="cls-64">
              <polygon class="cls-25" points="1347.97 408.62 1316.74 408.62 1316.66 408.57 1294.5 395.3 1294.5 386.35 1295.16 386.35 1295.16 394.93 1316.92 407.97 1347.32 407.97 1347.32 399.4 1347.97 399.4 1347.97 408.62"/>
            </g>
            <rect class="cls-26" x="1316.74" y="408.62" width=".65" height="23.41"/>
            <path class="cls-39" d="m1388.75,404.92h0c-.72,0-1.3-.58-1.3-1.31v-69.17c0-.72.58-1.3,1.3-1.3h0c.72,0,1.31.58,1.31,1.3v69.17c0,.72-.58,1.31-1.31,1.31Z"/>
            <rect class="cls-25" x="1282.47" y="393.85" width="7.83" height=".65"/>
            <rect class="cls-25" x="1282.47" y="396.46" width="7.83" height=".65"/>
            <rect class="cls-25" x="1282.47" y="399.07" width="7.83" height=".65"/>
          </g>
        </g>
        <g>
          <rect class="cls-38" x="721.85" y="441.04" width="24.13" height="11.53" transform="translate(1467.83 893.61) rotate(180)"/>
          <polygon class="cls-38" points="731.63 473.57 725.15 463.81 725.15 448.73 733.91 448.73 733.91 461.15 731.63 468.25 731.63 473.57"/>
          <polygon class="cls-38" points="460.79 463.51 464.6 456.71 462.69 443.11 472.85 442.68 472.85 459.67 465.61 468.25 460.79 463.51"/>
          <path class="cls-23" d="m448.72,472.39c0,7.76,5.4,14.05,12.06,14.05s12.06-6.29,12.06-14.05-5.4-14.05-12.06-14.05-12.06,6.29-12.06,14.05Z"/>
          <path class="cls-34" d="m448.72,472.39c0,7.76,5.4,14.05,12.06,14.05s12.06-6.29,12.06-14.05-5.4-14.05-12.06-14.05-12.06,6.29-12.06,14.05Zm6.09,0c0-3.83,2.68-6.95,5.97-6.95s5.97,3.12,5.97,6.95-2.68,6.95-5.97,6.95-5.97-3.12-5.97-6.95Z"/>
          <path class="cls-2" d="m64.11,381.9c0,16.86,150.85,49.68,210.27,59.44,59.43,9.76,294.84,7.1,383.22,7.1s168.37-4.44,172.94-23.07c4.57-18.63-78.47-70.09-119.61-70.09s-315.41.89-388.55,4.44c-73.14,3.55-258.27,4.44-258.27,22.18Z"/>
          <path class="cls-62" d="m73.56,375.57c33.92,17.65,150.34,42.58,200.82,50.87,59.43,9.76,294.84,7.1,383.22,7.1,80.06,0,153.25-3.64,169.71-18.18,2.66,3.85,3.91,7.29,3.24,10-4.57,18.63-84.57,23.07-172.94,23.07s-323.79,2.66-383.22-7.1c-59.43-9.76-210.27-42.58-210.27-59.44,0-2.4,3.41-4.49,9.45-6.32Z"/>
          <rect class="cls-5" x="409.04" y="373.92" width="10.07" height="18.76" rx="1.72" ry="1.72" transform="translate(828.14 766.6) rotate(180)"/>
          <path class="cls-64" d="m413.06,373.92h2.01c2.22,0,4.03,2.1,4.03,4.69v2.34c0-2.59-1.8-4.69-4.03-4.69h-2.01c-2.22,0-4.03,2.1-4.03,4.69v-2.34c0-2.59,1.8-4.69,4.03-4.69Z"/>
          <path class="cls-29" d="m310.7,444.63c73.65,0,223.48-13.05,278.84-11.81,55.35,1.24,122.38,8.81,178.53,11.81-30.64,2.85-69.65,3.8-110.47,3.8-76.32,0-262.27,1.98-349.87-3.76.94-.03,1.92-.04,2.97-.04Z"/>
          <path class="cls-15" d="m318.81,402.02c62.43.29,204.73,5.18,291.6,8.88,86.87,3.7,191.7-9.17,213.38,0h0c5.07,5.68,7.67,10.73,6.76,14.46-1.6,6.52-12.46,11.3-29.66,14.76-11.85-5.53-27.43-10.17-47.11-11.03-53.7-2.34-167.14-8.05-238.29-7.95-71.15.1-232.92,7.17-303.45,8.23h0c-46.98-9.96-101.14-23.3-129.07-34.64,55.47,18.79,173.43,7,235.85,7.29Z"/>
          <path class="cls-11" d="m109.09,369.62l-32.79-152.74h28.95c19.05,0,92.95,113.56,92.95,113.56l65.51,31.36h0c-51.11,1.57-113.36,3.48-154.61,7.83Z"/>
          <path class="cls-17" d="m105.25,220.43c-17.84-2.96-28.95-3.55-28.95-3.55h28.95c19.05,0,92.95,113.56,92.95,113.56l65.51,31.36-65.51-27.81s-74.09-110.43-92.95-113.56Z"/>
          <path class="cls-31" d="m442.98,448.44l-45.94-52.35-19.05-41.7h9.9l33.52,36.37s76.95,25.73,96.76,28.39c14.65,1.97,35.55,3.94,45.44,4.83,3.17.29,5.6,3.37,5.6,7.07v17.64c-39.26.11-83.63.13-126.24-.25Z"/>
          <path class="cls-8" d="m397.04,396.09l45.94,52.35c-3.64-.03-7.27-.07-10.87-.11l-37.08-49.9-15.85-40.39c.16,0,.32,0,.48,0l17.38,38.06Z"/>
          <ellipse class="cls-23" cx="731.63" cy="477.71" rx="7.49" ry="8.72"/>
          <path class="cls-34" d="m724.14,477.71c0,4.82,3.35,8.72,7.49,8.72s7.49-3.91,7.49-8.72-3.35-8.72-7.49-8.72-7.49,3.91-7.49,8.72Zm3.05,0c0-2.85,1.99-5.17,4.44-5.17s4.44,2.32,4.44,5.17-1.99,5.18-4.44,5.18-4.44-2.32-4.44-5.18Z"/>
          <path class="cls-58" d="m768.83,390.77l-30.24-14.31c-3.1-1.47-2.2-6.84,1.15-6.84h22.17c13.27,6.1,26.4,13.54,37.61,21.14h-30.68Z"/>
          <path class="cls-53" d="m575.39,432.86l-52.34,4.21s2.93,2.79,2.93,19.04-2.91,18.96-2.91,18.96l52.35,4.67c6.1.59,11.33-5.02,11.33-12.15v-22.59c0-7.14-5.25-12.75-11.35-12.14Z"/>
          <path class="cls-1" d="m524.76,441.48c.64,2.84,1.22,7.4,1.22,14.63,0,8.18-.77,12.95-1.52,15.66-14.7-3.01-40.06-9.12-40.06-15.48,0-5.64,26.52-11.92,40.35-14.81Z"/>
          <path class="cls-52" d="m522.49,456.11c0-6.67-.49-11.04-1.07-13.91,1.17-.25,2.3-.5,3.34-.71.64,2.84,1.22,7.4,1.22,14.63,0,8.18-.77,12.95-1.52,15.66-1.05-.22-2.17-.45-3.31-.69.69-2.81,1.34-7.43,1.34-14.97Z"/>
          <path class="cls-3" d="m109.09,369.62l-21.68-100.97c10.73,38.72,29.01,88.7,69.39,90.77,40.38,2.07,82.77,2.38,106.9,2.38h0c-51.11,1.57-113.36,3.48-154.61,7.83Z"/>
          <path class="cls-31" d="m575.84,432.87c5.91-.29,10.9,5.17,10.9,12.13v22.59c0,6.96-4.99,12.42-10.9,12.14v-46.85Z"/>
          <polygon class="cls-11" points="378 354.39 397.04 396.09 421.42 390.77 387.9 354.39 378 354.39"/>
          <polygon class="cls-16" points="378 354.39 387.9 354.39 421.42 390.77 387.9 356.74 378 354.39"/>
          <path class="cls-31" d="m98.39,385.57l-23.62-22.62h25.9s73.9,16.86,73.9,22.62-19.43,4.88-29.71,4.88-46.47-4.88-46.47-4.88Z"/>
          <path class="cls-11" d="m168.18,389.29c0-5.77-67.51-26.35-67.51-26.35,0,0,73.9,16.86,73.9,22.62,0,2.12-2.63,3.33-6.46,4.03.01-.11.07-.2.07-.31Z"/>
          <path class="cls-64" d="m689.35,378.64v35.49c0,2.6,1.82,4.72,4.06,4.72h15.24c2.24,0,4.06-2.12,4.06-4.72v-35.49c0-2.6-1.82-4.72-4.06-4.72h-15.24c-2.24,0-4.06,2.12-4.06,4.72Zm.96,0c0-1.99,1.39-3.6,3.1-3.6h15.24c1.71,0,3.1,1.62,3.1,3.6v35.49c0,1.99-1.39,3.6-3.1,3.6h-15.24c-1.71,0-3.1-1.62-3.1-3.6v-35.49Z"/>
          <rect class="cls-56" x="650.68" y="373.92" width="10.07" height="18.76" rx="1.72" ry="1.72" transform="translate(1311.44 766.6) rotate(180)"/>
          <path class="cls-64" d="m657.11,373.92h3.21c3.55,0,6.43,1.12,6.43,2.5v1.25c0-1.38-2.88-2.5-6.43-2.5h-3.21c-3.55,0-6.43,1.12-6.43,2.5v-1.25c0-1.38,2.88-2.5,6.43-2.5Z"/>
          <rect class="cls-57" x="610.41" y="373.92" width="10.07" height="18.76" rx="1.72" ry="1.72" transform="translate(1230.89 766.6) rotate(180)"/>
          <rect class="cls-61" x="570.13" y="373.92" width="10.07" height="18.76" rx="1.72" ry="1.72" transform="translate(1150.34 766.6) rotate(180)"/>
          <rect class="cls-59" x="529.86" y="373.92" width="10.07" height="18.76" rx="1.72" ry="1.72" transform="translate(1069.79 766.6) rotate(180)"/>
          <rect class="cls-60" x="489.58" y="373.92" width="10.07" height="18.76" rx="1.72" ry="1.72" transform="translate(989.24 766.6) rotate(180)"/>
          <rect class="cls-54" x="449.31" y="373.92" width="10.07" height="18.76" rx="1.72" ry="1.72" transform="translate(908.69 766.6) rotate(180)"/>
          <rect class="cls-55" x="368.76" y="373.92" width="10.07" height="18.76" rx="1.72" ry="1.72" transform="translate(747.59 766.6) rotate(180)"/>
          <rect class="cls-66" x="328.49" y="373.92" width="10.07" height="18.76" rx="1.72" ry="1.72" transform="translate(667.04 766.6) rotate(180)"/>
          <path class="cls-64" d="m614.44,373.92h2.01c2.22,0,4.03,2.1,4.03,4.69v2.34c0-2.59-1.8-4.69-4.03-4.69h-2.01c-2.22,0-4.03,2.1-4.03,4.69v-2.34c0-2.59,1.8-4.69,4.03-4.69Z"/>
          <path class="cls-64" d="m574.16,373.92h2.01c2.22,0,4.03,2.1,4.03,4.69v2.34c0-2.59-1.8-4.69-4.03-4.69h-2.01c-2.22,0-4.03,2.1-4.03,4.69v-2.34c0-2.59,1.8-4.69,4.03-4.69Z"/>
          <path class="cls-64" d="m533.89,373.92h2.01c2.22,0,4.03,2.1,4.03,4.69v2.34c0-2.59-1.8-4.69-4.03-4.69h-2.01c-2.22,0-4.03,2.1-4.03,4.69v-2.34c0-2.59,1.8-4.69,4.03-4.69Z"/>
          <path class="cls-64" d="m493.61,373.92h2.01c2.22,0,4.03,2.1,4.03,4.69v2.34c0-2.59-1.8-4.69-4.03-4.69h-2.01c-2.22,0-4.03,2.1-4.03,4.69v-2.34c0-2.59,1.8-4.69,4.03-4.69Z"/>
          <path class="cls-64" d="m453.34,373.92h2.01c2.22,0,4.03,2.1,4.03,4.69v2.34c0-2.59-1.8-4.69-4.03-4.69h-2.01c-2.22,0-4.03,2.1-4.03,4.69v-2.34c0-2.59,1.8-4.69,4.03-4.69Z"/>
          <path class="cls-64" d="m372.79,373.92h2.01c2.22,0,4.03,2.1,4.03,4.69v2.34c0-2.59-1.8-4.69-4.03-4.69h-2.01c-2.22,0-4.03,2.1-4.03,4.69v-2.34c0-2.59,1.8-4.69,4.03-4.69Z"/>
          <path class="cls-64" d="m332.51,373.92h2.01c2.22,0,4.03,2.1,4.03,4.69v2.34c0-2.59-1.8-4.69-4.03-4.69h-2.01c-2.22,0-4.03,2.1-4.03,4.69v-2.34c0-2.59,1.8-4.69,4.03-4.69Z"/>
          <polygon class="cls-20" points="83.69 236.44 131.12 261.57 86.91 251.41 83.69 236.44"/>
          <polygon class="cls-20" points="89.03 261.11 154.17 293.25 92.24 276.07 89.03 261.11"/>
          <path class="cls-8" d="m525.82,462.06h60.93v5.53c0,2.19-.54,4.21-1.4,5.98l-60.56-3.09c.43-1.94.82-4.67,1.03-8.41Z"/>
        </g>
        <path class="cls-28" d="m1439.91,451.67h-170.98c-.58,0-1.05-3.47-1.05-7.71h0c0-4.24.47-7.71,1.05-7.71h170.98c.58,0,1.05,3.47,1.05,7.71h0c0,4.24-.47,7.71-1.05,7.71Z"/>
      </g>
      <g>
        <path class="cls-65" d="m1524.07,68.92c2.93-13.63-7.68-27.08-21.82-27.08-18.72,0-12.73-21.01-34.01-29.39-19.04-7.5-41.22,1.78-49.3,20.57-20.78-5.04-38.02,12.95-30.5,32.96-48.87,9.88,130.58,14.69,135.64,2.94"/>
        <path class="cls-65" d="m1646.06,85.1c-2.6-13.2-17.48-20.17-29.18-14.36-1.33-12.95-10.57-23.57-23.29-26.29-45.26-9.68-56.18,36.38-53.26,38.2,6.68,4.16,104.31,5.14,105.73,2.45"/>
        <path class="cls-65" d="m1731.14,43.59c-1.54-24.3-52.94-33.28-52.24-3.11-16.45,6.27,54.78,6.25,52.24,3.11"/>
        <path class="cls-65" d="m575.65,143.07c-2.74-12.75,7.18-25.32,20.41-25.32,17.51,0,11.91-19.65,31.81-27.49,17.81-7.01,38.55,1.67,46.11,19.24,19.43-4.71,35.56,12.11,28.53,30.83,45.7,9.24-122.12,13.73-126.85,2.75"/>
        <path class="cls-65" d="m154.58,22.23c-1.54-24.3-52.94-33.28-52.24-3.11-16.45,6.27,54.78,6.25,52.24,3.11"/>
        <path class="cls-65" d="m833.91,172.84c-1.54-24.3-52.94-33.28-52.24-3.11-16.45,6.27,54.78,6.25,52.24,3.11"/>
      </g>
    </g>
  </g>
</svg>