<?xml version="1.0" encoding="UTF-8"?>
<svg xmlns="http://www.w3.org/2000/svg" viewBox="0 0 1883.19 286.23">
  <defs>
    <style>
      .cls-1 {
        fill: none;
      }

      .cls-2 {
        fill: #f7a491;
      }

      .cls-3 {
        fill: #f8a492;
      }

      .cls-4 {
        fill: #f48c7f;
      }

      .cls-5 {
        fill: #f47458;
      }

      .cls-6 {
        fill: #f9f8f4;
      }

      .cls-7 {
        fill: #f7cc7f;
      }

      .cls-8 {
        fill: #eae544;
      }

      .cls-9 {
        fill: #f5f5f5;
      }

      .cls-10 {
        fill: #e59029;
      }

      .cls-11 {
        fill: #fff;
      }

      .cls-12, .cls-13 {
        fill: #e9a756;
      }

      .cls-14 {
        fill: #fae0b2;
      }

      .cls-15 {
        fill: #fdfcea;
      }

      .cls-16 {
        fill: #999;
      }

      .cls-17 {
        fill: #7ebc69;
      }

      .cls-18 {
        fill: #a0a09f;
      }

      .cls-19 {
        fill: #b75742;
      }

      .cls-20 {
        fill: #9da0a8;
      }

      .cls-21 {
        fill: #b96e14;
      }

      .cls-22, .cls-23 {
        fill: #9daeb4;
      }

      .cls-24 {
        fill: #9e7a7a;
      }

      .cls-25 {
        fill: #917171;
      }

      .cls-26 {
        fill: #c1c63f;
      }

      .cls-27 {
        fill: #babcbe;
      }

      .cls-28 {
        fill: #b2b4aa;
      }

      .cls-29 {
        fill: #be5533;
      }

      .cls-30 {
        fill: #a7a9ab;
      }

      .cls-31 {
        fill: #afc928;
      }

      .cls-32 {
        fill: #c7c8ca;
      }

      .cls-33 {
        fill: #dddbdb;
      }

      .cls-34 {
        fill: #dddd58;
      }

      .cls-35, .cls-36, .cls-37 {
        fill: #cbccce;
      }

      .cls-38 {
        fill: #dbddb8;
      }

      .cls-39 {
        fill: #13375b;
      }

      .cls-40 {
        fill: #434445;
      }

      .cls-41 {
        fill: #355389;
      }

      .cls-42 {
        fill: #34a0d6;
      }

      .cls-43 {
        fill: #184655;
      }

      .cls-44 {
        fill: #3c8f7c;
      }

      .cls-45 {
        fill: #727272;
      }

      .cls-46 {
        fill: #95979a;
      }

      .cls-47 {
        fill: #466eb6;
      }

      .cls-48 {
        fill: #88cc75;
      }

      .cls-49 {
        fill: #6d4f43;
      }

      .cls-50 {
        fill: #2b4366;
      }

      .cls-51 {
        fill: #2a2c2c;
      }

      .cls-52 {
        fill: #48494b;
      }

      .cls-53 {
        fill: #3b3d3f;
      }

      .cls-54 {
        fill: #3c5580;
      }

      .cls-55 {
        fill: #828487;
      }

      .cls-56 {
        fill: #2e3230;
      }

      .cls-57 {
        fill: #5f6062;
      }

      .cls-58, .cls-59 {
        fill: #5f6163;
      }

      .cls-60 {
        fill: #5d615f;
      }

      .cls-61, .cls-62, .cls-63, .cls-64, .cls-65 {
        fill: #7a7a7d;
      }

      .cls-66 {
        fill: #4f362e;
      }

      .cls-67 {
        fill: #7a7d84;
      }

      .cls-68 {
        fill: #762b16;
      }

      .cls-69 {
        fill: #50bfa5;
      }

      .cls-62, .cls-59, .cls-70, .cls-36, .cls-13, .cls-71, .cls-63, .cls-72 {
        mix-blend-mode: multiply;
      }

      .cls-70 {
        fill: #c8a279;
      }

      .cls-73 {
        opacity: .1;
      }

      .cls-73, .cls-74 {
        isolation: isolate;
      }

      .cls-63, .cls-72 {
        opacity: .32;
      }

      .cls-75 {
        fill: #797a7d;
      }

      .cls-75, .cls-64, .cls-37, .cls-23, .cls-76, .cls-77, .cls-78 {
        mix-blend-mode: screen;
      }

      .cls-76 {
        fill: #ec994b;
      }

      .cls-77 {
        fill: #edc826;
      }

      .cls-65 {
        opacity: .5;
      }
    </style>
  </defs>
  <g class="cls-74">
    <g id="Layer_1" data-name="Layer 1">
      <g>
        <g>
          <path class="cls-34" d="m1056.58,138.03s-12.08-44.94-54.48-32.1c-4.97,1.49-10.46-28.85-41.92-16.57,0,0-10.19-37.2-49.92-21.88,0,0-18.26-39.46-74.28-26.1-10.74,2.57-26.51,10.8-28.94,34.16,0,0-29.77-37.9-57.35,4.66,0,0-63.09-19-68,29.4,0,0-20.15,16.04-1.03,30.13l375.93-1.69h-.01Z"/>
          <path class="cls-26" d="m1056.53,139.25s-12.19-41.34-54.56-29.66c-4.95,1.35-10.54-26.55-41.94-15.34,0,0-10.3-34.25-49.99-20.27,0,0-18.35-36.31-74.34-24.2-10.76,2.31-26.5,9.84-28.85,31.31,0,0-29.86-34.95-57.33,4.12,0,0-63.14-17.64-67.92,26.83,0,0-20.1,14.68-.94,27.68l375.87-.47h0Z"/>
        </g>
        <g>
          <path class="cls-34" d="m1227.83,141.9s-9.4-35-42.43-25c-3.87,1.16-8.16-22.47-32.66-12.9,0,0-7.93-28.97-38.88-17.04,0,0-14.22-30.73-57.86-20.33-8.37,2-20.65,8.42-22.54,26.6,0,0-23.19-29.51-44.66,3.63,0,0-49.14-14.8-52.96,22.9,0,0-15.69,12.5-.8,23.47l292.79-1.32h0Z"/>
          <path class="cls-26" d="m1227.79,142.86s-9.49-32.2-42.48-23.1c-3.85,1.05-8.21-20.68-32.66-11.95,0,0-8.03-26.68-38.94-15.79,0,0-14.29-28.28-57.89-18.85-8.39,1.8-20.64,7.66-22.47,24.39,0,0-23.26-27.22-44.65,3.21,0,0-49.18-13.74-52.9,20.89,0,0-15.66,11.43-.73,21.56l292.74-.36h-.02Z"/>
        </g>
        <g>
          <path class="cls-34" d="m308.97,147.01s-9.41-35-42.43-25c-3.87,1.16-8.15-22.47-32.66-12.9,0,0-7.93-28.97-38.88-17.04,0,0-14.22-30.73-57.86-20.33-8.37,2-20.65,8.42-22.54,26.6,0,0-23.19-29.51-44.66,3.63,0,0-49.14-14.8-52.96,22.9,0,0-15.69,12.5-.8,23.47l292.79-1.32h0Z"/>
          <path class="cls-31" d="m308.93,147.96s-9.49-32.2-42.48-23.1c-3.85,1.05-8.21-20.68-32.66-11.95,0,0-8.03-26.68-38.95-15.79,0,0-14.29-28.28-57.89-18.85-8.38,1.8-20.64,7.66-22.47,24.39,0,0-23.26-27.22-44.65,3.21,0,0-49.18-13.74-52.9,20.89,0,0-15.66,11.43-.73,21.56l292.74-.36h0Z"/>
        </g>
        <g>
          <path class="cls-8" d="m756.22,145.89s-19.36-65.95-87.33-47.12c-7.96,2.19-16.77-42.34-67.2-24.31,0,0-16.33-54.59-80.02-32.11,0,0-29.27-57.91-119.07-38.3-17.22,3.76-42.5,15.85-46.39,50.13,0,0-47.72-55.62-91.93,6.84,0,0-101.13-27.88-109,43.15,0,0-32.3,23.55-1.65,44.22l602.59-2.48v-.02Z"/>
          <path class="cls-31" d="m756.13,147.68s-19.54-60.67-87.45-43.53c-7.92,1.99-16.89-38.97-67.23-22.52,0,0-16.5-50.28-80.14-29.76,0,0-29.42-53.3-119.16-35.51-17.24,3.39-42.47,14.43-46.24,45.95,0,0-47.87-51.28-91.9,6.05,0,0-101.21-25.89-108.88,39.37,0,0-32.21,21.55-1.5,40.63l602.5-.69h0Z"/>
        </g>
        <g>
          <path class="cls-8" d="m1594.31,141.86s-15.16-43.56-68.38-31.12c-6.22,1.44-13.13-27.97-52.61-16.06,0,0-12.79-36.06-62.66-21.21,0,0-22.92-38.25-93.23-25.3-13.48,2.49-33.27,10.47-36.32,33.11,0,0-37.35-36.74-71.97,4.51,0,0-79.18-18.42-85.34,28.5,0,0-25.3,15.56-1.3,29.21l471.8-1.64h.01Z"/>
          <path class="cls-31" d="m1594.24,143.04s-15.31-40.08-68.46-28.75c-6.21,1.32-13.23-25.73-52.63-14.87,0,0-12.94-33.21-62.75-19.65,0,0-23.03-35.2-93.3-23.46-13.5,2.24-33.26,9.54-36.21,30.35,0,0-37.47-33.87-71.95,3.99,0,0-79.25-17.1-85.24,26,0,0-25.22,14.24-1.18,26.84l471.73-.46h-.01Z"/>
        </g>
        <g>
          <path class="cls-8" d="m1883.19,129.27s-15.16-45.49-68.38-32.5c-6.22,1.51-13.13-29.21-52.61-16.77,0,0-12.79-37.66-62.65-22.15,0,0-22.92-39.95-93.23-26.42-13.48,2.6-33.27,10.93-36.32,34.58,0,0-37.35-38.37-71.97,4.72,0,0-79.18-19.24-85.34,29.76,0,0-25.3,16.24-1.3,30.5l471.8-1.72h0Z"/>
          <path class="cls-31" d="m1883.11,130.51s-15.31-41.86-68.47-30.03c-6.21,1.37-13.23-26.88-52.63-15.54,0,0-12.94-34.67-62.75-20.52,0,0-23.03-36.76-93.3-24.5-13.51,2.33-33.26,9.96-36.21,31.7,0,0-37.47-35.37-71.95,4.17,0,0-79.25-17.85-85.24,27.16,0,0-25.22,14.87-1.18,28.03l471.73-.47h0Z"/>
        </g>
        <g>
          <path class="cls-34" d="m1593.21,138.83s-10.39-38.66-46.87-27.62c-4.27,1.28-9-24.82-36.06-14.25,0,0-8.76-31.99-42.94-18.82,0,0-15.71-33.94-63.9-22.45-9.24,2.2-22.81,9.29-24.9,29.38,0,0-25.61-32.61-49.32,4,0,0-54.27-16.34-58.5,25.29,0,0-17.34,13.8-.88,25.92l323.37-1.45Z"/>
          <path class="cls-26" d="m1593.16,139.89s-10.5-35.57-46.93-25.52c-4.26,1.17-9.07-22.83-36.07-13.2,0,0-8.87-29.46-43.01-17.43,0,0-15.79-31.23-63.95-20.81-9.25,1.98-22.8,8.46-24.82,26.93,0,0-25.68-30.06-49.32,3.54,0,0-54.31-15.17-58.43,23.08,0,0-17.28,12.63-.8,23.81l323.32-.4h0Z"/>
        </g>
        <rect class="cls-16" x=".32" y="143.66" width="1882.86" height="97.58"/>
        <g>
          <rect class="cls-45" x=".32" y="129.17" width="1882.86" height="44.99"/>
          <rect class="cls-45" y="241.24" width="1882.86" height="44.99"/>
        </g>
        <rect class="cls-6" x=".32" y="167.16" width="1882.86" height="7"/>
        <g>
          <rect class="cls-11" x="782.63" y="206.57" width="71.25" height="1.29"/>
          <g>
            <rect class="cls-11" x="15.02" y="206.57" width="82.57" height="1.29"/>
            <rect class="cls-11" x="139.49" y="206.57" width="82.59" height="1.29"/>
            <rect class="cls-11" x="275.88" y="206.57" width="82.57" height="1.29"/>
            <rect class="cls-11" x="400.34" y="206.57" width="82.59" height="1.29"/>
            <rect class="cls-11" x="530.22" y="206.57" width="82.57" height="1.29"/>
            <rect class="cls-11" x="654.67" y="206.57" width="82.6" height="1.29"/>
          </g>
          <g>
            <rect class="cls-11" x="1116.5" y="206.57" width="71.23" height="1.29"/>
            <rect class="cls-11" x="1223.87" y="206.57" width="71.24" height="1.29"/>
            <rect class="cls-11" x="1341.53" y="206.57" width="71.23" height="1.29"/>
            <rect class="cls-11" x="1448.9" y="206.57" width="71.25" height="1.29"/>
            <rect class="cls-11" x="1560.93" y="206.57" width="71.23" height="1.29"/>
            <rect class="cls-11" x="1668.29" y="206.57" width="71.26" height="1.29"/>
          </g>
          <rect class="cls-11" x="900.3" y="206.57" width="71.24" height="1.29"/>
          <rect class="cls-11" x="1007.66" y="206.57" width="71.25" height="1.29"/>
          <rect class="cls-11" x="1791.07" y="207.18" width="71.25" height="1.29"/>
        </g>
        <g>
          <g>
            <rect class="cls-50" x="595.87" y="130.21" width="1.14" height="17.28"/>
            <rect class="cls-54" x="595.01" y="130.19" width="1.14" height="17.23"/>
          </g>
          <g>
            <rect class="cls-50" x="636.95" y="130.21" width="1.14" height="17.28"/>
            <rect class="cls-54" x="636.1" y="130.19" width="1.14" height="17.23"/>
          </g>
          <rect class="cls-66" x="589.3" y="132.2" width="63.92" height="2.88"/>
          <rect class="cls-66" x="589.3" y="137.37" width="63.92" height="2.87"/>
          <rect class="cls-66" x="589.3" y="142.53" width="63.92" height="2.87"/>
          <rect class="cls-66" x="573.88" y="146.84" width="79.33" height="4.04"/>
          <rect class="cls-49" x="584.15" y="132.2" width="63.94" height="2.88"/>
          <rect class="cls-49" x="584.15" y="137.37" width="63.94" height="2.87"/>
          <rect class="cls-49" x="584.15" y="142.53" width="63.94" height="2.87"/>
          <rect class="cls-49" x="568.75" y="146.84" width="79.33" height="4.04"/>
          <rect class="cls-50" x="574.89" y="150.72" width="71.9" height="1.44"/>
          <rect class="cls-54" x="574.89" y="150.72" width="63.34" height="1.44"/>
          <rect class="cls-54" x="578.31" y="152.15" width="2.01" height="11.35"/>
          <rect class="cls-50" x="580.03" y="152.15" width="2" height="11.35"/>
          <rect class="cls-54" x="629.68" y="152.15" width="2.01" height="11.35"/>
          <rect class="cls-50" x="631.39" y="152.15" width="1.99" height="11.35"/>
          <rect class="cls-54" x="588.57" y="152.15" width="2" height="11.35"/>
          <rect class="cls-50" x="590.3" y="152.15" width="1.99" height="11.35"/>
          <rect class="cls-54" x="639.96" y="152.15" width="1.99" height="11.35"/>
          <rect class="cls-50" x="641.67" y="152.15" width="2" height="11.35"/>
        </g>
        <g>
          <g>
            <rect class="cls-50" x="1741.55" y="123.1" width="1.15" height="17.28"/>
            <rect class="cls-54" x="1740.69" y="123.08" width="1.15" height="17.23"/>
          </g>
          <g>
            <rect class="cls-50" x="1782.64" y="123.1" width="1.15" height="17.28"/>
            <rect class="cls-54" x="1781.79" y="123.08" width="1.14" height="17.23"/>
          </g>
          <rect class="cls-66" x="1734.99" y="125.09" width="63.91" height="2.88"/>
          <rect class="cls-66" x="1734.99" y="130.26" width="63.91" height="2.87"/>
          <rect class="cls-66" x="1734.99" y="135.42" width="63.91" height="2.87"/>
          <rect class="cls-66" x="1719.56" y="139.73" width="79.33" height="4.04"/>
          <rect class="cls-49" x="1729.84" y="125.09" width="63.93" height="2.88"/>
          <rect class="cls-49" x="1729.84" y="130.26" width="63.93" height="2.87"/>
          <rect class="cls-49" x="1729.84" y="135.42" width="63.93" height="2.87"/>
          <rect class="cls-49" x="1714.44" y="139.73" width="79.33" height="4.04"/>
          <rect class="cls-50" x="1720.58" y="143.61" width="71.91" height="1.44"/>
          <rect class="cls-54" x="1720.58" y="143.61" width="63.34" height="1.44"/>
          <rect class="cls-54" x="1723.99" y="145.04" width="2.02" height="11.35"/>
          <rect class="cls-50" x="1725.72" y="145.04" width="2" height="11.35"/>
          <rect class="cls-54" x="1775.36" y="145.04" width="2.02" height="11.35"/>
          <rect class="cls-50" x="1777.08" y="145.04" width="1.99" height="11.35"/>
          <rect class="cls-54" x="1734.27" y="145.04" width="1.99" height="11.35"/>
          <rect class="cls-50" x="1735.98" y="145.04" width="2" height="11.35"/>
          <rect class="cls-54" x="1785.64" y="145.04" width="2" height="11.35"/>
          <rect class="cls-50" x="1787.36" y="145.04" width="1.99" height="11.35"/>
        </g>
        <g>
          <rect class="cls-38" x="64.81" y="146.89" width="118.78" height="7.39"/>
          <rect class="cls-73" x="154.36" y="146.89" width="29.23" height="7.39"/>
        </g>
      </g>
      <g>
        <g>
          <rect class="cls-33" x="331.42" y="115.31" width="103.68" height="5.28"/>
          <rect class="cls-33" x="331.42" y="138" width="103.68" height="5.28"/>
          <polygon class="cls-9" points="346.13 156.77 338.49 156.77 338.49 106.94 342.31 100.72 346.13 106.94 346.13 156.77"/>
          <polygon class="cls-9" points="366.46 156.77 358.82 156.77 358.82 101.28 362.64 95.06 366.46 101.28 366.46 156.77"/>
          <polygon class="cls-9" points="386.8 156.77 379.16 156.77 379.16 95.06 382.98 88.83 386.8 95.06 386.8 156.77"/>
          <polygon class="cls-9" points="407.13 156.77 399.49 156.77 399.49 101.28 403.31 95.06 407.13 101.28 407.13 156.77"/>
          <polygon class="cls-9" points="427.46 156.77 419.82 156.77 419.82 106.94 423.64 100.72 427.46 106.94 427.46 156.77"/>
        </g>
        <g>
          <rect class="cls-33" x="433.41" y="115.31" width="103.68" height="5.28"/>
          <rect class="cls-33" x="433.41" y="138" width="103.68" height="5.28"/>
          <polygon class="cls-9" points="448.13 156.77 440.49 156.77 440.49 106.94 444.31 100.72 448.13 106.94 448.13 156.77"/>
          <polygon class="cls-9" points="468.46 156.77 460.82 156.77 460.82 101.28 464.64 95.06 468.46 101.28 468.46 156.77"/>
          <polygon class="cls-9" points="488.79 156.77 481.15 156.77 481.15 95.06 484.97 88.83 488.79 95.06 488.79 156.77"/>
          <polygon class="cls-9" points="509.12 156.77 501.48 156.77 501.48 101.28 505.3 95.06 509.12 101.28 509.12 156.77"/>
          <polygon class="cls-9" points="529.46 156.77 521.82 156.77 521.82 106.94 525.64 100.72 529.46 106.94 529.46 156.77"/>
        </g>
        <g>
          <rect class="cls-33" x="229.87" y="115.31" width="103.68" height="5.28"/>
          <rect class="cls-33" x="229.87" y="138" width="103.68" height="5.28"/>
          <polygon class="cls-9" points="244.59 156.77 236.95 156.77 236.95 106.94 240.77 100.72 244.59 106.94 244.59 156.77"/>
          <polygon class="cls-9" points="264.92 156.77 257.28 156.77 257.28 101.28 261.1 95.06 264.92 101.28 264.92 156.77"/>
          <polygon class="cls-9" points="285.25 156.77 277.61 156.77 277.61 95.06 281.43 88.83 285.25 95.06 285.25 156.77"/>
          <polygon class="cls-9" points="305.58 156.77 297.94 156.77 297.94 101.28 301.76 95.06 305.58 101.28 305.58 156.77"/>
          <polygon class="cls-9" points="325.92 156.77 318.28 156.77 318.28 106.94 322.1 100.72 325.92 106.94 325.92 156.77"/>
        </g>
      </g>
      <g>
        <g>
          <rect class="cls-33" x="1144.83" y="117.43" width="103.68" height="5.28"/>
          <rect class="cls-33" x="1144.83" y="140.12" width="103.68" height="5.28"/>
          <polygon class="cls-9" points="1159.55 158.88 1151.91 158.88 1151.91 109.06 1155.73 102.84 1159.55 109.06 1159.55 158.88"/>
          <polygon class="cls-9" points="1179.88 158.88 1172.24 158.88 1172.24 103.4 1176.06 97.18 1179.88 103.4 1179.88 158.88"/>
          <polygon class="cls-9" points="1200.21 158.88 1192.57 158.88 1192.57 97.18 1196.39 90.95 1200.21 97.18 1200.21 158.88"/>
          <polygon class="cls-9" points="1220.54 158.88 1212.9 158.88 1212.9 103.4 1216.72 97.18 1220.54 103.4 1220.54 158.88"/>
          <polygon class="cls-9" points="1240.88 158.88 1233.24 158.88 1233.24 109.06 1237.06 102.84 1240.88 109.06 1240.88 158.88"/>
        </g>
        <g>
          <rect class="cls-33" x="1246.83" y="117.43" width="103.68" height="5.28"/>
          <rect class="cls-33" x="1246.83" y="140.12" width="103.68" height="5.28"/>
          <polygon class="cls-9" points="1261.54 158.88 1253.9 158.88 1253.9 109.06 1257.72 102.84 1261.54 109.06 1261.54 158.88"/>
          <polygon class="cls-9" points="1281.87 158.88 1274.23 158.88 1274.23 103.4 1278.05 97.18 1281.87 103.4 1281.87 158.88"/>
          <polygon class="cls-9" points="1302.21 158.88 1294.57 158.88 1294.57 97.18 1298.39 90.95 1302.21 97.18 1302.21 158.88"/>
          <polygon class="cls-9" points="1322.54 158.88 1314.9 158.88 1314.9 103.4 1318.72 97.18 1322.54 103.4 1322.54 158.88"/>
          <polygon class="cls-9" points="1342.87 158.88 1335.23 158.88 1335.23 109.06 1339.05 102.84 1342.87 109.06 1342.87 158.88"/>
        </g>
        <g>
          <rect class="cls-33" x="1043.29" y="117.43" width="103.68" height="5.28"/>
          <rect class="cls-33" x="1043.29" y="140.12" width="103.68" height="5.28"/>
          <polygon class="cls-9" points="1058 158.88 1050.36 158.88 1050.36 109.06 1054.18 102.84 1058 109.06 1058 158.88"/>
          <polygon class="cls-9" points="1078.34 158.88 1070.7 158.88 1070.7 103.4 1074.52 97.18 1078.34 103.4 1078.34 158.88"/>
          <polygon class="cls-9" points="1098.67 158.88 1091.03 158.88 1091.03 97.18 1094.85 90.95 1098.67 97.18 1098.67 158.88"/>
          <polygon class="cls-9" points="1119 158.88 1111.36 158.88 1111.36 103.4 1115.18 97.18 1119 103.4 1119 158.88"/>
          <polygon class="cls-9" points="1139.33 158.88 1131.69 158.88 1131.69 109.06 1135.51 102.84 1139.33 109.06 1139.33 158.88"/>
        </g>
      </g>
      <g>
        <path class="cls-25" d="m79.86,131.31c-3.15-59.4-2.88-53.74-2.88-55.69l-.04.68-.04-.68c0,1.95.27-3.7-2.88,55.69h5.84Z"/>
        <path class="cls-17" d="m90.71,52.94s-9.7-27.4-13.63-27.4c-4.52.19-14.28,27.13-18.62,44.91l11.2,4.2-12.07-.42c-.81,3.78-1.28,6.92-1.28,8.96,0,11.48,9.3,20.79,20.77,20.82h.05c11.5,0,20.82-9.32,20.82-20.82,0-5.32-3.21-18.08-7.23-30.25h-.01Z"/>
      </g>
      <g>
        <path class="cls-24" d="m106.41,131.31c-3.38-63.76-3.09-57.69-3.09-59.78l-.04.73-.04-.73c0,2.09.29-3.98-3.09,59.78h6.27-.01Z"/>
        <path class="cls-48" d="m118.06,47.18l-11.83.95,10.17-5.82c-1.41-3.99-8.75-24.55-12.97-24.55-4.85.21-15.33,29.12-19.99,48.21l12.02,4.5-12.95-.45c-.87,4.06-1.37,7.43-1.37,9.62,0,12.33,9.98,22.32,22.29,22.35h.05c12.34,0,22.35-10,22.35-22.35,0-5.72-3.44-19.41-7.76-32.47h0Z"/>
      </g>
      <g>
        <path class="cls-25" d="m872.42,127.5c-2.48-46.85-2.27-42.39-2.27-43.93l-.03.54-.03-.54c0,1.54.21-2.92-2.27,43.93h4.61,0Z"/>
        <path class="cls-17" d="m880.98,65.69s-7.65-21.61-10.75-21.61c-3.56.15-11.26,21.4-14.69,35.42l8.83,3.31-9.52-.33c-.64,2.98-1.01,5.46-1.01,7.07,0,9.06,7.33,16.4,16.38,16.42h.04c9.07,0,16.42-7.35,16.42-16.42,0-4.2-2.53-14.26-5.7-23.86h0Z"/>
      </g>
      <g>
        <path class="cls-24" d="m1023.62,127.5c-3.08-58.05-2.82-52.53-2.82-54.43l-.04.67-.04-.67c0,1.91.26-3.62-2.82,54.43h5.72Z"/>
        <path class="cls-48" d="m1034.23,50.9l-10.77.87,9.26-5.3c-1.28-3.63-7.97-22.35-11.81-22.35-4.41.19-13.96,26.52-18.2,43.89l10.94,4.1-11.79-.41c-.79,3.69-1.25,6.76-1.25,8.75,0,11.22,9.09,20.32,20.3,20.35h.05c11.24,0,20.35-9.11,20.35-20.35,0-5.2-3.13-17.67-7.07-29.56h-.01Z"/>
      </g>
      <g>
        <path class="cls-24" d="m968.86,127.5c-3.33-62.87-3.05-56.88-3.05-58.95l-.04.72-.04-.72c0,2.06.28-3.92-3.05,58.95h6.18,0Z"/>
        <path class="cls-48" d="m980.35,44.55l-11.67.94,10.03-5.74c-1.39-3.93-8.63-24.2-12.79-24.2-4.78.2-15.12,28.72-19.71,47.53l11.85,4.44-12.77-.44c-.86,4-1.35,7.32-1.35,9.48,0,12.15,9.84,22.01,21.98,22.03h.05c12.17,0,22.03-9.86,22.03-22.03,0-5.64-3.39-19.14-7.65-32.01Z"/>
      </g>
      <g>
        <g>
          <path class="cls-15" d="m397.39,186.59h257.76s2.54.21,3.77-5.25c1.23-5.46-3.05-50.59-8.56-62.6,0,0-1.48-4.61-3.49-6.9-2.02-2.29-26.74-36.87-26.74-36.87h-217.01s-3.01.04-3.8,3.76c-.34,1.61-5.26,18.55-6.39,38.6-1.62,28.66.61,57.33.61,57.33,0,0-.42,12.18,3.86,11.92Z"/>
          <path class="cls-28" d="m395.59,186.15c-2.59-2.53-2.33-11.12-2.32-11.45-.02-.29-2.22-29.02-.61-57.36.66-11.72,2.71-24.3,6.09-37.42.16-.62.27-1.03.31-1.22.82-3.89,4.02-3.97,4.06-3.97h217.15s.08.11.08.11c.25.35,24.74,34.59,26.73,36.85,2.03,2.3,3.49,6.81,3.54,6.97,5.64,12.28,9.74,57.61,8.58,62.77-1.27,5.62-3.94,5.46-4.03,5.45h-257.75s-.1,0-.14,0c-.62,0-1.18-.24-1.67-.71Zm259.59.18s2.33.08,3.49-5.04c1.16-5.13-2.93-50.21-8.56-62.46-.01-.05-1.48-4.59-3.44-6.81-1.97-2.23-24.88-34.25-26.68-36.78h-216.87c-.11,0-2.81.09-3.54,3.55-.04.2-.15.62-.31,1.25-3.37,13.08-5.41,25.63-6.08,37.32-1.6,28.31.59,57,.61,57.32,0,.09-.27,8.72,2.16,11.08.42.41.88.59,1.42.56h.02s257.78,0,257.78,0Z"/>
        </g>
        <g>
          <path class="cls-15" d="m397.39,186.59h257.76s2.54.21,3.77-5.25c1.23-5.46-3.05-50.59-8.56-62.6,0,0-1.48-4.61-3.49-6.9-2.02-2.29-26.74-36.87-26.74-36.87h-217.01s-3.01.04-3.8,3.76c-.34,1.61-5.26,18.55-6.39,38.6-1.62,28.66.61,57.33.61,57.33,0,0-.42,12.18,3.86,11.92Z"/>
          <path class="cls-28" d="m395.59,186.15c-2.59-2.53-2.33-11.12-2.32-11.45-.02-.29-2.22-29.02-.61-57.36.66-11.72,2.71-24.3,6.09-37.42.16-.62.27-1.03.31-1.22.82-3.89,4.02-3.97,4.06-3.97h217.15s.08.11.08.11c.25.35,24.74,34.59,26.73,36.85,2.03,2.3,3.49,6.81,3.54,6.97,5.64,12.28,9.74,57.61,8.58,62.77-1.27,5.62-3.94,5.46-4.03,5.45h-257.75s-.1,0-.14,0c-.62,0-1.18-.24-1.67-.71Zm259.59.18s2.33.08,3.49-5.04c1.16-5.13-2.93-50.21-8.56-62.46-.01-.05-1.48-4.59-3.44-6.81-1.97-2.23-24.88-34.25-26.68-36.78h-216.87c-.11,0-2.81.09-3.54,3.55-.04.2-.15.62-.31,1.25-3.37,13.08-5.41,25.63-6.08,37.32-1.6,28.31.59,57,.61,57.32,0,.09-.27,8.72,2.16,11.08.42.41.88.59,1.42.56h.02s257.78,0,257.78,0Z"/>
        </g>
        <path class="cls-42" d="m392.39,132.13h261.67c3.55,18.02,5.8,45.07,4.86,49.21-1.23,5.46-3.77,5.25-3.77,5.25h-257.76c-4.27.26-3.86-11.92-3.86-11.92,0,0-1.53-19.57-1.14-42.54Z"/>
        <g class="cls-72">
          <path class="cls-61" d="m392.92,117.35c1.14-20.06,6.06-37,6.39-38.6.78-3.72,3.8-3.76,3.8-3.76h217.01s.9,1.26,2.37,3.3h-194.63s-7.45,27.22-8.84,43.35c-1.39,16.13,2.38,49.74,2.38,49.74,0,0,3.7-6.85,6.45-6.65,2.75.2,30.29,0,30.29,0,0,0,8.41-.9,11.78,4.55,3.36,5.45,7.07,12.71,7.07,12.71h102.74s4.75-18.72,4.75-18.72c0,0,.62-2.78,6.64-2.78h29.78s2.1.56,3.53,3.56c1.43,3.01,8.92,19.36,8.92,19.36h4.6s.14-5.05,2.73-4.74c1.75.21,12,.14,18.44.07-.02,1.2-.09,2.1-.21,2.62-1.23,5.46-3.77,5.25-3.77,5.25h-257.76c-4.27.26-3.86-11.92-3.86-11.92,0,0-2.24-28.67-.61-57.33Z"/>
        </g>
        <g class="cls-72">
          <path class="cls-61" d="m392.92,117.35c1.14-20.06,6.06-37,6.39-38.6.78-3.72,3.8-3.76,3.8-3.76h6.11c-1.72,5.64-3.08,11.39-4.14,17.19-1.53,8.29-2.48,16.69-3.06,25.1-.58,8.37-.84,16.79-.64,25.18.21,8.81.89,17.61,2.18,26.32.89,6,2.1,11.96,3.66,17.82h-9.83c-4.27.26-3.86-11.92-3.86-11.92,0,0-2.24-28.67-.61-57.33Z"/>
        </g>
        <g>
          <path class="cls-35" d="m391.95,180.33h14.91s2.9.4,3.17,2.64c.26,2.24,0,5.86,0,5.86,0,0,.41,1.91-1.91,1.91h-14.46s-4.23-.03-4.45-2.58v-5.65s-.69-2.18,2.74-2.18Z"/>
          <path class="cls-67" d="m393.66,191c-.18,0-4.48-.06-4.72-2.84v-5.61c-.05-.18-.18-.89.27-1.52.47-.64,1.39-.97,2.73-.97h14.95c.13.02,3.11.45,3.4,2.87.25,2.15.03,5.48,0,5.87.03.18.12.91-.35,1.49-.37.46-.99.7-1.82.7h-14.46Zm-1.71-10.4c-1.14,0-1.93.26-2.29.74-.36.49-.19,1.08-.19,1.09v.04s.01,5.67.01,5.67c.19,2.27,4.15,2.33,4.19,2.33h14.46c.67,0,1.14-.17,1.41-.49.37-.45.24-1.08.24-1.09v-.04s0-.04,0-.04c0-.04.26-3.61,0-5.81-.24-2.01-2.91-2.4-2.9-2.4h-14.91Z"/>
        </g>
        <path class="cls-36" d="m389.21,182.51v5.65c.22,2.55,4.45,2.58,4.45,2.58h14.46c2.32,0,1.91-1.91,1.91-1.91,0,0,.26-3.61,0-5.86-.26-2.24-3.17-2.64-3.17-2.64h-14.91c-3.42,0-2.74,2.18-2.74,2.18Zm7.99.2h9.59s1.87.25,2.04,1.7c.17,1.44,0,3.76,0,3.76,0,0,.26,1.23-1.23,1.23h-9.29s-2.72-.02-2.86-1.66v-3.63s-.44-1.4,1.76-1.4Z"/>
        <g>
          <g>
            <path class="cls-53" d="m594.77,163.26h21.17c5.65.73,8.33,6.07,8.33,6.07l7.37,17.27h-48.44c.85-3.87,2.34-10.67,3.47-15.68,1.67-7.39,8.1-7.65,8.1-7.65Z"/>
            <path class="cls-40" d="m582.93,186.53c.8-3.67,2.32-10.59,3.47-15.68.89-3.92,3.11-5.85,4.81-6.78,1.85-1.01,3.47-1.08,3.54-1.09h0s21.21,0,21.21,0c5.72.74,8.5,6.16,8.54,6.23l7.53,17.64h-49.18s.07-.32.07-.32Zm41.1-17.09c-.03-.05-2.69-5.22-8.09-5.92h-21.16c-.1,0-1.63.1-3.33,1.03-2.33,1.28-3.85,3.43-4.53,6.41-1.12,4.94-2.58,11.61-3.4,15.35h47.71s-7.2-16.88-7.2-16.88Z"/>
          </g>
          <g>
            <path class="cls-55" d="m434.88,168.23h2.63s9.01,0,16.9,0h2.63c8.36,0,10.63,6.77,10.63,6.77l5.24,11.6h-53.9s5.24-11.6,5.24-11.6c0,0,2.27-6.77,10.63-6.77Z"/>
            <path class="cls-40" d="m424,174.91c.02-.07.61-1.77,2.24-3.48,1.51-1.58,4.23-3.47,8.64-3.47h22.16c8.45,0,10.86,6.88,10.87,6.92l5.41,11.98h-54.72s5.4-11.95,5.4-11.95Zm43.42.17c-.02-.07-2.3-6.58-10.38-6.58h-22.16c-8.06,0-10.36,6.52-10.39,6.61l-5.07,11.22h53.07s-5.08-11.25-5.08-11.25Z"/>
          </g>
          <g>
            <path class="cls-53" d="m434.88,168.23h2.63s9.01,0,16.9,0h2.63c8.36,0,10.63,6.77,10.63,6.77l5.24,11.6h-53.9s5.24-11.6,5.24-11.6c0,0,2.27-6.77,10.63-6.77Z"/>
            <path class="cls-40" d="m424,174.91c.02-.07.61-1.77,2.24-3.48,1.51-1.58,4.23-3.47,8.64-3.47h22.16c8.45,0,10.86,6.88,10.87,6.92l5.41,11.98h-54.72s5.4-11.95,5.4-11.95Zm43.42.17c-.02-.07-2.3-6.58-10.38-6.58h-22.16c-8.06,0-10.36,6.52-10.39,6.61l-5.07,11.22h53.07s-5.08-11.25-5.08-11.25Z"/>
          </g>
        </g>
        <g>
          <path class="cls-35" d="m399.65,179.12h-7.17s-2.6-.21-2.48-2.6c.12-2.39,1.76-11.25,1.76-11.25,0,0,.97-1.41-.1-2.12-1.07-.71-3.08-1.42-3.43.83s-2.6,17.94-2.6,17.94l1.65,6.24s.94,1.44,3.42,1.14c2.48-.3,1.93-6.56,1.93-6.56,0,0-.52-1.77,3.85-1.42h3.16s1.27-.99,0-2.21Z"/>
          <path class="cls-67" d="m387.06,188.3l-1.7-6.37v-.05c.03-.16,2.26-15.73,2.61-17.95.13-.82.48-1.36,1.03-1.6,1.06-.47,2.42.34,2.81.6.33.22.53.51.6.86.13.68-.27,1.38-.39,1.58-.14.74-1.63,8.91-1.74,11.16-.1,2.1,2.14,2.32,2.21,2.32h7.28s.08.07.08.07c.45.43.67.9.64,1.38-.04.73-.64,1.21-.66,1.23l-.07.06h-3.27c-2.39-.2-3.17.27-3.42.57-.21.25-.15.5-.14.56.02.27.54,6.52-2.17,6.84-.25.03-.48.04-.7.04-2.1,0-2.94-1.25-2.98-1.31Zm9.43-7.24h3.05c.12-.12.38-.41.4-.79.01-.29-.12-.59-.41-.89h-7.08c-.99-.08-2.83-.79-2.72-2.88.12-2.38,1.7-10.92,1.76-11.29l.04-.1s.45-.67.34-1.22c-.04-.21-.16-.38-.37-.52-.66-.43-1.65-.84-2.3-.55-.38.17-.62.57-.72,1.2-.34,2.15-2.44,16.87-2.59,17.89l1.63,6.14c.15.2,1.05,1.25,3.15.99,1.82-.22,1.84-4.6,1.71-6.22-.05-.19-.07-.6.24-.98.45-.55,1.39-.82,2.79-.82.33,0,.69.02,1.08.05Z"/>
        </g>
        <g>
          <circle cx="605.88" cy="189.11" r="19.84"/>
          <path class="cls-51" d="m587.18,189.11c0,10.33,8.37,18.7,18.7,18.7s18.7-8.37,18.7-18.7-8.37-18.7-18.7-18.7-18.7,8.37-18.7,18.7Z"/>
          <path class="cls-75" d="m605.64,171.37c-6.83,0-12.81,3.51-16.18,8.8,3.17-5.81,9.34-9.75,16.42-9.75,9.58,0,17.47,7.2,18.56,16.49-1.53-8.82-9.37-15.53-18.8-15.53Z"/>
          <circle cx="605.88" cy="188.73" r="13.74" transform="translate(-27.15 144.25) rotate(-13.28)"/>
          <circle class="cls-22" cx="605.88" cy="188.82" r="12.78" transform="translate(43.94 483.73) rotate(-45)"/>
          <circle class="cls-56" cx="605.88" cy="188.82" r="10.49"/>
          <path class="cls-22" d="m597.1,188.82c0,4.85,3.93,8.78,8.78,8.78s8.78-3.93,8.78-8.78-3.93-8.78-8.78-8.78-8.78,3.93-8.78,8.78Z"/>
          <path class="cls-23" d="m599.92,186.06c0,2.95,2.73,5.34,6.11,5.34s6.11-2.39,6.11-5.34-2.73-5.34-6.11-5.34-6.11,2.39-6.11,5.34Z"/>
          <g>
            <path class="cls-60" d="m605.26,177.09c0,.32.26.57.57.57s.57-.26.57-.57-.26-.57-.57-.57-.57.26-.57.57Z"/>
            <path class="cls-60" d="m605.26,200.37c0,.32.26.57.57.57s.57-.26.57-.57c0-.32-.26-.57-.57-.57s-.57.26-.57.57Z"/>
          </g>
          <g>
            <path class="cls-60" d="m594.19,189.3c.32,0,.57-.26.57-.57,0-.32-.26-.57-.57-.57s-.57.26-.57.57c0,.32.26.57.57.57Z"/>
            <path class="cls-60" d="m617.47,189.3c.32,0,.57-.26.57-.57,0-.32-.26-.57-.57-.57s-.57.26-.57.57c0,.32.26.57.57.57Z"/>
          </g>
        </g>
        <g>
          <circle cx="446.55" cy="189.11" r="19.84"/>
          <circle class="cls-51" cx="446.55" cy="189.11" r="18.7"/>
          <path class="cls-75" d="m446.31,171.37c-6.83,0-12.81,3.51-16.18,8.8,3.17-5.81,9.34-9.75,16.42-9.75,9.58,0,17.47,7.2,18.56,16.49-1.53-8.82-9.37-15.53-18.8-15.53Z"/>
          <circle cx="446.55" cy="188.73" r="13.74" transform="translate(-31.42 107.64) rotate(-13.28)"/>
          <circle class="cls-22" cx="446.55" cy="188.82" r="12.78" transform="translate(-2.73 371.07) rotate(-45)"/>
          <circle class="cls-56" cx="446.55" cy="188.82" r="10.49"/>
          <path class="cls-22" d="m437.78,188.82c0,4.85,3.93,8.78,8.78,8.78s8.78-3.93,8.78-8.78-3.93-8.78-8.78-8.78-8.78,3.93-8.78,8.78Z"/>
          <path class="cls-23" d="m440.59,186.06c0,2.95,2.73,5.34,6.11,5.34s6.11-2.39,6.11-5.34-2.73-5.34-6.11-5.34-6.11,2.39-6.11,5.34Z"/>
          <g>
            <path class="cls-60" d="m445.93,177.09c0,.32.26.57.57.57s.57-.26.57-.57-.26-.57-.57-.57-.57.26-.57.57Z"/>
            <path class="cls-60" d="m445.93,200.37c0,.32.26.57.57.57s.57-.26.57-.57c0-.32-.26-.57-.57-.57s-.57.26-.57.57Z"/>
          </g>
          <g>
            <path class="cls-60" d="m434.87,189.3c.32,0,.57-.26.57-.57,0-.32-.26-.57-.57-.57s-.57.26-.57.57c0,.32.26.57.57.57Z"/>
            <path class="cls-60" d="m458.14,189.3c.32,0,.57-.26.57-.57,0-.32-.26-.57-.57-.57s-.57.26-.57.57c0,.32.26.57.57.57Z"/>
          </g>
        </g>
        <path class="cls-68" d="m630.82,178.02l-7.35-15.4c-1.05-2.18-3.71-1.9-3.86-1.88h-50.63c-.15,0-.27-.12-.27-.27v-42.29c0-.15.12-.27.26-.27l73.28-.76c.16.01.26.11.27.25l3.14,42.99-1.26,17.53c0,.14-.13.25-.27.25h-13.09c-.1,0-.2-.06-.24-.15Zm14.32-17.62l-3.12-42.7-72.77.76v41.76s50.33,0,50.33,0c.03,0,3.15-.35,4.37,2.18l7.28,15.25h12.67s1.24-17.24,1.24-17.24Z"/>
        <g>
          <g>
            <g>
              <g>
                <path class="cls-61" d="m535.48,78.75h3.26s13.9,0,13.9,0h3.26s6.88-.58,6.88,6.88v6.1c0,5.49,0,10.26,0,10.26v6.1c0,7.46-6.88,6.88-6.88,6.88h-3.26s-13.9,0-13.9,0h-3.26s-6.88.58-6.88-6.88v-6.1s0-4.78,0-10.26v-6.1c0-7.46,6.88-6.88,6.88-6.88Z"/>
                <path class="cls-57" d="m555.9,115.24h-20.4c-.12,0-3.04.23-5.14-1.69-1.35-1.24-2.03-3.07-2.03-5.45v-22.46c0-2.38.68-4.21,2.03-5.45,2.05-1.88,4.89-1.71,5.12-1.69h20.38c.12,0,3.04-.23,5.14,1.69,1.35,1.24,2.03,3.07,2.03,5.45v22.46c0,2.38-.68,4.21-2.03,5.45-1.67,1.54-3.87,1.71-4.74,1.71-.22,0-.35-.01-.37-.01Zm0-36.21h-20.42s-.02,0-.02,0c-.03,0-2.81-.21-4.73,1.56-1.23,1.13-1.86,2.83-1.86,5.06v22.46c0,2.22.62,3.92,1.86,5.06,1.92,1.77,4.7,1.56,4.76,1.56h20.44s2.81.21,4.73-1.56c1.23-1.13,1.86-2.83,1.86-5.06v-22.46c0-2.22-.62-3.92-1.86-5.06-1.54-1.42-3.65-1.56-4.44-1.56-.19,0-.31,0-.32,0Z"/>
              </g>
              <path class="cls-64" d="m536.11,79.87h3.06s13.04,0,13.04,0h3.06s6.45-.55,6.45,6.45v5.72c0,5.15,0,9.63,0,9.63v5.72c0,7-6.45,6.45-6.45,6.45h-3.06s-13.04,0-13.04,0h-3.06s-6.45.55-6.45-6.45v-5.72s0-4.48,0-9.63v-5.72c0-7,6.45-6.45,6.45-6.45Z"/>
              <g>
                <path class="cls-61" d="m536.69,80.79h2.87s12.25,0,12.25,0h2.87s6.06-.51,6.06,6.06v5.38c0,4.84,0,9.05,0,9.05v5.38c0,6.58-6.06,6.06-6.06,6.06h-2.87s-12.25,0-12.25,0h-2.87s-6.06.51-6.06-6.06v-5.38s0-4.21,0-9.05v-5.38c0-6.58,6.06-6.06,6.06-6.06Z"/>
                <path class="cls-52" d="m554.69,112.99h-17.98c-.11,0-2.69.21-4.55-1.5-1.2-1.1-1.8-2.72-1.8-4.83v-19.8c0-2.11.61-3.73,1.8-4.83,1.81-1.67,4.32-1.52,4.54-1.5h17.97c.11,0,2.69-.21,4.55,1.5,1.2,1.1,1.8,2.72,1.8,4.83v19.8c0,2.11-.61,3.73-1.8,4.83-1.49,1.36-3.43,1.51-4.2,1.51-.19,0-.31,0-.33-.01Zm0-31.93h-18s-.02,0-.02,0c-.02,0-2.47-.18-4.15,1.36-1.08.99-1.63,2.49-1.63,4.43v19.8c0,1.95.55,3.44,1.63,4.43,1.68,1.55,4.13,1.37,4.17,1.36h18.03s2.47.19,4.15-1.36c1.08-.99,1.63-2.49,1.63-4.43v-19.8c0-1.95-.55-3.44-1.63-4.43-1.35-1.25-3.2-1.37-3.89-1.37-.17,0-.27,0-.28,0Z"/>
              </g>
            </g>
            <path class="cls-64" d="m536.69,80.79h2.87s1.28,0,1.28,0l19.91,11.98v4.98s-27.19-16.36-27.19-16.36c1.54-.74,3.12-.61,3.12-.61Z"/>
            <path class="cls-64" d="m558.56,111.68c-1.07.76-2.3.98-3.08,1.04l-24.86-14.96v-2.89s27.94,16.81,27.94,16.81Z"/>
            <path class="cls-62" d="m530.63,86.86v5.38c0,4.84,0,9.05,0,9.05v5.38c0,6.58,6.06,6.06,6.06,6.06h2.87s12.25,0,12.25,0h2.87s6.06.51,6.06-6.06v-5.38s0-4.21,0-9.05v-5.38c0-6.58-6.06-6.06-6.06-6.06h-2.87s-12.25,0-12.25,0h-2.87s-6.06-.51-6.06,6.06Zm1.79,1.18c0-5.8,5.34-5.34,5.34-5.34h2.53s10.79,0,10.79,0h2.53s5.34-.45,5.34,5.34v4.74c0,4.26,0,7.97,0,7.97v4.74c0,5.8-5.34,5.34-5.34,5.34h-2.53s-10.79,0-10.79,0h-2.53s-5.34.45-5.34-5.34v-4.74s0-3.71,0-7.97v-4.74Z"/>
          </g>
          <g>
            <g>
              <g>
                <path class="cls-61" d="m494.75,78.75h3.26s13.9,0,13.9,0h3.26s6.88-.58,6.88,6.88v6.1c0,5.49,0,10.26,0,10.26v6.1c0,7.46-6.88,6.88-6.88,6.88h-3.26s-13.9,0-13.9,0h-3.26s-6.88.58-6.88-6.88v-6.1s0-4.78,0-10.26v-6.1c0-7.46,6.88-6.88,6.88-6.88Z"/>
                <path class="cls-57" d="m515.17,115.24h-20.4c-.12,0-3.04.23-5.14-1.69-1.35-1.24-2.03-3.07-2.03-5.45v-22.46c0-2.38.68-4.21,2.03-5.45,2.05-1.88,4.89-1.71,5.12-1.69h20.38c.12,0,3.04-.23,5.14,1.69,1.35,1.24,2.03,3.07,2.03,5.45v22.46c0,2.38-.68,4.21-2.03,5.45-1.67,1.54-3.87,1.71-4.74,1.71-.22,0-.35-.01-.37-.01Zm0-36.21h-20.42s-.02,0-.02,0c-.03,0-2.81-.21-4.73,1.56-1.23,1.13-1.86,2.83-1.86,5.06v22.46c0,2.22.62,3.92,1.86,5.06,1.92,1.77,4.7,1.56,4.76,1.56h20.44s2.81.21,4.73-1.56c1.23-1.13,1.86-2.83,1.86-5.06v-22.46c0-2.22-.62-3.92-1.86-5.06-1.54-1.42-3.65-1.56-4.44-1.56-.19,0-.31,0-.32,0Z"/>
              </g>
              <path class="cls-64" d="m495.38,79.87h3.06s13.04,0,13.04,0h3.06s6.45-.55,6.45,6.45v5.72c0,5.15,0,9.63,0,9.63v5.72c0,7-6.45,6.45-6.45,6.45h-3.06s-13.04,0-13.04,0h-3.06s-6.45.55-6.45-6.45v-5.72s0-4.48,0-9.63v-5.72c0-7,6.45-6.45,6.45-6.45Z"/>
              <g>
                <path class="cls-61" d="m495.96,80.79h2.87s12.25,0,12.25,0h2.87s6.06-.51,6.06,6.06v5.38c0,4.84,0,9.05,0,9.05v5.38c0,6.58-6.06,6.06-6.06,6.06h-2.87s-12.25,0-12.25,0h-2.87s-6.06.51-6.06-6.06v-5.38s0-4.21,0-9.05v-5.38c0-6.58,6.06-6.06,6.06-6.06Z"/>
                <path class="cls-52" d="m513.96,112.99h-17.98c-.11,0-2.69.21-4.55-1.5-1.2-1.1-1.8-2.72-1.8-4.83v-19.8c0-2.11.61-3.73,1.8-4.83,1.81-1.67,4.32-1.52,4.54-1.5h17.97c.11,0,2.69-.21,4.55,1.5,1.2,1.1,1.8,2.72,1.8,4.83v19.8c0,2.11-.61,3.73-1.8,4.83-1.49,1.36-3.43,1.51-4.2,1.51-.19,0-.31,0-.33-.01Zm0-31.93h-18s-.02,0-.02,0c-.02,0-2.47-.18-4.15,1.36-1.08.99-1.63,2.49-1.63,4.43v19.8c0,1.95.55,3.44,1.63,4.43,1.68,1.55,4.13,1.37,4.17,1.36h18.03s2.46.19,4.15-1.36c1.08-.99,1.63-2.49,1.63-4.44v-19.8c0-1.95-.55-3.44-1.63-4.43-1.35-1.25-3.2-1.37-3.89-1.37-.17,0-.27,0-.28,0Z"/>
              </g>
            </g>
            <path class="cls-64" d="m495.96,80.79h2.87s1.28,0,1.28,0l19.91,11.98v4.98s-27.19-16.36-27.19-16.36c1.54-.74,3.12-.61,3.12-.61Z"/>
            <path class="cls-64" d="m517.83,111.68c-1.07.76-2.3.98-3.08,1.04l-24.86-14.96v-2.89s27.94,16.81,27.94,16.81Z"/>
            <path class="cls-62" d="m489.9,86.86v5.38c0,4.84,0,9.05,0,9.05v5.38c0,6.58,6.06,6.06,6.06,6.06h2.87s12.25,0,12.25,0h2.87s6.06.51,6.06-6.06v-5.38s0-4.21,0-9.05v-5.38c0-6.58-6.06-6.06-6.06-6.06h-2.87s-12.25,0-12.25,0h-2.87s-6.06-.51-6.06,6.06Zm1.79,1.18c0-5.8,5.34-5.34,5.34-5.34h2.53s10.79,0,10.79,0h2.53s5.34-.45,5.34,5.34v4.74c0,4.26,0,7.97,0,7.97v4.74c0,5.8-5.34,5.34-5.34,5.34h-2.53s-10.79,0-10.79,0h-2.53s-5.34.45-5.34-5.34v-4.74s0-3.71,0-7.97v-4.74Z"/>
          </g>
          <g>
            <g>
              <g>
                <path class="cls-61" d="m454.02,78.75h3.26s13.9,0,13.9,0h3.26s6.88-.58,6.88,6.88v6.1c0,5.49,0,10.26,0,10.26v6.1c0,7.46-6.88,6.88-6.88,6.88h-3.26s-13.9,0-13.9,0h-3.26s-6.88.58-6.88-6.88v-6.1s0-4.78,0-10.26v-6.1c0-7.46,6.88-6.88,6.88-6.88Z"/>
                <path class="cls-57" d="m474.44,115.24h-20.39c-.12,0-3.04.23-5.14-1.69-1.35-1.24-2.03-3.07-2.03-5.45v-22.46c0-2.38.68-4.21,2.03-5.45,2.05-1.88,4.89-1.71,5.12-1.69h20.38c.12,0,3.04-.23,5.14,1.69,1.35,1.24,2.03,3.07,2.03,5.45v22.46c0,2.38-.68,4.21-2.03,5.45-1.68,1.54-3.87,1.71-4.74,1.71-.22,0-.35-.01-.37-.01Zm0-36.21h-20.42s-.02,0-.02,0c-.03,0-2.81-.21-4.73,1.56-1.23,1.13-1.86,2.83-1.86,5.06v22.46c0,2.22.62,3.92,1.86,5.06,1.92,1.77,4.7,1.56,4.76,1.56h20.44s2.81.21,4.73-1.56c1.23-1.13,1.86-2.84,1.86-5.06v-22.46c0-2.22-.62-3.92-1.86-5.06-1.54-1.42-3.65-1.56-4.44-1.56-.19,0-.31,0-.32,0Z"/>
              </g>
              <path class="cls-64" d="m454.65,79.87h3.06s13.04,0,13.04,0h3.06s6.45-.55,6.45,6.45v5.72c0,5.15,0,9.63,0,9.63v5.72c0,7-6.45,6.45-6.45,6.45h-3.06s-13.04,0-13.04,0h-3.06s-6.45.55-6.45-6.45v-5.72s0-4.48,0-9.63v-5.72c0-7,6.45-6.45,6.45-6.45Z"/>
              <g>
                <path class="cls-61" d="m455.23,80.79h2.87s12.25,0,12.25,0h2.87s6.06-.51,6.06,6.06v5.38c0,4.84,0,9.05,0,9.05v5.38c0,6.58-6.06,6.06-6.06,6.06h-2.87s-12.25,0-12.25,0h-2.87s-6.06.51-6.06-6.06v-5.38s0-4.21,0-9.05v-5.38c0-6.58,6.06-6.06,6.06-6.06Z"/>
                <path class="cls-52" d="m473.23,112.99h-17.98c-.11,0-2.69.21-4.55-1.5-1.2-1.1-1.8-2.72-1.8-4.83v-19.8c0-2.11.61-3.73,1.8-4.83,1.81-1.67,4.32-1.52,4.54-1.5h17.97c.11,0,2.69-.21,4.55,1.5,1.2,1.1,1.8,2.72,1.8,4.83v19.8c0,2.11-.61,3.73-1.8,4.83-1.49,1.36-3.43,1.51-4.2,1.51-.19,0-.31,0-.33-.01Zm0-31.93h-18s-.02,0-.02,0c-.02,0-2.46-.19-4.15,1.36-1.08.99-1.63,2.49-1.63,4.44v19.8c0,1.95.55,3.44,1.63,4.43,1.68,1.55,4.12,1.37,4.17,1.36h18.03s2.46.19,4.15-1.36c1.08-.99,1.63-2.49,1.63-4.44v-19.8c0-1.95-.55-3.44-1.63-4.43-1.35-1.25-3.2-1.37-3.89-1.37-.17,0-.27,0-.28,0Z"/>
              </g>
            </g>
            <path class="cls-64" d="m455.23,80.79h2.87s1.28,0,1.28,0l19.91,11.98v4.98s-27.19-16.36-27.19-16.36c1.54-.74,3.12-.61,3.12-.61Z"/>
            <path class="cls-64" d="m477.1,111.68c-1.07.76-2.3.98-3.08,1.04l-24.86-14.96v-2.89s27.94,16.81,27.94,16.81Z"/>
            <path class="cls-62" d="m449.17,86.86v5.38c0,4.84,0,9.05,0,9.05v5.38c0,6.58,6.06,6.06,6.06,6.06h2.87s12.25,0,12.25,0h2.87s6.06.51,6.06-6.06v-5.38s0-4.21,0-9.05v-5.38c0-6.58-6.06-6.06-6.06-6.06h-2.87s-12.25,0-12.25,0h-2.87s-6.06-.51-6.06,6.06Zm1.79,1.18c0-5.8,5.34-5.34,5.34-5.34h2.53s10.79,0,10.79,0h2.53s5.34-.45,5.34,5.34v4.74c0,4.26,0,7.97,0,7.97v4.74c0,5.8-5.34,5.34-5.34,5.34h-2.53s-10.79,0-10.79,0h-2.53s-5.34.45-5.34-5.34v-4.74s0-3.71,0-7.97v-4.74Z"/>
          </g>
          <g>
            <g>
              <g>
                <path class="cls-61" d="m413.29,78.75h3.26s13.9,0,13.9,0h3.26s6.88-.58,6.88,6.88v6.1c0,5.49,0,10.26,0,10.26v6.1c0,7.46-6.88,6.88-6.88,6.88h-3.26s-13.9,0-13.9,0h-3.26s-6.88.58-6.88-6.88v-6.1s0-4.78,0-10.26v-6.1c0-7.46,6.88-6.88,6.88-6.88Z"/>
                <path class="cls-57" d="m433.71,115.24h-20.4c-.12,0-3.04.23-5.14-1.69-1.35-1.24-2.03-3.07-2.03-5.45v-22.46c0-2.38.68-4.21,2.03-5.45,2.05-1.88,4.89-1.71,5.12-1.69h20.38c.12,0,3.04-.23,5.14,1.69,1.35,1.24,2.03,3.07,2.03,5.45v22.46c0,2.38-.68,4.21-2.03,5.45-1.67,1.54-3.87,1.71-4.74,1.71-.22,0-.35-.01-.37-.01Zm0-36.21h-20.42s-.02,0-.02,0c-.03,0-2.81-.21-4.73,1.56-1.23,1.13-1.86,2.83-1.86,5.06v22.46c0,2.22.62,3.92,1.86,5.06,1.92,1.77,4.7,1.56,4.76,1.56h20.44s2.81.21,4.73-1.56c1.23-1.13,1.86-2.83,1.86-5.06v-22.46c0-2.22-.62-3.92-1.86-5.06-1.54-1.42-3.65-1.56-4.44-1.56-.19,0-.31,0-.32,0Z"/>
              </g>
              <path class="cls-64" d="m413.93,79.87h3.06s13.04,0,13.04,0h3.06s6.45-.55,6.45,6.45v5.72c0,5.15,0,9.63,0,9.63v5.72c0,7-6.45,6.45-6.45,6.45h-3.06s-13.04,0-13.04,0h-3.06s-6.45.55-6.45-6.45v-5.72s0-4.48,0-9.63v-5.72c0-7,6.45-6.45,6.45-6.45Z"/>
              <g>
                <path class="cls-61" d="m414.5,80.79h2.87s12.25,0,12.25,0h2.87s6.06-.51,6.06,6.06v5.38c0,4.84,0,9.05,0,9.05v5.38c0,6.58-6.06,6.06-6.06,6.06h-2.87s-12.25,0-12.25,0h-2.87s-6.06.51-6.06-6.06v-5.38s0-4.21,0-9.05v-5.38c0-6.58,6.06-6.06,6.06-6.06Z"/>
                <path class="cls-52" d="m432.5,112.99h-17.98c-.11,0-2.69.21-4.55-1.5-1.2-1.1-1.8-2.72-1.8-4.83v-19.8c0-2.11.61-3.73,1.8-4.83,1.81-1.67,4.32-1.52,4.54-1.5h17.97c.11,0,2.69-.21,4.55,1.5,1.2,1.1,1.8,2.72,1.8,4.83v19.8c0,2.11-.61,3.73-1.8,4.83-1.49,1.36-3.43,1.51-4.2,1.51-.19,0-.31,0-.33-.01Zm0-31.93h-18s-.02,0-.02,0c-.02,0-2.46-.19-4.15,1.36-1.08.99-1.63,2.49-1.63,4.44v19.8c0,1.95.55,3.44,1.63,4.43,1.68,1.55,4.12,1.37,4.17,1.36h18.03s2.47.19,4.15-1.36c1.08-.99,1.63-2.49,1.63-4.43v-19.8c0-1.95-.55-3.44-1.63-4.43-1.35-1.25-3.2-1.37-3.89-1.37-.17,0-.27,0-.28,0Z"/>
              </g>
            </g>
            <path class="cls-64" d="m414.5,80.79h2.87s1.28,0,1.28,0l19.91,11.98v4.98s-27.19-16.36-27.19-16.36c1.54-.74,3.12-.61,3.12-.61Z"/>
            <path class="cls-64" d="m436.37,111.68c-1.07.76-2.3.98-3.08,1.04l-24.86-14.96v-2.89s27.94,16.81,27.94,16.81Z"/>
            <path class="cls-62" d="m408.44,86.86v5.38c0,4.84,0,9.05,0,9.05v5.38c0,6.58,6.06,6.06,6.06,6.06h2.87s12.25,0,12.25,0h2.87s6.06.51,6.06-6.06v-5.38s0-4.21,0-9.05v-5.38c0-6.58-6.06-6.06-6.06-6.06h-2.87s-12.25,0-12.25,0h-2.87s-6.06-.51-6.06,6.06Zm1.79,1.18c0-5.8,5.34-5.34,5.34-5.34h2.53s10.79,0,10.79,0h2.53s5.34-.45,5.34,5.34v4.74c0,4.26,0,7.97,0,7.97v4.74c0,5.8-5.34,5.34-5.34,5.34h-2.53s-10.79,0-10.79,0h-2.53s-5.34.45-5.34-5.34v-4.74s0-3.71,0-7.97v-4.74Z"/>
          </g>
        </g>
        <g>
          <g>
            <path class="cls-61" d="m640.91,115.08h-65.79s-6.05.33-6.05-6.05v-23.65s-1.36-6.11,6.86-6.64l34.65-.41s5.94-.61,8.52,2.65l21.53,28.75s4.63,5.35.29,5.35Z"/>
            <path class="cls-57" d="m570.55,113.72c-1.16-1.1-1.75-2.68-1.75-4.69v-23.63c-.06-.29-.42-2.43.97-4.29,1.18-1.57,3.24-2.46,6.16-2.64l34.62-.41c.25-.02,6.12-.59,8.76,2.75l21.52,28.74c.29.33,2.8,3.31,2.08,4.89-.27.6-.95.9-2,.9h-65.78s-.08,0-.18,0c-.64,0-2.81-.12-4.4-1.63Zm40.03-35.13l-34.63.41c-2.73.18-4.67.99-5.75,2.43-1.32,1.75-.88,3.87-.87,3.89v23.71c0,1.86.54,3.31,1.58,4.3,1.68,1.6,4.17,1.49,4.21,1.48h65.79c.82,0,1.33-.2,1.51-.59.49-1.08-1.27-3.48-2.01-4.33l-21.53-28.75c-1.8-2.28-5.4-2.59-7.21-2.59-.65,0-1.07.04-1.1.04Z"/>
          </g>
          <path class="cls-64" d="m638.14,114.42h-61.62s-5.77-.25-5.77-6.28v-22.33s-1.29-5.76,6.5-6.26l32.85-.39s5.63-.58,8.07,2.5l20.41,27.14s3.68,5.61-.44,5.61Z"/>
          <path class="cls-61" d="m637.74,113.77h-60.75s-5.59.31-5.59-5.6v-21.89s-1.26-5.65,6.33-6.14h32.44s3.71-.79,7.42,2.07l19.88,26.61s4.28,4.95.26,4.95Z"/>
          <g class="cls-78">
            <path class="cls-61" d="m592.65,80.15l44.68,28.48.15.2s4.28,4.95.26,4.95h-6.38s-52.75-33.63-52.75-33.63h14.05Z"/>
            <polygon class="cls-61" points="571.4 98.46 595.42 113.77 588.17 113.77 571.4 103.08 571.4 98.46"/>
          </g>
          <path class="cls-62" d="m571.4,86.29v21.89c0,5.91,5.59,5.6,5.59,5.6h60.75c4.01,0-.26-4.95-.26-4.95l-19.88-26.61c-3.71-2.86-7.42-2.07-7.42-2.07h-32.44c-7.59.49-6.33,6.14-6.33,6.14Zm7.66-4.3h29.78s3.41-.72,6.81,1.88l18.25,24.18s3.92,4.5.24,4.5h-55.76s-5.13.28-5.13-5.09v-19.89s-1.15-5.13,5.81-5.58Z"/>
        </g>
        <g>
          <g>
            <path class="cls-58" d="m647.45,156.44c0,5.75,2.04,10.4,4.55,10.4s4.55-4.66,4.55-10.4-2.04-10.4-4.55-10.4-4.55,4.66-4.55,10.4Z"/>
            <path class="cls-40" d="m647.18,156.44c0-5.98,2.12-10.67,4.82-10.67s4.82,4.69,4.82,10.67c0,5.98-2.12,10.67-4.82,10.67s-4.82-4.69-4.82-10.67Zm.53,0c0,5.49,1.96,10.14,4.29,10.14s4.29-4.64,4.29-10.14-1.96-10.14-4.29-10.14-4.29,4.64-4.29,10.14Z"/>
          </g>
          <path class="cls-59" d="m649.43,150.43c.53-1.49,1.31-3.36,2.66-4.39,2.48.09,4.48,4.71,4.48,10.39s-2.04,10.4-4.55,10.4c-2.19,0-4.01-3.52-4.45-8.22.28-2.79.93-5.55,1.87-8.19Z"/>
          <g>
            <path class="cls-55" d="m649.3,156.61c0,5.65,1.63,10.23,3.63,10.23s3.63-4.58,3.63-10.23c0-5.65-1.63-10.23-3.63-10.23s-3.63,4.58-3.63,10.23Z"/>
            <path class="cls-40" d="m649.03,156.61c0-5.89,1.71-10.5,3.9-10.5s3.9,4.61,3.9,10.5c0,5.89-1.71,10.5-3.9,10.5s-3.9-4.61-3.9-10.5Zm.53,0c0,5.96,1.74,9.96,3.36,9.96s3.36-4,3.36-9.96c0-5.96-1.74-9.96-3.36-9.96s-3.36,4-3.36,9.96Z"/>
          </g>
          <g>
            <path class="cls-12" d="m650.53,156.61c0,4.76.83,8.97,3.02,8.97s4.11-4.54,4.11-9.3-1.78-8.61-3.97-8.61-3.16,4.19-3.16,8.94Z"/>
            <path class="cls-21" d="m650.27,156.61c0-8.55,2.62-9.21,3.43-9.21,2.38,0,4.24,3.9,4.24,8.88,0,5.09-2.04,9.56-4.37,9.56-2.97,0-3.29-6.46-3.29-9.23Zm.53,0c0,5.45,1.03,8.7,2.76,8.7,1.97,0,3.84-4.39,3.84-9.03s-1.7-8.35-3.7-8.35c-1.76,0-2.89,3.41-2.89,8.68Z"/>
          </g>
          <path class="cls-70" d="m652.21,148.48c-.25.69-.45,1.4-.59,2.13-.35,1.82-.37,3.7-.03,5.52.16.87.42,1.72.77,2.54.34.79.78,1.59,1.46,2.15.66.54,1.48.7,2.28.38.45-.18.81-.51,1.11-.88-.7,3-2.1,5.25-3.64,5.25-2.19,0-3.02-4.21-3.02-8.97,0-3.5.53-6.68,1.68-8.13Z"/>
          <path class="cls-11" d="m652.75,150.45c-.02,1.68.62,3.41,1.4,4.87.3.55.79,1.35,1.51,1.34.78-.01,1.05-.96,1.1-1.58.1-1.26-.16-2.63-.56-3.82-.21-.62-.46-1.27-.86-1.8-.16-.21-.35-.42-.57-.57-.29-.36-.68-.63-1.11-.56-.81.14-.92,1.49-.92,2.13Z"/>
        </g>
        <path class="cls-65" d="m392.63,123.15h169.61c1.42,0,2.59,1.16,2.59,2.59s-1.16,2.59-2.59,2.59h-169.7c.1-1.72.1-3.45.09-5.17Z"/>
        <g>
          <g>
            <path class="cls-35" d="m658.88,180.33h-14.91s-2.9.4-3.17,2.64c-.26,2.24,0,5.86,0,5.86,0,0-.41,1.91,1.91,1.91h14.46s4.23-.03,4.45-2.58v-5.65s.69-2.18-2.74-2.18Z"/>
            <path class="cls-20" d="m640.89,190.3c-.47-.58-.38-1.31-.35-1.49-.03-.4-.25-3.72,0-5.87.28-2.42,3.27-2.85,3.43-2.87h14.91c1.34,0,2.26.32,2.73.97.46.63.32,1.33.27,1.52v5.63c-.23,2.76-4.53,2.82-4.72,2.82h-14.46c-.84,0-1.45-.23-1.82-.7Zm.18-7.3c-.26,2.19,0,5.77,0,5.81v.04s0,.04,0,.04c0,0-.13.64.24,1.09.27.33.74.49,1.41.49h14.45s3.99-.06,4.19-2.31v-5.65s.01-.08.01-.08c0,0,.18-.6-.19-1.09-.36-.49-1.15-.74-2.29-.74h-14.87s-2.7.39-2.94,2.4Z"/>
          </g>
          <path class="cls-36" d="m640.69,185.08h20.93v3.08c-.22,2.55-4.45,2.58-4.45,2.58h-14.46c-2.32,0-1.91-1.91-1.91-1.91,0,0-.14-1.87-.11-3.75Z"/>
          <path class="cls-37" d="m658.92,181.35h-12.55s-4.34-.43-4.52,2.14v5.25s1.06-5.42,4.6-6.04c3.54-.62,12.46-1.34,12.46-1.34Z"/>
          <g>
            <path class="cls-35" d="m651.02,184.39l1.25-7.33s-.24-1.88,3.47-1.68h6.26s.96,0,.84,2.14c-.12,2.14-.73,1.5-1.87,1.67-1.14.17-5.45-.56-6.39,1.01-.94,1.58-1.72,5.25-1.72,5.25,0,0-.05.82-.91.76s-1.24-.04-.93-1.82Z"/>
            <path class="cls-20" d="m651.94,186.47h-.06c-.42-.03-.79-.06-1.02-.35-.24-.3-.26-.8-.09-1.78l1.25-7.3c0-.15,0-.64.43-1.1.6-.64,1.71-.92,3.31-.84h6.26s.34,0,.62.31c.38.4.54,1.11.49,2.11-.09,1.72-.52,1.9-1.44,1.89-.2,0-.42,0-.65.03-.33.05-.85.03-1.51,0-1.63-.06-4.08-.14-4.69.88-.91,1.52-1.68,5.13-1.68,5.13h0s-.04.47-.37.76c-.19.17-.43.25-.72.25-.03,0-.07,0-.11,0Zm7.58-7.55c.61.02,1.13.04,1.41,0,.28-.04.53-.04.74-.04.62.01.83.01.9-1.39.1-1.79-.58-1.86-.58-1.86h-6.27c-1.78-.1-2.55.3-2.89.66-.33.35-.3.71-.3.72v.04s-1.26,7.37-1.26,7.37c-.05.28-.19,1.13-.01,1.36.08.1.28.12.64.14h.07c.54.04.61-.38.63-.54.03-.15.79-3.73,1.75-5.33.59-.99,2.23-1.17,3.79-1.17.47,0,.94.02,1.37.03Z"/>
          </g>
          <g>
            <path class="cls-35" d="m660.5,171.94s.99,4.86.87,10.04c0,0-.15,2.84.02,4.47.17,1.62,2.97,2.01,3.01-3.31.04-5.31,0-9.65,0-9.65,0,0-.38-3.92-1.7-4.22-1.33-.3-2.17-.28-2.2,2.67Z"/>
            <path class="cls-20" d="m661.12,186.47c-.17-1.63-.02-4.39-.02-4.5.12-5.08-.86-9.93-.87-9.98v-.03s0-.03,0-.03c.01-1.53.24-2.39.75-2.79.49-.39,1.14-.28,1.77-.14,1.47.33,1.87,4.03,1.91,4.48,0,.04.04,4.4,0,9.65-.03,3.35-1.13,4.59-2.15,4.64-.02,0-.04,0-.06,0-.68,0-1.25-.55-1.33-1.31Zm.19-16.9c-.36.28-.53,1.05-.55,2.35.08.41.98,5.13.87,10.08,0,.03-.15,2.84.02,4.42.05.49.41.85.83.83.6-.03,1.62-.93,1.65-4.11.04-5.25,0-9.6,0-9.62-.14-1.44-.67-3.8-1.49-3.99-.32-.07-.58-.12-.8-.12s-.39.04-.52.15Z"/>
          </g>
          <path class="cls-36" d="m661.96,172.93c.34,4.69-.03,9.37-.4,14.05-.09-.15-.15-.34-.17-.54-.17-1.62-.02-4.47-.02-4.47.12-5.17-.87-10.04-.87-10.04.02-1.94.39-2.61,1.02-2.76.2,1.24.34,2.49.43,3.75Z"/>
          <path class="cls-37" d="m652.28,179.88c.06-.74.14-1.53.5-2.19.38-.69,1.05-1.16,1.8-1.34.77-.18,1.73-.18,2.49.03.08.02.22.18.08.22-.35.11-.76.1-1.12.13-.37.03-.75.07-1.11.16-.77.2-1.31.67-1.67,1.37-.34.65-.49,1.37-.62,2.09-.12.68-.17,1.43-.48,2.05-.05.1-.21-.03-.2-.11.16-.8.25-1.59.32-2.41Z"/>
        </g>
        <g>
          <g>
            <path class="cls-15" d="m399.65,77.02s2.3-17.4,9.94-18.82h188.94s12.93-1.06,21.46,10.51l4.11,6.27-224.45,2.04Z"/>
            <path class="cls-28" d="m399.38,76.99s.6-4.43,2.12-8.93c2.06-6.11,4.77-9.51,8.09-10.12h188.92c.13,0,13.18-.94,21.71,10.63l4.37,6.68-224.94,2.05h-.31s.04-.3.04-.3Zm220.4-8.12c-8.34-11.31-21.1-10.41-21.25-10.4h-188.89c-6.82,1.26-9.33,15.97-9.68,18.28l223.66-2.04-3.83-5.85Z"/>
          </g>
          <g>
            <path class="cls-15" d="m399.65,77.02s2.3-17.4,9.94-18.82h188.94s12.93-1.06,21.46,10.51l4.11,6.27-224.45,2.04Z"/>
            <path class="cls-28" d="m399.38,76.99s.6-4.43,2.12-8.93c2.06-6.11,4.77-9.51,8.09-10.12h188.92c.13,0,13.18-.94,21.71,10.63l4.37,6.68-224.94,2.05h-.31s.04-.3.04-.3Zm220.4-8.12c-8.34-11.31-21.1-10.41-21.25-10.4h-188.89c-6.82,1.26-9.33,15.97-9.68,18.28l223.66-2.04-3.83-5.85Z"/>
          </g>
          <path class="cls-63" d="m399.65,77.02l224.45-2.04-4.11-6.27c-8.53-11.57-21.46-10.51-21.46-10.51h-188.94c-7.64,1.42-9.94,18.82-9.94,18.82Zm68.32-5.72s.33-10.8,4.24-10.98c3.91-.18,117.77,0,117.77,0h7.61s9.74,0,13.28,4.07l5.14,6.91h-148.04Z"/>
          <path class="cls-11" d="m611.23,66.7s-3.07-4.72-9.21-5.08h-91.49s-1.77-.12-.83.59c.94.71,90.19,1.94,90.19,1.94,0,0,2.25-.06,4.55,2.54,2.3,2.6,9.75,4.22,6.78,0Z"/>
          <g>
            <path class="cls-1" d="m472.21,60.33c3.91-.18,117.77,0,117.77,0h7.61s9.74,0,13.28,4.07l5.14,6.91h-148.04s.33-10.8,4.24-10.98Z"/>
            <path class="cls-63" d="m409.59,58.2h55.79s-25.85,2.05-25.85,2.05c0,0-5.74-.45-6.8,2.73-1.06,3.19-3.36,8.32-3.36,8.32,0,0-1.95,4.64,3.19,5.42h0l-32.91.3s2.3-17.4,9.94-18.82Z"/>
          </g>
        </g>
        <g>
          <ellipse class="cls-58" cx="647.97" cy="123.86" rx="1.57" ry="3.33"/>
          <path class="cls-40" d="m646.14,123.86c0-2.02.81-3.59,1.84-3.59s1.84,1.58,1.84,3.59-.81,3.6-1.84,3.6-1.84-1.58-1.84-3.6Zm.53,0c0,1.8.69,3.06,1.31,3.06s1.3-1.26,1.3-3.06-.69-3.06-1.3-3.06-1.31,1.26-1.31,3.06Z"/>
        </g>
        <g>
          <g>
            <path class="cls-30" d="m642.27,109.69c-.72,6.03-.3,11.03.94,11.18,1.23.15,2.82-4.62,3.53-10.65.72-6.03.3-11.03-.94-11.18-1.23-.15-2.82,4.62-3.53,10.65Z"/>
            <path class="cls-18" d="m643.17,121.14c-.76-.09-1.24-1.31-1.43-3.63-.18-2.13-.08-4.92.26-7.85h0c.35-2.93.91-5.67,1.58-7.69.73-2.21,1.48-3.28,2.24-3.19.76.09,1.24,1.31,1.43,3.63.18,2.13.08,4.92-.26,7.85-.65,5.46-2.14,10.89-3.74,10.89-.03,0-.06,0-.08,0Zm.92-19c-.66,1.99-1.22,4.69-1.56,7.59h0c-.34,2.9-.44,5.65-.26,7.74.19,2.26.64,3.1.97,3.14.81.11,2.45-3.82,3.24-10.42.35-2.9.44-5.65.26-7.74-.19-2.26-.64-3.1-.97-3.14,0,0-.02,0-.03,0-.33,0-.95.73-1.65,2.83Z"/>
          </g>
          <g>
            <path class="cls-32" d="m643.5,109.86c-.72,6.03-.62,11,.21,11.1.83.1,2.09-4.71,2.81-10.74.72-6.03.62-11-.21-11.1s-2.09,4.71-2.81,10.74Z"/>
            <path class="cls-18" d="m643.68,121.22c-.4-.05-.86-.5-.92-3.58-.04-2.11.13-4.88.48-7.81.05-.45,1.33-10.97,3.06-10.97.02,0,.03,0,.05,0,.4.05.86.5.92,3.58.04,2.11-.13,4.88-.48,7.81-.05.45-1.33,10.97-3.06,10.97-.02,0-.03,0-.05,0Zm.08-11.33c-.8,6.75-.44,10.56-.03,10.8.47-.13,1.72-3.75,2.53-10.5.8-6.75.44-10.56.03-10.8-.47.13-1.72,3.75-2.53,10.5Z"/>
          </g>
          <g>
            <path class="cls-32" d="m649.59,111.8c-.94-.38-3.28-1.11-4.2-1.4,0-.21.02-.41.05-.6.03-.15.08-.29.14-.43l4.37,1.25s2.23.17,1.82,2.74c-.34,2.11-2.38,8.58-3.11,10.82-.02-.01-.05-.03-.07-.04,0,0-.01,0-.01,0,0,0,0,0,0,0-.04-.04-.09-.08-.12-.12-.09-.1-.13-.15-.21-.29-.16-.26-.25-.49-.34-.79-.04-.14-.08-.29-.11-.44l2.63-9.13s.35-1.09-.83-1.56Z"/>
            <path class="cls-18" d="m648.53,124.42s-.06-.03-.08-.05l-.06-.03-.02-.03s-.08-.08-.12-.12c-.1-.11-.15-.18-.24-.33-.16-.26-.27-.51-.37-.85-.05-.15-.09-.31-.12-.47v-.06s2.64-9.2,2.64-9.2c.01-.03.27-.86-.67-1.23h0c-.93-.37-3.23-1.09-4.18-1.39l-.19-.06v-.2c0-.26.02-.46.06-.65.03-.16.08-.32.15-.49l.09-.22,4.57,1.31c.17.02,1.04.15,1.61.87.43.55.58,1.28.43,2.18-.33,2.09-2.29,8.29-3.11,10.86l-.1.31-.28-.16Zm-2.83-14.56c-.02.1-.03.22-.04.35,1.05.33,3.14.99,4.03,1.34h0c1.12.45,1.13,1.43.98,1.88l-2.61,9.07c.02.12.06.24.09.35.09.3.18.5.32.73.03.05.05.08.07.11.76-2.37,2.65-8.39,2.97-10.38.12-.75.01-1.34-.32-1.76-.47-.6-1.25-.67-1.31-.68l-4.13-1.18c-.02.06-.03.11-.04.16Z"/>
          </g>
        </g>
        <path class="cls-36" d="m388.23,163.98c.35-2.24,2.36-1.53,3.43-.83.19.13.31.27.39.43-.39-.26-1.09-.54-1.46.45-.53,1.42-3.48,16.94-3.48,16.94l1.3,6.32s1.3,1.61,2.12.87,1.24-2.93,1.12-4.76c-.12-1.83.41-3.07,2.24-3.19,1.22-.08,4.36-.05,6.31-.03.03.68-.56,1.15-.56,1.15h-3.16c-4.37-.35-3.85,1.42-3.85,1.42,0,0,.55,6.26-1.93,6.56-2.48.3-3.42-1.14-3.42-1.14l-1.65-6.24s2.24-15.7,2.6-17.94Z"/>
        <g>
          <g>
            <rect class="cls-35" x="389.15" y="121.28" width="175.68" height="5.17" rx="1.1" ry="1.1" transform="translate(953.99 247.72) rotate(-180)"/>
            <path class="cls-20" d="m388.89,123.86c0-1.57,1.28-2.85,2.85-2.85h170.51c1.57,0,2.85,1.28,2.85,2.85s-1.28,2.85-2.85,2.85h-170.51c-1.57,0-2.85-1.28-2.85-2.85Zm2.85-2.32c-1.28,0-2.32,1.04-2.32,2.32s1.04,2.32,2.32,2.32h170.51c1.28,0,2.32-1.04,2.32-2.32s-1.04-2.32-2.32-2.32h-170.51Z"/>
          </g>
          <path class="cls-37" d="m394.03,124.26h167.63c.61,0,1.11-.5,1.11-1.11h0c0-.61-.5-1.11-1.11-1.11h-167.63c-.61,0-1.11.5-1.11,1.11h0c0,.61.5,1.11,1.11,1.11Z"/>
        </g>
        <g>
          <g>
            <path class="cls-12" d="m398.44,173.36c.13-1.07-.03-2.15-.11-3.21-.06-.9-.09-1.86-.49-2.69-.22-.45-.57-.79-1.08-.83-.56-.04-1.13.2-1.63.42-.88.39-1.71.87-2.56,1.32l.37,9.7c.77-.23,1.53-.49,2.26-.83,1.64-.77,3.01-1.99,3.24-3.87Z"/>
            <path class="cls-29" d="m392.95,178.33c-.06,0-.11-.01-.16-.05-.07-.05-.11-.12-.11-.2l-.37-9.7c0-.1.05-.2.14-.24l.61-.32c.64-.34,1.29-.7,1.97-1,.55-.24,1.14-.48,1.75-.44.56.04,1.01.37,1.3.98.39.81.45,1.71.51,2.57v.21c.03.25.05.5.07.75.07.82.15,1.67.04,2.51h0c-.21,1.76-1.35,3.13-3.39,4.08-.66.31-1.39.58-2.3.84-.02,0-.04,0-.07.01Zm-.11-9.8l.35,9.19c.74-.23,1.35-.46,1.9-.72,1.86-.87,2.9-2.1,3.09-3.67h0c.09-.79.02-1.61-.05-2.4-.02-.25-.04-.51-.06-.76v-.21c-.07-.82-.12-1.66-.47-2.38-.21-.43-.5-.66-.86-.68-.49-.04-1.01.18-1.5.4-.66.29-1.31.64-1.94.98l-.46.25Z"/>
          </g>
          <path class="cls-76" d="m394.48,169.75c-.04-.06,0,0-.04-.05-.02-.02-.03-.04-.05-.05,0,0-.04-.03-.05-.04-.01,0-.04-.03-.05-.03-.01,0-.05-.02-.06-.03-.02,0-.04-.01-.06-.02-.01,0-.04,0-.05,0-.02,0-.04,0-.06,0-.09,0-.07,0-.16.03-.07.02-.14.05-.18.07-.03.02-.07.02-.1.03-.07.19-.12.39-.16.6-.04.29-.05.68,0,.95.03.15.07.31.13.45-.02-.04.03.05.03.07.01.03.03.05.04.07.02.02.03.05.05.07,0,0,.03.04.04.04.01.01.08.06.06.05-.02-.01.05.03.06.03.01,0,.02.01.03.02,0,0,0,0,0,0,.03,0,.06.01.09.02,0,0,.02,0,.03,0,0,0,.02,0,.03,0,.03,0,.06,0,.09,0,0,0,.01,0,.01,0,0,0,0,0,.01,0,.03,0,.05-.02.08-.02.01,0,.02,0,.02,0,0,0,0,0,.02-.01.02-.01.05-.03.07-.04.05-.03,0,0,.03-.02.02-.02.04-.04.06-.06.01-.01.06-.07.05-.06-.01.02.02-.03.03-.05.03-.05.06-.11.09-.17.03-.07.03-.06.06-.16.02-.06.03-.12.05-.19.03-.16.04-.23.04-.4,0-.3-.02-.52-.13-.8-.04-.1-.07-.18-.16-.29Z"/>
          <path class="cls-13" d="m398.33,170.15c-.06-.9-.09-1.86-.49-2.69-.22-.45-.57-.79-1.08-.83-.56-.04-1.13.2-1.63.42-.77.34-1.51.75-2.25,1.15.64-.21,1.32-.29,1.91.05.72.41,1.02,1.27,1.17,2.03.21,1.06.17,2.12-.27,3.12-.4.91-1.12,1.67-2.04,2.05-.26.11-.53.18-.8.22l.09,2.39c.77-.23,1.53-.49,2.26-.83,1.64-.77,3.01-1.99,3.24-3.87.13-1.07-.03-2.15-.11-3.21Z"/>
          <g>
            <g>
              <path class="cls-12" d="m396.55,144.37c-.64-.98-2.18-1.68-3.63-2.16-1.87,4.32-1.09,8.18-1.09,8.18l.63,16.19c1.51-.42,3.62-1.09,4.52-1.8,1.48-1.17.94-18.32-.43-20.41Z"/>
              <path class="cls-29" d="m392.47,166.82c-.05,0-.11-.01-.15-.04-.06-.04-.1-.11-.1-.18l-.63-16.19c-.03-.13-.77-3.94,1.11-8.27.05-.11.19-.17.31-.13,1.92.63,3.19,1.39,3.76,2.25,1.26,1.93,2.08,19.38.38,20.71-.92.73-3.02,1.4-4.61,1.84-.02,0-.04,0-.06,0Zm.59-24.31c-1.71,4.12-1,7.8-.99,7.84l.62,15.93c1.5-.43,3.33-1.04,4.13-1.67,1.33-1.05.92-17.97-.49-20.12h0c-.48-.73-1.61-1.42-3.28-1.99Z"/>
            </g>
            <g class="cls-78">
              <path class="cls-76" d="m392.28,162.06s.04.04.06.05c.57-1.19.55-2.63.53-3.9-.01-1.39.03-2.77.06-4.16.04-1.6.08-3.21.39-4.78.4-2.01,1.27-3.94,2.46-5.68-.77-.58-1.83-1.04-2.86-1.37-1.87,4.32-1.09,8.18-1.09,8.18l.46,11.66Z"/>
            </g>
            <g class="cls-71">
              <path class="cls-12" d="m396.55,144.37c-.54-.82-1.7-1.45-2.92-1.91.41.27.79.6,1.1,1,.62.79.93,1.75,1.1,2.71.22,1.25.3,2.54.38,3.8.09,1.39.15,2.78.2,4.17.06,1.8.2,3.61.08,5.41-.1,1.43-.4,2.9-1.33,4.08-.7.88-1.67,1.43-2.73,1.77l.05,1.18c1.51-.42,3.62-1.09,4.52-1.8,1.48-1.17.94-18.32-.43-20.41Z"/>
            </g>
          </g>
        </g>
        <g>
          <g>
            <path class="cls-12" d="m406.82,74.98l6.67-.03c1.03,0,1.87-.85,1.87-1.89h0c0-1.03-.85-1.87-1.89-1.87l-6.67.03c-1.03,0-1.87.85-1.87,1.89h0c0,1.03.85,1.87,1.89,1.87Z"/>
            <path class="cls-10" d="m405.3,74.63c-.41-.4-.63-.94-.64-1.51,0-1.18.95-2.15,2.13-2.16l6.67-.03c.57,0,1.11.22,1.52.62.41.4.63.94.64,1.51,0,.57-.22,1.11-.62,1.52-.4.41-.94.63-1.51.64l-6.67.03h-.01c-.57,0-1.1-.22-1.51-.62Zm8.16-3.17l-6.67.03c-.89,0-1.61.73-1.6,1.62,0,.43.17.83.48,1.13.31.3.71.48,1.14.47l6.67-.03c.43,0,.83-.17,1.13-.48.3-.31.47-.71.47-1.14,0-.43-.17-.83-.48-1.13-.3-.3-.71-.47-1.13-.47h0Z"/>
          </g>
          <path class="cls-77" d="m410.97,73.39h2.41c.45-.01.82-.39.82-.84h0c0-.45-.38-.82-.83-.82h-2.41c-.45.01-.82.39-.82.84h0c0,.45.38.82.83.82Z"/>
        </g>
        <g>
          <path class="cls-65" d="m573.55,127.6h11.43c1.22,0,2.23-1,2.23-2.23h0c0-1.22-1-2.23-2.23-2.23h-11.43c-1.22,0-2.23,1-2.23,2.23h0c0,1.22,1,2.23,2.23,2.23Z"/>
          <g>
            <rect class="cls-27" x="571.8" y="121.64" width="15.88" height="4.45" rx=".94" ry=".94" transform="translate(1159.47 247.72) rotate(-180)"/>
            <path class="cls-46" d="m571.53,124.22v-.71c0-1.18.96-2.14,2.14-2.14h12.14c1.18,0,2.14.96,2.14,2.14v.71c0,1.18-.96,2.14-2.14,2.14h-12.14c-1.18,0-2.14-.96-2.14-2.14Zm2.14-2.31c-.88,0-1.6.72-1.6,1.6v.71c0,.88.72,1.6,1.6,1.6h12.14c.88,0,1.6-.72,1.6-1.6v-.71c0-.88-.72-1.6-1.6-1.6h-12.14Z"/>
          </g>
          <path class="cls-37" d="m577.94,124.26h7.7c.49,0,.89-.4.89-.89h0c0-.49-.4-.89-.89-.89h-7.7c-.49,0-.89.4-.89.89h0c0,.49.4.89.89.89Z"/>
        </g>
      </g>
      <g>
        <g>
          <path class="cls-4" d="m1623.21,104.3c0-.27,2.31-16.13,2.59-16.6l1.76-9,5.59-.59s-2.25,11.65-2.47,12.24c-.14.36-5.16,18.34-5.16,18.34,0,0,.06,2.34-.76,2.34s-3.74-.85-3.74-.85l-.36-1.49,2.55-4.4Z"/>
          <rect class="cls-5" x="1605.33" y="112.41" width="30.31" height="21.77" rx="10.89" ry="10.89" transform="translate(3240.98 246.59) rotate(-180)"/>
          <path class="cls-43" d="m1626.93,113.14v-1.07c0-1.03-.84-1.87-1.87-1.87h-4.4c-1.03,0-1.87.84-1.87,1.87v1.07h-1.49v-1.07c0-1.85,1.51-3.36,3.36-3.36h4.4c1.85,0,3.36,1.51,3.36,3.36v1.07h-1.49Z"/>
          <rect class="cls-19" x="1610.76" y="112.41" width="30.32" height="21.77" rx="10.89" ry="10.89" transform="translate(3251.83 246.59) rotate(180)"/>
          <path class="cls-43" d="m1629.89,78.08c.53-6.56,1.23-12.41,1.47-13.15,1.43-4.51,21.1-4.81,23.16,2.67.3,1.09,1.05,4.71-.39,9.88l-11.54-4.62-12.7,5.22Z"/>
          <path class="cls-44" d="m1652.22,69.77c.8,2.92-2.16,32.37-3.44,33.65-1.28,1.28-17.17.25-19.48-2.06-2.31-2.31.8-35.17,2.06-36.43s18.8-2.64,20.86,4.84Z"/>
          <path class="cls-39" d="m1639.41,86.92l.9.15c.53-3.08.95-5.66,1.31-7.82,1.74-10.78,1.52-11.24,1.54-11.37.01-1.68,1.03-3.17,2.59-3.8l3.04-1.24c-.46-.15-.93-.28-1.42-.4l-1.97.8c-3.3,1.34-3.15,4.7-3.16,4.71,0,1.26-.8,6.54-1.55,11.21-.65,4.07-1.27,7.68-1.28,7.76Z"/>
          <path class="cls-39" d="m1631.24,86.34c3.15-18.41,2.83-19.04,2.85-19.19.02-1.68,1.03-3.17,2.59-3.8l4.11-1.67-.34-.84-4.11,1.67c-3.3,1.34-3.15,4.7-3.16,4.71,0,2.36-2.81,18.8-2.84,18.97l.9.15Z"/>
          <path class="cls-43" d="m1650.45,94.5c-.04.31-.08.62-.12.93-4.46.46-16.18,1.28-19.24-.96l.54-.73c2.82,2.07,14.83,1.19,18.82.77Z"/>
          <path class="cls-2" d="m1655.09,149.1s1.18,1.16,1.21,1.58c.03.43.1,4.98-.38,5.41-.48.43-1.9.73-1.45,1.21.34.36,3,.28,4.75.19.51-.03,1.16-4.14,1.36-4.74.3-.88,1.36-2.79,1.09-3.4-.13-.3-1.1-.98-1.98-1.55-.93-.6-1.81-1.94-1.81-1.94l-2.79,3.25Z"/>
          <path class="cls-2" d="m1639.27,151.95s.92,2.6,1.05,2.97c0,.03.4,1.69.4,2.13,0,1.63-7.3-1.38-5.66-2.1.15-.07.61-.59.66-1.14.08-.85-.61-1.92-.61-1.92l4.17.06Z"/>
          <g>
            <path class="cls-43" d="m1629.2,94.91l-2.64,6.78s-1.72,16.18-.72,25.87c.42,4.05,9.51,25.74,9.51,25.74l4.51-.64-6.05-25.68,2.22-9.82,3.15-19.41-9.99-2.83Z"/>
            <path class="cls-41" d="m1641.64,95.27l2.27,7.55,3.45,22.79,11.66,21.32s-1.75,2.67-3.64,3.09l-16.55-21.55-8.97-26.97.31-5.99,11.46-.23Z"/>
          </g>
          <path class="cls-14" d="m1626.67,81.91l6.43.66s.3-5.3.3-7.83c0-3.07-.56-6.9-.93-6.79-1,.31-2.13.67-2.96,1.82-2.87,3.96-2.84,12.14-2.84,12.14Z"/>
          <path class="cls-43" d="m1653.95,156.81c.43-.5,1.85-1,2.13-1.1,1.07-.37,3.56-7.94,3.56-7.94,0,0,2.16.64,2.33.97.17.33-1.34,3.98-1.34,3.98-.28,1.49-1,4.89-1,4.89h-5.06c-.39,0-1.08-.25-.62-.79Z"/>
          <path class="cls-43" d="m1641.13,157.58l-.82-2.66s-1.77.76-2.65.63c-.88-.12-2.59-.62-2.59-.62-3.5,1.16-6.37,1.72-5.85,2.65h11.91Z"/>
          <path class="cls-7" d="m1640.82,67.58s3.41.47,4.3,1.12c1.01.73,4.14,4.16,4.14,4.16,0,0-6.51,18.47-6.25,21.76.25,3.29.97,8.15.97,8.15,0,0-12.64.79-17.42-1.08,0,0,1.51-7.45,1.51-9.4s.85-21.5,1.45-22.52c.6-1.02,1.82-1.61,4.13-2.11,2.31-.5,7.18-.08,7.18-.08Z"/>
          <path class="cls-2" d="m1639.89,62.31l.84,5.27s-3.08,6.71-4.91,6.14c-1.54-.47-.59-6.24-.59-6.24,0,0,.84-3.09.59-4.64-.25-1.55,4.08-.54,4.08-.54Z"/>
          <path class="cls-5" d="m1635.82,62.85c-.25-1.55,4.08-.54,4.08-.54l.07.45c-.13.3-.28.56-.47.76-.97,1.02-2.48,1.64-3.79,1.69.13-.83.21-1.73.11-2.36Z"/>
          <g>
            <path class="cls-2" d="m1640.61,54.57c.12-.04.98,6.23-.65,7.96-1.63,1.73-4.8,2.29-5.94.93-1.26-1.5-1.2-8.25,1.34-10.02,2.53-1.78,5.25,1.13,5.25,1.13Z"/>
            <path class="cls-7" d="m1643.35,54.78c1.45,2.55.4,5.27-1.38,6.63-1.79,1.36-1.75,2.92-1.75,2.92l-.29-.8c-.21-.62-.29-1.27-.22-1.91.04-.39.13-.81.29-1.15.43-.91-.92-1.51-1.3-2.27-.29-.58-.31-1.91-.77-2.87l-.55-.73s-1.27-.97-2.51-.7c-1.24.27,5.3-4.7,8.49.89Z"/>
            <path class="cls-2" d="m1638.77,59.31c-.01.77.34,1.39.79,1.4.45,0,.82-.61.84-1.37.01-.77-.34-1.39-.79-1.4-.45,0-.82.61-.84,1.37Z"/>
          </g>
          <path class="cls-44" d="m1636.76,52.11c.48-.34,1.38-.98,2.29-1.47,1.2-.64,2.66-.5,3.71.35,1.43,1.16,3.16,2.89,2.94,4.38,0,0-1.66,3.47-1.66,4.29v1.98s-7.91-3.95-11.49-8.68c0,0,2.48.34,4.21-.86Z"/>
          <path class="cls-69" d="m1635.95,52.55c2.66,3.37,6.61,5.48,8.29,6.27-.04.11-.07.22-.1.32-.78-.36-2.07-1.02-3.48-1.95-1.55-1.02-3.49-2.54-5.03-4.52.11-.04.22-.08.32-.12Z"/>
          <g>
            <path class="cls-43" d="m1649.41,114.47h1.09s0-4.02,0-4.02c0-.12.09-.21.19-.21h5.93c.11,0,.19.1.19.21v4.02s1.09,0,1.09,0v-4.02c0-.78-.57-1.41-1.28-1.41h-5.93c-.71,0-1.28.63-1.28,1.41v4.02Z"/>
            <path class="cls-7" d="m1645.47,112.17h15.42c5.7,0,10.32,4.63,10.32,10.32h0c0,5.7-4.63,10.32-10.32,10.32h-15.42c-5.7,0-10.32-4.63-10.32-10.32h0c0-5.7,4.63-10.32,10.32-10.32Z" transform="translate(3306.37 244.99) rotate(180)"/>
            <path class="cls-14" d="m1637.09,112.17h3.21c-1.07,0-1.94.77-1.94,1.72v17.21c0,.95.87,1.72,1.94,1.72h-3.21c-1.07,0-1.94-.77-1.94-1.72v-17.21c0-.95.87-1.72,1.94-1.72Z"/>
          </g>
          <path class="cls-3" d="m1651.79,105.78c.24-.16-.02-4.04-.02-4.04,0,0-.39-11.19-.44-11.79l-5.03-10.33,4.34-4.06s5.17,11.39,5.34,12.04c.17.64-1.03,15.85-1.09,17.2,0,0,.91,2.03,1.19,3.06.28,1.03-.21,2.07-.18,2.37,0,.04-1.12.7-1.42.61-.89-.26-1.39-.33-1.6-.28-1.24.28-.83-1.52-1.04-1.51-.2,0-.9,0-1.02,0-.19,0-.32-2.43.96-3.26Z"/>
          <path class="cls-14" d="m1653.49,79.49l-5.7,4.4s-2.52-2.39-3.78-5.03c-1.28-2.68-.38-10.6.98-10.24,3.04.81,8.5,10.87,8.5,10.87Z"/>
          <path class="cls-43" d="m1633.05,65.54v1.78s.13-.35.13-.35c-.02.03-3.43,3.81-5.14,12.1l-.16.81c-.43,2.57-.54,4.08-.53,4.07-.26,3.66-.15,5.13.09,8.19.04.52.76.64.97.16.71-1.66.99-3.37,1.26-5.03.22-1.42.39-3.88.39-3.87.04-.31.19-2.77,1.03-6.87,1.19-5.43,2.6-8.15,2.89-8.86,0-.01.14-.17.13-.16v-1.97c0-.3-.24-.54-.54-.54s-.54.24-.54.54Z"/>
          <path class="cls-43" d="m1642.11,65.92l-.05,1.46v.29c-2.11,3.71-5.13,12.14-3.5,20.63.61,2.78,1.98,6.41,4.55,7.61.25.16.73-.06.89-.32.16-.25-.48-1-.48-.99-1.34-2.48-1.94-10.53-1.84-12.83.06-5.22,1.01-10.37,1.47-13.77l.03-2.04c.01-.3-.21-.55-.51-.56-.3-.01-.55.21-.56.51Z"/>
          <path class="cls-4" d="m1624.92,110.81s1.09-1.36.43-1.84c-.66-.47-3.39.13-3.59.33-.2.2-.97.89-.97.89l4.13.62Z"/>
        </g>
        <g>
          <path class="cls-43" d="m1556.93,76.7l3.08-7.46c1.43-3.46,6.07-6.48,9.46-4.9l8.37-17.65c.71-1.73,2.69-2.55,4.42-1.84h0c1.73.71,2.55,2.69,1.84,4.42l-8.27,17.45c7.74,2.83.56,13.06-.87,16.53,0,0,2.35,5.04,1.13,9.68-3.35,12.78-11.33,13.67-17.32,11.2l-3.65-1.5c-6-2.47-5.85-14.22-2.71-20.79.84-1.76,4.52-5.12,4.52-5.12Z"/>
          <path class="cls-43" d="m1534.68,61.83c-.45-2.03-.88-4.08.29-6.31.95-1.81,2.6-2.85,4.51-3.07,5.41-.64,5.88,4.19,11.02,6.3,2.19.9,4.44.64,6.4,1.81,3.54,2.11,2.24,4.66-.11,10.17-5.75,13.49-15.64,5.68-17.38,3.02-1.3-1.98-4.45-10.62-4.73-11.93Z"/>
          <g>
            <path class="cls-4" d="m1537.8,68.77c2.9.91,9.05,5.43,9.44,5.33l7.16-5.7,4.4,3.86s-9.82,7.27-10.38,7.54c-.41.2-8.2-6.42-12.28-8.41.06-1.33,1.01-1.47,1.66-2.63Z"/>
            <path class="cls-19" d="m1549.19,71.6l4.48,5.81s4.73-3.63,6.47-5.59c2.11-2.37,4.43-7.46,4.09-7.65-.96-.52-3.02-.94-4.45-.62-4.93,1.1-10.59,8.05-10.59,8.05Z"/>
          </g>
          <g>
            <path class="cls-4" d="m1537.99,72.02l.55-2.89s-1.63.39-2.67,2c-1.04,1.61-2.78,7.07-3.08,7.23-.3.16-3.58-4.9-4.16-5.7-.71-.99-.98-2.12-1.42-2.98-.45-.86-2.01-1.15-2.61-1.05-.59.11.82,2.63.82,2.63,0,0,3.56,6.19,4.75,9.58,1.19,3.39,4.9,5.01,5.49,4.52.59-.48,2.33-13.35,2.33-13.35Z"/>
            <path class="cls-7" d="m1537.35,80.68l-4.54-2.59s2.06-8.69,5.73-8.96l-1.2,11.55Z"/>
            <path class="cls-2" d="m1527.17,70.16s-.15-.65-.55-.79c-.4-.13-1.1-.01-1.14,0-.04.01-.81-.4-.81-.4l.64,1.18s1.24,1.47,1.66.92c.41-.55.21-.92.21-.92Z"/>
            <path class="cls-4" d="m1524.45,69.03s-.45,2.29-.34,2.76c.11.48.4.22.45.12.22-.43.38-1.9.38-1.9l-.49-.99Z"/>
            <path class="cls-4" d="m1525.42,70.93s-.21,1.42-.43,1.58c-.14.11-.33.04-.38-.24-.06-.29.29-2.03.29-2.03l.53.69Z"/>
            <path class="cls-14" d="m1526.73,74.95l.75-.36-3.17-6.5h0c-.41.2-.58.7-.38,1.11l2.8,5.75Z"/>
            <path class="cls-2" d="m1556.3,147.06s.38,3.91,1.37,4.63c.99.72,2.31,3.37,1.65,4.81-.21.45-.62.71-1.09.85-1.39.43-2.87-.29-3.46-1.62-.33-.74-.62-1.73-.68-2.98-.15-3.18-1.14-4.79-1.14-4.79l3.34-.89Z"/>
            <path class="cls-2" d="m1541.1,148.66s-.31,3.94-.06,5.23c.14.69.89,2.1.54,2.75-.35.65-.74.81-.74.81l-8.98.14c-.49,0-.17-.31.23-.6.65-.47,1.17-.79,3.23-1.78.13-.06.62-.38.8-.48.45-.27.9-.7,1.28-1.13.64-.72.7-4.19.7-4.19l2.99-.74Z"/>
            <path class="cls-19" d="m1534.08,96.24s-1.13,6.4-.39,10.6c.74,4.2,4.3,43.11,4.3,43.11l3.96.22s.83-16.25.68-18.52c-.15-2.26-1.32-6.04-1.32-6.04l.39-13.12-5-17.24-2.63.99Z"/>
            <path class="cls-5" d="m1545.72,94.89s3.12,4.68,3.86,8.56c.74,3.88-.54,15.78.88,20.86.77,2.75,3.7,6.99,4.15,10.55.45,3.55,2.19,12.86,2.19,12.86l-3.96.78-9.2-23.24-7.21-21-1.85-10.82,11.13,1.45Z"/>
            <path class="cls-14" d="m1543.19,68.25s2.14.35,3.73,1.91c3.41,3.34-2.01,16.23-2.3,18.49-.3,2.26,2.43,7.53,2.43,7.53,0,0-10.2,1.89-12.97.06,0,0-.33-18.14-.03-19.75.3-1.61,3.62-6.6,4.21-7.24.59-.65,4.93-.99,4.93-.99Z"/>
            <path class="cls-2" d="m1547.05,71.67c-.26-.8-1.17-1.18-1.93-.85-1.05.46-2.51,1.32-3.22,2.8-1.19,2.48-5.34,10.98-6.63,11.3-1.29.32-6.53-8.83-6.53-8.83,0,0,.15-1.61-.3-2.53-.45-.92-1.78-1.88-1.98-1.56-.2.32.74,1.13.74,1.29s-.4.27-.94-.05c-.54-.32-.84-.98-.84-.98,0,0-.89,1.62.05,3.08.94,1.45,1.34,2.05,1.34,2.05,0,0,6.09,13.51,8.31,13.67,2.07.15,14.02-13.1,11.93-19.4Z"/>
            <path class="cls-2" d="m1541.82,62.74s.02.12.06.33c.18.99.89,4.28,1.37,5.18.58,1.09-1.98,4.57-4.44,4.15-.73-.13.62-3.2.55-3.52-.12-.62-.29-1.47-.47-2.34-.1-.49-.2-.99-.29-1.46-.26-1.33-.48-2.42-.48-2.42l3.69.09Z"/>
            <path class="cls-5" d="m1541.88,63.07c-.04-.21-.06-.33-.06-.33l-3.69-.09s.21,1.09.48,2.42c.09.47.19.96.29,1.45.57-.08,1.17-.36,1.76-.88.65-.57,1.08-1.25,1.33-1.98-.05-.23-.08-.43-.11-.59Z"/>
            <path class="cls-2" d="m1539.6,53.97s1.51.21,2.6,1.62c1.09,1.41,2.27,5.76-.44,8.13-2.71,2.37-5.39-.31-5.78-3.15s-.32-6.69,3.63-6.59Z"/>
            <path class="cls-2" d="m1535.1,59.59c.32.63.87.97,1.21.78.35-.2.36-.87.04-1.5-.32-.63-.87-.97-1.21-.78-.35.2-.36.87-.04,1.5Z"/>
            <path class="cls-43" d="m1539.14,53.91s2.32,4.14,3.99,4.33c1.66.19,1.88,2.39,1.88,2.39,0,0-.59-5.07-2.24-6.05-1.65-.98-3.63-.68-3.63-.68Z"/>
            <path class="cls-2" d="m1542.58,59.22c-.14.74.14,1.41.61,1.51.47.1.96-.42,1.1-1.16.14-.74-.14-1.41-.61-1.51-.47-.1-.96.42-1.1,1.16Z"/>
            <path class="cls-44" d="m1554.51,155.03c2.16.39,3.59-.87,4.34-1.81.55,1.07.88,2.4.48,3.28-.36.77-1.29.83-2.1.87-.86.03-1.71-.27-2.14-1.02-.2-.35-.41-.79-.58-1.31Z"/>
            <path class="cls-44" d="m1536.12,154.72c2.37.61,4.13.19,5.11-.2.25.72.59,1.61.41,2.13-.22.63-.53.78-.8.78-2.17.06-7.94.13-9.6.16-.23,0-.36-.27-.21-.44.41-.49,4.91-2.32,5.09-2.43Z"/>
          </g>
          <path class="cls-7" d="m1543.72,83.55l-5.34-3.51s2.23-6.29,4.68-8.52c2.45-2.23,3.61-1.69,4.12-1.22,1.42,1.28,1.17,4.4-.45,8.24-1.61,3.84-3.01,5.01-3.01,5.01Z"/>
          <path class="cls-2" d="m1552.12,149.35s.21,3.68.21,3.69c.08.47.38,1.62.38,2.05,0,1.6-7.1-1.36-5.51-2.06.14-.06.9-.55.95-1.09.07-.84.26-2.53.26-2.53l3.72-.05Z"/>
          <path class="cls-5" d="m1547.21,153.01s1.67.49,2.52.61c.85.12,2.07-.46,2.67-.18.66.31.45,3.93.45,3.93,0,0-9.02.23-12.01.08-1.05-.05,2.96-3.29,6.37-4.43Z"/>
          <path class="cls-2" d="m1567.77,149.71s.21,3.68.21,3.69c.08.47.38,1.62.38,2.05,0,1.6-7.1-1.36-5.51-2.06.14-.06,1.12-.91,1.17-1.45.07-.84.03-2.17.03-2.17l3.72-.05Z"/>
          <path class="cls-5" d="m1562.86,153.36s1.67.49,2.52.61c.85.12,1.98-.91,2.58-.63.67.31.84,3.99.84,3.99,0,0-9.81.44-12.11.11-1.04-.15,2.76-2.94,6.17-4.08Z"/>
          <path class="cls-41" d="m1556.51,96.55l-3,1.3-6.32,30.17.26,22.62,5.06.12s2.36-19.78,2.36-21.32,10.91-26.83,10.91-26.83l-9.27-6.05Z"/>
          <path class="cls-47" d="m1558.83,98.21s.84,22.89.84,26.8,1.2,25.95,1.2,25.95l7.05.23s.37-6.68.91-16.52c.09-1.54-.11-4.65,0-6.24.79-11.47,2.35-22.26,1.61-26.54-.12-.69-.35-2.49-.79-2.94-3.32-3.44-10.81-.73-10.81-.73Z"/>
          <path class="cls-5" d="m1567.19,63.45s3.5.49,4.42,1.16c1.04.76,2.19,2.47,2.19,2.47,0,0-4.3,20.33-4.31,23.75,0,2.65.93,9.14.93,9.14,0,0-13,.82-17.92-1.12,0,0,1.55-7.73,1.55-9.76s1.86-20.48,2.28-21.77c.38-1.17,1.09-3.27,3.46-3.79,2.37-.52,7.38-.09,7.38-.09Z"/>
          <path class="cls-2" d="m1566.23,57.98l.84,5.48s-2.63,4.7-4.52,4.12c-1.59-.49-1.11-4.22-1.11-4.22,0,0,.86-3.21.61-4.82-.26-1.61,4.19-.56,4.19-.56Z"/>
          <path class="cls-5" d="m1562.04,58.53c-.26-1.61,4.19-.56,4.19-.56l.07.47c-.13.31-.29.58-.48.79-.99,1.06-2.55,1.7-3.89,1.75.13-.87.22-1.8.11-2.45Z"/>
          <g>
            <path class="cls-2" d="m1566.96,49.94c.13-.05,1.01,6.47-.67,8.26-1.68,1.79-4.94,2.38-6.11.97-1.3-1.56-1.23-8.56,1.38-10.4,2.61-1.84,5.4,1.18,5.4,1.18Z"/>
            <path class="cls-19" d="m1562.55,45.28c2.01.41,3.32,1.63,3.8,2.15.91.11,2.16.61,3.44,2.72,1.58,2.6.41,5.47-1.42,6.88-.99.76-1.44,1.59-1.64,2.2-.07.22-.39.22-.46,0h0c-.21-.64-.3-1.32-.23-1.99.04-.4.13-.84.3-1.19.44-.94-.95-1.57-1.34-2.35-.3-.6-.31-1.98-.79-2.98l-.57-.76s-1.3-1.01-2.58-.72c-1.28.28-1.09-4.48,1.49-3.95Z"/>
            <path class="cls-2" d="m1565.08,54.86c-.01.79.35,1.44.81,1.45.46,0,.85-.63.86-1.42.01-.79-.35-1.44-.81-1.45-.46,0-.85.63-.86,1.42Z"/>
          </g>
          <rect class="cls-14" x="1552.04" y="77.87" width="1.41" height="11.11" rx=".46" ry=".46" transform="translate(1205.84 1599.21) rotate(-80.18)"/>
          <path class="cls-2" d="m1572.5,66.07c-1.18-.03-2.22,7.74-1.47,8.51.75.77.89,10.34.89,10.34l-11.12-.28h0c-.22-.14-2.55-1.71-2.88-2.05-.35-.36-2.05-.18-2.5.31-.45.49.86.32,1.26.51.44.21-.16.79-.16.79,0,0-2.82.41-3.37-.17-.55-.58-2.02-1.57-2.22-.99-.1.3.65,1.21,1.08,1.59-.53-.4-1.17-.82-1.39-.75-.4.13-.23.64-.02.79.22.15,2.45,1.86,2.8,1.98.34.12,5.54.25,6.44.44,0,0,14.66,3.34,15.5,3.13.73-.18,1.46-4.88,1.46-8.47s-.63-15.59-4.32-15.7Z"/>
          <path class="cls-5" d="m1570.97,64.29s2.56.6,4.17,2.85c1.68,2.36,3.14,14.29,3.14,14.29l-6.65,1.08-.53-5.87-1.78-2.68,1.65-9.67Z"/>
          <path class="cls-2" d="m1539,68.89s-.46-.51-1.33-.45c-.87.06-2,1.16-2.16,1.55-.08.2.46,1.8.7,2.15.14.21.46.31.57.2.07-.07,0-.43-.02-.51-.04-.15-.33-1.14-.33-1.14,0,0,.56,1,.82,1.06.26.06.41-.15.39-.23-.08-.42-.51-1.23-.51-1.23,0,0,.66.96.98.86.32-.1.19-.44.14-.56-.05-.12-.5-.78-.5-.78,0,0,.71.98.85.63.08-.21-.38-1.15-.38-1.15l.78-.4Z"/>
          <polygon class="cls-43" points="1571.32 63.28 1554.24 80.41 1554.24 82.51 1573.8 64.68 1571.32 63.28"/>
        </g>
      </g>
    </g>
  </g>
</svg>