<?xml version="1.0" encoding="utf-8"?>
<!-- Generator: Adobe Illustrator 27.4.1, SVG Export Plug-In . SVG Version: 6.00 Build 0)  -->
<svg version="1.1" id="Livello_1" xmlns="http://www.w3.org/2000/svg" xmlns:xlink="http://www.w3.org/1999/xlink" x="0px" y="0px"
	 viewBox="0 0 5670.8 1764.7" style="enable-background:new 0 0 5670.8 1764.7;" xml:space="preserve">
<style type="text/css">
	.st0{fill:#F9F2D7;}
	.st1{fill:#F5C894;}
	.st2{fill:#5A3A29;}
	.st3{fill:#E2B080;}
	.st4{fill:#5F9BC4;}
	.st5{fill:#F79F38;}
	.st6{fill:#F16F46;}
	.st7{fill:#2D2D2D;}
	.st8{fill:#FCDD87;}
	.st9{fill:#363791;}
	.st10{fill:#282562;}
	.st11{fill:#141538;}
	.st12{opacity:0.7;}
	.st13{fill:#7E8D9D;}
	.st14{fill:#CFD4DA;}
	.st15{opacity:0.15;fill:#CFD4DA;enable-background:new    ;}
	.st16{fill:#18324E;}
	.st17{opacity:0.4;fill:#50398F;enable-background:new    ;}
	.st18{fill:#9FC86A;}
	.st19{opacity:0.3;fill:#59843D;enable-background:new    ;}
	.st20{fill:#59843D;}
	.st21{fill:#FBD65A;}
	.st22{fill:#FBBC3E;}
	.st23{fill:#FB9A3A;}
	.st24{fill:#3C536A;}
	.st25{fill:#A2C872;}
	.st26{opacity:0.5;fill:#59843D;enable-background:new    ;}
	.st27{fill:#FFFFFF;}
	.st28{fill:#464647;}
	.st29{fill:#D63909;}
	.st30{fill:#B1340B;}
	.st31{fill:#039AD6;}
	.st32{fill:#0084AD;}
	.st33{fill:#01AEFF;}
	.st34{fill:#68C1E0;}
	.st35{fill:#7ED7FF;}
	.st36{opacity:0.2;}
	.st37{fill:#5D5D5D;}
	.st38{fill:#4B4C4C;}
	.st39{fill:#67CCFF;}
	.st40{fill:#C8C8CA;}
	.st41{opacity:0.1;}
	.st42{fill:#686868;}
	.st43{fill:#515151;}
	.st44{fill:#066C84;}
	.st45{fill:#DCF6FF;}
	.st46{fill:#FFDE0B;}
</style>
<g>
	<g id="Layer_1">
		<path class="st0" d="M5233.9,49.7c-577.5-193.4-931.8,227.4-1636.1,405c-1164.6,293.7-1701-479.5-3065.7-95.3
			C294.4,426.4,109.4,506.5,0,558l0,0v1206.7h5670.7V317.4h0.1C5580.7,232.3,5435.6,117.2,5233.9,49.7L5233.9,49.7z"/>
	</g>
</g>
<g>
	<path class="st1" d="M450.6,997.7l50.6,143.2l-25.2,7c0,0-36.5-57.6-43-77.9c-6.5-20.2-15.6-45.4-15.6-45.4L450.6,997.7z"/>
	<path class="st1" d="M179.8,1157.8c0,0-6.1-109-5.9-123.5s2.9-34.6,2.9-34.6l46.8,9.2c0,0-3.3,16.3-5,23.8
		c-1.8,7.6-14.8,124.8-14.8,124.8L179.8,1157.8z"/>
	<path class="st2" d="M261.4,737.1c0.6-6,3.3-10.7,4.5-16.3c2.7-12.3,5.4-25.1,19.4-25c3.7,0,7.2,0.7,10.9,0.7
		c5.8-0.1,9.4-4,14.8-5.2c5.2-1.1,10.7-0.9,15.9,0.2c9.9,2.1,17.4,7.6,22.4,16.7c0.5,0.9,5.2,2.2,5.5,3.6c4,19.9,10.5,25.3,7.6,38.9
		c-2,9-1.5,13.1-5.9,21.2c-0.9,7.7-4.3,20-10.4,24.1c-5.8,3.8-15.3,1.9-22.1,1.6c-14.5-0.6-28.5-5.8-43.1-1.6
		c-5.2,1.5-16.1-24-17.4-28.3C261,758.2,260.3,748.3,261.4,737.1z"/>
	<path class="st1" d="M341.5,866.3c-0.1-0.5-0.1-1.1-0.2-1.7c-2-5.2-3.8-10.5-4.8-16c-0.1-0.5-0.2-1.1-0.3-1.6
		c-1.1-6.1-1.6-12.4-1.8-18.6c-1.2-0.6-3.1-0.3-3.3,1.4c-0.1,0.9-0.1,1.7,0,2.7c-2.8-1.4-6.6-1.2-9.6,0.2c-3.1-0.5-6.4,0.5-8.7,2.7
		c-1.3,0.1-2.5,0.4-3.7,0.8H309c-1.7-2.1-4.1-3.3-6.7-3.6c-3.1-3.4-9.1-4.1-13.2-2c-0.1,2-0.3,4-0.5,6.1c-0.5,2.7-0.9,5.6-1.6,8.4
		l0,0c-1.5,6.1-3.7,12.2-7.3,17.3c-0.3,1.5-0.5,2.8-0.6,4.3c0,0.1,0,0.2,0,0.3c-3.2,3.3-4.2,8.4,0.1,12.4c3.1,2.8,7,4,11.3,4.5
		c1.6,2.9,4.7,4.8,8.2,5.2c14.2,1.6,33.6,2.5,44.4-8.5C347.4,876.1,346.2,869.6,341.5,866.3z"/>
	<path class="st3" d="M336.5,848.5c-6.9,1.5-15.8,4-25.3,3.5c-10.9-0.6-18.8-4.5-24.2-7c0.6-2.8,1.2-5.7,1.6-8.4
		c0.3-2,0.5-4.1,0.5-6.1c4.1-2.1,10.1-1.3,13.2,2c2.6,0.3,4.9,1.5,6.7,3.6h0.2c1.1-0.5,2.4-0.7,3.7-0.8c2.3-2.2,5.6-3.1,8.7-2.7
		c3-1.4,6.7-1.6,9.6-0.2c-0.1-0.9-0.1-1.7,0-2.7c0.1-1.6,2-2,3.3-1.4c0.1,6.2,0.7,12.4,1.8,18.6
		C336.3,847.5,336.4,848.1,336.5,848.5z"/>
	<path class="st1" d="M342.5,816.9c2.4-6.4,4.4-13.3,5.1-19c0.3-1.9,0.5-3.8,0.5-5.8c0.5-9.2-0.7-17.6,2.2-26.5
		c0-4.9-0.1-9.8-0.3-14.5c-0.4-9.8-3.8-15.6-9.1-18.7c-5.7-3.4-13.4-3.7-21.3-2.7c-11.3,1.4-23.7-3.2-34.7,1.7
		c-11.6,5.2-14.5,16.5-14.2,28.3c0.2,5.8,0.9,11.6,1.8,17.3c1,6.2-0.2,12.4,0.2,18.6c0.4,4.9,8.7,31.8,14.1,38.6
		c7.2,9.2,19.2,10.1,30.2,9.7c9.9-0.3,16.6-7.9,20.7-16.2C339.4,824.6,341.1,820.8,342.5,816.9z"/>
	<path class="st1" d="M278,794.3c0.3-0.3,0.5-0.7,0.5-1.2c0-0.4,0.1-0.8,0.1-1.2c0.4-0.5,0.5-1.4,0.3-2.2c-0.1-0.4-0.2-0.6-0.4-1
		c-0.3-3.1-1.1-6.2-2.6-9c1.5-0.1,2.9-1.5,1.9-3.1c-1.6-2.8-4.9-7.6-8.9-5.7c-3.8,1.9-3.1,7.7-2.7,11.1c0.8,6.4,2.6,17.2,11.2,16.3
		C279.7,798.1,279.6,795.3,278,794.3z"/>
	<path class="st1" d="M352,773.2c-0.6-0.7-1.5-1.2-2.4-1.3c-2.7-0.2-4.2,3-5,5.8c-0.5,1.6,0.3,2.8,1.3,3.2c-1,3.8-1.6,7.9-2,9.6
		c-0.4,1.5,0.3,2.7,1.2,3.2c0.1,0.1,0.2,0.3,0.3,0.4c-0.5,0.8-1,1.6-1.6,2.5c-1.5,2.4,1.4,5.4,3,3.3c3-3.7,6-9.1,7-14.6
		c0.1-0.3,0.2-0.6,0.3-0.9C355.1,780.8,355.4,774.7,352,773.2z"/>
	<path class="st4" d="M384.6,1069.4c-3.7-24.9-1.1-50.1-2.5-75.2c-0.4-6.4-0.6-12.8-0.8-19.1c1.2,1,2.4,1.9,3.6,3
		c5.2,4.6,17.2,31.2,27.6,43.2c3.8-7.3,8.9-14.1,14-20.7c6.4-8.2,14.5-6.1,22.8-12.4c-14.9-38.1-30.3-101.4-69-121.1
		c-3.6-1.8-38.5-11.7-40.2-7.4c-1.6,4.2-3.8,8.1-7,11.4c-5.6,5.9-13.7,9.2-21.9,9.1c-14.4-0.2-25.5-9.3-32.4-21
		c-2.7-4.7-40.5,6-45.7,8.3c-42,18.7-47.9,73.6-56.9,112.6c-3.6,15.6-2.4,30.6-2.5,46.2c14.2-7.2,31.8-3,47.4-2.7
		c1.6,0,3.3,0.2,4.8,0.5c0.5-3.8,1.3-7.5,2.4-11.3c2.1-7.2,4.8-14.3,7-21.4c0.4-1.1,0.6-2.3,0.9-3.4c1.5,14.4,5.7,100.9,4.8,115.5
		c-0.6,10.1,7,10.4,7.9,10.4c-0.4,0-2.3,0.2-6.7,1.1c-9.8,2,1.5,0.6,2.2,0.9c32.2,13,67.3,18.2,101.8,15.1
		c12.8-1.2,26.3-3.8,36.1-12.4c0.5-0.5,1.1-1,1.6-1.6c6.6-6.4,3.7-3.1,3.7-9.9C387.7,1098.4,386.1,1079.1,384.6,1069.4z"/>
	<path class="st5" d="M232.9,1030.1c0.8,9.9,2,19.9,2.9,29.7c1.6,16.8,1.3,34,0.9,51.2c27.5,0.3,54.8,1.9,82.2,2.7
		c14.8,0.4,29.6,0.5,44.6,0c6.8-0.3,13.6-0.6,20.4-1.3c2.3-0.2,4.5-0.5,6.8-0.6c-0.5-3.1-0.9-6.2-1.6-9.3c-0.2-0.9-0.5-1.8-0.7-2.6
		c-0.1-0.2-0.1-0.3-0.2-0.5c-1.6-17.3-0.9-34.9-0.9-52.2c0-9.6,0.5-19.4,0.4-29c-0.2-8.5-4.3-13.4-9.2-19.4
		c-4.8-5.9-7.1-12.5-8.5-20c-1.6-8.4-3.1-18.6-9-25.3c-8.5-9.7-30.9-3.6-42.7-3.3c-16.1,0.4-32.3,0.5-48.4,0.8
		c-3.9,0.1-8,0.4-11.9,0.8c-13.2,1.6-14.4,12.7-13.9,23.9c0.5,12.3-3.6,20.5-10.1,29.8c-2.3,3.3-2.6,8.1-2.3,13.1
		C232,1022.8,232.7,1026.9,232.9,1030.1z"/>
	<path class="st6" d="M343.5,945c2.1-20.3,1.1-40.7,3.8-61.1c0.3-1.7,0.9-26.5,4.7-25.7c7.9,1.6,15.6,3.6,23.5,5.3
		c6.1,1.4,1.1,16,0.5,19.2c-3.8,21.6-2.9,43.7-5.4,65.4c-1,8.6-1.5,23.4-18.6,19.7c-10.2-2.2-10.1-10.2-9.2-17.1
		C343,948.9,343.3,947,343.5,945z"/>
	<path class="st7" d="M340.6,1580c3.6,2,8.1,2.9,12.3,2.9c21.7,0.3,44.3,1.3,64,0c9.9-0.6,19.1-1.9,27.2-4.1c5.9-1.6,7-8.1,3.4-12.2
		c-5.4-6.2-14.3-8-22.7-9.2c-2.7-0.5-5.2-0.8-7.7-1.3c-12.4-2.5-25-4.9-37.6-6.8c-4.1-0.6-8.3-1.2-12.4-1.5c-1.1,0-2.2-0.1-3.2-0.1
		c-0.5,0-1.6,0-2.5,0c-0.1-0.4-0.2-0.7-0.2-0.8c-0.8-2.7-1.2-5.5-1.6-8.3c-0.7-5.1-7.6-8-12.3-6.7c-5.7,1.5-7.8,6.7-7,11.8
		c0.1,0.5,0.2,0.9,0.2,1.5c-0.8,1.6-1.5,3.4-2.1,5.1c-1.7,4.7-3,9.2-3.7,11.5C332,1571.3,335.3,1576.9,340.6,1580z"/>
	<path class="st7" d="M233.2,1573.8c2.1,3.8,5.7,6.7,9.5,8.4c19.7,8.9,40.7,28.4,59.5,34.5c11.2,3.7,38.3,3.6,36.1-13.2
		c-1.3-9.7-19.5-21.7-26.4-26.5c-2.2-1.6-4.3-3-6.3-4.6c-10-7.9-9-13.7-19.4-21c-3.4-2.4-6.9-4.8-10.5-6.6c-0.9-0.5-1.9-0.9-2.9-1.4
		c-0.4-0.2-1.5-0.6-2.2-1c0.2-0.5,0.3-1,0.3-1.1c0.8-3.7,2-7.2,3.3-10.8c2.3-6.6-2.4-12.6-7.4-13c-6-0.4-10.9,5.1-13.1,11.6
		c-0.2,0.6-0.5,1.2-0.6,1.8c-1.6,1.7-3.3,3.6-4.8,5.4c-4.3,5-8,10-9.9,12.6C230.4,1559.8,230.1,1568,233.2,1573.8z"/>
	<path class="st6" d="M314.6,1223.4c-6.4-31.9-11.9-63.5-9.7-96c0.8-12.3,23.8-12.4,23,0c-0.3,3.8-0.4,7.4-0.5,11.1
		c0-0.1,0-0.1,0-0.2c1.7-6.8,2.7-13.5,2.5-20.5c-0.1-2.5,0.7-4.5,2.1-5.9c0.4-5.6,5.8-11,14.1-8.8c5.8,1.6,11.4,3.3,16.9,5.3
		c3.8-6.6,18.2-7.8,21.9,1.4c0.1,0.3,0.3,0.5,0.4,0.9c3.6,9.5,3.8,19.8,4.2,29.6c0.3,6.5,1.2,13,2.1,19.4c0.6,4.5,1.3,8.9,1.8,13.4
		c3.8,31,7.8,62,11.4,93.1c2.3,19.2,4.6,38.4,6.4,57.6c1.9,20.3-1.4,37.2-5,57.2c-4.9,26.7-7.8,55.2-10.1,82.6
		c-1.3,14.9-2.4,29.8-3.8,44.8c-0.9,10.2-1.4,28.5-1.9,39.3c-6.7,1.6-13.9,2.1-20.9,2.3c-9.1,0.3-31.3,1.1-40-0.5
		c-1.7-2.1,5.1-128.7,5.3-146.5c0.1-9.2,1.5-18.6,2.4-27.8c1.8-12.4,4-25,4.8-37.4c0.1-2.9,0-7.9,0.9-10.7c-1.7-4.2-3.5-8.5-5-12.8
		C327.1,1284.7,320.6,1253.6,314.6,1223.4z"/>
	<path class="st5" d="M229.3,1548.4c15.9,0.6,52.9,0.8,68.8,0.8l8.5-324.8c17.9-0.8,22.2-19.4,23.2-33.6c0.9-13.8-1.5-27.4-1.6-41.1
		c0-0.4,0-0.6-0.1-1c0.9-6.2,1.4-12.4,1.4-18.7c0.1-11.7-20.7-19.7-22.8-9.2c-16.6-11.4-35.6-12.4-56.2-17.8c-2.7-0.7-4.9-0.6-7-0.1
		c-0.5,7-1.9,13.8-3.7,20.5c-2,7.8-4.6,15.5-7,23.2c-0.5,3.9-1,7.9-1.6,11.9c0,3.8,0,7.9,0,12.2c0,55.7-0.9,155.8-7.2,218.8
		C216.9,1462.6,225.5,1526.1,229.3,1548.4z"/>
	<path class="st6" d="M248.9,860.4c3.5-0.8,7-1.4,10.4-2c0.3,0,0.5,0,0.7,0c2.7,0.5,5.4,0.5,8.1,0.4c1.7,1.8,2.9,4.1,3.1,6.7
		c3.1,31.6,7.8,63.1,8.1,94.9c0,5.8-6.4,11.2-13.9,11c-7.6-0.3-13.8-4.8-13.9-11c-0.3-31.8-4.9-63.2-8.1-94.9
		c-0.1-1.3,0.2-2.6,0.7-3.8C245.7,861.3,247.3,860.8,248.9,860.4z"/>
	<path class="st8" d="M349.6,953.6c0.4-0.6,0.9-1.2,1.6-1.6c0.7-1,1.9-1.8,3-2.1c1.5-0.4,3-0.3,4.3,0.5c0.4,0.3,0.7,0.5,1.1,0.9
		c0.7,0.7,1.2,1.6,1.5,2.5c0.2,0.5,0.3,1.2,0.3,1.6c0,0.5-0.1,1.2-0.2,1.6c-0.3,1-0.8,2-1.6,2.7c-1,1-2.3,1.6-3.6,1.9
		c-1.4,0.4-3,0.2-4.3-0.5c-1.2-0.6-2.3-2-2.6-3.3C348.7,956.4,348.8,954.9,349.6,953.6z"/>
	<path class="st8" d="M265.4,953.3c7.1,0,7.1,11.2,0,11.2C258.2,964.4,258.2,953.3,265.4,953.3z"/>
	<path class="st9" d="M233.9,1115.7L233.9,1115.7c0.2-0.7,0.4-1.4,0.5-2.1l0,0c0.2-0.7,0.3-1.5,0.4-2.1c0,0,0,0,0-0.1
		c0.1-0.7,0.2-1.5,0.2-2.2c0-0.5,0-1.1,0-1.6c0-0.1,0-0.2,0-0.4c0-0.5-0.1-1.1-0.2-1.6l0,0c-0.1-0.5-0.2-1.1-0.3-1.6
		c0-0.1,0-0.1,0-0.2c-0.1-0.5-0.3-1.1-0.5-1.6c0.1-0.1,0.1-0.3,0.2-0.4c2.5-4,7.2-4.3,11.4-3.8c7.7,1.1,15.3,2.7,23,3.2
		c7.9,0.5,15.8,0.6,23.7,0.9c16.2,0.5,32.1,0.1,48.3-1c8.1-0.5,37.8-0.7,43.6-3.7c3.8-1.9,6.2-0.8,7.6,1.6c-0.6,2-1,4.1-1.1,6.3
		c-0.2,4,0.9,7.8,2.8,11.2c-0.6,2.4-2.7,4.3-5.3,4.2c-20.7-0.2-41.6,3.9-62.4,4.7c-29.3,1-61.2,2.7-89.7-5.4c-1.4-0.4-2.4-1.2-3-2.3
		l0,0C233.5,1117,233.8,1116.3,233.9,1115.7z"/>
	<path class="st6" d="M348.3,976.3l-77,3.8C271.4,980,304.5,1044,348.3,976.3z"/>
	<path class="st10" d="M168.6,1027c0,0,9.8-20.2,34-13.6c24.3,6.6,24.3,6.6,24.3,6.6l-6.6,28.2c0,0-40-4.5-46.6,0.4
		C167.2,1040.5,168.6,1027,168.6,1027z"/>
	<path class="st10" d="M406.8,1013.4c0,0,33.9-28.2,43.6-34.6c4.7,13.5,7.9,28.6,7.9,28.6s-33.9,27.4-40.7,26
		C410.8,1032,406.8,1013.4,406.8,1013.4z"/>
	<path class="st5" d="M265.1,725.7c0,0-3.1-30.7,14-39.5c15.5-8,40.6-11.3,64.5-0.4c9.8,4.5,12.4,25.4,15.4,39.9
		C295,759.1,265.1,725.7,265.1,725.7z"/>
	<path class="st6" d="M272.9,729.4c0,0-4.7,17.9,37.3,17.9s41.9-18.5,41.9-18.5S301.4,732.5,272.9,729.4z"/>
	<path class="st10" d="M587.9,1179.6l2.9-7.4l-54.4-27.9l-64.6,6.7l9.1,38.4l59.2-10l5.9-14.1L587.9,1179.6z M490.1,1167.8l-2-9.5
		l46.5-4.8l-2.2,12.8L490.1,1167.8z"/>
	<polygon class="st9" points="540,1179.3 546.1,1149.2 590.8,1172.2 587.9,1179.6 546,1165.3 	"/>
	<path class="st1" d="M530,1143.1c-4.3-3.4-11.8-4.5-17-5.3c-6.4-0.9-12.7-4-19.3-3.8c-2.2,0.1-3.7,1.3-4.4,2.8
		c-4.6-1-9.2-0.8-14.1,1.3c-4.7,2-1.9,7.9,1.1,10c2.5,1.7,5.8,1.9,8.1,3.8c2.7,2.1,5,5.3,7.5,7.8c2.7,2.7,6.8,2.7,9.5,0.1
		c0.2-0.2,0.4-0.4,0.5-0.5c0.8,0.5,1.6,1.2,2.5,1.9c4.7,4,8.6,5.8,14.2,2.2c0.5-0.4,1.1-0.7,1.6-1.1c1.2,0.1,2.3,0.5,3.6,0.2
		c0.6-0.2,1.2-0.5,1.7-0.8c2.7,0.2,5.3-1.2,6.6-4.8C533.4,1152.4,533.7,1146,530,1143.1z"/>
	<path class="st11" d="M285.5,1419.1c-0.7,0-1.6,0-2.3-0.1c-16.9-0.7-33-9.2-45.4-24.1c-13.1-15.7-20.6-36.8-21.8-60.9
		c-1.6-33.7-1.6-59.8-1.6-80.7c0.1-29.4,0.1-47-5.4-51.9c-1.5-1.3-3.4-1.4-6.1-1.4c-91.7-1.1-186.9,46.9-207.4,60.5l-2.6-3.9
		c21.2-14.2,107.7-64.6,209.5-61.2c4.1,0.2,7.3,0.4,9.8,2.6c7,6.2,7,22.7,7,55.5c0,21-0.1,46.9,1.6,80.5
		c1.2,23.2,8.3,43.2,20.7,58.1c11.4,13.8,26.4,21.8,41.9,22.4c17,0.7,33.6-7.5,46.8-23.1c15.4-18.3,26.1-46.4,30.8-81.4
		c4.8-34.8,13.6-64.1,26.5-86.9c10.3-18.4,23.3-32.8,38.4-42.6c25.9-16.9,49-14.9,50.1-14.8l-0.5,4.7c-0.2,0-22.7-1.9-47.3,14.3
		c-22.8,15-52.2,49-62.7,126.1c-4.8,35.9-15.9,64.9-31.8,83.8C320.2,1410.4,303.2,1419.1,285.5,1419.1z"/>
	<path class="st1" d="M213.1,1204.9c0.6-1.8-0.2-4-1.7-5.1c2.5-5.5,3.8-11.2,1.4-16.9c0.4-0.6,0.6-1.4,0.6-2.3
		c-0.1-6.3-1.1-12.4-4.5-17.8c-1.4-2.1-3-3.9-5.2-5.1c-2.7-1.5-5.5-0.5-8.1-1.4c-1-0.3-1.8-0.3-2.6,0c-3.8-3.4-10.1-3.9-13.1,1.7
		c-4.4,8.1-4.4,18.9-3.7,27.9c0.5,5.7,2.4,10.3,5.2,14.5c1.8,4.4,4.8,8,9.2,10.3l0.1,0.1c0.4,0.3,0.6,0.5,1,0.8
		c5.4,5.9,16.6,3.3,23.6,1.7C220.8,1212,218.5,1203.7,213.1,1204.9z M200.4,1196.1c-1.3-1.2-2.6-2.4-3.7-3.8c0-0.1-0.1-0.3-0.1-0.4
		c0.1,0.7-0.1-2.6-0.1-3.4c0-0.1,0-0.2,0-0.4c0.7,0.3,1.6,0.3,2.7-0.1c0.3-0.1,0.5-0.3,0.5-0.3c0,0.1,0,0.3,0.2,0.7
		c0.5,1.3,1.1,2.5,1.6,3.8c0.5,1.6,0.8,3.4,1.2,5.1C202.1,1197.1,201.4,1196.5,200.4,1196.1z"/>
	<path class="st11" d="M219.1,1238.9h-4.7c0-8.4-0.5-36.2-7.7-39.6c-1.5-0.7-2.7,0.3-2.7,0.3l-2.9-3.7c1.3-1,4.4-2.4,7.6-0.8
		C215.8,1198.4,219.1,1212.7,219.1,1238.9z"/>
</g>
<g class="st12">
	<g>
		<rect x="4070.2" y="584.2" class="st13" width="32.8" height="42.1"/>
		<path class="st14" d="M4213.8,670.9c0-25.3-56.9-61-127.1-61c-70.2,0-127.1,35.7-127.1,61s56.9,45.8,127.1,45.8
			C4156.8,716.7,4213.8,696.2,4213.8,670.9z"/>
		<rect x="3959.5" y="670.9" class="st13" width="254.3" height="638.8"/>
		<rect x="4183.9" y="670.9" class="st15" width="29.8" height="638.8"/>
		<path class="st13" d="M4106,584.2c0-4.4-8.7-8-19.3-8c-10.7,0-19.3,3.6-19.3,8H4106z"/>
		<path class="st16" d="M4100.7,589.4h-28.2c-2.9,0-5.2-2.3-5.2-5.2l0,0h38.7l0,0C4106,587.1,4103.6,589.4,4100.7,589.4z"/>
	</g>
	<path class="st16" d="M4222.2,686.2H3951c-4.2,0-7.6-3.4-7.6-7.6l0,0c0-4.2,3.4-7.6,7.6-7.6h271.2c4.2,0,7.6,3.4,7.6,7.6l0,0
		C4229.9,682.8,4226.4,686.2,4222.2,686.2z"/>
	<path class="st15" d="M3984.2,893.6L3984.2,893.6c-2.6,0-4.6-2.1-4.6-4.6V708.8c0-2.6,2.1-4.6,4.6-4.6l0,0c2.6,0,4.6,2.1,4.6,4.6
		V889C3988.8,891.5,3986.8,893.6,3984.2,893.6z"/>
	
		<rect x="4049.8" y="752.7" transform="matrix(0.7071 -0.7071 0.7071 0.7071 638.6841 3120.8621)" class="st17" width="73.5" height="73.5"/>
	
		<rect x="4067.6" y="770.5" transform="matrix(0.7071 -0.7071 0.7071 0.7071 638.7047 3120.9124)" class="st17" width="38" height="38"/>
</g>
<g>
	<g>
		<rect x="4329.5" y="366.1" class="st13" width="46.3" height="59.4"/>
		<path class="st14" d="M4531.9,488.4c0-35.7-80.3-86-179.3-86s-179.3,50.3-179.3,86s80.3,64.6,179.3,64.6
			S4531.9,524.1,4531.9,488.4z"/>
		<rect x="4173.3" y="488.4" class="st13" width="358.6" height="900.9"/>
		<rect x="4489.9" y="488.4" class="st15" width="42.1" height="900.9"/>
		<path class="st13" d="M4379.9,366.1c0-6.2-12.2-11.3-27.3-11.3c-15.1,0-27.3,5.1-27.3,11.3H4379.9z"/>
		<path class="st16" d="M4372.5,373.5h-39.7c-4.1,0-7.4-3.3-7.4-7.4l0,0h54.5l0,0C4379.9,370.2,4376.6,373.5,4372.5,373.5z"/>
	</g>
	<path class="st16" d="M4543.9,509.9h-382.5c-5.9,0-10.8-4.8-10.8-10.8l0,0c0-5.9,4.8-10.8,10.8-10.8h382.5
		c5.9,0,10.8,4.8,10.8,10.8l0,0C4554.6,505.1,4549.8,509.9,4543.9,509.9z"/>
	<path class="st15" d="M4208.2,802.4L4208.2,802.4c-3.6,0-6.5-2.9-6.5-6.5V541.8c0-3.6,2.9-6.5,6.5-6.5l0,0c3.6,0,6.5,2.9,6.5,6.5
		v254.1C4214.7,799.5,4211.8,802.4,4208.2,802.4z"/>
	
		<rect x="4300.8" y="603.8" transform="matrix(0.7071 -0.7071 0.7071 0.7071 811.2483 3269.8242)" class="st17" width="103.7" height="103.7"/>
	
		<rect x="4325.8" y="628.9" transform="matrix(0.7071 -0.7071 0.7071 0.7071 811.2139 3269.7661)" class="st17" width="53.6" height="53.6"/>
</g>
<g>
	<path class="st18" d="M4967.1,1385.2c0,0-116.4-187.9,142-314.9C5167.1,1343.6,4967.1,1385.2,4967.1,1385.2z"/>
	<path class="st19" d="M4967.1,1385.2l142-314.9C5167.1,1343.6,4967.1,1385.2,4967.1,1385.2z"/>
</g>
<g>
	<path class="st20" d="M4933.7,1404.1c0,0-37-247.9,289.2-264.3C5160.6,1450.5,4933.7,1404.1,4933.7,1404.1z"/>
	<path class="st19" d="M4933.7,1404.1l289.2-264.3C5160.6,1450.5,4933.7,1404.1,4933.7,1404.1z"/>
</g>
<g>
	<path class="st20" d="M4662.3,1429.5c0,0-246.1-47.7-152.8-360.7C4781.7,1230.9,4662.3,1429.5,4662.3,1429.5z"/>
	<path class="st19" d="M4662.3,1429.5l-152.8-360.7C4781.7,1230.9,4662.3,1429.5,4662.3,1429.5z"/>
</g>
<g>
	<path class="st18" d="M4073.9,1415.3c0,0,116.4-187.9-142-314.9C3873.9,1373.7,4073.9,1415.3,4073.9,1415.3z"/>
	<path class="st19" d="M4073.9,1415.3l-142-314.9C3873.9,1373.7,4073.9,1415.3,4073.9,1415.3z"/>
</g>
<g>
	<path class="st20" d="M4107.3,1434.2c0,0,37-247.9-289.2-264.3C3880.3,1480.6,4107.3,1434.2,4107.3,1434.2z"/>
	<path class="st19" d="M4107.3,1434.2L3818.1,1170C3880.3,1480.6,4107.3,1434.2,4107.3,1434.2z"/>
</g>
<g>
	<g>
		<rect x="5318.7" y="470.6" class="st21" width="34.1" height="916.4"/>
		<rect x="4637.9" y="470.6" class="st21" width="34.1" height="916.4"/>
		<rect x="4772.9" y="470.6" class="st21" width="34.1" height="916.4"/>
		<g>
			<g>
				<path class="st22" d="M4594,470.6h821c14.1,0,25.5-11.4,25.5-25.5V314.4c0-14.1-11.4-25.5-25.5-25.5h-821V470.6z"/>
				<path class="st23" d="M4594,470.6h703c14.1,0,25.5-11.4,25.5-25.5V314.4c0-14.1-11.4-25.5-25.5-25.5h-703V470.6z"/>
			</g>
			<g>
				<ellipse class="st24" cx="4689.6" cy="377.5" rx="70" ry="70"/>
				<ellipse class="st16" cx="4689.4" cy="377.6" rx="47" ry="47"/>
				<path class="st25" d="M4672.8,385.7c0-9.2,16.7-32.8,16.7-32.8s16.7,23.6,16.7,32.8c0,9.2-7.5,16.7-16.7,16.7
					S4672.8,394.9,4672.8,385.7z"/>
			</g>
			<path class="st16" d="M4986.7,437.3h225.8c5,0,9.1-4.1,9.1-9.1l0,0c0-5-4.1-9.1-9.1-9.1h-225.8c-5,0-9.1,4.1-9.1,9.1l0,0
				C4977.7,433.2,4981.7,437.3,4986.7,437.3z"/>
			<path class="st16" d="M4986.7,405.9h225.8c5,0,9.1-4.1,9.1-9.1l0,0c0-5-4.1-9.1-9.1-9.1h-225.8c-5,0-9.1,4.1-9.1,9.1l0,0
				C4977.7,401.9,4981.7,405.9,4986.7,405.9z"/>
		</g>
		<rect x="4637.9" y="470.6" class="st22" width="34.1" height="93.7"/>
		<rect x="4772.9" y="470.6" class="st22" width="34.1" height="93.7"/>
		<rect x="4655" y="492.1" class="st22" width="680.8" height="23.1"/>
		<rect x="5318.7" y="470.6" class="st22" width="34.1" height="93.7"/>
	</g>
</g>
<ellipse class="st18" cx="4665.2" cy="1415.4" rx="823.3" ry="69.4"/>
<ellipse class="st26" cx="4665.2" cy="1415.4" rx="751.8" ry="32.9"/>
<g>
	<g>
		<rect x="3986.6" y="1029.3" class="st24" width="242.8" height="386.1"/>
		<rect x="3986.6" y="1395.8" class="st16" width="242.8" height="19.6"/>
		<path class="st16" d="M4226.4,1015.2h-236.9c-1.6,0-3,1.3-3,3v25.3h242.8v-25.3C4229.4,1016.5,4228,1015.2,4226.4,1015.2z"/>
		<path class="st16" d="M4236.7,1079.6h-257.4c-2.4,0-4.3,1.9-4.3,4.3v19.8c0,2.4,1.9,4.3,4.3,4.3h257.4c2.4,0,4.3-1.9,4.3-4.3
			v-19.8C4241,1081.5,4239,1079.6,4236.7,1079.6z"/>
		<path class="st16" d="M4236.7,1160.6h-257.4c-2.4,0-4.3,1.9-4.3,4.3v19.8c0,2.4,1.9,4.3,4.3,4.3h257.4c2.4,0,4.3-1.9,4.3-4.3
			v-19.8C4241,1162.5,4239,1160.6,4236.7,1160.6z"/>
		<path class="st16" d="M4236.7,1241.6h-257.4c-2.4,0-4.3,1.9-4.3,4.3v19.8c0,2.4,1.9,4.3,4.3,4.3h257.4c2.4,0,4.3-1.9,4.3-4.3
			v-19.8C4241,1243.5,4239,1241.6,4236.7,1241.6z"/>
		<path class="st16" d="M4236.7,1322.6h-257.4c-2.4,0-4.3,1.9-4.3,4.3v19.8c0,2.4,1.9,4.3,4.3,4.3h257.4c2.4,0,4.3-1.9,4.3-4.3
			v-19.8C4241,1324.5,4239,1322.6,4236.7,1322.6z"/>
	</g>
	<path class="st13" d="M4218,1094h-98.3c-1.9,0-3.4-1.5-3.4-3.4l0,0c0-1.9,1.5-3.4,3.4-3.4h98.3c1.9,0,3.4,1.5,3.4,3.4l0,0
		C4221.4,1092.5,4219.9,1094,4218,1094z"/>
	<path class="st13" d="M4218,1175.6h-24.7c-1.9,0-3.4-1.5-3.4-3.4l0,0c0-1.9,1.5-3.4,3.4-3.4h24.7c1.9,0,3.4,1.5,3.4,3.4l0,0
		C4221.4,1174.1,4219.9,1175.6,4218,1175.6z"/>
	<path class="st13" d="M4218,1257.2h-24.7c-1.9,0-3.4-1.5-3.4-3.4l0,0c0-1.9,1.5-3.4,3.4-3.4h24.7c1.9,0,3.4,1.5,3.4,3.4l0,0
		C4221.4,1255.7,4219.9,1257.2,4218,1257.2z"/>
	<path class="st13" d="M4218,1338.8h-98.3c-1.9,0-3.4-1.5-3.4-3.4l0,0c0-1.9,1.5-3.4,3.4-3.4h98.3c1.9,0,3.4,1.5,3.4,3.4l0,0
		C4221.4,1337.3,4219.9,1338.8,4218,1338.8z"/>
	<circle class="st16" cx="4108" cy="1212.7" r="70.5"/>
	<path class="st21" d="M4133,1224.8c0-13.9-25.1-49.2-25.1-49.2s-25.1,35.4-25.1,49.2c0,13.9,11.2,25.1,25.1,25.1
		C4121.8,1249.9,4133,1238.7,4133,1224.8z"/>
	<circle class="st27" cx="4095.9" cy="1228.9" r="5.1"/>
</g>
<g>
	<g>
		<rect x="4296.6" y="999.9" class="st24" width="261.3" height="415.4"/>
		<rect x="4296.6" y="1394.3" class="st16" width="261.3" height="21.1"/>
		<path class="st16" d="M4554.9,984.7h-255.4c-1.6,0-3,1.3-3,3v27.5h261.3v-27.5C4557.9,986,4556.6,984.7,4554.9,984.7z"/>
		<path class="st16" d="M4566.1,1054h-277.7c-2.4,0-4.3,1.9-4.3,4.3v21.9c0,2.4,1.9,4.3,4.3,4.3h277.7c2.4,0,4.3-1.9,4.3-4.3v-21.9
			C4570.3,1056,4568.4,1054,4566.1,1054z"/>
		<path class="st16" d="M4566.1,1141.2h-277.7c-2.4,0-4.3,1.9-4.3,4.3v21.9c0,2.4,1.9,4.3,4.3,4.3h277.7c2.4,0,4.3-1.9,4.3-4.3
			v-21.9C4570.3,1143.1,4568.4,1141.2,4566.1,1141.2z"/>
		<path class="st16" d="M4566.1,1228.3h-277.7c-2.4,0-4.3,1.9-4.3,4.3v21.9c0,2.4,1.9,4.3,4.3,4.3h277.7c2.4,0,4.3-1.9,4.3-4.3
			v-21.9C4570.3,1230.3,4568.4,1228.3,4566.1,1228.3z"/>
		<path class="st16" d="M4566.1,1315.5h-277.7c-2.4,0-4.3,1.9-4.3,4.3v21.9c0,2.4,1.9,4.3,4.3,4.3h277.7c2.4,0,4.3-1.9,4.3-4.3
			v-21.9C4570.3,1317.4,4568.4,1315.5,4566.1,1315.5z"/>
	</g>
	<path class="st13" d="M4545.6,1069.5h-105.8c-2,0-3.6-1.6-3.6-3.6l0,0c0-2,1.6-3.6,3.6-3.6h105.8c2,0,3.6,1.6,3.6,3.6l0,0
		C4549.3,1067.9,4547.7,1069.5,4545.6,1069.5z"/>
	<path class="st13" d="M4545.6,1157.3h-26.5c-2,0-3.6-1.6-3.6-3.6l0,0c0-2,1.6-3.6,3.6-3.6h26.5c2,0,3.6,1.6,3.6,3.6l0,0
		C4549.3,1155.7,4547.7,1157.3,4545.6,1157.3z"/>
	<path class="st13" d="M4545.6,1245.2h-26.5c-2,0-3.6-1.6-3.6-3.6l0,0c0-2,1.6-3.6,3.6-3.6h26.5c2,0,3.6,1.6,3.6,3.6l0,0
		C4549.3,1243.5,4547.7,1245.2,4545.6,1245.2z"/>
	<path class="st13" d="M4545.6,1333h-105.8c-2,0-3.6-1.6-3.6-3.6l0,0c0-2,1.6-3.6,3.6-3.6h105.8c2,0,3.6,1.6,3.6,3.6l0,0
		C4549.3,1331.4,4547.7,1333,4545.6,1333z"/>
	<circle class="st16" cx="4427.2" cy="1197.3" r="75.9"/>
	<path class="st21" d="M4454.2,1210.3c0-14.9-27-53-27-53s-27,38-27,53c0,14.9,12.1,27,27,27S4454.2,1225.2,4454.2,1210.3z"/>
	<circle class="st27" cx="4414.3" cy="1214.7" r="5.5"/>
</g>
<g>
	<g>
		<path class="st24" d="M4936.1,823.9l-293.3-1c-16.8-0.1-30.5,13.6-30.5,30.4v564.6l354.1,1.2V854.3
			C4966.3,837.6,4952.8,824,4936.1,823.9z"/>
		<path class="st16" d="M4898.8,1419h67.5V832.6c0-4.7-3.8-8.5-8.5-8.5h-59V1419z"/>
		<rect x="4647.9" y="868" class="st23" width="222.8" height="84.6"/>
		<rect x="4663.6" y="880.3" class="st21" width="191.4" height="60.1"/>
		<polygon class="st27" points="4827.8,880.3 4808.7,940.4 4788.7,940.4 4807.8,880.3 		"/>
		<polygon class="st27" points="4766.7,880.3 4747.6,940.4 4690,940.4 4709.1,880.3 		"/>
		<path class="st16" d="M4703.4,1089.4H4651c-1.7,0-3.1-1.4-3.1-3.1V980.5c0-1.7,1.4-3.1,3.1-3.1h52.4c1.7,0,3.1,1.4,3.1,3.1v105.8
			C4706.5,1088,4705.1,1089.4,4703.4,1089.4z"/>
		<path class="st16" d="M4774.8,1010.7h-52.4c-1.7,0-3.1-1.4-3.1-3.1v-27.1c0-1.7,1.4-3.1,3.1-3.1h52.4c1.7,0,3.1,1.4,3.1,3.1v27.1
			C4777.9,1009.3,4776.5,1010.7,4774.8,1010.7z"/>
		<path class="st16" d="M4774.8,1054.1h-52.4c-1.7,0-3.1-1.4-3.1-3.1v-27.1c0-1.7,1.4-3.1,3.1-3.1h52.4c1.7,0,3.1,1.4,3.1,3.1v27.1
			C4777.9,1052.7,4776.5,1054.1,4774.8,1054.1z"/>
		<path class="st16" d="M4847.1,1387.8h-186.5c-8,0-14.5-6.5-14.5-14.5v-205.7c0-8,6.5-14.5,14.5-14.5h186.5c8,0,14.5,6.5,14.5,14.5
			v205.7C4861.6,1381.3,4855.1,1387.8,4847.1,1387.8z M4660.6,1156.6c-6,0-10.9,4.9-10.9,10.9v205.7c0,6,4.9,10.9,10.9,10.9h186.5
			c6,0,10.9-4.9,10.9-10.9v-205.7c0-6-4.9-10.9-10.9-10.9H4660.6z"/>
		<path class="st13" d="M4836.8,1196.3h-56.9c-1.1,0-2-0.9-2-2v-16.7c0-1.1,0.9-2,2-2h56.9c1.1,0,2,0.9,2,2v16.7
			C4838.8,1195.4,4837.9,1196.3,4836.8,1196.3z"/>
		<path class="st13" d="M4836.8,1230.1h-56.9c-1.1,0-2-0.9-2-2v-16.7c0-1.1,0.9-2,2-2h56.9c1.1,0,2,0.9,2,2v16.7
			C4838.8,1229.3,4837.9,1230.1,4836.8,1230.1z"/>
		<path class="st13" d="M4836.8,1264h-56.9c-1.1,0-2-0.9-2-2v-16.7c0-1.1,0.9-2,2-2h56.9c1.1,0,2,0.9,2,2v16.7
			C4838.8,1263.1,4837.9,1264,4836.8,1264z"/>
		<path class="st13" d="M4836.8,1297.9h-56.9c-1.1,0-2-0.9-2-2v-16.7c0-1.1,0.9-2,2-2h56.9c1.1,0,2,0.9,2,2v16.7
			C4838.8,1297,4837.9,1297.9,4836.8,1297.9z"/>
		
			<ellipse transform="matrix(0.7071 -0.7071 0.7071 0.7071 669.6704 3725.0396)" class="st16" cx="4831.4" cy="1054.2" rx="32.1" ry="32.1"/>
		<circle class="st24" cx="4831.4" cy="1054.1" r="23.9"/>
		<path class="st13" d="M4844.6,1054.1c0-7.3-5.9-13.1-13.1-13.1c-7.3,0-13.1,5.9-13.1,13.1c0,7.3,5.9,13.1,13.1,13.1
			C4838.7,1067.3,4844.6,1061.4,4844.6,1054.1z"/>
		<path class="st13" d="M4946.1,1098.1c-13.8,0-28.7-2-44.7-6c-40.5-10.2-73.2-29.5-74.5-30.4c-4.2-2.5-5.6-8-3.1-12.2
			s8-5.6,12.2-3.1c1.2,0.7,123.6,72.7,176.3,4.2c20.9-27.1,18-72.6,14.9-120.7c-4.2-66.4-9-141.7,60.6-165.8
			c4.7-1.6,9.7,0.9,11.3,5.5c1.6,4.6-0.9,9.7-5.5,11.3c-56.8,19.7-52.9,81.9-48.7,147.8c3.1,49.3,6.4,100.3-18.6,132.7
			C5007.8,1085.8,4980.4,1098.1,4946.1,1098.1z"/>
	</g>
	<g>
		<path class="st16" d="M5227.2,719.2l-73.1,20.5l-13-20.6l82.2-16.4c3.5-0.7,7,0.8,8.8,3.8l0,0
			C5235.2,711.3,5232.7,717.7,5227.2,719.2z"/>
		<g>
			<g>
				<path class="st21" d="M5152.7,771.9L5152.7,771.9l-11.3-17.9l6.5-4.1l7.2,11.4C5157.4,764.8,5156.4,769.6,5152.7,771.9z"/>
				<path class="st22" d="M5174.1,745.9l-38.2,24.1l-53.2,50.3c-7.1,6.7-18.5,5.2-23.7-3l-15.9-25.2c-4.5-7.2-2.4-16.7,4.8-21.3
					l101.5-64L5174.1,745.9z"/>
				
					<rect x="5164.9" y="738" transform="matrix(0.8458 -0.5335 0.5335 0.8458 394.7393 2875.5198)" class="st22" width="13.6" height="33.8"/>
				
					<rect x="5133.7" y="772.3" transform="matrix(0.8458 -0.5335 0.5335 0.8458 381.4994 2873.1731)" class="st22" width="54.7" height="8.7"/>
				
					<rect x="5126.5" y="761.7" transform="matrix(0.8458 -0.5335 0.5335 0.8458 376.2588 2859.0234)" class="st22" width="14.8" height="33.8"/>
			</g>
			<path class="st21" d="M5083.5,798.7c-2-3.2-6.3-4.2-9.6-2.2c-3.2,2-4.2,6.3-2.2,9.5s6.3,4.2,9.5,2.2S5085.5,801.9,5083.5,798.7z"
				/>
			<path class="st21" d="M5104.8,779c-2-3.2-6.3-4.2-9.5-2.2s-4.2,6.3-2.2,9.6c2,3.2,6.3,4.2,9.5,2.2S5106.8,782.3,5104.8,779z"/>
		</g>
	</g>
	<path class="st25" d="M5250.2,768.9c0-9.2-16.7-32.8-16.7-32.8s-16.7,23.6-16.7,32.8s7.5,16.7,16.7,16.7S5250.2,778.1,5250.2,768.9
		z"/>
	<path class="st25" d="M5250.2,836.2c0-9.2-16.7-32.8-16.7-32.8s-16.7,23.6-16.7,32.8s7.5,16.7,16.7,16.7S5250.2,845.4,5250.2,836.2
		z"/>
</g>
<g>
	
		<rect x="5109.5" y="1243.9" transform="matrix(0.2632 -0.9647 0.9647 0.2632 2572.4971 5886.582)" class="st21" width="61.3" height="30.4"/>
	<path class="st23" d="M5168.6,1240.8l-42.4-11.6c-0.5-0.1-0.9-0.7-0.7-1.2l3.4-12.6c0.1-0.5,0.7-0.9,1.2-0.7l42.4,11.6
		c0.5,0.1,0.9,0.7,0.7,1.2l-3.4,12.6C5169.7,1240.6,5169.2,1240.9,5168.6,1240.8z"/>
	<path class="st23" d="M5113.1,1238.7v-9.1c0-4.7-3.8-8.5-8.5-8.5h-83.3c-4.7,0-8.5,3.8-8.5,8.5v181.5c0,4.7,3.8,8.5,8.5,8.5H5171
		c4.7,0,8.5-3.8,8.5-8.5v-141.6c0-3.8-2.6-7.2-6.3-8.2l-53.8-14.4C5115.7,1245.9,5113.1,1242.5,5113.1,1238.7z"/>
	<path class="st21" d="M5153.8,1401.4h-117.7c-1.5,0-2.7-1.2-2.7-2.7v-111.2c0-1.5,1.2-2.7,2.7-2.7h117.7c1.5,0,2.7,1.2,2.7,2.7
		v111.2C5156.6,1400.1,5155.4,1401.4,5153.8,1401.4z"/>
	
		<ellipse transform="matrix(0.9732 -0.2298 0.2298 0.9732 -172.2061 1206.7659)" class="st23" cx="5094.8" cy="1342.7" rx="29.8" ry="29.8"/>
	<path class="st22" d="M5114.3,1343c0-10.7-8.6-19.3-19.3-19.3c-10.7,0-19.3,8.6-19.3,19.3c0,10.7,8.6,19.3,19.3,19.3
		C5105.7,1362.4,5114.3,1353.7,5114.3,1343z"/>
	<path class="st16" d="M5061.8,1240.6h-30.9c-1.9,0-3.4-1.5-3.4-3.4l0,0c0-1.9,1.5-3.4,3.4-3.4h30.9c1.9,0,3.4,1.5,3.4,3.4l0,0
		C5065.2,1239.1,5063.6,1240.6,5061.8,1240.6z"/>
	<path class="st16" d="M5061.8,1256.9h-30.9c-1.9,0-3.4-1.5-3.4-3.4l0,0c0-1.9,1.5-3.4,3.4-3.4h30.9c1.9,0,3.4,1.5,3.4,3.4l0,0
		C5065.2,1255.3,5063.6,1256.9,5061.8,1256.9z"/>
</g>
<g>
	<g>
		<path class="st28" d="M1905.6,1534.6c0,15.8-13,28.4-29.2,28.4h-77c-16.1,0-29.2-12.7-29.2-28.4v-236.8
			c0-15.7,13.1-28.4,29.2-28.4h77c16.2,0,29.2,12.7,29.2,28.4V1534.6z"/>
		<path class="st28" d="M1770.3,1297.8v236.8c0,15.8,13.1,28.4,29.2,28.4h38.2v-293.7h-38.2
			C1783.4,1269.3,1770.3,1282.1,1770.3,1297.8z"/>
	</g>
	<g>
		<path class="st28" d="M836.5,1534.6c0,15.8-14,28.4-31.4,28.4h-83.4c-17.5,0-31.5-12.7-31.5-28.4v-236.8c0-15.7,14-28.4,31.5-28.4
			h83.4c17.3,0,31.4,12.7,31.4,28.4V1534.6z"/>
		<path class="st28" d="M690.3,1297.8v236.8c0,15.8,14,28.4,31.5,28.4h41.3v-293.7h-41.3C704.3,1269.3,690.3,1282.1,690.3,1297.8z"
			/>
	</g>
	<polygon class="st29" points="1792.2,1493.5 807.9,1504 806.3,1325 1790,1313.8 	"/>
	<polygon class="st30" points="714.6,1041.3 806.3,1325 1816.2,1319.2 1905.9,1046.7 	"/>
	<polygon class="st31" points="1905.9,1046.7 1906.7,1395 1760.1,1397 1794.1,1319.2 	"/>
	<polygon class="st32" points="715.3,1044.7 892.1,815.6 1691,814.5 1905.9,1044.4 	"/>
	<path class="st33" d="M1931.9,981.6c0,0-15.7-28.4-74.7-26.8c0,0-76.6-6.8-86.3,45c0,0-37.1-4.2-55.2-28.9l10.6,1.8
		c0,0-5.8-21.7-4.5-19.8c0,0-18.3-5.7-16.9-2.7l-90.3-123.6c-478.7-9.6-745,0-745,0l-95.5,118.2c15.9,3.2-5.3,7.5-5.3,7.4v9.6
		l-15.9,13c-18.4,24.1-61.3,27.1-61.3,27.1c-9.8-51.7-87.1-45.1-87.1-45.1c-59.4-1.7-75,26.8-75,26.8
		c-24,75.1,122.7,48.4,130.5,48.4c6.9,0,30.5,5.1,36.2,6.5v0.3h1.3l0.2-0.3c533-54.6,1071.7,0.3,1071.7,0.3l-1.2-2.3
		c7.7-2,27.7-6,34.1-6c7.7,0,152.9,26.6,129.6-48.6L1931.9,981.6z"/>
	<polygon class="st33" points="609.6,1041.3 792.4,813.5 1612.7,816.3 1801,1046.7 	"/>
	<polygon class="st34" points="686.2,1041.8 845.5,843.5 1560.5,846 1724.4,1046.7 	"/>
	<polygon class="st35" points="723.6,1041.8 876.8,843.5 1566.2,846 1724.4,1046.7 	"/>
	<g class="st36">
		<path class="st27" d="M1072.5,1043.5l86.3-198.1c-19.2-1.9-41,0.4-51.1-1.4c-38.6,1.8-38.9-0.9-74.3,0c-15-0.4-37.1-0.9-58.1,0.5
			l-101.7,197.7l199,1.1V1043.5z"/>
	</g>
	<g class="st36">
		<path class="st27" d="M1387.4,1043.5l86.3-198.1c-19.4-1.9-40.9,0.4-51-1.4c-38.9,1.8-39.1-0.9-74.4,0c-15.2-0.4-37-0.9-58.2,0.5
			l-101.7,197.7l199.1,1.1L1387.4,1043.5z"/>
	</g>
	<rect x="1801" y="1046.7" class="st32" width="105.3" height="225.9"/>
	<g>
		<path class="st37" d="M1834.8,1536.9c0,15.8-16.6,28.4-37,28.4H1700c-20.6,0-37-12.6-37-28.4V1300c0-15.8,16.4-28.4,37-28.4h97.8
			c20.4,0,37,12.6,37,28.4V1536.9z"/>
		<path class="st38" d="M1663.1,1300v236.8c0,15.8,16.4,28.4,37,28.4h48.6v-293.7H1700C1679.4,1271.6,1663.1,1284.2,1663.1,1300z"/>
	</g>
	<g>
		<path class="st37" d="M719.7,1534.6c0,16.6-14,29.8-31.4,29.8h-83.2c-17.3,0-31.6-13.1-31.6-29.8v-249.2
			c0-16.6,14.3-29.8,31.6-29.8h83.2c17.3,0,31.4,13.3,31.4,29.8V1534.6z"/>
		<path class="st38" d="M573.5,1285.4v249.2c0,16.6,14.3,29.8,31.6,29.8h41.4v-308.8h-41.4C587.8,1255.6,573.5,1268.8,573.5,1285.4
			L573.5,1285.4z"/>
	</g>
	<polygon class="st39" points="1712.1,1493.3 703.5,1504.7 701.4,1325 1710.1,1313.6 	"/>
	<polygon class="st31" points="609.6,1041.3 701.4,1325 1711.1,1319.2 1801,1046.7 	"/>
	<polygon class="st32" points="1801,1046.7 1823.5,1265.9 1712.1,1493.3 1707.7,1316.5 	"/>
	<polygon class="st32" points="609.6,1041.3 587.3,1260.2 703.5,1504.7 702.4,1319.2 	"/>
	<polygon class="st33" points="703.8,1325 1215.3,1322.1 1215.3,1044.6 612,1041.4 	"/>
	<g>
		<rect x="1016" y="1368.6" class="st40" width="371.7" height="80.9"/>
		<rect x="1016" y="1368.6" class="st27" width="351.3" height="80.9"/>
	</g>
	<g class="st41">
		<rect x="1016" y="1449.7" width="372.6" height="28.4"/>
	</g>
	<g class="st36">
		<polygon class="st27" points="1489,1044.4 1569.9,851 1624.5,919.7 1579.2,1046 		"/>
	</g>
	<polygon class="st32" points="1745.7,1205.1 665.3,1206.7 703.8,1325 1706.5,1319 	"/>
	<g>
		<path class="st37" d="M1012.5,1223.3c-3.2,0-6.4,0.6-9.3,1.3v78.3c2.9,0.5,6.1,1,9.3,1h16.6v-80.6H1012.5z"/>
		<g>
			<rect x="1035.1" y="1223.3" class="st37" width="25.7" height="80.6"/>
			<rect x="1098.4" y="1223.3" class="st37" width="25.7" height="80.6"/>
			<path class="st37" d="M1193.5,1229.1v69.2c8.2-5,13.3-12.4,13.3-20.8v-27.8C1206.8,1241.3,1201.7,1233.8,1193.5,1229.1z"/>
			<path class="st37" d="M1172.6,1223.3h-10.8v80.6h10.8c5.4,0,10.5-1,15-2.8v-74.9c-4.6-1.8-9.6-2.9-15-2.9V1223.3z"/>
			<rect x="1130" y="1223.3" class="st37" width="25.6" height="80.6"/>
			<rect x="1066.7" y="1223.3" class="st37" width="25.7" height="80.6"/>
			<path class="st42" d="M978.5,1249.8v27.8c0,10.3,7.8,19.1,18.9,23.6v-74.9c-11.1,4.5-18.9,13.3-18.9,23.5V1249.8z"/>
			<path class="st43" d="M997.2,1226.2v74.9c1.9,0.5,4,1.3,6,1.7v-78.3C1001.2,1224.8,999.1,1225.6,997.2,1226.2z"/>
			<rect x="1029.1" y="1223.3" class="st43" width="6" height="80.6"/>
			<rect x="1060.8" y="1223.3" class="st43" width="5.9" height="80.6"/>
			<rect x="1092.4" y="1223.3" class="st43" width="6" height="80.6"/>
			<rect x="1124.2" y="1223.3" class="st43" width="5.9" height="80.6"/>
			<rect x="1155.6" y="1223.3" class="st43" width="6.1" height="80.6"/>
			<path class="st43" d="M1187.6,1226.2v74.9c2-0.9,4.2-1.8,5.9-2.8v-69.2c-1.7-1.1-3.7-2-5.9-2.8V1226.2z"/>
		</g>
		<g>
			<rect x="1273.8" y="1221.8" class="st37" width="25.6" height="80.4"/>
			<rect x="1337.2" y="1221.8" class="st37" width="25.7" height="80.4"/>
			<path class="st37" d="M1251.2,1221.8c-3.2,0-6.2,0.3-9.3,1v78.4c3.1,0.5,6.1,1,9.3,1h16.6v-80.4L1251.2,1221.8L1251.2,1221.8z"/>
			<path class="st37" d="M1432.4,1227.5v69.1c7.9-5,13.3-12.2,13.3-20.6V1248C1445.6,1239.6,1440.3,1232.2,1432.4,1227.5
				L1432.4,1227.5z"/>
			<path class="st37" d="M1411.6,1221.8h-10.8v80.4h10.8c5.2,0,10.3-1,14.9-2.8v-74.9C1421.9,1222.8,1416.9,1221.8,1411.6,1221.8z"
				/>
			<rect x="1369" y="1221.8" class="st37" width="25.7" height="80.4"/>
			<rect x="1305.4" y="1221.8" class="st37" width="25.7" height="80.4"/>
			<path class="st42" d="M1217.2,1247.9v27.9c0,10.2,7.8,19.1,18.9,23.5v-74.7C1225,1228.8,1217.2,1237.7,1217.2,1247.9z"/>
			<path class="st43" d="M1236.1,1224.7v74.7c1.9,0.8,4,1.3,5.9,1.9v-78.4C1240,1223.3,1238,1224,1236.1,1224.7z"/>
			<rect x="1267.7" y="1221.8" class="st43" width="6.1" height="80.4"/>
			<rect x="1299.6" y="1221.8" class="st43" width="6" height="80.4"/>
			<rect x="1331.3" y="1221.8" class="st43" width="5.9" height="80.4"/>
			<rect x="1362.9" y="1221.8" class="st43" width="6.1" height="80.4"/>
			<rect x="1394.8" y="1221.8" class="st43" width="5.9" height="80.4"/>
			<path class="st43" d="M1426.4,1224.5v74.9c2.2-0.8,4.2-1.8,6-2.9v-69.1C1430.6,1226.2,1428.5,1225.1,1426.4,1224.5L1426.4,1224.5
				z"/>
		</g>
		<g class="st36">
			<path d="M998.2,1260.3c0-10.3,7.8-19.1,18.9-23.6c1.9-0.5,3.8-1,6-1.7c3.1-0.5,6.1-1.1,9.2-1.1h160.2c2.7,0,5.2,0.4,7.9,0.9
				c-1.9-2-4.1-4.1-6.8-5.7c-1.7-1.1-3.7-2-5.9-2.8c-4.6-1.8-9.6-2.9-15-2.9h-160.1c-3.2,0-6.4,0.6-9.3,1.3c-2,0.3-4.1,1-6,1.7
				c-11.1,4.5-18.9,13.3-18.9,23.5v27.8c0,10.3,7.8,19.1,18.9,23.6c1.9,0.5,4,1.3,6,1.7c0.4,0,0.8,0,1.3,0c-4-4.3-6.4-9.4-6.4-14.9
				V1260L998.2,1260.3z"/>
		</g>
		<g class="st36">
			<path d="M1237.1,1258.7c0-10.5,7.8-19.2,18.7-23.7c2.2-0.5,4-1.3,6.1-1.7c2.9-0.6,6-1.1,9.3-1.1h160.2c2.5,0,5.1,0.3,7.8,0.8
				c-2-2.2-4.1-4-6.6-5.5c-1.8-1.1-3.8-2.3-6-2.9c-4.6-1.7-9.6-2.7-14.9-2.7h-160.3c-3.2,0-6.2,0.3-9.3,1c-1.9,0.4-4,1-5.9,1.8
				c-11.1,4.2-18.9,13.1-18.9,23.3v27.9c0,10.2,7.8,19.1,18.9,23.5c1.9,0.8,4,1.3,5.9,1.9h1.4c-4-4.1-6.4-9.3-6.4-14.8v-27.7
				L1237.1,1258.7z"/>
		</g>
	</g>
	<g>
		<rect x="1822.9" y="1046" class="st44" width="5.7" height="226.8"/>
		<rect x="1828.8" y="1045.5" class="st44" width="5.9" height="227"/>
	</g>
	<rect x="1034.1" y="1383.3" class="st40" width="321.6" height="54.6"/>
	<rect x="782.8" y="1035.6" class="st38" width="828.5" height="13.3"/>
	<polygon class="st38" points="1259.8,1043.7 1253,1035.3 1439.8,883.2 1446.5,891.8 	"/>
	<g class="st41">
		<rect x="703.8" y="1423.4" width="20.1" height="25.4"/>
	</g>
	<rect x="704.1" y="1365.8" class="st45" width="244.9" height="83"/>
	<rect x="704.1" y="1365.8" class="st34" width="19.6" height="83"/>
	<rect x="704.2" y="1423.4" class="st46" width="244.9" height="25.4"/>
	<path class="st39" d="M701.4,1325.2c0,0,235.7,63.1,264.2,152.8l0.8-154.5l-265.1,1.7H701.4z"/>
	<rect x="791.5" y="1357.8" class="st39" width="9.4" height="114.3"/>
	<rect x="1458.8" y="1363.6" class="st35" width="244.7" height="82.8"/>
	<rect x="1496.5" y="1363.6" class="st45" width="207" height="82.8"/>
	<rect x="1458.8" y="1421.3" class="st46" width="244.6" height="25.4"/>
	<path class="st39" d="M1706,1323.1c0,0-235.4,63.1-264.1,152.7l-0.8-154.5l264.9,1.7V1323.1z"/>
	<rect x="1606.6" y="1355.5" class="st39" width="9.4" height="114.3"/>
	<g class="st41">
		<rect x="703.8" y="1448.8" width="244" height="21.9"/>
	</g>
	<g class="st41">
		<rect x="1460.4" y="1445.6" width="243.8" height="21.8"/>
	</g>
</g>
</svg>
