<svg width="24" height="25" viewBox="0 0 24 25" fill="none" xmlns="http://www.w3.org/2000/svg">
<g clip-path="url(#clip0_87_918)">
<path d="M24.001 12.4424C24.001 5.81538 18.628 0.442383 12.001 0.442383C5.37398 0.442383 0.000976562 5.81538 0.000976562 12.4424C0.000976562 18.4324 4.38898 23.3964 10.126 24.2964V15.9114H7.07898V12.4414H10.126V9.79938C10.126 6.79238 11.918 5.13038 14.659 5.13038C15.971 5.13038 17.345 5.36538 17.345 5.36538V8.31838H15.831C14.34 8.31838 13.875 9.24338 13.875 10.1924V12.4424H17.203L16.671 15.9124H13.875V24.2974C19.613 23.3964 24.001 18.4314 24.001 12.4424Z" fill="#70918A"/>
</g>
<defs>
<clipPath id="clip0_87_918">
<rect width="24" height="24" fill="white" transform="translate(0.000976562 0.369141)"/>
</clipPath>
</defs>
</svg>
