<svg width="24" height="24" viewBox="0 0 24 24" fill="none" xmlns="http://www.w3.org/2000/svg">
<path d="M12.001 0C8.74098 0 8.33398 0.015 7.05398 0.072C5.77598 0.132 4.90598 0.333 4.14098 0.63C3.35198 0.936 2.68198 1.347 2.01498 2.014C1.34798 2.681 0.935977 3.35 0.630977 4.14C0.333977 4.905 0.131977 5.775 0.0729766 7.053C0.0129766 8.333 0.000976562 8.74 0.000976562 12C0.000976562 15.26 0.0159766 15.667 0.0729766 16.947C0.132977 18.224 0.333977 19.095 0.630977 19.86C0.936977 20.648 1.34798 21.319 2.01498 21.986C2.68198 22.652 3.35098 23.065 4.14098 23.37C4.90698 23.666 5.77698 23.869 7.05398 23.928C8.33398 23.988 8.74098 24 12.001 24C15.261 24 15.668 23.985 16.948 23.928C18.225 23.868 19.096 23.666 19.861 23.37C20.649 23.064 21.32 22.652 21.987 21.986C22.653 21.319 23.066 20.651 23.371 19.86C23.667 19.095 23.87 18.224 23.929 16.947C23.989 15.667 24.001 15.26 24.001 12C24.001 8.74 23.986 8.333 23.929 7.053C23.869 5.776 23.667 4.904 23.371 4.14C23.065 3.351 22.653 2.681 21.987 2.014C21.32 1.347 20.652 0.935 19.861 0.63C19.096 0.333 18.225 0.131 16.948 0.072C15.668 0.012 15.261 0 12.001 0ZM12.001 2.16C15.204 2.16 15.586 2.176 16.851 2.231C18.021 2.286 18.656 2.48 19.078 2.646C19.64 2.863 20.038 3.123 20.46 3.542C20.879 3.962 21.139 4.361 21.356 4.923C21.52 5.345 21.716 5.98 21.769 7.15C21.826 8.416 21.839 8.796 21.839 12C21.839 15.204 21.824 15.585 21.765 16.85C21.704 18.02 21.509 18.655 21.344 19.077C21.12 19.639 20.865 20.037 20.445 20.459C20.026 20.878 19.621 21.138 19.065 21.355C18.645 21.519 18 21.715 16.83 21.768C15.556 21.825 15.181 21.838 11.971 21.838C8.75998 21.838 8.38498 21.823 7.11198 21.764C5.94098 21.703 5.29598 21.508 4.87598 21.343C4.30698 21.119 3.91598 20.864 3.49698 20.444C3.07598 20.025 2.80698 19.62 2.59698 19.064C2.43198 18.644 2.23798 17.999 2.17698 16.829C2.13198 15.569 2.11598 15.18 2.11598 11.985C2.11598 8.789 2.13198 8.399 2.17698 7.124C2.23798 5.954 2.43198 5.31 2.59698 4.89C2.80698 4.32 3.07598 3.93 3.49698 3.509C3.91598 3.09 4.30698 2.82 4.87598 2.611C5.29598 2.445 5.92698 2.25 7.09698 2.19C8.37198 2.145 8.74698 2.13 11.956 2.13L12.001 2.16ZM12.001 5.838C8.59598 5.838 5.83898 8.598 5.83898 12C5.83898 15.405 8.59898 18.162 12.001 18.162C15.406 18.162 18.163 15.402 18.163 12C18.163 8.595 15.403 5.838 12.001 5.838ZM12.001 16C9.79098 16 8.00098 14.21 8.00098 12C8.00098 9.79 9.79098 8 12.001 8C14.211 8 16.001 9.79 16.001 12C16.001 14.21 14.211 16 12.001 16ZM19.847 5.595C19.847 6.39 19.201 7.035 18.407 7.035C17.612 7.035 16.967 6.389 16.967 5.595C16.967 4.801 17.613 4.156 18.407 4.156C19.2 4.155 19.847 4.801 19.847 5.595Z" fill="#70918A"/>
</svg>
