<svg  viewBox="0 0 134 59"  xmlns="http://www.w3.org/2000/svg">
<path fill-rule="evenodd" clip-rule="evenodd" d="M2.58041 16.2785L2.58406 16.3137C3.08145 21.1063 3.79689 28.0001 9.75898 34.3123C11.9679 36.2351 15.6411 37.995 19.087 36.8334C15.3918 35.1419 11.1991 32.017 9.02837 26.7683C10.6692 29.2186 15.0553 33.6434 21.4114 35.5319C22.2156 34.8755 22.9821 34.0014 23.6853 32.8679C27.7065 26.3858 20.297 21.0881 17.0217 21.1492C15.4123 20.8595 13.972 20.6798 12.6597 20.5161C8.42828 19.9881 5.52792 19.6262 2.58041 16.2785Z" fill="#90E3B0"/>
<path fill-rule="evenodd" clip-rule="evenodd" d="M1.13504 51.3273L1.163 51.3406C4.96803 53.1442 10.4413 55.7387 17.8613 54.1508C20.8672 53.193 24.698 50.4612 24.0571 45.9767C21.4883 48.5816 15.987 52.2532 9.20959 51.2018C12.2125 51.0696 18.916 49.3675 23.4174 43.7661C23.323 43.5456 23.2183 43.3218 23.1031 43.0946C20.0871 37.1495 12.7677 40.2788 11.3269 42.7527C10.3801 43.8231 9.5922 44.8172 8.87434 45.723C6.55957 48.6435 4.97296 50.6454 1.13504 51.3273Z" fill="#38B4C2"/>
<path fill-rule="evenodd" clip-rule="evenodd" d="M29.9196 0.532386L29.9412 0.554977C32.883 3.63005 37.1146 8.05328 37.7323 15.782C37.6672 19.0197 36.0689 23.6586 31.3814 24.5591C33.2282 21.1862 35.2714 14.6097 32.1986 8.39911C32.9603 11.3537 33.2502 18.427 28.9743 24.6893C28.7251 24.6726 28.4695 24.6472 28.2074 24.6126C21.348 23.7072 22.3058 15.5531 24.3572 13.3175C25.1486 12.0369 25.9107 10.9361 26.6051 9.93323C28.8441 6.6993 30.3788 4.48267 29.9196 0.532386Z" fill="#62DA96"/>
<path fill-rule="evenodd" clip-rule="evenodd" d="M14.11 4.96381L14.1028 4.97919C13.1311 7.07195 11.7333 10.0822 12.7683 14.1567C13.3681 15.8068 14.9999 17.9079 17.5631 17.55C16.0252 16.1421 13.8262 13.1245 14.3166 9.39965C14.4426 11.0492 15.5312 14.7299 18.8212 17.1957C18.9461 17.1435 19.0728 17.0858 19.2013 17.0222C22.5631 15.3575 20.6451 11.3404 19.2012 10.552C18.571 10.0333 17.9874 9.60168 17.4556 9.20846C15.7407 7.94052 14.5654 7.07144 14.11 4.96381Z" fill="#38B4C2"/>
<path fill-rule="evenodd" clip-rule="evenodd" d="M0.816964 45.1607L0.817787 45.1465C0.929768 43.2077 1.09084 40.419 3.4797 37.809C4.58114 36.8238 6.62738 35.9148 8.38596 37.2001C6.68522 37.6323 3.85351 38.9954 2.73517 41.9531C3.48494 40.7798 5.75691 38.4832 9.17806 37.9635C9.24997 38.0519 9.32095 38.1451 9.39091 38.2434C11.2219 40.8157 8.20098 43.0318 6.81642 43.042C6.14263 43.176 5.53802 43.2638 4.98715 43.3439C3.21084 43.6019 1.99331 43.7788 0.816964 45.1607Z" fill="#62DA96"/>
<path id="text_logo" d="M29.692 49.8754V30.4587H34.9127V33.8465H35.115C35.4689 32.6414 36.0631 31.7312 36.8974 31.116C37.7317 30.4924 38.6924 30.1806 39.7796 30.1806C40.0492 30.1806 40.34 30.1974 40.6518 30.2311C40.9636 30.2648 41.2375 30.3112 41.4735 30.3702V35.1485C41.2206 35.0727 40.8709 35.0052 40.4243 34.9463C39.9776 34.8873 39.5689 34.8578 39.1981 34.8578C38.4059 34.8578 37.698 35.0305 37.0744 35.3761C36.4592 35.7131 35.9704 36.1851 35.608 36.7919C35.254 37.3986 35.0771 38.0981 35.0771 38.8903V49.8754H29.692ZM51.1347 50.2546C49.1374 50.2546 47.4182 49.8501 45.9771 49.0411C44.5444 48.2236 43.4405 47.0691 42.6651 45.5774C41.8898 44.0773 41.5022 42.3034 41.5022 40.2555C41.5022 38.2582 41.8898 36.5053 42.6651 34.9968C43.4405 33.4883 44.5318 32.3127 45.9392 31.47C47.355 30.6272 49.0152 30.2058 50.9198 30.2058C52.2007 30.2058 53.3932 30.4123 54.4972 30.8253C55.6096 31.2298 56.5788 31.8408 57.4047 32.6582C58.239 33.4757 58.8879 34.5038 59.3514 35.7426C59.8149 36.973 60.0467 38.4141 60.0467 40.0659V41.5449H43.6511V38.2077H54.9776C54.9776 37.4323 54.809 36.7455 54.4719 36.1472C54.1348 35.5488 53.6671 35.0811 53.0688 34.744C52.4788 34.3985 51.792 34.2257 51.0083 34.2257C50.1908 34.2257 49.4661 34.4153 48.834 34.7946C48.2104 35.1654 47.7216 35.6668 47.3676 36.2989C47.0137 36.9225 46.8325 37.6177 46.8241 38.3846V41.5576C46.8241 42.5183 47.001 43.3484 47.355 44.0478C47.7174 44.7473 48.2272 45.2867 48.8846 45.6659C49.5419 46.0451 50.3214 46.2348 51.2232 46.2348C51.8215 46.2348 52.3693 46.1505 52.8665 45.9819C53.3637 45.8134 53.7893 45.5606 54.1433 45.2235C54.4972 44.8864 54.7669 44.4734 54.9523 43.9846L59.9329 44.3133C59.6801 45.51 59.1618 46.555 58.378 47.4483C57.6027 48.3332 56.5998 49.0242 55.3694 49.5214C54.1475 50.0102 52.7359 50.2546 51.1347 50.2546ZM62.5941 49.8754V23.9864H68.0677V45.3625H79.1666V49.8754H62.5941ZM90.4711 50.2546C88.4738 50.2546 86.7546 49.8501 85.3136 49.0411C83.8809 48.2236 82.7769 47.0691 82.0016 45.5774C81.2263 44.0773 80.8386 42.3034 80.8386 40.2555C80.8386 38.2582 81.2263 36.5053 82.0016 34.9968C82.7769 33.4883 83.8683 32.3127 85.2756 31.47C86.6914 30.6272 88.3516 30.2058 90.2562 30.2058C91.5372 30.2058 92.7297 30.4123 93.8337 30.8253C94.9461 31.2298 95.9152 31.8408 96.7411 32.6582C97.5754 33.4757 98.2243 34.5038 98.6878 35.7426C99.1514 36.973 99.3831 38.4141 99.3831 40.0659V41.5449H82.9876V38.2077H94.314C94.314 37.4323 94.1455 36.7455 93.8084 36.1472C93.4713 35.5488 93.0036 35.0811 92.4052 34.744C91.8153 34.3985 91.1285 34.2257 90.3447 34.2257C89.5273 34.2257 88.8025 34.4153 88.1704 34.7946C87.5468 35.1654 87.058 35.6668 86.7041 36.2989C86.3501 36.9225 86.1689 37.6177 86.1605 38.3846V41.5576C86.1605 42.5183 86.3375 43.3484 86.6914 44.0478C87.0538 44.7473 87.5637 45.2867 88.221 45.6659C88.8783 46.0451 89.6579 46.2348 90.5596 46.2348C91.158 46.2348 91.7057 46.1505 92.203 45.9819C92.7002 45.8134 93.1258 45.5606 93.4797 45.2235C93.8337 44.8864 94.1033 44.4734 94.2887 43.9846L99.2693 44.3133C99.0165 45.51 98.4982 46.555 97.7145 47.4483C96.9392 48.3332 95.9363 49.0242 94.7059 49.5214C93.4839 50.0102 92.0723 50.2546 90.4711 50.2546ZM107.366 50.242C106.127 50.242 105.023 50.0271 104.054 49.5973C103.085 49.1591 102.318 48.5144 101.754 47.6632C101.197 46.8036 100.919 45.7333 100.919 44.4524C100.919 43.3737 101.117 42.4677 101.513 41.7345C101.909 41.0013 102.449 40.4114 103.131 39.9648C103.814 39.5181 104.589 39.181 105.457 38.9535C106.334 38.7259 107.252 38.5658 108.213 38.4731C109.342 38.3551 110.253 38.2456 110.944 38.1445C111.635 38.0349 112.136 37.8748 112.448 37.6641C112.76 37.4534 112.916 37.1416 112.916 36.7287V36.6528C112.916 35.8522 112.663 35.2328 112.157 34.7946C111.66 34.3563 110.952 34.1372 110.033 34.1372C109.064 34.1372 108.293 34.3521 107.72 34.7819C107.147 35.2033 106.768 35.7342 106.582 36.3747L101.602 35.9702C101.855 34.7903 102.352 33.7706 103.094 32.911C103.835 32.043 104.792 31.3773 105.963 30.9137C107.143 30.4418 108.508 30.2058 110.059 30.2058C111.137 30.2058 112.17 30.3323 113.156 30.5851C114.15 30.8379 115.031 31.2298 115.798 31.7607C116.573 32.2916 117.184 32.9742 117.631 33.8086C118.077 34.6344 118.301 35.6247 118.301 36.7792V49.8754H113.194V47.1828H113.042C112.73 47.7896 112.313 48.3248 111.791 48.7883C111.268 49.2433 110.64 49.6015 109.907 49.8628C109.174 50.1156 108.327 50.242 107.366 50.242ZM108.908 46.5255C109.701 46.5255 110.4 46.3696 111.007 46.0578C111.614 45.7375 112.09 45.3077 112.435 44.7684C112.781 44.229 112.954 43.6181 112.954 42.9354V40.8749C112.785 40.9845 112.553 41.0856 112.258 41.1783C111.972 41.2626 111.647 41.3427 111.285 41.4185C110.923 41.4859 110.56 41.5491 110.198 41.6081C109.835 41.6587 109.507 41.705 109.212 41.7472C108.58 41.8399 108.028 41.9873 107.556 42.1896C107.084 42.3919 106.717 42.6658 106.456 43.0113C106.195 43.3484 106.064 43.7697 106.064 44.2754C106.064 45.0086 106.33 45.569 106.861 45.9567C107.4 46.3359 108.083 46.5255 108.908 46.5255ZM131.852 30.4587V34.5038H119.869V30.4587H131.852ZM122.612 49.8754V29.0555C122.612 27.6481 122.886 26.4809 123.433 25.5539C123.99 24.6269 124.748 23.9316 125.709 23.4681C126.669 23.0046 127.761 22.7729 128.983 22.7729C129.809 22.7729 130.563 22.8361 131.246 22.9625C131.937 23.0889 132.451 23.2027 132.788 23.3038L131.827 27.349C131.616 27.2815 131.355 27.2183 131.043 27.1593C130.74 27.1003 130.428 27.0709 130.108 27.0709C129.316 27.0709 128.764 27.2563 128.452 27.6271C128.14 27.9894 127.984 28.4993 127.984 29.1566V49.8754H122.612Z" />
</svg>
