<svg width="134" height="58" viewBox="0 0 134 58" fill="none" xmlns="http://www.w3.org/2000/svg">
<path fill-rule="evenodd" clip-rule="evenodd" d="M2.52265 15.7042L2.5262 15.7384C3.00956 20.3959 3.70484 27.0954 9.49884 33.2296C11.6455 35.0982 15.2153 36.8086 18.5641 35.6796C14.973 34.0358 10.8985 30.999 8.78894 25.8982C10.3835 28.2794 14.646 32.5795 20.8228 34.4148C21.6044 33.7768 22.3493 32.9274 23.0326 31.8259C26.9404 25.5266 19.7398 20.3782 16.5568 20.4377C14.9928 20.1561 13.5931 19.9815 12.3178 19.8223C8.20566 19.3092 5.38707 18.9575 2.52265 15.7042Z" fill="#90E3B0"/>
<path fill-rule="evenodd" clip-rule="evenodd" d="M1.11791 49.7647L1.14508 49.7776C4.84284 51.5304 10.1618 54.0517 17.3726 52.5086C20.2938 51.5778 24.0165 48.923 23.3938 44.565C20.8975 47.0964 15.5512 50.6646 8.96478 49.6428C11.883 49.5144 18.3976 47.8602 22.7721 42.4167C22.6803 42.2024 22.5787 41.9849 22.4666 41.7641C19.5356 35.9866 12.4226 39.0276 11.0224 41.4318C10.1023 42.4721 9.33666 43.4382 8.63903 44.3184C6.38951 47.1566 4.84763 49.102 1.11791 49.7647Z" fill="#38B4C2"/>
<path fill-rule="evenodd" clip-rule="evenodd" d="M29.091 0.401858L29.112 0.423812C31.9709 3.41219 36.0832 7.71073 36.6835 15.2216C36.6202 18.3679 35.067 22.8761 30.5117 23.7512C32.3065 20.4734 34.292 14.0823 31.3058 8.04684C32.0461 10.9182 32.3278 17.792 28.1724 23.8778C27.9303 23.8615 27.6819 23.8368 27.4271 23.8032C20.7611 22.9233 21.6919 14.9991 23.6855 12.8266C24.4546 11.582 25.1952 10.5123 25.87 9.53767C28.0459 6.39492 29.5374 4.24078 29.091 0.401858Z" fill="#62DA96"/>
<path fill-rule="evenodd" clip-rule="evenodd" d="M13.7273 4.7082L13.7204 4.72314C12.776 6.75691 11.4176 9.68231 12.4235 13.6419C13.0064 15.2455 14.5921 17.2874 17.083 16.9396C15.5885 15.5714 13.4515 12.6388 13.9281 9.01901C14.0505 10.6221 15.1085 14.199 18.3057 16.5953C18.4271 16.5446 18.5502 16.4884 18.6751 16.4266C21.9421 14.8089 20.0782 10.905 18.675 10.1389C18.0626 9.63473 17.4954 9.21532 16.9786 8.83319C15.3121 7.60099 14.1698 6.75641 13.7273 4.7082Z" fill="#38B4C2"/>
<path fill-rule="evenodd" clip-rule="evenodd" d="M0.808758 43.7719L0.809558 43.7581C0.918382 41.874 1.07492 39.1638 3.39642 36.6274C4.4668 35.67 6.45532 34.7867 8.1643 36.0357C6.5115 36.4558 3.7597 37.7804 2.6729 40.6547C3.40153 39.5145 5.60943 37.2826 8.93409 36.7775C9.00399 36.8634 9.07299 36.9541 9.14099 37.0496C10.9203 39.5493 7.98461 41.703 6.63908 41.7129C5.98429 41.8431 5.39672 41.9285 4.86138 42.0063C3.13514 42.2571 1.95194 42.429 0.808758 43.7719Z" fill="#62DA96"/>
<path d="M27.0587 48.7852V28.733H32.4503V32.2317H32.6592C33.0247 30.9871 33.6383 30.0472 34.4999 29.4119C35.3615 28.7678 36.3537 28.4458 37.4764 28.4458C37.7549 28.4458 38.0551 28.4632 38.3772 28.498C38.6992 28.5329 38.982 28.5807 39.2257 28.6416V33.5763C38.9646 33.498 38.6034 33.4284 38.1422 33.3675C37.6809 33.3065 37.2588 33.2761 36.8759 33.2761C36.0578 33.2761 35.3267 33.4545 34.6827 33.8113C34.0473 34.1595 33.5425 34.6468 33.1683 35.2735C32.8028 35.9001 32.62 36.6225 32.62 37.4406V48.7852H27.0587ZM49.2031 49.1768C47.1404 49.1768 45.365 48.759 43.8767 47.9235C42.3972 47.0793 41.2571 45.887 40.4564 44.3465C39.6557 42.7974 39.2553 40.9653 39.2553 38.8505C39.2553 36.7878 39.6557 34.9776 40.4564 33.4197C41.2571 31.8618 42.3841 30.6477 43.8376 29.7774C45.2997 28.9071 47.0142 28.4719 48.9812 28.4719C50.304 28.4719 51.5355 28.6852 52.6757 29.1116C53.8245 29.5294 54.8253 30.1603 55.6783 31.0046C56.5399 31.8488 57.21 32.9106 57.6887 34.1899C58.1674 35.4606 58.4067 36.9488 58.4067 38.6547V40.1821H41.4747V36.7356H53.1717C53.1717 35.9349 52.9977 35.2256 52.6495 34.6077C52.3014 33.9897 51.8184 33.5067 51.2005 33.1586C50.5912 32.8018 49.8819 32.6233 49.0725 32.6233C48.2283 32.6233 47.4799 32.8192 46.8271 33.2108C46.1831 33.5938 45.6783 34.1116 45.3128 34.7643C44.9472 35.4084 44.7601 36.1264 44.7514 36.9184V40.1951C44.7514 41.1873 44.9342 42.0445 45.2997 42.7669C45.6739 43.4893 46.2005 44.0463 46.8793 44.4379C47.5582 44.8296 48.3632 45.0254 49.2945 45.0254C49.9124 45.0254 50.4781 44.9383 50.9916 44.7643C51.5051 44.5902 51.9446 44.3291 52.3101 43.981C52.6757 43.6329 52.9542 43.2064 53.1456 42.7016L58.2892 43.0411C58.0281 44.2769 57.4929 45.3561 56.6835 46.2786C55.8828 47.1925 54.8471 47.9061 53.5764 48.4196C52.3145 48.9244 50.8567 49.1768 49.2031 49.1768ZM61.0375 48.7852V22.049H66.6902V44.1246H78.1523V48.7852H61.0375ZM89.8268 49.1768C87.7641 49.1768 85.9887 48.759 84.5004 47.9235C83.0209 47.0793 81.8808 45.887 81.0801 44.3465C80.2794 42.7974 79.8791 40.9653 79.8791 38.8505C79.8791 36.7878 80.2794 34.9776 81.0801 33.4197C81.8808 31.8618 83.0079 30.6477 84.4613 29.7774C85.9234 28.9071 87.6379 28.4719 89.6049 28.4719C90.9277 28.4719 92.1592 28.6852 93.2994 29.1116C94.4482 29.5294 95.449 30.1603 96.302 31.0046C97.1636 31.8488 97.8337 32.9106 98.3124 34.1899C98.7911 35.4606 99.0304 36.9488 99.0304 38.6547V40.1821H82.0984V36.7356H93.7954C93.7954 35.9349 93.6214 35.2256 93.2733 34.6077C92.9251 33.9897 92.4421 33.5067 91.8242 33.1586C91.215 32.8018 90.5056 32.6233 89.6962 32.6233C88.852 32.6233 88.1036 32.8192 87.4508 33.2108C86.8068 33.5938 86.302 34.1116 85.9365 34.7643C85.5709 35.4084 85.3838 36.1264 85.3751 36.9184V40.1951C85.3751 41.1873 85.5579 42.0445 85.9234 42.7669C86.2977 43.4893 86.8242 44.0463 87.503 44.4379C88.1819 44.8296 88.9869 45.0254 89.9182 45.0254C90.5361 45.0254 91.1018 44.9383 91.6153 44.7643C92.1288 44.5902 92.5683 44.3291 92.9338 43.981C93.2994 43.6329 93.5779 43.2064 93.7693 42.7016L98.9129 43.0411C98.6518 44.2769 98.1166 45.3561 97.3072 46.2786C96.5065 47.1925 95.4708 47.9061 94.2001 48.4196C92.9382 48.9244 91.4804 49.1768 89.8268 49.1768ZM107.275 49.1637C105.995 49.1637 104.855 48.9418 103.854 48.498C102.854 48.0454 102.062 47.3796 101.478 46.5006C100.904 45.6128 100.617 44.5075 100.617 43.1847C100.617 42.0707 100.821 41.1351 101.23 40.3779C101.639 39.6207 102.196 39.0115 102.901 38.5502C103.606 38.0889 104.407 37.7408 105.303 37.5058C106.209 37.2708 107.157 37.1055 108.149 37.0098C109.316 36.8879 110.256 36.7748 110.969 36.6703C111.683 36.5572 112.201 36.3918 112.523 36.1742C112.845 35.9567 113.006 35.6346 113.006 35.2082V35.1299C113.006 34.3031 112.745 33.6634 112.223 33.2108C111.709 32.7582 110.978 32.532 110.029 32.532C109.028 32.532 108.232 32.7539 107.64 33.1978C107.048 33.6329 106.657 34.1812 106.465 34.8427L101.322 34.4249C101.583 33.2065 102.096 32.1534 102.862 31.2657C103.628 30.3692 104.616 29.6817 105.826 29.203C107.044 28.7156 108.454 28.4719 110.055 28.4719C111.169 28.4719 112.236 28.6025 113.254 28.8636C114.281 29.1247 115.19 29.5294 115.982 30.0777C116.783 30.626 117.414 31.3309 117.875 32.1925C118.337 33.0455 118.567 34.0681 118.567 35.2604V48.7852H113.293V46.0045H113.136C112.814 46.6311 112.384 47.1838 111.844 47.6624C111.304 48.1324 110.656 48.5023 109.899 48.7721C109.142 49.0332 108.267 49.1637 107.275 49.1637ZM108.867 45.3256C109.686 45.3256 110.408 45.1646 111.035 44.8426C111.661 44.5119 112.153 44.068 112.51 43.511C112.867 42.954 113.045 42.323 113.045 41.6181V39.4902C112.871 39.6033 112.632 39.7077 112.327 39.8035C112.031 39.8905 111.696 39.9732 111.322 40.0515C110.947 40.1211 110.573 40.1864 110.199 40.2473C109.825 40.2996 109.485 40.3474 109.181 40.3909C108.528 40.4867 107.958 40.639 107.471 40.8479C106.983 41.0567 106.605 41.3396 106.335 41.6964C106.065 42.0445 105.93 42.4797 105.93 43.0019C105.93 43.7591 106.204 44.3378 106.753 44.7382C107.31 45.1298 108.015 45.3256 108.867 45.3256ZM132.562 28.733V32.9106H120.186V28.733H132.562ZM123.019 48.7852V27.2839C123.019 25.8305 123.302 24.6251 123.868 23.6678C124.442 22.7104 125.225 21.9924 126.217 21.5137C127.21 21.0351 128.337 20.7957 129.599 20.7957C130.452 20.7957 131.231 20.861 131.935 20.9915C132.649 21.1221 133.18 21.2396 133.528 21.344L132.536 25.5216C132.318 25.4519 132.049 25.3867 131.727 25.3257C131.413 25.2648 131.091 25.2343 130.761 25.2343C129.942 25.2343 129.372 25.4258 129.05 25.8088C128.728 26.183 128.567 26.7095 128.567 27.3884V48.7852H123.019Z" fill="#9BB3BB"/>
</svg>
