<svg width="24" height="24" viewBox="0 0 24 24" fill="none" xmlns="http://www.w3.org/2000/svg">
<g clip-path="url(#clip0_87_922)">
<path d="M23.954 4.57009C23.0555 4.96569 22.1036 5.22683 21.129 5.34509C22.1551 4.72834 22.9234 3.76113 23.292 2.62209C22.341 3.17709 21.287 3.58109 20.165 3.80609C19.4247 3.01452 18.4438 2.48951 17.3746 2.31259C16.3054 2.13567 15.2077 2.31674 14.2519 2.82768C13.2962 3.33862 12.5358 4.15084 12.089 5.13821C11.6422 6.12558 11.5339 7.23286 11.781 8.28809C7.69098 8.09509 4.06798 6.13009 1.64098 3.16209C1.19977 3.9119 0.969641 4.76711 0.974977 5.63709C0.974977 7.34709 1.84498 8.85009 3.16298 9.73309C2.38183 9.70822 1.61795 9.49702 0.934977 9.11709V9.17709C0.934533 10.3135 1.32725 11.415 2.04648 12.2948C2.76572 13.1747 3.76719 13.7786 4.88098 14.0041C4.15928 14.1975 3.40339 14.2265 2.66898 14.0891C2.9851 15.0671 3.59864 15.922 4.42399 16.5346C5.24934 17.1471 6.24533 17.4868 7.27298 17.5061C5.5325 18.872 3.38345 19.6134 1.17098 19.6111C0.780977 19.6111 0.391977 19.5881 0.000976562 19.5441C2.25669 20.9884 4.87949 21.7551 7.55798 21.7531C16.611 21.7531 21.556 14.2571 21.556 7.76809C21.556 7.55809 21.556 7.34809 21.541 7.13809C22.507 6.44295 23.3402 5.57991 24.001 4.59009L23.954 4.57009Z" fill="#70918A"/>
</g>
<defs>
<clipPath id="clip0_87_922">
<rect width="24" height="24" fill="white" transform="translate(0.000976562)"/>
</clipPath>
</defs>
</svg>
