<?xml version="1.0" encoding="UTF-8"?>
<svg id="Layer_1" data-name="Layer 1" xmlns="http://www.w3.org/2000/svg" viewBox="0 0 1883.19 615.48">
  <defs>
    <style>
      .cls-1 {
        stroke-width: .76px;
      }

      .cls-1, .cls-2, .cls-3, .cls-4, .cls-5, .cls-6, .cls-7, .cls-8, .cls-9 {
        fill: none;
        stroke-miterlimit: 10;
      }

      .cls-1, .cls-2, .cls-4, .cls-5, .cls-8, .cls-9 {
        stroke-linecap: round;
      }

      .cls-1, .cls-2, .cls-5, .cls-9 {
        stroke: #fff;
      }

      .cls-10 {
        opacity: .1;
      }

      .cls-11 {
        fill: #f8bc9b;
      }

      .cls-12 {
        fill: #f3a883;
      }

      .cls-13 {
        fill: #f9f8f4;
      }

      .cls-14 {
        fill: #f9b329;
      }

      .cls-15 {
        fill: #01aeff;
      }

      .cls-16 {
        fill: #039ad6;
      }

      .cls-17 {
        fill: #00b6ae;
      }

      .cls-18 {
        fill: #00ada5;
      }

      .cls-19 {
        fill: #0084ad;
      }

      .cls-20 {
        fill: #67ccff;
      }

      .cls-21 {
        fill: #669ec4;
      }

      .cls-22 {
        fill: #68c1e0;
      }

      .cls-23 {
        fill: #eae544;
      }

      .cls-24 {
        fill: #ec6e5a;
      }

      .cls-25 {
        fill: #f5a041;
      }

      .cls-26 {
        fill: #eb605a;
      }

      .cls-27 {
        fill: #f5f5f5;
      }

      .cls-28 {
        fill: #e9820c;
      }

      .cls-29 {
        fill: #e8820b;
      }

      .cls-30 {
        fill: #e88726;
      }

      .cls-31 {
        fill: #e63822;
      }

      .cls-32 {
        fill: #ededed;
      }

      .cls-33 {
        fill: #ee9e77;
      }

      .cls-34, .cls-35, .cls-36 {
        fill: #fff;
      }

      .cls-37 {
        fill: #ffde0b;
      }

      .cls-38 {
        fill: #e8e8ea;
      }

      .cls-39 {
        fill: #f44e1c;
      }

      .cls-40 {
        fill: #ffa600;
      }

      .cls-41 {
        fill: #ffd35a;
      }

      .cls-42 {
        fill: #e5f2fb;
      }

      .cls-43 {
        fill: #ee7b49;
      }

      .cls-44 {
        fill: #fcebe8;
      }

      .cls-45 {
        fill: #e7442b;
      }

      .cls-46 {
        fill: #e7414b;
      }

      .cls-47 {
        fill: #e73b3c;
      }

      .cls-48 {
        fill: #ff8f1f;
      }

      .cls-49 {
        fill: #64bedd;
      }

      .cls-50 {
        fill: #686868;
      }

      .cls-51 {
        fill: #6498d1;
      }

      .cls-52 {
        fill: #999;
      }

      .cls-53 {
        fill: #6d3331;
      }

      .cls-54 {
        fill: #7ebc69;
      }

      .cls-55 {
        fill: #811813;
      }

      .cls-56 {
        fill: #7ed7ff;
      }

      .cls-57 {
        fill: #8d1a14;
      }

      .cls-58 {
        fill: #9eabbb;
      }

      .cls-59 {
        fill: #a0a0a0;
      }

      .cls-60 {
        fill: #c2d7ef;
      }

      .cls-61 {
        fill: #9d8432;
      }

      .cls-62 {
        fill: #bb2718;
      }

      .cls-63 {
        fill: #9e7a7a;
      }

      .cls-64 {
        fill: #8acdf2;
      }

      .cls-65 {
        fill: #917171;
      }

      .cls-66 {
        fill: #c1c63f;
      }

      .cls-67 {
        fill: #b61918;
      }

      .cls-68 {
        fill: #72a8d8;
      }

      .cls-69 {
        fill: #326c96;
      }

      .cls-70 {
        fill: #335ea5;
      }

      .cls-71 {
        fill: #d06c13;
      }

      .cls-72 {
        fill: #aa1917;
      }

      .cls-73 {
        fill: #af5708;
      }

      .cls-74 {
        fill: #aecdea;
      }

      .cls-75 {
        fill: #afc928;
      }

      .cls-76 {
        fill: #b51a29;
      }

      .cls-77 {
        fill: #a5a5a9;
      }

      .cls-78 {
        fill: #b29a44;
      }

      .cls-79 {
        fill: #c16508;
      }

      .cls-80 {
        fill: #d32016;
      }

      .cls-81 {
        fill: #dddbdb;
      }

      .cls-82 {
        fill: #dddd58;
      }

      .cls-83 {
        fill: #d1b459;
      }

      .cls-84 {
        fill: #d63909;
      }

      .cls-85 {
        fill: #dd7e1e;
      }

      .cls-86 {
        fill: #dbddb8;
      }

      .cls-87 {
        fill: #dadada;
      }

      .cls-88 {
        fill: #b1340b;
      }

      .cls-89 {
        fill: #ae6216;
      }

      .cls-90 {
        fill: #dcf6ff;
      }

      .cls-91 {
        fill: #c6ced9;
      }

      .cls-92 {
        fill: #dbb600;
      }

      .cls-93 {
        fill: #c8c8ca;
      }

      .cls-94 {
        fill: #e18d69;
      }

      .cls-95 {
        fill: #18333f;
      }

      .cls-96 {
        fill: #233a51;
      }

      .cls-97 {
        fill: #212930;
      }

      .cls-98 {
        fill: #214d8e;
      }

      .cls-99 {
        fill: #214260;
      }

      .cls-100 {
        fill: #15437a;
      }

      .cls-101 {
        fill: #066c84;
      }

      .cls-102 {
        fill: #0f131c;
      }

      .cls-103 {
        fill: #354d68;
      }

      .cls-104 {
        fill: #4476b9;
      }

      .cls-105 {
        fill: #1b3f71;
      }

      .cls-106 {
        fill: #181e24;
      }

      .cls-107 {
        fill: #1b1f26;
      }

      .cls-108 {
        fill: #9d1915;
      }

      .cls-109 {
        fill: #727272;
      }

      .cls-110 {
        fill: #94b7d8;
      }

      .cls-111 {
        fill: #464647;
      }

      .cls-112 {
        fill: #463121;
      }

      .cls-113 {
        fill: #467caf;
      }

      .cls-114 {
        fill: #9b3b1e;
      }

      .cls-115 {
        fill: #88cc75;
      }

      .cls-116 {
        fill: #6d4f43;
      }

      .cls-117 {
        fill: #54a4db;
      }

      .cls-118 {
        fill: #2a2323;
      }

      .cls-119 {
        fill: #283f56;
      }

      .cls-120 {
        fill: #2983ef;
      }

      .cls-121 {
        fill: #2b4366;
      }

      .cls-122 {
        fill: #647daf;
      }

      .cls-123 {
        fill: #486578;
      }

      .cls-124 {
        fill: #343e47;
      }

      .cls-125 {
        fill: #344b5b;
      }

      .cls-126 {
        fill: #3c5580;
      }

      .cls-127 {
        fill: #5d5d5d;
      }

      .cls-128 {
        fill: #788c9f;
      }

      .cls-129 {
        fill: #4b4c4c;
      }

      .cls-130 {
        fill: #526899;
      }

      .cls-131 {
        fill: #4f362e;
      }

      .cls-132 {
        fill: #255599;
      }

      .cls-133 {
        fill: #515151;
      }

      .cls-2 {
        stroke-width: 1.54px;
      }

      .cls-3 {
        stroke-width: 3.45px;
      }

      .cls-3, .cls-7 {
        stroke: #192d38;
      }

      .cls-35, .cls-134 {
        opacity: .2;
      }

      .cls-4 {
        stroke-width: .97px;
      }

      .cls-4, .cls-8 {
        stroke: #cf835d;
      }

      .cls-5 {
        stroke-width: .8px;
      }

      .cls-6 {
        stroke: #9d1915;
        stroke-width: 4.18px;
      }

      .cls-135, .cls-36 {
        opacity: .3;
      }

      .cls-136 {
        opacity: .4;
      }

      .cls-7 {
        stroke-width: 3.3px;
      }

      .cls-8 {
        stroke-width: .92px;
      }

      .cls-9 {
        stroke-width: 1.47px;
      }

      .cls-137 {
        fill: #2a5491;
        opacity: .5;
      }
    </style>
  </defs>
  <g>
    <g>
      <path class="cls-82" d="m1056.58,467.28s-12.08-44.94-54.48-32.1c-4.97,1.49-10.46-28.85-41.92-16.57,0,0-10.19-37.2-49.92-21.88,0,0-18.26-39.46-74.28-26.1-10.74,2.57-26.51,10.8-28.94,34.16,0,0-29.77-37.9-57.35,4.66,0,0-63.09-19-68,29.4,0,0-20.15,16.04-1.03,30.13l375.93-1.69Z"/>
      <path class="cls-66" d="m1056.53,468.5s-12.19-41.34-54.56-29.66c-4.95,1.35-10.54-26.55-41.94-15.34,0,0-10.3-34.25-49.99-20.27,0,0-18.35-36.31-74.34-24.2-10.76,2.31-26.5,9.84-28.85,31.31,0,0-29.86-34.95-57.33,4.12,0,0-63.14-17.64-67.92,26.83,0,0-20.1,14.68-.94,27.68l375.87-.47Z"/>
    </g>
    <g>
      <path class="cls-82" d="m1227.83,471.15s-9.4-35-42.43-25c-3.87,1.16-8.16-22.47-32.66-12.9,0,0-7.93-28.97-38.88-17.04,0,0-14.22-30.73-57.86-20.33-8.37,2-20.65,8.42-22.54,26.6,0,0-23.19-29.51-44.66,3.63,0,0-49.14-14.8-52.96,22.9,0,0-15.69,12.5-.8,23.47l292.79-1.32Z"/>
      <path class="cls-66" d="m1227.79,472.11s-9.49-32.2-42.48-23.1c-3.85,1.05-8.21-20.68-32.66-11.95,0,0-8.03-26.68-38.94-15.79,0,0-14.29-28.28-57.89-18.85-8.39,1.8-20.64,7.66-22.47,24.39,0,0-23.26-27.22-44.65,3.21,0,0-49.18-13.74-52.9,20.89,0,0-15.66,11.43-.73,21.56l292.74-.36Z"/>
    </g>
    <g>
      <path class="cls-82" d="m308.97,476.26s-9.41-35-42.43-25c-3.87,1.16-8.15-22.47-32.66-12.9,0,0-7.93-28.97-38.88-17.04,0,0-14.22-30.73-57.86-20.33-8.37,2-20.65,8.42-22.54,26.6,0,0-23.19-29.51-44.66,3.63,0,0-49.14-14.8-52.96,22.9,0,0-15.69,12.5-.8,23.47l292.79-1.32Z"/>
      <path class="cls-75" d="m308.93,477.21s-9.49-32.2-42.48-23.1c-3.85,1.05-8.21-20.68-32.66-11.95,0,0-8.03-26.68-38.95-15.79,0,0-14.29-28.28-57.89-18.85-8.38,1.8-20.64,7.66-22.47,24.39,0,0-23.26-27.22-44.65,3.21,0,0-49.18-13.74-52.9,20.89,0,0-15.66,11.43-.73,21.56l292.74-.36Z"/>
    </g>
    <g>
      <path class="cls-23" d="m756.22,475.14s-19.36-65.95-87.33-47.12c-7.96,2.19-16.77-42.34-67.2-24.31,0,0-16.33-54.59-80.02-32.11,0,0-29.27-57.91-119.07-38.3-17.22,3.76-42.5,15.85-46.39,50.13,0,0-47.72-55.62-91.93,6.84,0,0-101.13-27.88-109,43.15,0,0-32.3,23.55-1.65,44.22l602.59-2.48Z"/>
      <path class="cls-75" d="m756.13,476.93s-19.54-60.67-87.45-43.53c-7.92,1.99-16.89-38.97-67.23-22.52,0,0-16.5-50.28-80.14-29.76,0,0-29.42-53.3-119.16-35.51-17.24,3.39-42.47,14.43-46.24,45.95,0,0-47.87-51.28-91.9,6.05,0,0-101.21-25.89-108.88,39.37,0,0-32.21,21.55-1.5,40.63l602.5-.69Z"/>
    </g>
    <g>
      <path class="cls-23" d="m1594.31,471.11s-15.16-43.56-68.38-31.12c-6.22,1.44-13.13-27.97-52.61-16.06,0,0-12.79-36.06-62.66-21.21,0,0-22.92-38.25-93.23-25.3-13.48,2.49-33.27,10.47-36.32,33.11,0,0-37.35-36.74-71.97,4.51,0,0-79.18-18.42-85.34,28.5,0,0-25.3,15.56-1.3,29.21l471.8-1.64Z"/>
      <path class="cls-75" d="m1594.24,472.29s-15.31-40.08-68.46-28.75c-6.21,1.32-13.23-25.73-52.63-14.87,0,0-12.94-33.21-62.75-19.65,0,0-23.03-35.2-93.3-23.46-13.5,2.24-33.26,9.54-36.21,30.35,0,0-37.47-33.87-71.95,3.99,0,0-79.25-17.1-85.24,26,0,0-25.22,14.24-1.18,26.84l471.73-.46Z"/>
    </g>
    <g>
      <path class="cls-23" d="m1883.19,458.52s-15.16-45.49-68.38-32.5c-6.22,1.51-13.13-29.21-52.61-16.77,0,0-12.79-37.66-62.65-22.15,0,0-22.92-39.95-93.23-26.42-13.48,2.6-33.27,10.93-36.32,34.58,0,0-37.35-38.37-71.97,4.72,0,0-79.18-19.24-85.34,29.76,0,0-25.3,16.24-1.3,30.5l471.8-1.72Z"/>
      <path class="cls-75" d="m1883.11,459.76s-15.31-41.86-68.47-30.03c-6.21,1.37-13.23-26.88-52.63-15.54,0,0-12.94-34.67-62.75-20.52,0,0-23.03-36.76-93.3-24.5-13.51,2.33-33.26,9.96-36.21,31.7,0,0-37.47-35.37-71.95,4.17,0,0-79.25-17.85-85.24,27.16,0,0-25.22,14.87-1.18,28.03l471.73-.47Z"/>
    </g>
    <g>
      <path class="cls-82" d="m1593.21,468.08s-10.39-38.66-46.87-27.62c-4.27,1.28-9-24.82-36.06-14.25,0,0-8.76-31.99-42.94-18.82,0,0-15.71-33.94-63.9-22.45-9.24,2.2-22.81,9.29-24.9,29.38,0,0-25.61-32.61-49.32,4,0,0-54.27-16.34-58.5,25.29,0,0-17.34,13.8-.88,25.92l323.37-1.45Z"/>
      <path class="cls-66" d="m1593.16,469.14s-10.5-35.57-46.93-25.52c-4.26,1.17-9.07-22.83-36.07-13.2,0,0-8.87-29.46-43.01-17.43,0,0-15.79-31.23-63.95-20.81-9.25,1.98-22.8,8.46-24.82,26.93,0,0-25.68-30.06-49.32,3.54,0,0-54.31-15.17-58.43,23.08,0,0-17.28,12.63-.8,23.81l323.32-.4Z"/>
    </g>
    <rect class="cls-52" x=".32" y="472.91" width="1882.86" height="97.58"/>
    <g>
      <rect class="cls-109" x=".32" y="458.42" width="1882.86" height="44.99"/>
      <rect class="cls-109" y="570.49" width="1882.86" height="44.99"/>
    </g>
    <rect class="cls-13" x=".32" y="496.41" width="1882.86" height="7"/>
    <g>
      <rect class="cls-34" x="782.63" y="535.82" width="71.25" height="1.29"/>
      <g>
        <rect class="cls-34" x="15.02" y="535.82" width="82.57" height="1.29"/>
        <rect class="cls-34" x="139.49" y="535.82" width="82.59" height="1.29"/>
        <rect class="cls-34" x="275.88" y="535.82" width="82.57" height="1.29"/>
        <rect class="cls-34" x="400.34" y="535.82" width="82.59" height="1.29"/>
        <rect class="cls-34" x="530.22" y="535.82" width="82.57" height="1.29"/>
        <rect class="cls-34" x="654.67" y="535.82" width="82.6" height="1.29"/>
      </g>
      <g>
        <rect class="cls-34" x="1116.5" y="535.82" width="71.23" height="1.29"/>
        <rect class="cls-34" x="1223.87" y="535.82" width="71.24" height="1.29"/>
        <rect class="cls-34" x="1341.53" y="535.82" width="71.23" height="1.29"/>
        <rect class="cls-34" x="1448.9" y="535.82" width="71.25" height="1.29"/>
        <rect class="cls-34" x="1560.93" y="535.82" width="71.23" height="1.29"/>
        <rect class="cls-34" x="1668.29" y="535.82" width="71.26" height="1.29"/>
      </g>
      <rect class="cls-34" x="900.3" y="535.82" width="71.24" height="1.29"/>
      <rect class="cls-34" x="1007.66" y="535.82" width="71.25" height="1.29"/>
      <rect class="cls-34" x="1791.07" y="536.43" width="71.25" height="1.29"/>
    </g>
    <g>
      <g>
        <g>
          <path class="cls-111" d="m1710.69,485.93c0,1.24-1.02,2.23-2.29,2.23h-6.04c-1.26,0-2.29-1-2.29-2.23v-18.58c0-1.23,1.03-2.23,2.29-2.23h6.04c1.27,0,2.29,1,2.29,2.23v18.58Z"/>
          <path class="cls-111" d="m1700.07,467.35v18.58c0,1.24,1.03,2.23,2.29,2.23h3v-23.04h-3c-1.26,0-2.29,1-2.29,2.23Z"/>
        </g>
        <g>
          <path class="cls-111" d="m1626.81,485.93c0,1.24-1.1,2.23-2.46,2.23h-6.54c-1.37,0-2.47-1-2.47-2.23v-18.58c0-1.23,1.1-2.23,2.47-2.23h6.54c1.36,0,2.46,1,2.46,2.23v18.58Z"/>
          <path class="cls-111" d="m1615.34,467.35v18.58c0,1.24,1.1,2.23,2.47,2.23h3.24v-23.04h-3.24c-1.37,0-2.47,1-2.47,2.23Z"/>
        </g>
        <polygon class="cls-84" points="1701.79 482.71 1624.57 483.53 1624.44 469.49 1701.62 468.61 1701.79 482.71"/>
        <polygon class="cls-88" points="1617.25 447.23 1624.44 469.49 1703.67 469.03 1710.71 447.65 1617.25 447.23"/>
        <polygon class="cls-16" points="1710.71 447.65 1710.77 474.98 1699.27 475.14 1701.94 469.03 1710.71 447.65"/>
        <polygon class="cls-19" points="1617.3 447.5 1631.17 429.52 1693.85 429.44 1710.71 447.47 1617.3 447.5"/>
        <path class="cls-15" d="m1713.6,442.55s-1.3-2.23-6.2-2.1c0,0-6.36-.53-7.17,3.53,0,0-3.08-.33-4.58-2.27l.88.14s-.48-1.7-.37-1.55c0,0-1.52-.45-1.4-.21l-7.5-9.7c-39.75-.75-61.86,0-61.86,0l-7.93,9.27c1.32.25-.44.59-.44.58v.75l-1.32,1.02c-1.53,1.89-5.09,2.13-5.09,2.13-.81-4.06-7.23-3.54-7.23-3.54-4.93-.13-6.23,2.1-6.23,2.1-1.99,5.89,10.19,3.8,10.84,3.8.57,0,2.53.4,3.01.51v.02h.11l.02-.02c44.26-4.28,88.99.02,88.99.02l-.1-.18c.64-.16,2.3-.47,2.83-.47.64,0,12.7,2.09,10.76-3.81Z"/>
        <polygon class="cls-15" points="1609.01 447.23 1623.35 429.36 1687.71 429.58 1702.48 447.65 1609.01 447.23"/>
        <polygon class="cls-22" points="1615.02 447.27 1627.52 431.71 1683.61 431.91 1696.47 447.65 1615.02 447.27"/>
        <polygon class="cls-56" points="1617.95 447.27 1629.97 431.71 1684.06 431.91 1696.47 447.65 1617.95 447.27"/>
        <g class="cls-134">
          <path class="cls-34" d="m1645.33,447.4l6.77-15.54c-1.51-.15-3.22.03-4.01-.11-3.03.14-3.05-.07-5.83,0-1.18-.03-2.91-.07-4.56.04l-7.98,15.51,15.61.09Z"/>
        </g>
        <g class="cls-134">
          <path class="cls-34" d="m1670.03,447.4l6.77-15.54c-1.52-.15-3.21.03-4-.11-3.05.14-3.07-.07-5.84,0-1.19-.03-2.9-.07-4.57.04l-7.98,15.51,15.62.09Z"/>
        </g>
        <rect class="cls-19" x="1702.48" y="447.65" width="8.26" height="17.72"/>
        <g>
          <path class="cls-127" d="m1705.13,486.11c0,1.24-1.3,2.23-2.9,2.23h-7.67c-1.62,0-2.9-.99-2.9-2.23v-18.58c0-1.24,1.29-2.23,2.9-2.23h7.67c1.6,0,2.9.99,2.9,2.23v18.58Z"/>
          <path class="cls-129" d="m1691.66,467.53v18.58c0,1.24,1.29,2.23,2.9,2.23h3.81v-23.04h-3.81c-1.62,0-2.9.99-2.9,2.23Z"/>
        </g>
        <g>
          <path class="cls-127" d="m1617.65,485.93c0,1.3-1.1,2.34-2.46,2.34h-6.53c-1.36,0-2.48-1.03-2.48-2.34v-19.55c0-1.3,1.12-2.34,2.48-2.34h6.53c1.36,0,2.46,1.04,2.46,2.34v19.55Z"/>
          <path class="cls-129" d="m1606.18,466.38v19.55c0,1.3,1.12,2.34,2.48,2.34h3.25v-24.23h-3.25c-1.36,0-2.48,1.04-2.48,2.34Z"/>
        </g>
        <polygon class="cls-20" points="1695.51 482.69 1616.38 483.59 1616.21 469.49 1695.35 468.59 1695.51 482.69"/>
        <polygon class="cls-16" points="1609.01 447.23 1616.21 469.49 1695.43 469.03 1702.48 447.65 1609.01 447.23"/>
        <polygon class="cls-19" points="1702.48 447.65 1704.25 464.85 1695.51 482.69 1695.16 468.82 1702.48 447.65"/>
        <polygon class="cls-19" points="1609.01 447.23 1607.26 464.4 1616.38 483.59 1616.29 469.03 1609.01 447.23"/>
        <polygon class="cls-15" points="1616.4 469.49 1656.53 469.26 1656.53 447.49 1609.2 447.24 1616.4 469.49"/>
        <g>
          <rect class="cls-93" x="1640.89" y="472.91" width="29.16" height="6.35"/>
          <rect class="cls-34" x="1640.89" y="472.91" width="27.56" height="6.35"/>
        </g>
        <g class="cls-10">
          <rect x="1640.89" y="479.27" width="29.23" height="2.23"/>
        </g>
        <g class="cls-134">
          <polygon class="cls-34" points="1678 447.47 1684.35 432.3 1688.63 437.69 1685.08 447.6 1678 447.47"/>
        </g>
        <polygon class="cls-19" points="1698.14 460.08 1613.38 460.21 1616.4 469.49 1695.07 469.02 1698.14 460.08"/>
        <g>
          <path class="cls-127" d="m1640.62,461.51c-.25,0-.5.05-.73.1v6.14c.23.04.48.08.73.08h1.3v-6.32h-1.3Z"/>
          <g>
            <rect class="cls-127" x="1642.39" y="461.51" width="2.02" height="6.32"/>
            <rect class="cls-127" x="1647.36" y="461.51" width="2.02" height="6.32"/>
            <path class="cls-127" d="m1654.82,461.96v5.43c.64-.39,1.04-.97,1.04-1.63v-2.18c0-.66-.4-1.25-1.04-1.62Z"/>
            <path class="cls-127" d="m1653.18,461.51h-.85v6.32h.85c.42,0,.82-.08,1.18-.22v-5.88c-.36-.14-.75-.23-1.18-.23Z"/>
            <rect class="cls-127" x="1649.84" y="461.51" width="2.01" height="6.32"/>
            <rect class="cls-127" x="1644.87" y="461.51" width="2.02" height="6.32"/>
            <path class="cls-50" d="m1637.95,463.59v2.18c0,.81.61,1.5,1.48,1.85v-5.88c-.87.35-1.48,1.04-1.48,1.84Z"/>
            <path class="cls-133" d="m1639.42,461.74v5.88c.15.04.31.1.47.13v-6.14c-.16.02-.32.08-.47.13Z"/>
            <rect class="cls-133" x="1641.92" y="461.51" width=".47" height="6.32"/>
            <rect class="cls-133" x="1644.41" y="461.51" width=".46" height="6.32"/>
            <rect class="cls-133" x="1646.89" y="461.51" width=".47" height="6.32"/>
            <rect class="cls-133" x="1649.38" y="461.51" width=".46" height="6.32"/>
            <rect class="cls-133" x="1651.85" y="461.51" width=".48" height="6.32"/>
            <path class="cls-133" d="m1654.36,461.74v5.88c.16-.07.33-.14.46-.22v-5.43c-.13-.09-.29-.16-.46-.22Z"/>
          </g>
          <g>
            <rect class="cls-127" x="1661.12" y="461.39" width="2.01" height="6.31"/>
            <rect class="cls-127" x="1666.09" y="461.39" width="2.02" height="6.31"/>
            <path class="cls-127" d="m1659.35,461.39c-.25,0-.49.02-.73.08v6.15c.24.04.48.08.73.08h1.3v-6.31h-1.3Z"/>
            <path class="cls-127" d="m1673.56,461.84v5.42c.62-.39,1.04-.96,1.04-1.62v-2.19c0-.66-.42-1.24-1.04-1.61Z"/>
            <path class="cls-127" d="m1671.93,461.39h-.85v6.31h.85c.41,0,.81-.08,1.17-.22v-5.88c-.36-.13-.75-.21-1.17-.21Z"/>
            <rect class="cls-127" x="1668.59" y="461.39" width="2.02" height="6.31"/>
            <rect class="cls-127" x="1663.6" y="461.39" width="2.02" height="6.31"/>
            <path class="cls-50" d="m1656.68,463.44v2.19c0,.8.61,1.5,1.48,1.84v-5.86c-.87.33-1.48,1.03-1.48,1.83Z"/>
            <path class="cls-133" d="m1658.16,461.62v5.86c.15.06.31.1.46.15v-6.15c-.15.03-.31.08-.46.14Z"/>
            <rect class="cls-133" x="1660.64" y="461.39" width=".48" height="6.31"/>
            <rect class="cls-133" x="1663.14" y="461.39" width=".47" height="6.31"/>
            <rect class="cls-133" x="1665.63" y="461.39" width=".46" height="6.31"/>
            <rect class="cls-133" x="1668.11" y="461.39" width=".48" height="6.31"/>
            <rect class="cls-133" x="1670.61" y="461.39" width=".46" height="6.31"/>
            <path class="cls-133" d="m1673.09,461.6v5.88c.17-.06.33-.14.47-.23v-5.42c-.14-.09-.3-.18-.47-.23Z"/>
          </g>
          <g class="cls-134">
            <path d="m1639.5,464.41c0-.81.61-1.5,1.48-1.85.15-.04.3-.08.47-.13.24-.04.48-.09.72-.09h12.57c.21,0,.41.03.62.07-.15-.16-.32-.32-.53-.45-.13-.09-.29-.16-.46-.22-.36-.14-.75-.23-1.18-.23h-12.56c-.25,0-.5.05-.73.1-.16.02-.32.08-.47.13-.87.35-1.48,1.04-1.48,1.84v2.18c0,.81.61,1.5,1.48,1.85.15.04.31.1.47.13.03,0,.06,0,.1,0-.31-.34-.5-.74-.5-1.17v-2.18Z"/>
          </g>
          <g class="cls-134">
            <path d="m1658.24,464.29c0-.82.61-1.51,1.47-1.86.17-.04.31-.1.48-.13.23-.05.47-.09.73-.09h12.57c.2,0,.4.02.61.06-.16-.17-.32-.31-.52-.43-.14-.09-.3-.18-.47-.23-.36-.13-.75-.21-1.17-.21h-12.58c-.25,0-.49.02-.73.08-.15.03-.31.08-.46.14-.87.33-1.48,1.03-1.48,1.83v2.19c0,.8.61,1.5,1.48,1.84.15.06.31.1.46.15h.11c-.31-.32-.5-.73-.5-1.16v-2.17Z"/>
          </g>
        </g>
        <g>
          <rect class="cls-101" x="1704.2" y="447.6" width=".45" height="17.79"/>
          <rect class="cls-101" x="1704.66" y="447.56" width=".46" height="17.81"/>
        </g>
        <rect class="cls-93" x="1642.31" y="474.06" width="25.23" height="4.28"/>
        <rect class="cls-129" x="1622.6" y="446.78" width="65" height="1.04"/>
        <polygon class="cls-129" points="1660.02 447.42 1659.49 446.76 1674.14 434.83 1674.67 435.5 1660.02 447.42"/>
        <g class="cls-10">
          <rect x="1616.4" y="477.21" width="1.58" height="1.99"/>
        </g>
        <rect class="cls-90" x="1616.42" y="472.69" width="19.21" height="6.51"/>
        <rect class="cls-22" x="1616.42" y="472.69" width="1.54" height="6.51"/>
        <rect class="cls-37" x="1616.43" y="477.21" width="19.21" height="1.99"/>
        <path class="cls-20" d="m1616.21,469.5s18.49,4.95,20.73,11.99l.06-12.12-20.8.13Z"/>
        <rect class="cls-20" x="1623.28" y="472.06" width=".74" height="8.97"/>
        <rect class="cls-56" x="1675.63" y="472.52" width="19.2" height="6.5"/>
        <rect class="cls-90" x="1678.59" y="472.52" width="16.24" height="6.5"/>
        <rect class="cls-37" x="1675.63" y="477.04" width="19.19" height="1.99"/>
        <path class="cls-20" d="m1695.03,469.34s-18.47,4.95-20.72,11.98l-.06-12.12,20.78.13Z"/>
        <rect class="cls-20" x="1687.23" y="471.88" width=".74" height="8.97"/>
        <g class="cls-10">
          <rect x="1616.4" y="479.2" width="19.14" height="1.72"/>
        </g>
        <g class="cls-10">
          <rect x="1675.76" y="478.95" width="19.13" height="1.71"/>
        </g>
      </g>
      <g>
        <path class="cls-28" d="m1841.59,446.3s-.42-3.21-5.9-3.04c0,0-5.5-.32-6.23,3.73,0,0,1.49-1.5.15-3.44l.49,1.02s-.6-1.15-.49-1.02c0,0-.74-1.31-.63-1.06l-5.26-8.52c-37.49-6.09-62-.71-62-.71l-4.39,8.65s.02-.02.02-.03l-.25.48-.72,1.41c-1.36,1.9-3.61,3.59-3.61,3.59-.74-4.03-2.96,2.36-2.37,2.36.51,0,2.28.4,2.7.5h0s.04,0,.07,0h.04c39.77-4.3,79.95,0,79.95,0l-.11-.18c.59-.13,2.08-.46,2.56-.46.57,0,6.69.95,5.99-3.29Z"/>
        <path class="cls-111" d="m1841.76,486.95c0,1.35-1.21,2.44-2.7,2.44h-7.16c-1.49,0-2.69-1.09-2.69-2.44v-20.35c0-1.35,1.21-2.44,2.69-2.44h7.16c1.49,0,2.7,1.09,2.7,2.44v20.35Z"/>
        <path class="cls-111" d="m1765.27,486.95c0,1.35-1.21,2.44-2.69,2.44h-7.16c-1.49,0-2.69-1.09-2.69-2.44v-20.35c0-1.35,1.2-2.44,2.69-2.44h7.16c1.48,0,2.69,1.09,2.69,2.44v20.35Z"/>
        <path class="cls-28" d="m1747.66,461.85l1.33,12.94,89.73.87,1.92-11.44s-9.09-7.33-46.79-6.81c0,0-39.64-.66-46.2,4.44Z"/>
        <polygon class="cls-93" points="1744.84 474.8 1746.78 483.29 1833.21 482.9 1835.3 474.67 1744.84 474.8"/>
        <path class="cls-28" d="m1753.32,449.64s-9.23.14-5.65,12.62c0,0,.14-4.82,46.94-4.82,0,0,35.17,1.41,46.04,6.8,0,0,3.89-14.6-5.81-14.6,0,0-29.5-5.24-81.52,0Z"/>
        <path class="cls-37" d="m1840.21,445.79s-1.18-2.22-5.64-2.09c0,0-5.83-.52-6.56,3.52,0,0-2.37-1.75-3.72-3.69l.5,1.02s-.61-1.15-.5-1.02c0,0-.75-1.31-.64-1.06l-5.05-9.38c-34.03-5.74-63.43.15-63.43.15l-4.47,8.65v-.03l-.24.48-.74,1.41c-1.4,1.9-3.68,3.59-3.68,3.59-.75-4.03-6.62-3.52-6.62-3.52-4.5-.13-5.71,2.09-5.71,2.09-1.81,5.89,9.31,3.79,9.92,3.79.53,0,2.32.4,2.76.5h-.02s.05,0,.07,0h.05c40.48-4.3,81.39,0,81.39,0l-.1-.18c.6-.13,2.11-.46,2.59-.46.59,0,11.61,2.09,9.82-3.79Z"/>
        <path class="cls-49" d="m1816.27,435.22c-34.59-5.29-59.01,0-59.01,0l-7.45,16.33,74.8,1.03-8.35-17.37Z"/>
        <path class="cls-56" d="m1816.49,435.22c-33.7-5.29-57.51,0-57.51,0l-7.26,16.33,72.91,1.03-8.14-17.37Z"/>
        <path class="cls-127" d="m1835.06,487.02c0,1.37-1.24,2.49-2.75,2.49h-7.29c-1.52,0-2.75-1.13-2.75-2.49v-20.73c0-1.36,1.23-2.49,2.75-2.49h7.29c1.51,0,2.75,1.13,2.75,2.49v20.73Z"/>
        <path class="cls-35" d="m1782.28,447.42l7.23-14.48c-1.56-.16-3.6-.06-4.41-.18-3.14.14-2.91.02-5.75.09-1.21-.02-2.7.17-4.42.28l-7.43,14.79,14.79-.51Z"/>
        <path class="cls-35" d="m1803.09,447.47l6.75-13.17c-1.54-.13-3.62-.33-4.45-.45-3-.23-2.63-.47-5.48-.41-1.22-.02-2.68-.4-4.39-.29l-7.23,14.04,14.8.28Z"/>
        <path class="cls-129" d="m1822.27,466.29v20.73c0,1.37,1.23,2.49,2.75,2.49h3.61v-25.71h-3.61c-1.52,0-2.75,1.13-2.75,2.49Z"/>
        <path class="cls-127" d="m1752.45,487.02c0,1.37-1.23,2.49-2.76,2.49h-7.28c-1.53,0-2.76-1.13-2.76-2.49v-20.73c0-1.36,1.23-2.49,2.76-2.49h7.28c1.53,0,2.76,1.13,2.76,2.49v20.73Z"/>
        <path class="cls-129" d="m1739.65,466.29v20.73c0,1.37,1.23,2.49,2.76,2.49h3.62v-25.71h-3.62c-1.53,0-2.76,1.13-2.76,2.49Z"/>
        <path class="cls-29" d="m1740.72,461.85l1.34,12.94,90.46-.13,1.49-12.82s-9.38-4.95-47.08-4.44c0,0-39.64-.66-46.21,4.44Z"/>
        <path class="cls-87" d="m1741.16,466.57l24.45.51-7.75-8.63s-14.9.67-17.15,3.4l.44,4.72Z"/>
        <path class="cls-87" d="m1833.45,466.74l-24.62.61,7.75-9.15s15.3.79,17.54,3.7l-.67,4.84Z"/>
        <polygon class="cls-79" points="1742.06 474.8 1744.01 483.29 1830.43 482.9 1832.52 474.67 1742.06 474.8"/>
        <path class="cls-37" d="m1746.38,449.64s-9.24.14-5.66,12.62c0,0,.15-4.82,46.94-4.82,0,0,35.47-.56,46.35,4.82,0,0,3.58-12.62-6.11-12.62,0,0-29.5-5.24-81.52,0Z"/>
        <path class="cls-40" d="m1740.72,462.25s.16-4.79,46.59-4.81v-10.11c-11.45.1-25.14.71-40.93,2.31,0,0-9.24.14-5.66,12.62Z"/>
        <path class="cls-73" d="m1802.92,476.94l-15.41.17-15.41-.17c-11.92-.09-13.12,6-13.12,6h57.05s-1.19-6.09-13.11-6Z"/>
        <path class="cls-48" d="m1802.92,477.92l-15.41.15-15.41-.15c-11.92-.08-13.32,5.34-13.32,5.34l27.94-.32h29.31s-1.19-5.1-13.11-5.02Z"/>
        <path class="cls-79" d="m1798.55,479.42l-11.07.11-11.07-.11c-8.57-.05-9.58,3.84-9.58,3.84l20.08-.22h21.06s-.85-3.67-9.42-3.62Z"/>
        <rect class="cls-59" x="1772.46" y="469.84" width="29.52" height="7.05"/>
        <rect class="cls-93" x="1772.46" y="469.84" width="29" height="7.05"/>
        <rect class="cls-38" x="1774.96" y="471.17" width="24.78" height="4.77"/>
        <path class="cls-77" d="m1741.92,462.16l.44,3.45,19.67.09-5.3-6.22s-7.36.25-14.82,2.68Z"/>
        <path class="cls-32" d="m1743.31,462.16l.4,3.45,18.31.09-4.93-6.22s-6.86.25-13.79,2.68Z"/>
        <path class="cls-77" d="m1832.05,462.5l-.42,3.46-19.67.09,5.28-6.24s7.38.26,14.82,2.69Z"/>
        <path class="cls-32" d="m1832.05,462.5l-.39,3.46-18.33.09,4.94-6.24s6.85.26,13.78,2.69Z"/>
        <path class="cls-36" d="m1746.03,450.91c52.02-5.25,81.53,0,81.53,0,7.01,0,7.19,6.57,6.69,10.24.61-2.96,1.58-11.63-6.46-11.63,0,0-29.51-5.25-81.52,0,0,0-5.82.11-6.42,6.42,1.24-4.95,6.18-5.03,6.18-5.03Z"/>
        <g>
          <path class="cls-50" d="m1769.77,460.73c-.29,0-.55.04-.81.11v7.75c.26.06.51.11.81.11h1.44v-7.97h-1.44Z"/>
          <g>
            <rect class="cls-50" x="1771.74" y="460.73" width="2.25" height="7.97"/>
            <rect class="cls-50" x="1777.29" y="460.73" width="2.24" height="7.97"/>
            <path class="cls-50" d="m1785.6,461.29v6.85c.7-.49,1.16-1.21,1.16-2.05v-2.75c0-.84-.46-1.58-1.16-2.05Z"/>
            <path class="cls-50" d="m1783.78,460.73h-.95v7.97h.95c.47,0,.91-.11,1.31-.26v-7.43c-.4-.17-.84-.28-1.31-.28Z"/>
            <rect class="cls-50" x="1780.07" y="460.73" width="2.24" height="7.97"/>
            <rect class="cls-50" x="1774.52" y="460.73" width="2.24" height="7.97"/>
            <path class="cls-50" d="m1766.79,463.35v2.75c0,1.01.67,1.9,1.65,2.31v-7.39c-.97.43-1.65,1.3-1.65,2.33Z"/>
            <path class="cls-133" d="m1768.44,461.02v7.39c.18.08.34.14.52.18v-7.75c-.18.04-.35.1-.52.18Z"/>
            <rect class="cls-133" x="1771.22" y="460.73" width=".52" height="7.97"/>
            <rect class="cls-133" x="1773.99" y="460.73" width=".52" height="7.97"/>
            <rect class="cls-133" x="1776.76" y="460.73" width=".53" height="7.97"/>
            <rect class="cls-133" x="1779.54" y="460.73" width=".53" height="7.97"/>
            <rect class="cls-133" x="1782.31" y="460.73" width=".52" height="7.97"/>
            <path class="cls-133" d="m1785.09,461.01v7.43c.18-.09.35-.18.51-.29v-6.85c-.17-.1-.33-.21-.51-.29Z"/>
          </g>
          <g>
            <rect class="cls-50" x="1792.63" y="460.55" width="2.24" height="7.97"/>
            <rect class="cls-50" x="1798.17" y="460.55" width="2.25" height="7.97"/>
            <path class="cls-50" d="m1790.66,460.55c-.28,0-.55.04-.81.11v7.75c.26.08.53.12.81.12h1.43v-7.97h-1.43Z"/>
            <path class="cls-50" d="m1806.49,461.12v6.85c.7-.49,1.15-1.22,1.15-2.06v-2.75c0-.83-.45-1.58-1.15-2.05Z"/>
            <path class="cls-50" d="m1804.66,460.55h-.95v7.97h.95c.48,0,.91-.09,1.31-.27v-7.41c-.4-.18-.84-.29-1.31-.29Z"/>
            <rect class="cls-50" x="1800.95" y="460.55" width="2.25" height="7.97"/>
            <rect class="cls-50" x="1795.41" y="460.55" width="2.24" height="7.97"/>
            <path class="cls-50" d="m1787.68,463.17v2.75c0,1.03.66,1.9,1.66,2.33v-7.41c-.99.43-1.66,1.3-1.66,2.33Z"/>
            <path class="cls-133" d="m1789.34,460.84v7.41c.16.08.33.13.51.16v-7.75c-.18.05-.35.1-.51.18Z"/>
            <rect class="cls-133" x="1792.1" y="460.55" width=".53" height="7.97"/>
            <rect class="cls-133" x="1794.87" y="460.55" width=".53" height="7.97"/>
            <rect class="cls-133" x="1797.65" y="460.55" width=".52" height="7.97"/>
            <rect class="cls-133" x="1800.43" y="460.55" width=".52" height="7.97"/>
            <rect class="cls-133" x="1803.2" y="460.55" width=".51" height="7.97"/>
            <path class="cls-133" d="m1805.98,460.84v7.41c.18-.09.35-.17.51-.28v-6.85c-.17-.11-.33-.21-.51-.28Z"/>
          </g>
          <path class="cls-134" d="m1768.52,464.4c0-1.04.68-1.92,1.66-2.34.17-.07.34-.13.52-.18.26-.06.52-.11.8-.11h14.02c.23,0,.46.03.66.07-.16-.21-.35-.39-.58-.55-.17-.1-.33-.21-.51-.29-.4-.17-.84-.28-1.31-.28h-14.01c-.29,0-.55.04-.81.11-.18.04-.35.1-.52.18-.97.43-1.65,1.3-1.65,2.33v2.75c0,1.01.67,1.9,1.65,2.31.18.08.34.14.52.18.04.02.07,0,.11.02-.33-.42-.55-.93-.55-1.48v-2.73Z"/>
          <path class="cls-134" d="m1789.41,464.22c0-1.03.67-1.9,1.65-2.34.17-.06.33-.12.52-.17.25-.08.52-.12.81-.12h14c.24,0,.46.03.67.09-.16-.21-.36-.41-.58-.57-.17-.11-.33-.21-.51-.28-.4-.18-.84-.29-1.31-.29h-14c-.28,0-.55.04-.81.11-.18.05-.35.1-.51.18-.99.43-1.66,1.3-1.66,2.33v2.75c0,1.03.66,1.9,1.66,2.33.16.08.33.13.51.16.04.03.07.03.11.03-.33-.42-.55-.92-.55-1.48v-2.74Z"/>
        </g>
        <polygon class="cls-39" points="1743.72 465.6 1762.03 465.7 1760.35 463.58 1743.48 463.58 1743.72 465.6"/>
        <polygon class="cls-39" points="1831.59 466 1813.27 466.08 1814.95 463.95 1831.83 463.95 1831.59 466"/>
      </g>
    </g>
    <g>
      <g>
        <rect class="cls-121" x="595.87" y="459.46" width="1.14" height="17.28"/>
        <rect class="cls-126" x="595.01" y="459.44" width="1.14" height="17.23"/>
      </g>
      <g>
        <rect class="cls-121" x="636.95" y="459.46" width="1.14" height="17.28"/>
        <rect class="cls-126" x="636.1" y="459.44" width="1.14" height="17.23"/>
      </g>
      <rect class="cls-131" x="589.3" y="461.45" width="63.92" height="2.88"/>
      <rect class="cls-131" x="589.3" y="466.62" width="63.92" height="2.87"/>
      <rect class="cls-131" x="589.3" y="471.78" width="63.92" height="2.87"/>
      <rect class="cls-131" x="573.88" y="476.09" width="79.33" height="4.04"/>
      <rect class="cls-116" x="584.15" y="461.45" width="63.94" height="2.88"/>
      <rect class="cls-116" x="584.15" y="466.62" width="63.94" height="2.87"/>
      <rect class="cls-116" x="584.15" y="471.78" width="63.94" height="2.87"/>
      <rect class="cls-116" x="568.75" y="476.09" width="79.33" height="4.04"/>
      <rect class="cls-121" x="574.89" y="479.97" width="71.9" height="1.44"/>
      <rect class="cls-126" x="574.89" y="479.97" width="63.34" height="1.44"/>
      <rect class="cls-126" x="578.31" y="481.4" width="2.01" height="11.35"/>
      <rect class="cls-121" x="580.03" y="481.4" width="2" height="11.35"/>
      <rect class="cls-126" x="629.68" y="481.4" width="2.01" height="11.35"/>
      <rect class="cls-121" x="631.39" y="481.4" width="1.99" height="11.35"/>
      <rect class="cls-126" x="588.57" y="481.4" width="2" height="11.35"/>
      <rect class="cls-121" x="590.3" y="481.4" width="1.99" height="11.35"/>
      <rect class="cls-126" x="639.96" y="481.4" width="1.99" height="11.35"/>
      <rect class="cls-121" x="641.67" y="481.4" width="2" height="11.35"/>
    </g>
    <g>
      <g>
        <rect class="cls-121" x="953.14" y="460.25" width="1.15" height="17.28"/>
        <rect class="cls-126" x="952.28" y="460.23" width="1.15" height="17.23"/>
      </g>
      <g>
        <rect class="cls-121" x="994.23" y="460.25" width="1.15" height="17.28"/>
        <rect class="cls-126" x="993.38" y="460.23" width="1.14" height="17.23"/>
      </g>
      <rect class="cls-131" x="946.58" y="462.24" width="63.91" height="2.88"/>
      <rect class="cls-131" x="946.58" y="467.41" width="63.91" height="2.87"/>
      <rect class="cls-131" x="946.58" y="472.57" width="63.91" height="2.87"/>
      <rect class="cls-131" x="931.15" y="476.88" width="79.33" height="4.04"/>
      <rect class="cls-116" x="941.43" y="462.24" width="63.93" height="2.88"/>
      <rect class="cls-116" x="941.43" y="467.41" width="63.93" height="2.87"/>
      <rect class="cls-116" x="941.43" y="472.57" width="63.93" height="2.87"/>
      <rect class="cls-116" x="926.03" y="476.88" width="79.33" height="4.04"/>
      <rect class="cls-121" x="932.17" y="480.76" width="71.91" height="1.44"/>
      <rect class="cls-126" x="932.17" y="480.76" width="63.34" height="1.44"/>
      <rect class="cls-126" x="935.58" y="482.19" width="2.02" height="11.35"/>
      <rect class="cls-121" x="937.31" y="482.19" width="2" height="11.35"/>
      <rect class="cls-126" x="986.95" y="482.19" width="2.02" height="11.35"/>
      <rect class="cls-121" x="988.67" y="482.19" width="1.99" height="11.35"/>
      <rect class="cls-126" x="945.86" y="482.19" width="1.99" height="11.35"/>
      <rect class="cls-121" x="947.57" y="482.19" width="2" height="11.35"/>
      <rect class="cls-126" x="997.23" y="482.19" width="2" height="11.35"/>
      <rect class="cls-121" x="998.95" y="482.19" width="1.99" height="11.35"/>
    </g>
    <g>
      <rect class="cls-86" x="64.81" y="476.14" width="118.78" height="7.39"/>
      <rect class="cls-10" x="154.36" y="476.14" width="29.23" height="7.39"/>
    </g>
  </g>
  <g>
    <g>
      <rect class="cls-81" x="331.42" y="444.56" width="103.68" height="5.28"/>
      <rect class="cls-81" x="331.42" y="467.25" width="103.68" height="5.28"/>
      <polygon class="cls-27" points="346.13 486.02 338.49 486.02 338.49 436.19 342.31 429.97 346.13 436.19 346.13 486.02"/>
      <polygon class="cls-27" points="366.46 486.02 358.82 486.02 358.82 430.53 362.64 424.31 366.46 430.53 366.46 486.02"/>
      <polygon class="cls-27" points="386.8 486.02 379.16 486.02 379.16 424.31 382.98 418.08 386.8 424.31 386.8 486.02"/>
      <polygon class="cls-27" points="407.13 486.02 399.49 486.02 399.49 430.53 403.31 424.31 407.13 430.53 407.13 486.02"/>
      <polygon class="cls-27" points="427.46 486.02 419.82 486.02 419.82 436.19 423.64 429.97 427.46 436.19 427.46 486.02"/>
    </g>
    <g>
      <rect class="cls-81" x="433.41" y="444.56" width="103.68" height="5.28"/>
      <rect class="cls-81" x="433.41" y="467.25" width="103.68" height="5.28"/>
      <polygon class="cls-27" points="448.13 486.02 440.49 486.02 440.49 436.19 444.31 429.97 448.13 436.19 448.13 486.02"/>
      <polygon class="cls-27" points="468.46 486.02 460.82 486.02 460.82 430.53 464.64 424.31 468.46 430.53 468.46 486.02"/>
      <polygon class="cls-27" points="488.79 486.02 481.15 486.02 481.15 424.31 484.97 418.08 488.79 424.31 488.79 486.02"/>
      <polygon class="cls-27" points="509.12 486.02 501.48 486.02 501.48 430.53 505.3 424.31 509.12 430.53 509.12 486.02"/>
      <polygon class="cls-27" points="529.46 486.02 521.82 486.02 521.82 436.19 525.64 429.97 529.46 436.19 529.46 486.02"/>
    </g>
    <g>
      <rect class="cls-81" x="229.87" y="444.56" width="103.68" height="5.28"/>
      <rect class="cls-81" x="229.87" y="467.25" width="103.68" height="5.28"/>
      <polygon class="cls-27" points="244.59 486.02 236.95 486.02 236.95 436.19 240.77 429.97 244.59 436.19 244.59 486.02"/>
      <polygon class="cls-27" points="264.92 486.02 257.28 486.02 257.28 430.53 261.1 424.31 264.92 430.53 264.92 486.02"/>
      <polygon class="cls-27" points="285.25 486.02 277.61 486.02 277.61 424.31 281.43 418.08 285.25 424.31 285.25 486.02"/>
      <polygon class="cls-27" points="305.58 486.02 297.94 486.02 297.94 430.53 301.76 424.31 305.58 430.53 305.58 486.02"/>
      <polygon class="cls-27" points="325.92 486.02 318.28 486.02 318.28 436.19 322.1 429.97 325.92 436.19 325.92 486.02"/>
    </g>
  </g>
  <g>
    <g>
      <path class="cls-94" d="m1420.32,424.7s4.6,6.71,8.85,10.85c0,0,11.61,5.1,15.63,6l.17,2.51s-11.62-2-13.39-2.25c-1.78-.24-1.63.1-3.8-1.39-2.17-1.5-8.7-5.26-10.43-6.81-1.73-1.55-5.84-4.02-3.73-8.83.71-1.61,3.52-2.66,6.7-.09Z"/>
      <path class="cls-94" d="m1442.9,443.71s2.16,2.56,4.12-.77c0,0,.36-2.05.96-1.99.6.06,1.46,2.01,2.5,1.95,0,0-.67-1.86-1.33-2.45-.66-.58-.75-.92-1.49-1.24-1.35-.58-4.23,1.97-4.23,1.97l-.53,2.53Z"/>
      <path class="cls-96" d="m1443.2,505.08v.07h15.43s-2.08,7.27-3.86,8.9c-1.78,1.63-4.15,1.93-8.6,1.93h-11.72v-.07h-2.97c-4.45,0-6.83-.3-8.61-1.93-1.78-1.63-3.86-8.9-3.86-8.9h24.19Z"/>
      <g>
        <path class="cls-119" d="m1462.49,511.38c0,10.41,8.44,18.84,18.84,18.84s18.84-8.44,18.84-18.84-8.44-18.84-18.84-18.84-18.84,8.44-18.84,18.84Z"/>
        <path class="cls-74" d="m1469.64,511.38c0,6.46,5.24,11.69,11.69,11.69s11.69-5.23,11.69-11.69-5.24-11.69-11.69-11.69-11.69,5.24-11.69,11.69Z"/>
        <path class="cls-118" d="m1480.37,512.18c.45.81,1.48,1.1,2.29.65h0c.81-.45,1.1-1.48.65-2.29l-12.98-23.34c-.45-.81-1.48-1.1-2.29-.65h0c-.81.45-1.1,1.47-.65,2.29l12.99,23.34Z"/>
      </g>
      <g>
        <path class="cls-119" d="m1379.4,511.38c0,10.41,8.44,18.84,18.84,18.84s18.84-8.44,18.84-18.84-8.44-18.84-18.84-18.84-18.84,8.44-18.84,18.84Z"/>
        <path class="cls-74" d="m1386.56,511.38c0,6.46,5.23,11.69,11.69,11.69s11.69-5.23,11.69-11.69-5.24-11.69-11.69-11.69-11.69,5.24-11.69,11.69Z"/>
        <path class="cls-118" d="m1398.12,513.04c-.45.81-1.48,1.1-2.29.65h0c-.81-.45-1.1-1.48-.65-2.29l12.98-23.34c.45-.81,1.48-1.1,2.29-.65h0c.81.45,1.1,1.48.65,2.29l-12.98,23.34Z"/>
      </g>
      <path class="cls-96" d="m1375.45,482.85s-1.51-5.54,0-6.39c8.11-4.55,36.3-7.66,43.13-2.32,0,0,4.06,3.56,1.98,6.53-2.08,2.97-2.1,11.75,2.94,14.13,5.05,2.37,34.28.44,34.28.44,0,0,10.36-16.94-3.11-49.82l1.48-1.4,9.33,11.14,7.99,37.38-24.75,12.05-34.37-4.9-38.91-16.84Z"/>
      <path class="cls-120" d="m1396.32,494.02c-7.34,0-11.76,4.59-15.53,10.28l-2.04-.83c-11.57-7.42-4.93-20.07-2.01-22.51,4.68-3.9,16.02-5.35,16.02-5.35,21.66,0,28.66,23.92,28.66,23.92l33.53.3c5.94,0,9.32-9.38,9.32-9.38,9.79-16.02-8.13-46.44-8.13-46.44l1.76-1.42s13.3,9.88,17.45,19.08c2.46,5.44,6.62,20.94,9.4,22.55,5.09,2.96,8.28,5.49,12.64,11.64l-3.64,3.31c-4.58-3.62-6.07-4.73-12.56-5.16-8.82-.59-17.05,6.82-20.18,14.53h-44.66c-2.75-8.44-10.68-14.53-20.03-14.53Z"/>
      <path class="cls-132" d="m1453.78,434.76s7.38,4.27,6.78,10.48c-.6,6.22-4.83,10.34-13.22,7.06,0,0-4.44-13.18,6.44-17.54Z"/>
      <g>
        <g>
          <path class="cls-44" d="m1437.91,491.66s1.08-.89,1.89-4.62l3.09,1.06s-.94,3.56-.8,4.54c.13.98-2.61,2.37-3.26,1.6-.65-.77-.92-2.58-.92-2.58Z"/>
          <g>
            <g>
              <path class="cls-46" d="m1443.37,492.43c.63,1.18,4.93,2.26,4.93,2.26,3.08.69,1.67,2.76,1.67,2.76l-13.52.4c-.89-2.38.75-5.49.75-5.49,0,0,.82-1.76,1.35-1.19.53.56-.33,2.07,1.15,1.95,1.48-.13,2.43-2.11,3.28-1.66.21.11.4.98.4.98Z"/>
              <path class="cls-34" d="m1436.45,497.86c-.51-1.37-.19-2.98.18-4.1,1.24.39.71,3.72.71,3.72l.25.35-1.13.03Z"/>
              <path class="cls-34" d="m1448.3,494.7c3.08.69,1.67,2.76,1.67,2.76l-2.52.07c-.05-1.23.31-2.16.79-2.86.04.01.07.02.07.02Z"/>
              <path class="cls-5" d="m1443.75,494.57c0,.13-.1.24-.24.25-.13,0-.24-.1-.25-.23,0-.13.1-.25.24-.25.13,0,.24.1.25.23Z"/>
              <path class="cls-5" d="m1444.74,494.93c0,.14-.1.25-.23.25-.13,0-.25-.1-.25-.24,0-.13.1-.25.23-.25.13,0,.25.1.25.23Z"/>
              <path class="cls-5" d="m1445.7,495.23c0,.13-.1.25-.24.25-.13,0-.24-.1-.25-.24,0-.14.1-.25.24-.25.13,0,.24.1.25.23Z"/>
              <path class="cls-5" d="m1446.8,495.35c0,.13-.1.24-.24.25-.13,0-.25-.1-.25-.24,0-.13.1-.25.24-.25.13,0,.25.1.25.24Z"/>
              <path class="cls-34" d="m1436.26,497.14c.04.24.1.48.19.71l13.52-.4s.21-.31.29-.73l-14,.41Z"/>
            </g>
            <path class="cls-76" d="m1443.64,494.2c.75.47,3.45,1.05,4.28.68.14-.06.26-.12.38-.18,0,0,0,0,0,0,0,0-3.94-1-4.83-2.12-.16.45-.36,1.29.17,1.62Z"/>
            <line class="cls-2" x1="1444.26" y1="493.2" x2="1443.56" y2="494.52"/>
            <line class="cls-2" x1="1445.21" y1="493.59" x2="1444.53" y2="494.86"/>
            <line class="cls-2" x1="1446.13" y1="494.02" x2="1445.5" y2="495.2"/>
            <line class="cls-2" x1="1447.1" y1="494.35" x2="1446.6" y2="495.3"/>
          </g>
        </g>
        <path class="cls-78" d="m1421.88,457.46s7.45,1.88,17.26,3.86c4.49.91,8.95,3.12,8.76,7.23l-3.98,21.51-5.4-.66-.61-16.59s-19.25.96-24.03-.36c0,0-9.85-2.6-7.73-11.35,0,0,.54-7.52,7.02-11.46l8.71,7.81Z"/>
        <path class="cls-61" d="m1421.88,457.46s1.67.42,4.46,1.08c-4.18,2.3-12.62,5.96-20.34,3.29.04-.24.09-.48.15-.72,0,0,.45-6.24,5.43-10.33l4.69,1.65,5.61,5.03Z"/>
        <path class="cls-83" d="m1445.06,489.95c-.03.23-.25.39-.48.35l-7.02-.99c-.23-.03-.39-.25-.35-.48l.45-3c.03-.23.25-.39.48-.35l7.02,1c.23.03.39.25.35.48l-.45,3Z"/>
      </g>
      <g>
        <path class="cls-105" d="m1424.26,436c-3.88-5.44-8.46-13.19-6.94-16.31,1.92-3.92,3.99-3.06,6.57.21,2.74,3.48,6.47,12.87,7.27,14.57l-6.9,1.53Z"/>
        <path class="cls-113" d="m1431.47,433.21s1.28,2.95.57,3.76l-5.56,2.07s-3.89-2.68-3.47-3.7c0,0,8.02-3.33,8.46-2.13Z"/>
        <path class="cls-12" d="m1425.39,420s-1.38-2.44-1.08-7.77c.03-.51-1.3-1.56-1.3-1.56l-3.31-3.19-1.1,8.44.18,2.2s5.13,5.1,6.6,1.87Z"/>
        <g>
          <path class="cls-70" d="m1426.54,422.42c-.56-1.13-.82-3-.82-3-.32-.59-.99-.27-.99-.27-3.23-.42-5.9-4.88-5.9-4.88-7.83,5.76-9.26,10.72-7.61,23.48,1.17,9.05-4.9,18.66-4.9,18.66,7.91,4.57,18.49,1.51,18.49,1.51,0,0-.32-2.79.12-7.39.46-4.8,4-10.33,3.91-15.77,0,0,2.05-3.44-2.3-12.34Z"/>
          <path class="cls-137" d="m1421.71,453.21c.55-3.07-5.27-10.38-6.1-16.46-1.28-9.32,1.41-11.59,1.41-11.59l11.14,14.36c-1.03,3.84-2.9,7.61-3.23,11.01-.45,4.6-.12,7.39-.12,7.39,0,0-10.58,3.06-18.49-1.51,9.02,1.26,14.85-.13,15.4-3.2Z"/>
          <path class="cls-11" d="m1424.56,423.23s4.69,10.66,7.27,15.99c0,0,8.51,5.34,13.46,7.63l-.69,2.42s-12.82-4.27-14.4-5.11c-1.58-.83-2.45-1.47-3.98-3.62-1.53-2.15-6.39-7.91-7.49-9.95-1.1-2.04-4.12-5.77-.5-9.57,1.22-1.27,4.22-1.3,6.33,2.2Z"/>
        </g>
        <g>
          <polygon class="cls-34" points="1430.38 410.46 1429.82 411.63 1428.59 411.54 1428.08 410.25 1428.08 409.8 1430.38 410.46"/>
          <path class="cls-11" d="m1430.07,411.89c-.06.35-.09.16-.26.49-.82,1.67-.46,2.76-1,2.81-2.87.23-6.59-1.5-6.59-1.5-1.09-.61-1.79-5.25-1.79-5.25-1.65-2.63-4.26-.73-4.26-5.5,0-6.19,9.84-7.62,13.18-3.64,1.01,1.19,1.28,4,1.28,6.73.13.35.43.55,1.46,2.07,0,0,.41.44-.09.86-.38.33-.96.47-.96.47-.41.38-.14.67-.18,1.01,0,0-.06.35-.4.25,0,0-1.15-.05-1.88-.69,0,0-.23.41.77,1,.33.2.78.53.72.89Z"/>
          <path class="cls-112" d="m1414.48,398.68c.01-.4.31-.99.74-1.6h14.36v3.28c-.71-.12-2.05-1.32-3.65-1.36-1.9-.05-2.37,2.05-2.47,2.87-.1.82-1.54.47-1.55.93-.01,1-.23,1.35,0,1.93.23.58-.31.75-.5.98-.19.23-.76-.15-.76-.15,0,0-1.07.59-.6,2.23.47,1.63-.87,3.72-.87,3.72-.27-1.2-2.3-3.25-2.3-3.25-1.98-2.28-2.92-5.74-2.99-6.83-.07-1.09.59-2.75.59-2.75Z"/>
          <path class="cls-112" d="m1429.37,402.85s.45.06.22.37c-.23.31-1.63-.33-2.71.57,0,0,.86-1.26,2.48-.94Z"/>
        </g>
        <path class="cls-107" d="m1429.2,404.77s-.91.55-1.17.69c0,0,1.15.66,1.4.78,0,0,.02-.09-.09-.21,0,0,0-.55-.18-.94,0,0,.52-.4.51-.58l-.46.26Z"/>
        <path class="cls-104" d="m1424.12,438.11c-4.84-4.5-9.34-13.39-8-16.14,1.92-3.92,5.62-3.67,8.2-.4,2.21,2.81,5.1,10.82,6.43,14.73l-6.63,1.81Z"/>
        <g>
          <path class="cls-11" d="m1421.67,405.61s-1.2-2.45-2.38-1.92c-1.75.79-.25,6.35,1.53,4.88,1.77-1.48.85-2.95.85-2.95Z"/>
          <path class="cls-33" d="m1419.28,404.41s-.78.75.08,2.22c0,0,.27.54.35.85.08.31.25.59.56.62.31.02.1-.73-.05-.9-.16-.17-.2-.44,0-.5.2-.06.53-.19.44-.61-.09-.42-.68-2.04-1.38-1.68Z"/>
          <path class="cls-4" d="m1418.95,405.23s.12-1.28.85-.79c.73.49.99,1.87.8,2.07-.2.2-.72.23-.38.62.34.39.38,1.12-.18.92"/>
          <path class="cls-4" d="m1420.13,404.8c-.84-.46-.85,1.22-.85,1.22"/>
        </g>
      </g>
      <g>
        <path class="cls-11" d="m1443.51,448.95s.37,2.99,4.84.89c0,0,1.87-1.91,2.46-1.41.59.5.09,3.18,1.23,3.86,0,0,.64-2.45.36-3.54-.27-1.09-.36-1.95-.91-2.82-1-1.59-7.98.04-7.98.04v2.97Z"/>
        <path class="cls-102" d="m1447.7,448.32c0,1.17.95,2.11,2.11,2.11s2.11-.94,2.11-2.11-.94-2.11-2.11-2.11-2.11.94-2.11,2.11Z"/>
        <path class="cls-68" d="m1448.57,448.32c0,.69.56,1.24,1.24,1.24s1.24-.56,1.24-1.24-.56-1.24-1.24-1.24-1.24.56-1.24,1.24Z"/>
      </g>
      <path class="cls-3" d="m1451.29,426.57s3.43,3.34,3.78,4.39c.35,1.05,1.4,11.41,1.4,11.41"/>
      <path class="cls-21" d="m1450.64,421.31s2.15,2.94,2.5,3.84c.35.9-.62,5.11-.62,5.11,0,0-2.05,1.29-2.91,1.61-.86.32-2.52-11.44,1.03-10.56Z"/>
    </g>
    <path class="cls-51" d="m1430.38,433.61s1.28,2.95.57,3.76l-5.56,2.07s-3.89-2.68-3.48-3.71c0,0,8.02-3.33,8.46-2.13Z"/>
  </g>
  <g>
    <path class="cls-98" d="m1431.17,401.16s-3.94,3.75-7.21,1.73c0,0-1.7-1.08-3.22-.35-.87.42-2.81,1.98-2.32,3.92,0,0-.1,2.27-2.15,1.87-2.06-.4-2.55-1.61-2.55-1.61,0,0-3.6-10.13,3.72-13.55,0,0,13.73-5.39,13.74,8Z"/>
    <path class="cls-100" d="m1417.43,393.17s4.93-1.73,8.9-.67c-4.78.78-12.53,3.12-11.38,10.08,0,0,.2,1.96,1.64,1.3,1.34-.61,5.17-4.61,9.01-.41-.55-.06-1.1-.24-1.63-.57,0,0-1.7-1.08-3.22-.35-.87.42-2.81,1.98-2.32,3.92,0,0-.1,2.27-2.15,1.87-2.06-.4-2.55-1.61-2.55-1.61,0,0-3.6-10.13,3.72-13.55Z"/>
  </g>
  <g>
    <g>
      <rect class="cls-81" x="1144.83" y="446.68" width="103.68" height="5.28"/>
      <rect class="cls-81" x="1144.83" y="469.37" width="103.68" height="5.28"/>
      <polygon class="cls-27" points="1159.55 488.13 1151.91 488.13 1151.91 438.31 1155.73 432.09 1159.55 438.31 1159.55 488.13"/>
      <polygon class="cls-27" points="1179.88 488.13 1172.24 488.13 1172.24 432.65 1176.06 426.43 1179.88 432.65 1179.88 488.13"/>
      <polygon class="cls-27" points="1200.21 488.13 1192.57 488.13 1192.57 426.43 1196.39 420.2 1200.21 426.43 1200.21 488.13"/>
      <polygon class="cls-27" points="1220.54 488.13 1212.9 488.13 1212.9 432.65 1216.72 426.43 1220.54 432.65 1220.54 488.13"/>
      <polygon class="cls-27" points="1240.88 488.13 1233.24 488.13 1233.24 438.31 1237.06 432.09 1240.88 438.31 1240.88 488.13"/>
    </g>
    <g>
      <rect class="cls-81" x="1246.83" y="446.68" width="103.68" height="5.28"/>
      <rect class="cls-81" x="1246.83" y="469.37" width="103.68" height="5.28"/>
      <polygon class="cls-27" points="1261.54 488.13 1253.9 488.13 1253.9 438.31 1257.72 432.09 1261.54 438.31 1261.54 488.13"/>
      <polygon class="cls-27" points="1281.87 488.13 1274.23 488.13 1274.23 432.65 1278.05 426.43 1281.87 432.65 1281.87 488.13"/>
      <polygon class="cls-27" points="1302.21 488.13 1294.57 488.13 1294.57 426.43 1298.39 420.2 1302.21 426.43 1302.21 488.13"/>
      <polygon class="cls-27" points="1322.54 488.13 1314.9 488.13 1314.9 432.65 1318.72 426.43 1322.54 432.65 1322.54 488.13"/>
      <polygon class="cls-27" points="1342.87 488.13 1335.23 488.13 1335.23 438.31 1339.05 432.09 1342.87 438.31 1342.87 488.13"/>
    </g>
    <g>
      <rect class="cls-81" x="1043.29" y="446.68" width="103.68" height="5.28"/>
      <rect class="cls-81" x="1043.29" y="469.37" width="103.68" height="5.28"/>
      <polygon class="cls-27" points="1058 488.13 1050.36 488.13 1050.36 438.31 1054.18 432.09 1058 438.31 1058 488.13"/>
      <polygon class="cls-27" points="1078.34 488.13 1070.7 488.13 1070.7 432.65 1074.52 426.43 1078.34 432.65 1078.34 488.13"/>
      <polygon class="cls-27" points="1098.67 488.13 1091.03 488.13 1091.03 426.43 1094.85 420.2 1098.67 426.43 1098.67 488.13"/>
      <polygon class="cls-27" points="1119 488.13 1111.36 488.13 1111.36 432.65 1115.18 426.43 1119 432.65 1119 488.13"/>
      <polygon class="cls-27" points="1139.33 488.13 1131.69 488.13 1131.69 438.31 1135.51 432.09 1139.33 438.31 1139.33 488.13"/>
    </g>
  </g>
  <g>
    <path class="cls-117" d="m790.6,467.41s-4.94,1.12-7.24,3.54c-2.3,2.42-16.38,28.07-16.38,28.07l7.4-.39,16.22-31.22Z"/>
    <path class="cls-60" d="m933.32,504.57c0,.65-.53,1.18-1.18,1.18h0c-.65,0-1.18-.53-1.18-1.18v-2.32c0-.65.53-1.18,1.18-1.18h0c.65,0,1.18.53,1.18,1.18v2.32Z"/>
    <g>
      <path class="cls-47" d="m757.23,526.15c-.67,3.38-3.42,5.68-6.16,5.14-2.73-.54-4.4-3.72-3.73-7.1.67-3.38,3.42-5.68,6.16-5.14,2.73.54,4.4,3.72,3.73,7.1Z"/>
      <path class="cls-60" d="m755.34,530.6c-.28,1.39-1.62,2.29-3.01,2.01h0c-1.39-.27-2.29-1.62-2.02-3.01l2.07-10.44c.27-1.39,1.62-2.29,3.01-2.01h0c1.39.27,2.29,1.62,2.02,3.01l-2.07,10.44Z"/>
    </g>
    <path class="cls-60" d="m771.28,510.18c0,2.61-1.87,4.73-4.17,4.73h-10.15c-2.3,0-4.17-2.12-4.17-4.73h0c0-2.61,1.87-4.73,4.17-4.73h10.15c2.3,0,4.17,2.12,4.17,4.73h0Z"/>
    <g>
      <polygon class="cls-106" points="881.4 481.96 877.78 499.7 887.91 496.29 887.54 489.15 881.4 481.96"/>
      <g>
        <polygon class="cls-117" points="790.46 467.38 781.95 497.56 793.89 505.45 835.44 498.78 830.54 465.74 790.46 467.38"/>
        <polygon class="cls-64" points="793.68 468.04 829.76 499.7 835.44 498.78 835.15 496.82 801.76 467.53 793.68 468.04"/>
        <polygon class="cls-64" points="804.65 467.35 834.68 493.71 833.88 488.27 809.68 467.04 804.65 467.35"/>
        <polygon class="cls-117" points="875.23 467.71 886.32 493.92 874.47 501.99 830.72 499.62 833.38 469.69 875.23 467.71"/>
        <polygon class="cls-64" points="826.01 500.3 792.7 467.8 788.25 468.08 787.98 468.39 821.45 501.03 826.01 500.3"/>
        <polygon class="cls-64" points="845.09 469.6 881.17 501.25 886.84 500.34 886.55 498.38 853.17 469.09 845.09 469.6"/>
        <polygon class="cls-64" points="856.05 468.91 886.09 495.26 885.28 489.83 861.09 468.6 856.05 468.91"/>
        <polygon class="cls-64" points="877.42 501.86 844.11 469.36 839.66 469.64 839.39 469.95 872.86 502.59 877.42 501.86"/>
        <path class="cls-99" d="m836.78,491.89l-4.06-25.14-3.25-1.53-12.51.73.3-1.79-19.64,1.07-17.17,22.43v14.24l20.54,5.42,36.43-6.31-.65-9.13Zm-45.56,3.82l-3.56-4.65s9.18-19.59,13.41-20.53c3.08-.68,6.31-1.13,9.42-1.41l5.99-.37c6.64-.23,11.68.14,11.68.14l3.01,26.82h-39.96Z"/>
        <path class="cls-99" d="m887.91,499.6v-17.56l-13.05-14.47h-15.53v-1.83h-7.61l.24,1.21-14.05-.69-2.68,1.07v32.28h52.68Zm-35.41-29.99l6.73.35c3.5.27,7.13.69,10.58,1.34,4.74.89,15.06,19.56,15.06,19.56l-2.95,4.48-37.42-.04-5.1-25.56s5.65-.35,13.11-.13Z"/>
        <rect class="cls-106" x="776" y="509.27" width="152.18" height="33.62"/>
        <path class="cls-124" d="m822.62,542.89c0,10.56-8.56,19.12-19.12,19.12-10.56,0-19.12-8.56-19.12-19.12s8.56-19.12,19.12-19.12c10.56,0,19.12,8.56,19.12,19.12Z"/>
        <path class="cls-97" d="m803.5,557.49c-9.79,0-17.87-7.37-18.98-16.86-.09.74-.13,1.49-.13,2.26,0,10.56,8.56,19.12,19.12,19.12,10.56,0,19.12-8.56,19.12-19.12,0-.76-.05-1.52-.13-2.26-1.12,9.49-9.19,16.86-18.99,16.86Z"/>
        <path class="cls-91" d="m815.26,542.89c0,6.49-5.26,11.75-11.75,11.75-6.49,0-11.75-5.26-11.75-11.75s5.26-11.75,11.75-11.75c6.49,0,11.75,5.26,11.75,11.75Z"/>
        <path class="cls-58" d="m813.12,542.89c0,5.31-4.31,9.62-9.62,9.62s-9.62-4.31-9.62-9.62,4.31-9.62,9.62-9.62,9.62,4.31,9.62,9.62Z"/>
        <path class="cls-128" d="m793.9,542.41c0,.16-.01.32-.01.48,0,5.31,4.31,9.62,9.62,9.62s9.62-4.31,9.62-9.62c0-.16,0-.32-.01-.48h-19.21Z"/>
        <path class="cls-124" d="m920.04,542.89c0,10.56-8.56,19.12-19.12,19.12-10.56,0-19.12-8.56-19.12-19.12s8.56-19.12,19.12-19.12c10.56,0,19.12,8.56,19.12,19.12Z"/>
        <path class="cls-97" d="m900.92,557.49c-9.79,0-17.87-7.37-18.98-16.86-.09.74-.13,1.49-.13,2.26,0,10.56,8.56,19.12,19.12,19.12,10.56,0,19.12-8.56,19.12-19.12,0-.76-.05-1.52-.13-2.26-1.12,9.49-9.19,16.86-18.99,16.86Z"/>
        <path class="cls-91" d="m912.68,542.89c0,6.49-5.26,11.75-11.75,11.75-6.49,0-11.75-5.26-11.75-11.75s5.26-11.75,11.75-11.75c6.49,0,11.75,5.26,11.75,11.75Z"/>
        <path class="cls-58" d="m910.54,542.89c0,5.31-4.31,9.62-9.62,9.62s-9.62-4.31-9.62-9.62,4.31-9.62,9.62-9.62,9.62,4.31,9.62,9.62Z"/>
        <path class="cls-128" d="m891.32,542.41c0,.16-.01.32-.01.48,0,5.31,4.31,9.62,9.62,9.62s9.62-4.31,9.62-9.62c0-.16,0-.32-.01-.48h-19.21Z"/>
        <path class="cls-25" d="m935.82,541.97v-19.22l-.73-.39.41-16.07s.16-.01.32-.08v-.95c-.27-.3-.75-.68-1.54-1.18-3.25-2.03-36.41-8.14-36.41-8.14l-3.66-6-17.49-22.17s-25.05-13.51-80.77-3.34c0,0-6.2,1.3-8.4,5.22-1.17,2.09-8.66,13.35-15.77,26.11l-7.18,3.14s-6.28,2.12-7.09,7.17c-3.2,20.02-7.15,39.26-7.15,39.26h21.75v-8.5h11.66v-11.03c0-1.49.89-2.79,2.21-3.5v-2.25h.64v-1.43h33.88v1.43h1.11v2.98c.75.73,1.21,1.7,1.21,2.77v19.52h53.67v-20.78h5.13c.58-1.63,2.27-2.81,4.27-2.81h15.18v-.17h28.39v22.87c2.14-.5,4.45-1.27,6.36-2.47Zm-146.69-44.7l-3.96-5.19s10.24-21.83,14.95-22.88c13.73-3.05,30.2-1.83,30.2-1.83l3.36,29.9h-44.54Zm94.77-.61h-40.88l-6.71-29.9s21.66.61,35.39,3.66c4.71,1.05,16.17,21.05,16.17,21.05l-3.96,5.19Z"/>
        <path class="cls-30" d="m935.82,527.51c-.49-2.63-1.5-5.04-3.27-6.98-8.99-9.86-27.27-12.72-47.92-10.35-20.65,2.37-24.17,26.73-24.17,26.73l-3.39,8.43h19.43v-20.78h5.13c.58-1.63,2.27-2.81,4.27-2.81h15.18v-.17h28.39v22.87c1.68-.39,3.48-.96,5.1-1.76.51-1.9.97-3.95,1.26-6.05v-9.12Z"/>
        <path class="cls-30" d="m828.9,513.22c-6.73-7.13-32.37-10.83-46.95-3.94-2.73,1.29-6.01,5.29-7.69,7.17-9.9,11.08-19.86,22.8-24.19,26.49.15,1.55.3,2.41.3,2.41h21.75v-8.5h11.66v-11.03c0-1.61,1.03-3,2.53-3.66v-3.68h34.51v3.96c1.21.73,2,1.97,2,3.39v19.52h13.47s.6-23.64-7.4-32.12Z"/>
        <path class="cls-41" d="m934.28,504.07c-3.25-2.03-36.41-8.14-36.41-8.14l-3.66-6-9.59-12.15c3.75,7.63,12.06,21.48,12.36,22.28,0,0,34.03,4.68,35.93,6.17,1.9,1.49,2.17,16.11,2.17,16.11l.41-16.07s2.03-.18-1.22-2.21Z"/>
        <path class="cls-41" d="m832.18,500.01s3.17.82,1.48-2.74h-44.54l-3.96-5.19s8.31-17.73,13.4-22h0s-4.42,2.06-4.42,2.06c0,0-15.25,19.73-15.25,24.61l5.49,4.27,47.79-1.02Z"/>
        <path class="cls-41" d="m887.73,491.65l-3.83,5h-40.88l-6.71-29.9h-2.15l6.77,33.25h43.73s5.78-3.99,3.07-8.36Z"/>
        <g>
          <rect class="cls-30" x="822.83" y="528.48" width="53.43" height="16.86"/>
          <path class="cls-71" d="m936.77,528.48h-7.32s0,15.96,0,15.96c2.51-.58,5.26-1.55,7.32-3.13v-12.83Z"/>
          <path class="cls-60" d="m937.93,537.87c0,1.02-.83,1.85-1.85,1.85h0c-1.02,0-1.85-.83-1.85-1.85v-28.48c0-1.02.83-1.85,1.85-1.85h0c1.02,0,1.85.83,1.85,1.85v28.48Z"/>
        </g>
        <g class="cls-136">
          <rect class="cls-71" x="822.83" y="534.99" width="53.43" height="10.35"/>
          <path class="cls-69" d="m929.46,534.99v9.45c4.82-1.12,10.52-3.63,10.52-9.27v-.18h-10.52Z"/>
        </g>
        <path class="cls-85" d="m838.69,545.33v-41.6l-7.1-42.68c-.28,0-.55-.02-.83-.02l7.12,42.77v41.54h.81Z"/>
        <path class="cls-85" d="m935.5,506.28s.11-.01.24-.05c-4.95-1.14-16.49-2.63-34.45-4.44-.77-.08-1.32-.13-1.49-.15-.34-.37-.98-2.88-1.54-5.63-.25-.05-.39-.07-.39-.07l-.36-.6c.14.74.34,1.72.57,2.71.93,4.09,1.3,4.15,1.58,4.19.09.01.54.06,1.57.16,20.89,2.11,30.28,3.5,34.26,4.4v-.52Z"/>
        <path class="cls-85" d="m789.93,521.74c-4.38-6.39-5.61-17.49-5.74-18.8l3.98-6.93-.54-.7-4.28,7.44v.13c.06.53,1.1,11.89,5.59,18.85h.98Z"/>
      </g>
      <path class="cls-41" d="m797.39,503.82c0,.71-.57,1.28-1.28,1.28h-8.71c-.71,0-1.28-.57-1.28-1.28h0c0-.71.57-1.28,1.28-1.28h8.71c.71,0,1.28.57,1.28,1.28h0Z"/>
      <path class="cls-30" d="m786.12,503.88c.03.68.59,1.22,1.27,1.22h8.71c.69,0,1.24-.54,1.28-1.22h-11.26Z"/>
      <path class="cls-41" d="m853.2,503.76c0,.71-.57,1.28-1.28,1.28h-8.71c-.71,0-1.28-.57-1.28-1.28h0c0-.71.57-1.28,1.28-1.28h8.71c.71,0,1.28.57,1.28,1.28h0Z"/>
      <path class="cls-30" d="m841.94,503.82c.03.68.59,1.22,1.28,1.22h8.71c.69,0,1.24-.54,1.27-1.22h-11.26Z"/>
    </g>
    <path class="cls-25" d="m824.16,515.18s-23.22-15.69-42.95.9l-30.86,29.25v2.13h31.58s1.05-1.22,2.38-4.88v-3.72c0-10.59,8.59-19.18,19.18-19.18,6.74,0,12.66,3.47,16.08,8.72.03.03.05.05.08.08v.07c1.92,2.98,3.02,6.51,3.02,10.31v5.79c.4,1.21,2.07,3.2,8.78,2.82h3.46s1.37-24.22-10.77-32.28Z"/>
    <path class="cls-60" d="m762.69,535.35h-15.47c-2.66,0-4.81,2.15-4.81,4.81s2.15,4.81,4.81,4.81h15.47v-9.62Z"/>
    <path class="cls-110" d="m742.51,541.13c.45,2.19,2.39,3.84,4.71,3.84h15.47v-3.84h-20.18Z"/>
    <path class="cls-25" d="m928.73,544.62c-4.23.66-6.89-5.35-9.29-11.35-2.39-5.96-5.54-7.19-5.54-7.19-5.19-3.73-8.23-3.57-12.35-3.8-15.34-.84-21.27,10.14-20.99,16.94.3,7.52-5.26,8.24-5.26,8.24h-10.71c.26-29.22,10.71-35.65,34.65-36.15,15.51-.32,26.4,5.89,30.08,10.26,0,0,6.82,9.15,3.8,20.12l-4.39,2.93Z"/>
    <path class="cls-30" d="m822.83,523.78c-5.03-6.5-23.14-12.89-34.48-4.8-9.27,6.61-16.54,22.8-18.89,28.49h12.49s2.44,0,2.38-4.88v-3.72c0-10.59,8.59-19.18,19.18-19.18,6.74,0,12.66,3.47,16.08,8.72.03.03.05.05.08.08v.07c1.92,2.98,3.02,6.51,3.02,10.31v5.79c.33,1,1.54,2.53,5.75,2.82-.59-6.96-2.1-19.15-5.61-23.69Z"/>
    <path class="cls-30" d="m929.32,544.58v-5.67c-6.6-21.35-30.08-19.94-30.08-19.94-26.99.41-28.51,20-27.89,28.49h3.95s5.56-.72,5.26-8.24c-.28-6.79,5.65-17.78,20.99-16.94,4.13.23,7.16.07,12.35,3.8,0,0,3.16,1.23,5.54,7.19,2.4,6,5.65,11.96,9.88,11.31Z"/>
    <path class="cls-60" d="m924.69,535.35h15.47c2.66,0,4.81,2.15,4.81,4.81s-2.15,4.81-4.81,4.81h-15.47v-9.62Z"/>
    <path class="cls-110" d="m944.87,541.13c-.45,2.19-2.39,3.84-4.71,3.84h-15.47v-3.84h20.18Z"/>
  </g>
  <g>
    <g>
      <g>
        <path class="cls-94" d="m1687.63,472.57s3.91,5.7,7.51,9.2c0,0,9.85,4.33,13.26,5.09l.15,2.13s-9.86-1.7-11.37-1.91c-1.5-.21-1.38.09-3.23-1.18-1.84-1.27-7.38-4.47-8.85-5.78-1.47-1.31-4.96-3.41-3.16-7.49.6-1.37,2.99-2.26,5.68-.07Z"/>
        <path class="cls-94" d="m1706.79,488.7s1.84,2.17,3.5-.65c0,0,.3-1.74.82-1.69.51.05,1.24,1.7,2.12,1.65,0,0-.57-1.58-1.13-2.08-.56-.49-.64-.78-1.26-1.05-1.14-.49-3.59,1.67-3.59,1.67l-.45,2.15Z"/>
        <path class="cls-103" d="m1707.05,540.78v.06h13.1s-1.76,6.17-3.27,7.56c-1.51,1.39-3.53,1.64-7.3,1.64h-9.95v-.06h-2.52c-3.78,0-5.79-.25-7.3-1.64-1.51-1.39-3.27-7.56-3.27-7.56h20.53Z"/>
        <g>
          <path class="cls-119" d="m1723.42,546.13c0,8.83,7.16,15.99,15.99,15.99s15.99-7.16,15.99-15.99-7.16-15.99-15.99-15.99-15.99,7.16-15.99,15.99Z"/>
          <path class="cls-119" d="m1723.42,546.13c0,8.83,7.16,15.99,15.99,15.99s15.99-7.16,15.99-15.99-7.16-15.99-15.99-15.99-15.99,7.16-15.99,15.99Z"/>
          <path class="cls-74" d="m1729.49,546.13c0,5.48,4.44,9.92,9.92,9.92s9.92-4.44,9.92-9.92-4.44-9.92-9.92-9.92-9.92,4.44-9.92,9.92Z"/>
          <path class="cls-118" d="m1738.6,546.81c.38.69,1.25.94,1.94.55h0c.69-.38.94-1.25.55-1.94l-11.02-19.81c-.38-.69-1.25-.93-1.94-.55h0c-.69.38-.94,1.25-.55,1.94l11.02,19.81Z"/>
        </g>
        <g>
          <path class="cls-119" d="m1652.91,546.13c0,8.83,7.16,15.99,15.99,15.99s15.99-7.16,15.99-15.99-7.16-15.99-15.99-15.99-15.99,7.16-15.99,15.99Z"/>
          <path class="cls-74" d="m1658.98,546.13c0,5.48,4.44,9.92,9.92,9.92s9.92-4.44,9.92-9.92-4.44-9.92-9.92-9.92-9.92,4.44-9.92,9.92Z"/>
          <path class="cls-118" d="m1668.79,547.54c-.38.69-1.25.94-1.94.56h0c-.69-.38-.94-1.25-.55-1.94l11.02-19.81c.38-.69,1.25-.94,1.94-.55h0c.69.38.94,1.25.55,1.94l-11.02,19.81Z"/>
        </g>
        <path class="cls-95" d="m1649.55,521.92s-1.28-4.7,0-5.42c6.88-3.86,30.81-6.5,36.6-1.96,0,0,3.44,3.02,1.68,5.54-1.76,2.52-1.78,9.97,2.5,11.99,4.28,2.01,29.09.38,29.09.38,0,0,8.79-14.38-2.64-42.28l1.26-1.19,7.92,9.45,6.79,31.72-21.01,10.22-29.16-4.16-33.02-14.29Z"/>
        <path class="cls-18" d="m1667.14,531.4c-6.23,0-9.98,3.89-13.18,8.73l-1.73-.7c-9.82-6.3-4.18-17.04-1.7-19.1,3.97-3.31,13.6-4.54,13.6-4.54,18.38,0,24.32,20.3,24.32,20.3l28.46.25c5.04,0,7.91-7.96,7.91-7.96,8.31-13.6-6.9-39.41-6.9-39.41l1.49-1.21s11.28,8.38,14.81,16.19c2.09,4.62,5.62,17.77,7.97,19.14,4.32,2.51,7.03,4.66,10.72,9.88l-3.09,2.8c-3.88-3.07-5.15-4.01-10.66-4.38-7.48-.5-14.47,5.79-17.12,12.33h-37.9c-2.33-7.16-9.06-12.33-17-12.33Z"/>
        <path class="cls-17" d="m1715.9,481.11s6.26,3.62,5.75,8.89c-.51,5.28-4.1,8.78-11.22,5.99,0,0-3.77-11.19,5.47-14.89Z"/>
        <g>
          <g>
            <path class="cls-44" d="m1702.56,529.39s.92-.76,1.61-3.92l2.63.9s-.8,3.02-.68,3.85c.11.83-2.22,2.01-2.77,1.36-.55-.65-.78-2.19-.78-2.19Z"/>
            <g>
              <g>
                <path class="cls-46" d="m1707.19,530.05c.54,1,4.19,1.92,4.19,1.92,2.62.59,1.41,2.35,1.41,2.35l-11.47.34c-.76-2.02.63-4.66.63-4.66,0,0,.7-1.49,1.15-1.01.45.48-.28,1.76.97,1.65,1.26-.11,2.06-1.79,2.78-1.41.18.09.33.83.33.83Z"/>
                <path class="cls-34" d="m1701.32,534.65c-.44-1.16-.16-2.53.15-3.48,1.06.33.6,3.16.6,3.16l.21.3-.96.03Z"/>
                <path class="cls-34" d="m1711.38,531.97c2.62.59,1.41,2.35,1.41,2.35l-2.14.06c-.05-1.04.26-1.84.67-2.43.03.01.06.02.06.02Z"/>
                <path class="cls-1" d="m1707.51,531.86c0,.11-.09.21-.2.21-.11,0-.21-.08-.21-.2,0-.11.09-.21.2-.21.11,0,.21.09.21.2Z"/>
                <path class="cls-1" d="m1708.36,532.17c0,.12-.08.21-.2.21-.11,0-.21-.09-.21-.2,0-.11.09-.21.2-.21.11,0,.21.09.21.2Z"/>
                <path class="cls-1" d="m1709.17,532.43c0,.11-.09.21-.2.21-.11,0-.21-.08-.21-.2,0-.12.09-.21.2-.21.11,0,.21.09.21.2Z"/>
                <path class="cls-1" d="m1710.1,532.53c0,.11-.09.21-.2.21-.11,0-.21-.09-.21-.2,0-.11.08-.2.2-.21.11,0,.21.09.21.2Z"/>
                <path class="cls-34" d="m1701.16,534.05c.03.21.08.41.16.61l11.47-.34s.18-.26.25-.62l-11.88.35Z"/>
              </g>
              <path class="cls-76" d="m1707.42,531.55c.63.4,2.93.89,3.63.57.12-.05.22-.1.33-.16h0s-3.35-.84-4.1-1.8c-.13.38-.31,1.09.15,1.38Z"/>
              <line class="cls-9" x1="1707.95" y1="530.7" x2="1707.36" y2="531.82"/>
              <line class="cls-9" x1="1708.75" y1="531.03" x2="1708.18" y2="532.11"/>
              <line class="cls-9" x1="1709.53" y1="531.4" x2="1709" y2="532.39"/>
              <line class="cls-9" x1="1710.36" y1="531.68" x2="1709.93" y2="532.48"/>
            </g>
          </g>
          <path class="cls-130" d="m1689.93,500.17s9.02,2.83,13.56,4.69c3.59,1.47,7.22,2.98,7.07,6.47l-2.89,16.71-4.58-.56-.52-14.08s-18.51.46-22.57-.66c0,0-6.18-1.85-4.38-9.28,0,0,.46-6.39,5.95-9.72l8.37,6.43Z"/>
          <path class="cls-122" d="m1708.63,527.94c-.03.19-.21.33-.4.3l-5.96-.85c-.19-.03-.33-.21-.3-.4l.38-2.54c.03-.2.21-.33.4-.3l5.96.85c.19.03.33.21.3.41l-.38,2.54Z"/>
        </g>
        <g>
          <path class="cls-62" d="m1701.15,484.64s.1,5.07-.71,4.81c-.81-.26-3.78-.81-5.67-2.57-1.89-1.75-11.62-14.59-9.68-18.56,1.63-3.33,3.39-2.6,5.58.18,2.52,3.21,7.46,13.86,7.46,13.86,0,0,3.05,1.51,3.02,2.29Z"/>
          <path class="cls-12" d="m1691.93,468.58s-1.17-2.07-.91-6.6c.02-.43-1.1-1.33-1.1-1.33l-2.81-2.7-.93,7.17.15,1.87s4.36,4.33,5.6,1.59Z"/>
          <g>
            <path class="cls-45" d="m1695.97,475.52c0-1.14-2.17-3.21-3.05-4.88-.5-.95-.34-2.26-.34-2.26-.27-.5-.84-.23-.84-.23-1.93,2.17-5.27-4.17-5.27-4.17-6.65,4.89-7.96,8.84-6.56,19.67.99,7.68-4.16,15.83-4.16,15.83,6.71,3.88,15.69,1.28,15.69,1.28,0,0-.27-2.37.11-6.27.4-4.08,1.44-9.79,1.36-14.4,0,0,3.05-1.85,3.05-4.57Z"/>
            <g class="cls-135">
              <path class="cls-62" d="m1688.82,496.76c.46-2.61-4.47-8.81-5.18-13.97-1.09-7.9,1.2-9.83,1.2-9.83l7.5,15.15c-.29,2.3-.6,4.51-.78,6.38-.38,3.91-.11,6.27-.11,6.27,0,0-8.98,2.6-15.69-1.28,7.66,1.07,12.6-.11,13.07-2.72Z"/>
            </g>
            <path class="cls-114" d="m1678.08,479.58s5.24-9.24,8.66-10.8l-.89-.59s-4.87,2.24-8.65,10.46l.88.93Z"/>
            <path class="cls-114" d="m1690.46,475.29s-3.74,9.49-4.28,10.41l.93.67s3.71-8.52,3.83-9.36l-.48-1.72Z"/>
            <path class="cls-11" d="m1691.23,471.32s3.98,9.04,6.17,13.57c0,0,7.22,4.53,11.42,6.47l-.58,2.06s-10.88-3.63-12.22-4.33c-1.34-.71-2.07-1.25-3.37-3.07-1.3-1.82-5.42-6.71-6.35-8.44-.94-1.73-3.5-4.89-.42-8.12,1.03-1.08,3.58-1.11,5.37,1.87Z"/>
          </g>
          <g>
            <path class="cls-11" d="m1694.85,464.49c-2.43.2-5.6-1.27-5.6-1.27-.93-.52-1.52-4.46-1.52-4.46-1.4-2.23-3.61-.62-3.61-4.66,0-5.25,8.35-6.47,11.19-3.09.85,1.01,1.08,3.39,1.08,5.71.11.3.36.47,1.23,1.75,0,0,.34.37-.07.73-.33.28-.82.39-.82.39-.34.32-1.43,4.86-1.89,4.89Z"/>
            <path class="cls-89" d="m1692.33,453.63s-2.3,4.56-4.17,3.09c-1.87-1.47-1.35.51-1.35.51,0,0,2.54,5.63.3,7.86-1.5,1.49-3.36,4.24-13.37.9-7.24-2.41-10.01-1.58-10.95-.54,0,0,0-3.01,4.85-3.35,0,0-4.53-.71-6.8.86,0,0,1.57-2.65,6.55-2.83,0,0-2.33-.96-4.59-.64,0,0,2.93-4.47,8.94-2.08,6.36,2.53,12.59,2.95,11.21-1.99,0,0,2.17-2.68,4.61-2.93,2.44-.25,4.79,1.13,4.79,1.13Z"/>
            <path class="cls-53" d="m1695.31,454.02s.38.05.19.31c-.19.26-1.38-.27-2.3.49,0,0,.73-1.06,2.11-.8Z"/>
          </g>
          <path class="cls-107" d="m1695.17,455.65s-.77.47-.99.59c0,0,.98.56,1.19.67,0,0,.01-.08-.08-.18,0,0,0-.47-.16-.79,0,0,.44-.34.43-.5l-.39.22Z"/>
          <path class="cls-107" d="m1691.93,452.27s-.38,9.49.4,11.98c0,0-.68.04-1.34-.28,0,0-.69-9.44-.51-11.7h1.44Z"/>
          <path class="cls-45" d="m1700.14,486.57s.1,5.06-.72,4.81c-.81-.26-3.78-.81-5.67-2.57-1.89-1.75-11.62-14.6-9.67-18.57,1.63-3.33,4.77-3.12,6.96-.33,2.52,3.21,6.08,14.37,6.08,14.37,0,0,3.06,1.51,3.03,2.29Z"/>
          <g>
            <path class="cls-11" d="m1688.78,456.36s-1.02-2.08-2.02-1.63c-1.48.67-.21,5.39,1.3,4.14,1.5-1.25.72-2.51.72-2.51Z"/>
            <path class="cls-33" d="m1686.75,455.35s-.66.64.07,1.88c0,0,.23.46.3.72.07.26.22.5.48.52.26.02.09-.62-.04-.76-.13-.14-.17-.37,0-.42.17-.05.45-.16.37-.52-.08-.35-.58-1.74-1.17-1.42Z"/>
            <path class="cls-8" d="m1686.47,456.05s.1-1.09.72-.67c.62.42.84,1.59.68,1.76-.17.17-.61.19-.32.53.29.34.32.95-.15.78"/>
            <path class="cls-8" d="m1687.48,455.68c-.71-.39-.73,1.04-.73,1.04"/>
          </g>
          <path class="cls-107" d="m1691.4,462.04s-4.43-1.03-7.19-6.75l-.86.14s1.9,5.8,8.05,7.43v-.81Z"/>
        </g>
        <g>
          <path class="cls-11" d="m1707.31,493.15s.31,2.54,4.11.76c0,0,1.58-1.62,2.09-1.19.5.42.08,2.7,1.04,3.28,0,0,.54-2.08.31-3.01-.23-.93-.3-1.65-.77-2.39-.85-1.35-6.78.04-6.78.04v2.52Z"/>
          <path class="cls-102" d="m1710.87,492.61c0,.99.8,1.79,1.79,1.79s1.79-.8,1.79-1.79-.8-1.79-1.79-1.79-1.79.8-1.79,1.79Z"/>
          <path class="cls-68" d="m1711.61,492.61c0,.58.47,1.05,1.06,1.05s1.05-.47,1.05-1.05-.47-1.06-1.05-1.06-1.06.47-1.06,1.06Z"/>
        </g>
        <path class="cls-7" d="m1713.91,474.16s2.91,2.84,3.21,3.73c.3.89,1.19,9.68,1.19,9.68"/>
        <path class="cls-21" d="m1713.37,469.69s1.82,2.49,2.12,3.26c.3.77-.52,4.34-.52,4.34,0,0-1.73,1.09-2.47,1.36-.73.27-2.14-9.71.87-8.96Z"/>
        <g>
          <path class="cls-57" d="m1696.57,452.43s-3.36,3.16-6.12,1.43c0,0-1.44-.93-2.73-.31-.74.35-2.4,1.67-1.99,3.31,0,0-.09,1.92-1.84,1.58-1.74-.35-2.16-1.38-2.16-1.38,0,0-3-8.61,3.22-11.48,0,0,11.68-4.51,11.62,6.85Z"/>
          <path class="cls-55" d="m1684.95,445.57s4.2-1.45,7.56-.53c-4.06.64-10.65,2.58-9.71,8.5,0,0,.16,1.66,1.38,1.11,1.14-.52,4.41-3.89,7.65-.3-.46-.06-.93-.21-1.38-.49,0,0-1.44-.93-2.73-.31-.74.35-2.4,1.67-1.99,3.31,0,0-.09,1.92-1.84,1.58-1.74-.35-2.16-1.38-2.16-1.38,0,0-3-8.61,3.22-11.48Z"/>
        </g>
      </g>
      <path class="cls-24" d="m537.91,1.27c-.37-.04-1.44-.21-2.07-1.07-.04-.06-.03-.14.03-.18.06-.04.13-.03.17.03.6.81,1.68.95,1.94.97-.02.08-.05.16-.08.25Z"/>
      <path class="cls-114" d="m1678.49,477.4s8.1,7.32,8.64,8.08c.54.76-.93,1.19-.93,1.19,0,0-1.87,2.28-2.84,2.43,0,0-3.77,3.8-4.77,3.43-.99-.38-7.83-7.46-8.21-9.55,0,0,1.94-2.12,4.33-3.77,0,0,1.89-3.17,3.78-1.81Z"/>
    </g>
    <g>
      <g>
        <g>
          <path class="cls-94" d="m305.27,467.98c-3.79-1.53-7.25-3.04-7.25-3.04-4.23-4.12-8.83-10.82-8.83-10.82-3.17-2.57-5.97-1.52-6.68.09-2.11,4.79,1.99,7.26,3.71,8.8,1.73,1.54,8.23,5.3,10.4,6.79,2.16,1.49,2.02,1.15,3.79,1.39.65.09,2.62.41,4.85.79v-3.99Z"/>
          <path class="cls-130" d="m285.79,481.85l-3.72-2.86c-1.36.83-2.46,1.82-3.35,2.86h7.06Z"/>
          <g>
            <path class="cls-62" d="m305.08,468.29s.12,5.95-.84,5.65c-.96-.3-4.44-.95-6.66-3.01-2.22-2.06-13.65-17.15-11.37-21.81,1.91-3.91,3.98-3.06,6.55.21,2.96,3.77,8.76,16.28,8.76,16.28,0,0,3.59,1.77,3.55,2.69Z"/>
            <path class="cls-12" d="m294.25,449.42s-1.37-2.43-1.07-7.75c.03-.51-1.3-1.56-1.3-1.56l-3.3-3.18-1.09,8.42.18,2.2s5.12,5.08,6.58,1.87Z"/>
            <g>
              <path class="cls-45" d="m277.26,481.85h16.39c.04-.62.08-1.28.15-1.99.46-4.79,1.69-11.5,1.6-16.92,0,0,3.59-2.17,3.59-5.36,0-1.34-2.55-3.77-3.59-5.74-.59-1.11-.4-2.66-.4-2.66-.32-.58-.99-.27-.99-.27-2.27,2.56-6.19-4.9-6.19-4.9-7.81,5.75-9.35,10.39-7.7,23.11.71,5.45-1.22,11.1-2.86,14.72Z"/>
              <g class="cls-135">
                <path class="cls-62" d="m290.61,481.85h3.03c.04-.62.08-1.28.15-1.99.21-2.2.59-4.8.92-7.5l-8.81-17.8s-2.68,2.27-1.41,11.56c.77,5.65,5.86,12.35,6.11,15.73Z"/>
              </g>
              <path class="cls-11" d="m305.27,471.39c-2.61-1.55-4.59-2.79-4.59-2.79-2.58-5.32-7.25-15.95-7.25-15.95-2.11-3.49-5.1-3.46-6.31-2.19-3.61,3.79-.6,7.5.5,9.54,1.1,2.04,5.94,7.78,7.47,9.92,1.53,2.14,2.39,2.78,3.96,3.61.67.35,3.36,1.32,6.23,2.32v-4.46Z"/>
              <path class="cls-45" d="m303.89,470.56s.12,5.95-.84,5.65c-.96-.3-4.44-.95-6.66-3.01-2.22-2.06-13.65-17.15-11.37-21.81,1.91-3.91,5.61-3.66,8.18-.4,2.96,3.77,7.14,16.88,7.14,16.88,0,0,3.59,1.77,3.55,2.69Z"/>
            </g>
            <g>
              <path class="cls-11" d="m297.67,444.63c-2.86.23-6.58-1.5-6.58-1.5-1.09-.61-1.78-5.23-1.78-5.23-1.64-2.62-4.25-.73-4.25-5.48,0-6.17,9.81-7.6,13.15-3.63,1,1.19,1.27,3.99,1.27,6.71.13.35.42.55,1.45,2.06,0,0,.4.44-.08.86-.38.33-.96.46-.96.46-.41.38-1.68,5.7-2.22,5.75Z"/>
              <path class="cls-92" d="m288.51,437.56c-.31-.92-.27-1.46-.27-1.46,0,0-1.21-.77,1.58-.6,3.27.2,4.9-4.68,4.9-4.68,0,0,4.1.87,4.46.04.35-.83.17-1.77-.41-2.66-2.12-3.25-7.13-3.49-9.22-3.34-2.09.15-2.44,1.13-2.44,1.13-4.11.58-3.43,8-3.43,8,.09,1.74-.3,2.69-1.22,4.29,0,0-4.34,9.9,1.08,11.4,0,0,1.18,1.9,3.26.51,0,0,1.64,1.13,4.07-.24,0,0-3.6-3.38-2.18-8.39,1.01-3.54-.19-4.01-.19-4.01Z"/>
              <path class="cls-53" d="m298.23,432.33s.45.06.22.37c-.23.3-1.62-.33-2.7.57,0,0,.86-1.25,2.48-.94Z"/>
            </g>
            <path class="cls-107" d="m298.05,434.24s-.9.55-1.16.69c0,0,1.15.66,1.39.78,0,0,.02-.09-.09-.21,0,0,0-.55-.18-.94,0,0,.52-.4.51-.58l-.46.26Z"/>
            <g>
              <path class="cls-11" d="m290.55,435.08s-1.2-2.45-2.37-1.92c-1.74.79-.25,6.34,1.52,4.86,1.77-1.47.85-2.94.85-2.94Z"/>
              <path class="cls-33" d="m288.16,433.88s-.78.75.08,2.21c0,0,.27.54.35.85.08.31.25.59.56.61.31.03.1-.72-.05-.89-.16-.17-.2-.44,0-.5.2-.06.53-.19.44-.61-.09-.41-.68-2.04-1.37-1.67Z"/>
            </g>
          </g>
        </g>
        <path class="cls-24" d="m299.2,440.72c-.44-.04-1.69-.25-2.43-1.25-.05-.07-.03-.16.03-.21.07-.05.16-.03.21.03.7.95,1.97,1.11,2.28,1.14-.03.09-.06.19-.09.29Z"/>
      </g>
      <g>
        <path class="cls-106" d="m273.17,427.82s5.26.59,6.94,3.49c1.68,2.9,2.52,8.43,1.34,10.12,0,0,3.67,9.37,2.72,13.53-.94,4.15-8.72,1.78-8.72,1.78l-2.29-28.91Z"/>
        <path class="cls-106" d="m321.14,454.96c0,.39-.45.72-1.01.72h0c-.56,0-1.01-.32-1.01-.72v-14.46c0-.4.45-.72,1.01-.72h0c.56,0,1.01.32,1.01.72v14.46Z"/>
        <path class="cls-11" d="m312.86,453.85s3.58-3.98,4.42-5.36c0,0,.83-2.56,1-2.75.23-.25.84-.36.84.3,0,.21,2.73.34,2.82.67.08.34.21.76-.29,1.03,0,0,.23.44,0,.8,0,0,.17.44-.17.76,0,0,.04.59-.15.78-.19.19-2.02,1.11-2.33,1.16-.32.04-.82.04-.95-.13l-2.08,2.96-3.11-.21Z"/>
        <polygon class="cls-106" points="326.14 436.74 321.64 458.73 334.21 454.5 333.75 445.65 326.14 436.74"/>
        <g>
          <polygon class="cls-125" points="204.55 420.27 202.8 456.09 217.61 465.87 269.13 457.6 263.06 416.61 204.55 420.27"/>
          <polygon class="cls-123" points="217.35 419.47 262.1 458.73 269.13 457.6 268.77 455.17 227.37 418.84 217.35 419.47"/>
          <polygon class="cls-123" points="230.95 418.62 268.2 451.3 267.2 444.56 237.19 418.23 230.95 418.62"/>
          <polygon class="cls-123" points="257.44 459.48 212.21 419.79 206.7 420.14 206.36 420.52 251.79 460.38 257.44 459.48"/>
          <path class="cls-99" d="m270.8,449.06l-5.04-31.17-4.03-1.89-15.52.9.37-2.23-24.35,1.32-21.29,27.82v17.65l25.48,6.73,45.18-7.82-.81-11.32Zm-56.51,4.74l-4.41-5.77s11.39-24.29,16.63-25.46c3.82-.85,7.82-1.4,11.69-1.75l7.43-.46c8.24-.29,14.48.17,14.48.17l3.73,33.26h-49.55Z"/>
          <path class="cls-99" d="m334.21,458.61v-21.78l-16.18-17.94h-19.26v-2.27h-9.43l.29,1.5-17.43-.86-3.33,1.33v40.03h65.33Zm-43.92-37.19l8.35.44c4.34.33,8.84.86,13.12,1.67,5.88,1.11,18.67,24.25,18.67,24.25l-3.66,5.56-46.41-.05-6.32-31.7s7.01-.44,16.26-.17Z"/>
          <path class="cls-125" d="m388.69,464.66s5.89,1.18,6.39,4.71c.5,3.53,3.87,19.12,0,22.08-3.87,2.97-7.4-1.4-7.4-1.4l1.01-25.39Z"/>
          <rect class="cls-106" x="195.42" y="470.61" width="188.73" height="41.69"/>
          <path class="cls-125" d="m195.42,420.27s-14.01,24.21-13.85,37.67l11.55,1.17,16.14-37.15-13.85-1.69Z"/>
          <path class="cls-123" d="m187.86,435.36l10.51,11.69,3.23-7.43-10.45-11.29c-1.04,2.1-2.17,4.49-3.29,7.03Z"/>
          <path class="cls-123" d="m184.57,443.65l10.85,10.19,1.4-3.23-10.62-11.3c-.57,1.43-1.12,2.88-1.63,4.34Z"/>
          <path class="cls-31" d="m392.73,486.83l.5-19.93s2.52-.22-1.51-2.74c-4.04-2.52-45.15-10.09-45.15-10.09l-4.54-7.44-21.69-27.49s-55.74-14.34-124.85-1.73l-1.49,4.14c3.87.38,9.77,1.23,9.26,2.77-.76,2.27-12.48,31.4-12.48,31.4h-9.08l-1.3,25.77-4.58,8.11v17.15s2.52,8.57,18.66,8.57h10.59v-24.21c0-2.79,2.49-5.05,5.57-5.05h37.3c3.07,0,5.57,2.26,5.57,5.05v24.21h72.64v-24.21c0-2.79,2.49-5.05,5.57-5.05h37.3c3.07,0,5.57,2.26,5.57,5.05v24.21h3.03s21.19-.5,21.19-12.61v-12.61l-6.05-3.28Zm-181.02-31.11l-4.92-6.43s12.7-27.08,18.54-28.37c17.03-3.79,37.45-2.27,37.45-2.27l4.16,37.08h-55.24Zm117.53-.76h-50.69l-8.32-37.08s26.86.76,43.89,4.54c5.84,1.3,20.05,26.1,20.05,26.1l-4.92,6.43Z"/>
          <path class="cls-124" d="m253.24,512.3c0,13.09-10.62,23.71-23.71,23.71s-23.71-10.61-23.71-23.71,10.61-23.71,23.71-23.71,23.71,10.62,23.71,23.71Z"/>
          <path class="cls-97" d="m229.53,530.41c-12.15,0-22.16-9.14-23.54-20.91-.11.92-.17,1.85-.17,2.8,0,13.09,10.61,23.71,23.71,23.71s23.71-10.61,23.71-23.71c0-.95-.06-1.88-.17-2.8-1.39,11.78-11.4,20.91-23.54,20.91Z"/>
          <path class="cls-91" d="m244.11,512.3c0,8.05-6.53,14.58-14.58,14.58s-14.58-6.53-14.58-14.58,6.53-14.58,14.58-14.58,14.58,6.53,14.58,14.58Z"/>
          <path class="cls-58" d="m241.46,512.3c0,6.59-5.34,11.93-11.93,11.93s-11.93-5.34-11.93-11.93,5.34-11.93,11.93-11.93,11.93,5.34,11.93,11.93Z"/>
          <path class="cls-128" d="m217.62,511.71c-.01.2-.02.4-.02.59,0,6.59,5.34,11.93,11.93,11.93s11.93-5.34,11.93-11.93c0-.2,0-.4-.01-.59h-23.83Z"/>
          <path class="cls-124" d="m374.06,512.3c0,13.09-10.61,23.71-23.71,23.71s-23.71-10.61-23.71-23.71,10.62-23.71,23.71-23.71,23.71,10.62,23.71,23.71Z"/>
          <path class="cls-97" d="m350.35,530.41c-12.15,0-22.16-9.14-23.54-20.91-.11.92-.17,1.85-.17,2.8,0,13.09,10.62,23.71,23.71,23.71s23.71-10.61,23.71-23.71c0-.95-.06-1.88-.17-2.8-1.39,11.78-11.4,20.91-23.54,20.91Z"/>
          <path class="cls-91" d="m364.93,512.3c0,8.05-6.53,14.58-14.58,14.58s-14.58-6.53-14.58-14.58,6.53-14.58,14.58-14.58,14.58,6.53,14.58,14.58Z"/>
          <path class="cls-58" d="m362.28,512.3c0,6.59-5.34,11.93-11.93,11.93s-11.93-5.34-11.93-11.93,5.34-11.93,11.93-11.93,11.93,5.34,11.93,11.93Z"/>
          <path class="cls-128" d="m338.44,511.71c-.01.2-.02.4-.02.59,0,6.59,5.34,11.93,11.93,11.93s11.93-5.34,11.93-11.93c0-.2,0-.4-.02-.59h-23.83Z"/>
          <path class="cls-26" d="m391.72,464.16c-4.04-2.52-45.15-10.09-45.15-10.09l-4.54-7.44-11.89-15.07c4.65,9.46,14.96,26.64,15.33,27.63,0,0,42.21,5.8,44.56,7.66,2.35,1.85,2.69,19.98,2.69,19.98l.5-19.93s2.52-.22-1.51-2.74Z"/>
          <path class="cls-125" d="m393.65,467.62l-23.42-.68s-2.23,2.52-1.13,5.46c1.09,2.94,11.52,9.67,26.32,9.84l.84-1.26-2.6-13.36Z"/>
          <path class="cls-26" d="m320.83,419.76l-.49-.62s-55.74-14.34-124.85-1.73l-.76,2.1c14.02-2.52,64.2-9.91,126.1.25Z"/>
          <path class="cls-26" d="m265.1,459.11s3.93,1.02,1.84-3.4h-55.24l-4.92-6.43s10.31-21.99,16.62-27.28h0s-5.48,2.56-5.48,2.56c0,0-18.92,24.47-18.92,30.52l6.81,5.3,59.27-1.26Z"/>
          <path class="cls-26" d="m333.98,448.75l-4.75,6.21h-50.69l-8.32-37.08h-2.66l8.39,41.23h54.23s7.17-4.95,3.81-10.36Z"/>
          <g>
            <path class="cls-80" d="m194.47,515.33h10.59v-20.9h-29.26v12.33s2.52,8.57,18.66,8.57Z"/>
            <rect class="cls-80" x="253.5" y="494.43" width="72.64" height="20.9"/>
            <path class="cls-80" d="m374.57,494.43v20.9h3.03s21.19-.5,21.19-12.61v-8.29h-24.21Z"/>
          </g>
          <path class="cls-72" d="m180.68,475.76h14.46c1.39,0,2.94-1.06,3.44-2.35l2.19-5.6c.51-1.29-.21-2.35-1.6-2.35h-17.98l-.52,10.31Z"/>
          <path class="cls-14" d="m180.94,470.61l-.26,5.15h14.46c1.39,0,2.94-1.06,3.44-2.35l1.1-2.8h-18.75Z"/>
          <path class="cls-26" d="m255.85,491.14c0,1.16,3.54,2.1,7.87,2.1h50.86c4.33,0,7.87-.95,7.87-2.1s-1.87-3.46-4.16-5.13c-2.29-1.66-7.7-3.02-12.03-3.02h-33.73c-4.33,0-9.85,1.36-12.27,3.02-2.42,1.66-4.4,3.97-4.4,5.13Z"/>
          <g class="cls-136">
            <path class="cls-67" d="m194.47,515.33h10.59v-12.83h-29.26v4.26s2.52,8.57,18.66,8.57Z"/>
            <rect class="cls-67" x="253.5" y="502.5" width="72.64" height="12.83"/>
            <path class="cls-67" d="m374.57,502.5v12.83h3.03s21.19-.5,21.19-12.61v-.22h-24.21Z"/>
          </g>
          <path class="cls-108" d="m273.17,515.33v-51.59l-8.29-51.34c-.34-.01-.68-.02-1.03-.03l8.31,51.45v51.51h1.01Z"/>
          <path class="cls-43" d="m382.68,468.07s1.51,10.72.88,11.1c-.63.38-12.86-4.79-13.24-7.57-.38-2.78.63-3.53.63-3.53h11.73Z"/>
          <path class="cls-42" d="m384.15,468.36s.5,9.5,1.51,11.35c.4.73,9.33,1.26,9.33,1.26l-1.43-12.61h-9.41Z"/>
          <path class="cls-6" d="m264.22,414.63s40.06,1.94,53.68,6.31c0,0,17.66,23.71,21.36,32.28v32.84"/>
          <path class="cls-108" d="m393.23,466.9s.14-.01.29-.06c-6.14-1.42-20.45-3.26-42.72-5.51-.96-.1-1.63-.17-1.85-.19-.42-.46-1.21-3.58-1.9-6.99-.31-.06-.48-.09-.48-.09l-.45-.74c.18.91.43,2.14.71,3.36,1.15,5.08,1.62,5.14,1.96,5.19.11.02.67.07,1.94.2,25.9,2.61,37.55,4.34,42.49,5.46l.02-.64Z"/>
          <path class="cls-108" d="m212.7,486.07c-5.44-7.93-6.95-21.69-7.12-23.31l4.93-8.59-.67-.87-5.3,9.23v.16c.07.65,1.36,14.75,6.93,23.38h1.22Z"/>
        </g>
        <path class="cls-26" d="m222.6,465.08c0,.88-.71,1.59-1.58,1.59h-10.81c-.88,0-1.58-.71-1.58-1.59h0c0-.87.71-1.58,1.58-1.58h10.81c.88,0,1.58.71,1.58,1.58h0Z"/>
        <path class="cls-67" d="m208.63,465.15c.04.84.73,1.51,1.58,1.51h10.81c.85,0,1.54-.67,1.58-1.51h-13.97Z"/>
        <path class="cls-26" d="m291.17,463.78c0,.88-.71,1.58-1.58,1.58h-10.81c-.88,0-1.59-.71-1.59-1.58h0c0-.87.71-1.59,1.59-1.59h10.81c.87,0,1.58.71,1.58,1.59h0Z"/>
        <path class="cls-67" d="m277.2,463.85c.04.84.73,1.51,1.58,1.51h10.81c.85,0,1.54-.67,1.58-1.51h-13.97Z"/>
      </g>
    </g>
  </g>
  <g>
    <path class="cls-65" d="m79.86,460.56c-3.15-59.4-2.88-53.74-2.88-55.69l-.04.68-.04-.68c0,1.95.27-3.7-2.88,55.69h5.84Z"/>
    <path class="cls-54" d="m90.71,382.19s-9.7-27.4-13.63-27.4c-4.52.19-14.28,27.13-18.62,44.91l11.2,4.2-12.07-.42c-.81,3.78-1.28,6.92-1.28,8.96,0,11.48,9.3,20.79,20.77,20.82h.05c11.5,0,20.82-9.32,20.82-20.82,0-5.32-3.21-18.08-7.23-30.25Z"/>
  </g>
  <g>
    <path class="cls-63" d="m106.41,460.56c-3.38-63.76-3.09-57.69-3.09-59.78l-.04.73-.04-.73c0,2.09.29-3.98-3.09,59.78h6.27Z"/>
    <path class="cls-115" d="m118.06,376.43l-11.83.95,10.17-5.82c-1.41-3.99-8.75-24.55-12.97-24.55-4.85.21-15.33,29.12-19.99,48.21l12.02,4.5-12.95-.45c-.87,4.06-1.37,7.43-1.37,9.62,0,12.33,9.98,22.32,22.29,22.35h.05c12.34,0,22.35-10,22.35-22.35,0-5.72-3.44-19.41-7.76-32.47Z"/>
  </g>
  <g>
    <path class="cls-65" d="m872.42,456.75c-2.48-46.85-2.27-42.39-2.27-43.93l-.03.54-.03-.54c0,1.54.21-2.92-2.27,43.93h4.61Z"/>
    <path class="cls-54" d="m880.98,394.94s-7.65-21.61-10.75-21.61c-3.56.15-11.26,21.4-14.69,35.42l8.83,3.31-9.52-.33c-.64,2.98-1.01,5.46-1.01,7.07,0,9.06,7.33,16.4,16.38,16.42h.04c9.07,0,16.42-7.35,16.42-16.42,0-4.2-2.53-14.26-5.7-23.86Z"/>
  </g>
  <g>
    <path class="cls-63" d="m1023.62,456.75c-3.08-58.05-2.82-52.53-2.82-54.43l-.04.67-.04-.67c0,1.91.26-3.62-2.82,54.43h5.71Z"/>
    <path class="cls-115" d="m1034.23,380.15l-10.77.87,9.26-5.3c-1.28-3.63-7.97-22.35-11.81-22.35-4.41.19-13.96,26.52-18.2,43.89l10.94,4.1-11.79-.41c-.79,3.69-1.25,6.76-1.25,8.75,0,11.22,9.09,20.32,20.3,20.35h.05c11.24,0,20.35-9.11,20.35-20.35,0-5.2-3.13-17.67-7.07-29.56Z"/>
  </g>
  <g>
    <path class="cls-63" d="m968.86,456.75c-3.33-62.87-3.05-56.88-3.05-58.95l-.04.72-.04-.72c0,2.06.28-3.92-3.05,58.95h6.18Z"/>
    <path class="cls-115" d="m980.35,373.8l-11.67.94,10.03-5.74c-1.39-3.93-8.63-24.2-12.79-24.2-4.78.2-15.12,28.72-19.71,47.53l11.85,4.44-12.77-.44c-.86,4-1.35,7.32-1.35,9.48,0,12.15,9.84,22.01,21.98,22.03h.05c12.17,0,22.03-9.86,22.03-22.03,0-5.64-3.39-19.14-7.65-32.01Z"/>
  </g>
</svg>