<?xml version="1.0" encoding="UTF-8"?>
<svg xmlns="http://www.w3.org/2000/svg" xmlns:xlink="http://www.w3.org/1999/xlink" viewBox="0 0 1714.83 450">
  <defs>
    <style>
      .cls-1 {
        fill: none;
      }

      .cls-2 {
        fill: #353023;
        mix-blend-mode: screen;
        opacity: .4;
      }

      .cls-3 {
        clip-path: url(#clippath);
      }

      .cls-4 {
        fill: #ebb000;
      }

      .cls-5 {
        fill: #f3d144;
      }

      .cls-6, .cls-7, .cls-8 {
        fill: #fff;
      }

      .cls-9 {
        fill: #e75f41;
      }

      .cls-10 {
        fill: #6c778e;
      }

      .cls-11 {
        fill: #9f917e;
      }

      .cls-12 {
        fill: #9f8f7e;
      }

      .cls-13 {
        fill: #32465c;
      }

      .cls-14 {
        fill: #8f0e00;
      }

      .cls-15 {
        fill: #cd7e00;
      }

      .cls-16 {
        fill: #c9bfb7;
      }

      .cls-17 {
        fill: #c61d00;
      }

      .cls-18 {
        fill: #413830;
      }

      .cls-19 {
        fill: #129e7d;
      }

      .cls-20 {
        fill: #544a41;
      }

      .cls-21 {
        fill: #2a3434;
      }

      .cls-22, .cls-23, .cls-24 {
        fill: #2b251f;
      }

      .cls-25 {
        fill: #5c6c94;
      }

      .cls-26 {
        fill: #616c80;
      }

      .cls-27 {
        fill: #77859e;
      }

      .cls-28 {
        isolation: isolate;
      }

      .cls-7 {
        opacity: .6;
      }

      .cls-23 {
        opacity: .75;
      }

      .cls-8 {
        opacity: .43;
      }

      .cls-24 {
        opacity: .36;
      }
    </style>
    <clipPath id="clippath">
      <rect class="cls-1" width="1714.83" height="450"/>
    </clipPath>
  </defs>
  <g class="cls-28">
    <g id="Layer_1" data-name="Layer 1">
      <g class="cls-3">
        <g>
          <path class="cls-25" d="m912.95,159.86h0c-1.06,0-1.93-.78-1.93-1.74V60.81c0-.96.87-1.74,1.93-1.74h0c1.06,0,1.93.78,1.93,1.74v97.32c0,.96-.87,1.74-1.93,1.74Z"/>
          <path class="cls-25" d="m922.85,158.08h0c-1.06,0-1.93-.78-1.93-1.74V59.02c0-.96.87-1.74,1.93-1.74h0c1.06,0,1.93.78,1.93,1.74v97.32c0,.96-.87,1.74-1.93,1.74Z"/>
          <path class="cls-25" d="m1308.55,159.86h0c-1.06,0-1.93-.78-1.93-1.74V60.81c0-.96.87-1.74,1.93-1.74h0c1.06,0,1.93.78,1.93,1.74v97.32c0,.96-.87,1.74-1.93,1.74Z"/>
          <path class="cls-25" d="m1318.46,158.08h0c-1.06,0-1.93-.78-1.93-1.74V59.02c0-.96.87-1.74,1.93-1.74h0c1.06,0,1.93.78,1.93,1.74v97.32c0,.96-.87,1.74-1.93,1.74Z"/>
          <g>
            <path class="cls-25" d="m1506.51,83.61c-66.12,0-132.24-2.4-197.9-7.21-.31-.02-.53-.26-.51-.54.02-.27.3-.48.6-.46,131.26,9.61,264.36,9.61,395.62,0,.3-.02.57.18.6.46.02.28-.2.52-.51.54-65.66,4.81-131.78,7.21-197.9,7.21Z"/>
            <path class="cls-25" d="m1110.8,83.61c-66.12,0-132.24-2.4-197.9-7.21-.31-.02-.53-.26-.51-.54.03-.27.3-.48.6-.46,131.26,9.61,264.36,9.61,395.62,0,.31-.02.57.18.6.46.02.28-.2.52-.51.54-65.66,4.81-131.78,7.21-197.9,7.21Z"/>
            <path class="cls-25" d="m715.09,83.61c-66.12,0-132.24-2.4-197.9-7.21-.31-.02-.53-.26-.51-.54.02-.27.3-.48.6-.46,131.26,9.61,264.36,9.61,395.62,0,.31-.02.57.18.6.46.02.28-.2.52-.51.54-65.66,4.81-131.78,7.21-197.9,7.21Z"/>
            <path class="cls-25" d="m1310.95,75.9c0,1.14-1.03,2.07-2.29,2.07s-2.29-.93-2.29-2.07,1.03-2.07,2.29-2.07,2.29.93,2.29,2.07Z"/>
            <ellipse class="cls-25" cx="912.95" cy="75.9" rx="2.29" ry="2.07"/>
          </g>
          <g>
            <path class="cls-25" d="m1516.42,81.19c-66.12,0-132.24-2.4-197.9-7.21-.31-.02-.53-.26-.51-.54.02-.27.3-.48.6-.46,131.26,9.61,264.36,9.61,395.62,0,.3-.02.57.18.6.46.02.28-.2.52-.51.54-65.66,4.81-131.78,7.21-197.9,7.21Z"/>
            <path class="cls-25" d="m1120.71,81.19c-66.12,0-132.24-2.4-197.9-7.21-.31-.02-.53-.26-.51-.54.02-.27.3-.48.6-.46,131.26,9.61,264.36,9.61,395.62,0,.3-.02.57.18.6.46.02.28-.2.52-.51.54-65.66,4.81-131.78,7.21-197.9,7.21Z"/>
            <path class="cls-25" d="m725,81.19c-66.12,0-132.24-2.4-197.9-7.21-.31-.02-.53-.26-.51-.54.03-.27.3-.48.6-.46,131.26,9.61,264.36,9.61,395.62,0,.3-.02.57.18.6.46.02.28-.2.52-.51.54-65.66,4.81-131.78,7.21-197.9,7.21Z"/>
            <path class="cls-25" d="m1320.86,73.48c0,1.14-1.03,2.07-2.29,2.07s-2.29-.93-2.29-2.07,1.03-2.07,2.29-2.07,2.29.93,2.29,2.07Z"/>
            <path class="cls-25" d="m925.15,73.48c0,1.14-1.03,2.07-2.29,2.07s-2.29-.93-2.29-2.07,1.03-2.07,2.29-2.07,2.29.93,2.29,2.07Z"/>
          </g>
        </g>
        <g>
          <rect class="cls-10" y="235.84" width="1714.83" height="214.16"/>
          <polygon class="cls-26" points="1714.83 266.2 1155.79 283.52 1172.33 284.76 1551.29 275.6 1341.7 283.44 1550.74 279.7 1714.83 278.98 1714.83 266.2"/>
          <polygon class="cls-27" points="1714.83 287.29 540.36 321.33 1629.7 312.25 1440.66 324.5 1714.83 336.02 1714.83 287.29"/>
          <polygon class="cls-27" points="0 263.37 1005.6 244.1 0 250.74 0 263.37"/>
          <polygon class="cls-26" points="0 280.97 1714.83 255.94 1714.83 260.85 124.82 310.55 743.43 304.33 0 331.38 0 280.97"/>
        </g>
        <g>
          <rect class="cls-10" y="146.69" width="1714.83" height="94.39"/>
          <polygon class="cls-26" points="1714.83 160.07 1155.79 167.71 1172.33 168.25 1551.29 164.21 1341.7 167.67 1550.74 166.02 1714.83 165.71 1714.83 160.07"/>
          <polygon class="cls-27" points="1714.83 169.37 540.36 184.37 1629.7 180.37 1440.66 185.77 1714.83 190.85 1714.83 169.37"/>
          <polygon class="cls-27" points="0 158.83 1005.6 150.33 0 153.26 0 158.83"/>
          <polygon class="cls-27" points="0 242.13 855.95 227.09 0 232.27 0 242.13"/>
          <polygon class="cls-26" points="0 166.58 1714.83 155.55 1714.83 157.71 124.82 179.62 743.43 176.88 0 188.8 0 166.58"/>
          <rect class="cls-23" y="201.72" width="1714.83" height="39.36"/>
        </g>
        <rect class="cls-23" y="383.04" width="1714.83" height="66.96"/>
        <g>
          <g>
            <rect class="cls-12" x="1125.34" y="234.73" width="143.06" height="6.58"/>
            <rect class="cls-6" x="1125.34" y="232.96" width="143.06" height="1.85"/>
            <rect class="cls-22" x="1268.4" y="232.96" width="2.4" height="8.35"/>
          </g>
          <g>
            <rect class="cls-12" x="979.66" y="234.73" width="143.06" height="6.58"/>
            <rect class="cls-6" x="979.66" y="232.96" width="143.06" height="1.85"/>
            <rect class="cls-22" x="1122.72" y="232.96" width="2.4" height="8.35"/>
          </g>
          <g>
            <rect class="cls-12" x="833.98" y="234.73" width="143.06" height="6.58"/>
            <rect class="cls-6" x="833.98" y="232.96" width="143.06" height="1.85"/>
            <rect class="cls-22" x="977.04" y="232.96" width="2.4" height="8.35"/>
          </g>
          <g>
            <rect class="cls-12" x="688.3" y="234.73" width="143.06" height="6.58"/>
            <rect class="cls-6" x="688.3" y="232.96" width="143.06" height="1.85"/>
            <rect class="cls-22" x="831.36" y="232.96" width="2.4" height="8.35"/>
          </g>
          <g>
            <rect class="cls-12" x="542.62" y="234.73" width="143.06" height="6.58"/>
            <rect class="cls-6" x="542.62" y="232.96" width="143.06" height="1.85"/>
            <rect class="cls-22" x="685.68" y="232.96" width="2.4" height="8.35"/>
          </g>
          <g>
            <rect class="cls-12" x="396.94" y="234.73" width="143.06" height="6.58"/>
            <rect class="cls-6" x="396.94" y="232.96" width="143.06" height="1.85"/>
            <rect class="cls-22" x="540" y="232.96" width="2.4" height="8.35"/>
          </g>
          <g>
            <rect class="cls-12" x="251.26" y="234.73" width="143.06" height="6.58"/>
            <rect class="cls-6" x="251.26" y="232.96" width="143.06" height="1.85"/>
            <rect class="cls-22" x="394.32" y="232.96" width="2.4" height="8.35"/>
          </g>
        </g>
        <g>
          <g>
            <rect class="cls-12" x="1050.41" y="384.77" width="171.92" height="7.91"/>
            <rect class="cls-6" x="1050.41" y="382.64" width="171.92" height="2.22"/>
            <rect class="cls-22" x="1222.33" y="382.64" width="2.88" height="10.04"/>
          </g>
          <g>
            <rect class="cls-12" x="875.34" y="384.77" width="171.92" height="7.91"/>
            <rect class="cls-6" x="875.34" y="382.64" width="171.92" height="2.22"/>
            <rect class="cls-22" x="1047.26" y="382.64" width="2.88" height="10.04"/>
          </g>
          <g>
            <rect class="cls-12" x="700.27" y="384.77" width="171.92" height="7.91"/>
            <rect class="cls-6" x="700.27" y="382.64" width="171.92" height="2.22"/>
            <rect class="cls-22" x="872.19" y="382.64" width="2.88" height="10.04"/>
          </g>
          <g>
            <rect class="cls-12" x="525.21" y="384.77" width="171.92" height="7.91"/>
            <rect class="cls-6" x="525.21" y="382.64" width="171.92" height="2.22"/>
            <rect class="cls-22" x="697.13" y="382.64" width="2.88" height="10.04"/>
          </g>
          <g>
            <rect class="cls-12" x="350.14" y="384.77" width="171.92" height="7.91"/>
            <rect class="cls-6" x="350.14" y="382.64" width="171.92" height="2.22"/>
            <rect class="cls-22" x="522.06" y="382.64" width="2.88" height="10.04"/>
          </g>
          <g>
            <rect class="cls-12" x="175.07" y="384.77" width="171.92" height="7.91"/>
            <rect class="cls-6" x="175.07" y="382.64" width="171.92" height="2.22"/>
            <rect class="cls-22" x="346.99" y="382.64" width="2.88" height="10.04"/>
          </g>
          <g>
            <rect class="cls-12" y="384.77" width="171.92" height="7.91"/>
            <rect class="cls-6" y="382.64" width="171.92" height="2.22"/>
            <rect class="cls-22" x="171.92" y="382.64" width="2.88" height="10.04"/>
          </g>
        </g>
        <g>
          <g>
            <rect class="cls-12" x="1280.8" y="200.28" width="143.06" height="6.58"/>
            <rect class="cls-6" x="1280.8" y="198.51" width="143.06" height="1.85"/>
            <rect class="cls-22" x="1423.86" y="198.51" width="2.4" height="8.35"/>
          </g>
          <g>
            <rect class="cls-12" x="1135.12" y="200.28" width="143.06" height="6.58"/>
            <rect class="cls-6" x="1135.12" y="198.51" width="143.06" height="1.85"/>
            <rect class="cls-22" x="1278.18" y="198.51" width="2.4" height="8.35"/>
          </g>
          <g>
            <rect class="cls-12" x="989.44" y="200.28" width="143.06" height="6.58"/>
            <rect class="cls-6" x="989.44" y="198.51" width="143.06" height="1.85"/>
            <rect class="cls-22" x="1132.5" y="198.51" width="2.4" height="8.35"/>
          </g>
          <g>
            <rect class="cls-12" x="843.76" y="200.28" width="143.06" height="6.58"/>
            <rect class="cls-6" x="843.76" y="198.51" width="143.06" height="1.85"/>
            <rect class="cls-22" x="986.82" y="198.51" width="2.4" height="8.35"/>
          </g>
          <g>
            <rect class="cls-12" x="698.08" y="200.28" width="143.06" height="6.58"/>
            <rect class="cls-6" x="698.08" y="198.51" width="143.06" height="1.85"/>
            <rect class="cls-22" x="841.14" y="198.51" width="2.4" height="8.35"/>
          </g>
          <g>
            <rect class="cls-12" x="552.4" y="200.28" width="143.06" height="6.58"/>
            <rect class="cls-6" x="552.4" y="198.51" width="143.06" height="1.85"/>
            <rect class="cls-22" x="695.46" y="198.51" width="2.4" height="8.35"/>
          </g>
          <g>
            <rect class="cls-12" x="406.72" y="200.28" width="143.06" height="6.58"/>
            <rect class="cls-6" x="406.72" y="198.51" width="143.06" height="1.85"/>
            <rect class="cls-22" x="549.78" y="198.51" width="2.4" height="8.35"/>
          </g>
        </g>
        <g>
          <rect class="cls-24" x="1430.7" y="185.79" width="225.39" height="4.55"/>
          <g>
            <path class="cls-25" d="m1536.5,121.46c32.2-22.71,70.55-37.83,110.9-43.73l-.05-.3c-40.41,5.91-78.81,21.05-111.06,43.79l.21.24Z"/>
            <path class="cls-25" d="m1534.63,122.3l.88.91c.27.28.73.32,1.05.09,4.29-3.01,8.69-5.88,13.18-8.6.36-.22.45-.65.2-.97l-.76-.98c-.24-.31-.72-.39-1.07-.18-4.55,2.76-9.02,5.67-13.37,8.72-.35.25-.4.71-.11,1.01Z"/>
            <path class="cls-25" d="m1641.3,78.07c.11.63.23,1.15.35,1.56.24.83,1.08,1.39,2.03,1.35.79-.03,1.81-.12,2.89-.34,1-.2,1.69-1.05,1.54-1.97-.17-1.06-.47-1.68-.47-1.68,0,0-4.02.5-6.34,1.07Z"/>
            <path class="cls-25" d="m1553.74,111.81h0c.46,0,.83-.34.83-.75v-1.69c0-.41-.37-.75-.83-.75h0c-.46,0-.83.34-.83.75v1.69c0,.41.37.75.83.75Z"/>
            <path class="cls-25" d="m1570.62,164.12c3.75,0,7.08-4.06,9.42-11.53l-.32-.08c-2.43,7.75-5.89,11.76-9.71,11.28-7.91-.99-16.1-20.7-16.1-51.98h-.33c0,31.44,8.33,51.27,16.39,52.28.22.03.44.04.66.04Z"/>
          </g>
          <path class="cls-25" d="m1544.45,121.46c32.2-22.71,70.55-37.83,110.9-43.73l-.05-.3c-40.41,5.91-78.81,21.05-111.06,43.79l.21.24Z"/>
          <path class="cls-25" d="m1542.54,122.25l.98,1.01c.24.25.66.29.95.08,4.33-3.04,8.77-5.94,13.3-8.68.32-.2.4-.59.18-.88l-.85-1.09c-.22-.28-.65-.35-.96-.16-4.6,2.78-9.1,5.72-13.49,8.8-.32.22-.36.64-.1.91Z"/>
          <path class="cls-25" d="m1649.25,78.07c.11.63.23,1.15.35,1.56.24.83,1.08,1.39,2.03,1.35.79-.03,1.81-.12,2.89-.34,1-.2,1.69-1.05,1.54-1.97-.17-1.06-.47-1.68-.47-1.68,0,0-4.02.5-6.34,1.07Z"/>
          <rect class="cls-21" x="1453.63" y="165.94" width="29.48" height="13.51" transform="translate(2936.74 345.39) rotate(180)"/>
          <rect class="cls-21" x="1563.88" y="165.94" width="29.48" height="13.51" transform="translate(3157.24 345.39) rotate(180)"/>
          <path class="cls-9" d="m1423.42,155.85v18.58l7.97,1.94.84,2.08.95,2.32h22.26c-.11-.59-.17-1.19-.17-1.81,0-.17,0-.34.01-.5.03-.69.13-1.36.29-2.02,1.28-5.33,6.53-9.3,12.79-9.3s11.4,3.87,12.75,9.09c.2.71.31,1.47.35,2.24.01.17.01.34.01.5,0,.62-.07,1.23-.16,1.81h84.9c-.09-.59-.17-1.19-.17-1.81,0-.17,0-.34.01-.5.03-.69.13-1.36.29-2.02,1.28-5.33,6.53-9.3,12.79-9.3s11.4,3.87,12.75,9.09c.2.71.32,1.47.36,2.24.01.17.01.34.01.5,0,.62-.08,1.23-.17,1.81h56.2l2.73-1.03,8.24-3.11v-25.15h-.75v-19.03l-9.18-6.18h-217.44l-7.74,6.18v22.91l-.73.49Z"/>
          <path class="cls-17" d="m1653.39,132.44l.49,34.87c.03,2.11,1.95,3.81,4.29,3.79h1.09v-19.63h-.75v-19.03h-5.13Z"/>
          <path class="cls-17" d="m1423.42,155.85v16.8h.96c2.83,0,5.13-2.08,5.13-4.63v-14.22l1.19-1.06v-20.3h-6.54v22.91l-.73.49Z"/>
          <path class="cls-17" d="m1592.27,178.95c0,.62-.08,1.23-.17,1.81h56.2l2.73-1.03v-1.29h-58.78c.01.17.01.34.01.5Z"/>
          <path class="cls-17" d="m1481.47,178.95c0,.62-.07,1.23-.16,1.81h84.9c-.09-.59-.17-1.19-.17-1.81,0-.17,0-.34.01-.5h-84.59c.01.17.01.34.01.5Z"/>
          <path class="cls-17" d="m1432.23,178.45l.95,2.32h22.26c-.11-.59-.17-1.19-.17-1.81,0-.17,0-.34.01-.5h-23.04Z"/>
          <path class="cls-22" d="m1456.67,178.96c0,5.83,5.24,10.55,11.7,10.55s11.71-4.72,11.71-10.55c0-.84-.12-1.67-.33-2.45-1.21-4.66-5.84-8.11-11.38-8.11s-10.29,3.56-11.42,8.31c-.19.73-.27,1.48-.27,2.26Z"/>
          <rect class="cls-14" x="1559.44" y="156.43" width=".33" height="21.17"/>
          <rect class="cls-14" x="1488.38" y="156.43" width=".33" height="21.17"/>
          <path class="cls-18" d="m1457.4,178.95c0,5.47,4.91,9.9,10.98,9.9s10.98-4.43,10.98-9.9-4.91-9.9-10.98-9.9-10.98,4.43-10.98,9.9Z"/>
          <ellipse class="cls-20" cx="1468.37" cy="178.95" rx="9.67" ry="8.72"/>
          <path class="cls-11" d="m1462.15,178.95c0,3.1,2.78,5.61,6.22,5.61s6.22-2.51,6.22-5.61-2.78-5.61-6.22-5.61-6.22,2.51-6.22,5.61Z"/>
          <ellipse class="cls-16" cx="1468.37" cy="178.95" rx="2.76" ry="2.49"/>
          <path class="cls-16" d="m1468.37,173.88c.31,0,.55.22.55.5s-.25.5-.55.5-.55-.22-.55-.5.25-.5.55-.5Zm-.55,9.65c0,.28.25.5.55.5s.55-.22.55-.5-.25-.5-.55-.5-.55.22-.55.5Zm-5.07-4.57c0-.28.25-.5.55-.5s.55.22.55.5-.25.5-.55.5-.55-.22-.55-.5Zm10.7.5c.31,0,.55-.22.55-.5s-.25-.5-.55-.5-.55.22-.55.5.25.5.55.5Zm-9.05-4.09c.22-.2.57-.2.78,0,.22.2.22.51,0,.71-.22.2-.57.2-.78,0-.22-.2-.22-.51,0-.71Zm7.17,7.17c.22.2.57.2.78,0,.22-.2.22-.51,0-.71-.22-.2-.57-.2-.78,0s-.22.51,0,.71Zm-7.17,0c-.22-.2-.22-.51,0-.71s.57-.2.78,0,.22.51,0,.71-.57.2-.78,0Zm7.95-6.47c.22-.2.22-.51,0-.71-.22-.2-.57-.2-.78,0-.22.2-.22.51,0,.71.22.2.57.2.78,0Z"/>
          <g>
            <path class="cls-22" d="m1567.45,178.96c0,5.83,5.24,10.55,11.7,10.55s11.71-4.72,11.71-10.55c0-.84-.12-1.67-.33-2.45-1.21-4.66-5.84-8.11-11.38-8.11s-10.29,3.56-11.42,8.31c-.19.73-.27,1.48-.27,2.26Z"/>
            <path class="cls-18" d="m1568.18,178.95c0,5.47,4.91,9.9,10.98,9.9s10.98-4.43,10.98-9.9-4.91-9.9-10.98-9.9-10.98,4.43-10.98,9.9Z"/>
            <ellipse class="cls-20" cx="1579.15" cy="178.95" rx="9.67" ry="8.72"/>
            <path class="cls-11" d="m1572.93,178.95c0,3.1,2.78,5.61,6.22,5.61s6.22-2.51,6.22-5.61-2.78-5.61-6.22-5.61-6.22,2.51-6.22,5.61Z"/>
            <path class="cls-16" d="m1576.39,178.95c0,1.37,1.24,2.49,2.76,2.49s2.76-1.11,2.76-2.49-1.24-2.49-2.76-2.49-2.76,1.11-2.76,2.49Z"/>
            <path class="cls-16" d="m1579.15,173.88c.31,0,.55.22.55.5s-.25.5-.55.5-.55-.22-.55-.5.25-.5.55-.5Zm-.55,9.65c0,.28.25.5.55.5s.55-.22.55-.5-.25-.5-.55-.5-.55.22-.55.5Zm-5.07-4.57c0-.28.25-.5.55-.5s.55.22.55.5-.25.5-.55.5-.55-.22-.55-.5Zm10.7.5c.31,0,.55-.22.55-.5s-.25-.5-.55-.5-.55.22-.55.5.25.5.55.5Zm-9.05-4.09c.22-.2.57-.2.78,0,.22.2.22.51,0,.71-.22.2-.57.2-.78,0-.22-.2-.22-.51,0-.71Zm7.17,7.17c.22.2.57.2.78,0s.22-.51,0-.71-.57-.2-.78,0c-.22.2-.22.51,0,.71Zm-7.17,0c-.22-.2-.22-.51,0-.71.22-.2.57-.2.78,0,.22.2.22.51,0,.71-.22.2-.57.2-.78,0Zm7.95-6.47c.22-.2.22-.51,0-.71-.22-.2-.57-.2-.78,0-.22.2-.22.51,0,.71.22.2.57.2.78,0Z"/>
          </g>
          <polygon class="cls-17" points="1424.15 132.44 1658.52 132.44 1649.34 126.27 1431.89 126.27 1424.15 132.44"/>
          <rect class="cls-17" x="1524.08" y="133.94" width="15.74" height="45.51"/>
          <rect class="cls-13" x="1525.27" y="135.02" width="13.36" height="36.75"/>
          <path class="cls-17" d="m1525.27,165.86s.07,0,.1-.03l13.36-9.01c.07-.05.09-.14.03-.21-.06-.06-.16-.08-.23-.03l-13.36,9.01c-.07.05-.09.14-.03.21.03.04.08.06.13.06Z"/>
          <path class="cls-17" d="m1525.27,168.12s.07,0,.1-.03l13.36-9.01c.07-.05.09-.14.03-.21-.06-.06-.16-.08-.23-.03l-13.36,9.01c-.07.05-.09.14-.03.21.03.04.08.06.13.06Z"/>
          <rect class="cls-17" x="1508.34" y="133.94" width="15.74" height="45.51"/>
          <rect class="cls-13" x="1509.53" y="135.02" width="13.36" height="36.75"/>
          <path class="cls-17" d="m1522.89,165.86c.05,0,.1-.02.13-.06.06-.07.04-.16-.03-.21l-13.36-9.01c-.07-.05-.18-.04-.23.03-.06.07-.04.16.03.21l13.36,9.01s.06.03.1.03Z"/>
          <path class="cls-17" d="m1522.89,168.12c.05,0,.1-.02.13-.06.06-.07.04-.16-.03-.21l-13.36-9.01c-.07-.05-.18-.03-.23.03-.06.07-.04.16.03.21l13.36,9.01s.06.03.1.03Z"/>
          <rect class="cls-17" x="1436.49" y="133.94" width="15.74" height="45.51"/>
          <rect class="cls-13" x="1437.68" y="135.02" width="13.36" height="36.75"/>
          <path class="cls-17" d="m1451.04,165.86c.05,0,.1-.02.13-.06.06-.07.04-.16-.03-.21l-13.36-9.01c-.07-.05-.18-.04-.23.03-.06.07-.04.16.03.21l13.36,9.01s.06.03.1.03Z"/>
          <path class="cls-17" d="m1451.04,168.12c.05,0,.1-.02.13-.06.06-.07.04-.16-.03-.21l-13.36-9.01c-.07-.05-.18-.03-.23.03-.06.07-.04.16.03.21l13.36,9.01s.06.03.1.03Z"/>
          <rect class="cls-17" x="1611.67" y="133.94" width="15.74" height="45.51"/>
          <rect class="cls-13" x="1612.86" y="135.02" width="13.35" height="36.75"/>
          <path class="cls-17" d="m1612.86,165.86s.07,0,.1-.03l13.36-9.01c.07-.05.09-.14.03-.21-.06-.06-.16-.08-.23-.03l-13.36,9.01c-.07.05-.09.14-.03.21.03.04.08.06.13.06Z"/>
          <path class="cls-17" d="m1612.86,168.12s.07,0,.1-.03l13.36-9.01c.07-.05.09-.14.03-.21-.06-.06-.16-.08-.23-.03l-13.36,9.01c-.07.05-.09.14-.03.21.03.04.08.06.13.06Z"/>
          <rect class="cls-17" x="1595.93" y="133.94" width="15.74" height="45.51"/>
          <rect class="cls-13" x="1597.12" y="135.02" width="13.35" height="36.75"/>
          <path class="cls-17" d="m1610.48,165.86c.05,0,.1-.02.13-.06.06-.07.04-.16-.03-.21l-13.36-9.01c-.07-.05-.18-.04-.23.03-.06.07-.04.16.03.21l13.36,9.01s.06.03.1.03Z"/>
          <path class="cls-17" d="m1610.48,168.12c.05,0,.1-.02.13-.06.06-.07.04-.16-.03-.21l-13.36-9.01c-.07-.05-.18-.03-.23.03-.06.07-.04.16.03.21l13.36,9.01s.06.03.1.03Z"/>
          <rect class="cls-17" x="1453.2" y="133.94" width="54.17" height="17.24"/>
          <g>
            <rect class="cls-13" x="1472.02" y="135.02" width="16.53" height="15.1"/>
            <rect class="cls-13" x="1489.65" y="135.02" width="16.53" height="15.1"/>
            <rect class="cls-13" x="1454.39" y="135.02" width="16.53" height="15.1"/>
          </g>
          <rect class="cls-17" x="1540.79" y="133.94" width="54.17" height="17.24"/>
          <g>
            <rect class="cls-13" x="1559.62" y="135.02" width="16.51" height="15.1"/>
            <rect class="cls-13" x="1577.24" y="135.02" width="16.53" height="15.1"/>
            <rect class="cls-13" x="1541.98" y="135.02" width="16.53" height="15.1"/>
          </g>
          <rect class="cls-17" x="1628.38" y="133.94" width="18.95" height="17.24"/>
          <rect class="cls-13" x="1629.61" y="135.02" width="16.53" height="15.1"/>
          <rect class="cls-17" x="1628.38" y="152.55" width="18.95" height="2.68"/>
          <rect class="cls-17" x="1540.79" y="152.55" width="54.17" height="2.68"/>
          <rect class="cls-17" x="1453.2" y="152.55" width="54.17" height="2.68"/>
          <rect class="cls-17" x="1656.19" y="135.02" width="2.34" height="16.46" transform="translate(3314.71 286.49) rotate(180)"/>
          <rect class="cls-14" x="1656.19" y="133.94" width="2.34" height=".56" transform="translate(3314.71 268.44) rotate(180)"/>
          <rect class="cls-14" x="1648.3" y="133.94" width="7.03" height=".56" transform="translate(3303.63 268.44) rotate(180)"/>
          <rect class="cls-14" x="1425.05" y="133.94" width="10.52" height=".56" transform="translate(2860.61 268.44) rotate(180)"/>
          <rect class="cls-14" x="1648.13" y="135.32" width=".33" height="35.95"/>
          <g>
            <polygon class="cls-17" points="1660.05 171.76 1660.05 176.33 1656.87 177.53 1656.87 171.76 1660.05 171.76"/>
            <polygon class="cls-14" points="1648.3 171.76 1656.87 171.76 1656.87 177.53 1648.3 180.77 1648.3 171.76"/>
          </g>
          <path class="cls-17" d="m1657.06,160.64h2.99v1.86c0,.36-.29.65-.65.65h-1.69c-.36,0-.65-.29-.65-.65v-1.86h0Z" transform="translate(3317.1 323.8) rotate(180)"/>
          <rect class="cls-9" x="1657.06" y="163.16" width="2.99" height="2.51" transform="translate(3317.1 328.82) rotate(180)"/>
          <path class="cls-17" d="m1657.71,165.67h1.69c.36,0,.65.29.65.65v1.86h-2.99v-1.86c0-.36.29-.65.65-.65Z" transform="translate(3317.1 333.85) rotate(180)"/>
          <polygon class="cls-14" points="1431.97 177.8 1424.38 177.8 1424.38 174.66 1431.39 176.37 1431.97 177.8"/>
          <path class="cls-14" d="m1423.42,159.23v2.73h3.52c.41,0,.75-.31.75-.67v-1.38c0-.37-.33-.67-.75-.67h-3.52Z"/>
          <polygon class="cls-14" points="1424.15 155.36 1429.06 152.06 1429.06 135.79 1424.15 135.79 1424.15 155.36"/>
          <polygon class="cls-13" points="1424.15 154.21 1428.04 151.6 1428.04 136.71 1424.15 136.71 1424.15 154.21"/>
          <rect class="cls-9" x="1422.14" y="158.72" width="4.91" height="2.48" rx=".65" ry=".65" transform="translate(2849.2 319.92) rotate(180)"/>
          <path class="cls-14" d="m1423.42,162.62v1.79l2-.5c.31-.08.52-.34.52-.62h0c0-.37-.32-.66-.72-.66h-1.8Z"/>
          <path class="cls-17" d="m1422.3,163.45c0,.19.1.37.27.48.17.11.38.15.59.1l2.04-.52c.29-.07.49-.31.49-.58h0c0-.34-.3-.61-.67-.61h-2.04c-.37,0-.67.27-.67.6v.52Z"/>
          <polygon class="cls-17" points="1465.67 126.27 1465.67 123.58 1476.64 117.6 1529.22 117.6 1559.61 125.12 1559.61 126.27 1465.67 126.27"/>
          <polygon class="cls-9" points="1465.67 126.27 1465.67 123.58 1474.53 118.75 1524.62 118.75 1550.74 125.12 1550.74 126.27 1465.67 126.27"/>
          <path class="cls-14" d="m1477.71,121.03h0c0-.18.17-.33.37-.33h13.73c.2,0,.37.15.37.33h0c0,.18-.17.33-.37.33h-13.73c-.2,0-.37-.15-.37-.33Zm.37,1.81h13.73c.2,0,.37-.15.37-.33h0c0-.18-.17-.33-.37-.33h-13.73c-.2,0-.37.15-.37.33h0c0,.18.17.33.37.33Zm0,1.48h13.73c.2,0,.37-.15.37-.33h0c0-.18-.17-.33-.37-.33h-13.73c-.2,0-.37.15-.37.33h0c0,.18.17.33.37.33Zm16.71-2.96h4.08c.2,0,.37-.15.37-.33h0c0-.18-.17-.33-.37-.33h-4.08c-.2,0-.37.15-.37.33h0c0,.18.17.33.37.33Zm0,1.48h4.08c.2,0,.37-.15.37-.33h0c0-.18-.17-.33-.37-.33h-4.08c-.2,0-.37.15-.37.33h0c0,.18.17.33.37.33Zm0,1.48h4.08c.2,0,.37-.15.37-.33h0c0-.18-.17-.33-.37-.33h-4.08c-.2,0-.37.15-.37.33h0c0,.18.17.33.37.33Z"/>
          <path class="cls-25" d="m1561.69,111.81h0c.46,0,.83-.34.83-.75v-1.69c0-.41-.37-.75-.83-.75h0c-.46,0-.83.34-.83.75v1.69c0,.41.37.75.83.75Z"/>
          <path class="cls-2" d="m1639.08,135.02l7.06,9.26v5.84h-3.36l-11.5-15.1h7.8Zm-9.46,0v2.33l9.74,12.77h2.27l-11.52-15.1h-.49Zm-52.38,0v3.58l8.78,11.52h7.74v-.08l-11.45-15.01h-5.08Zm-1.11,0v2.13l-1.63-2.13h1.63Zm8.72,15.1h-2.27l-5.34-7.01v-2.97l7.61,9.98Zm-11.52-15.1l2.8,3.67v2.97l-5.06-6.64h2.27Zm-11.76,0l11.5,15.1h-7.81l-5.65-7.42v-7.68h1.96Zm-3.07,0v6.23l-4.74-6.23h4.74Zm-13.29,0l11.52,15.1h-2.27l-11.52-15.1h2.27Zm8.02,15.1h-2.27l-9-11.79v-2.97l11.26,14.76Zm-63.6-15.1v3.58l8.78,11.52h7.74v-.08l-11.45-15.01h-5.08Zm-1.11,0v2.13l-1.63-2.13h1.63Zm8.72,15.1h-2.27l-5.34-7.01v-2.97l7.61,9.98Zm-11.52-15.1l2.8,3.67v2.97l-5.06-6.64h2.27Zm-11.76,0l11.5,15.1h-7.81l-5.65-7.42v-7.68h1.96Zm-3.07,0v6.23l-4.74-6.23h4.74Zm-13.29,0l11.52,15.1h-2.27l-11.52-15.1h2.27Zm8.02,15.1h-2.27l-9-11.79v-2.97l11.26,14.76Zm147.21-6.8v13.51l11.4,14.94h1.96v-10.94l-13.35-17.51Zm6.78,28.45h-2.27l-4.52-5.93v-2.97l6.78,8.9Zm-3.67,0h-2.27l-.85-1.12v-2.97l3.12,4.09Zm-90.71-28.45v13.51l11.4,14.94h1.96v-10.94l-13.35-17.51Zm6.78,28.45h-2.27l-4.52-5.93v-2.97l6.78,8.9Zm-3.67,0h-2.27l-.85-1.12v-2.97l3.12,4.09Zm68.73-36.75v1.15l13.35,17.51v-13.51l-3.93-5.16h-9.42Zm13.35,24.73v2.97l-13.35-17.5v-2.97l13.35,17.5Zm0,4.8v2.97l-13.35-17.5v-2.97l13.35,17.5Zm-100.94-29.52v1.15l13.35,17.51v-13.51l-3.93-5.16h-9.42Zm13.35,24.73v2.97l-13.35-17.5v-2.97l13.35,17.5Zm0,4.8v2.97l-13.35-17.5v-2.97l13.35,17.5Zm-85.21-29.52v1.15l13.35,17.51v-13.51l-3.93-5.16h-9.42Zm13.35,24.73v2.97l-13.35-17.5v-2.97l13.35,17.5Zm0,4.8v2.97l-13.35-17.5v-2.97l13.35,17.5Z"/>
          <ellipse class="cls-25" cx="1587.83" cy="152.55" rx=".72" ry=".65"/>
          <polygon class="cls-14" points="1431.89 126.27 1430.7 132.44 1424.15 132.44 1431.89 126.27"/>
          <polygon class="cls-14" points="1649.34 126.27 1653.39 132.44 1658.52 132.44 1649.34 126.27"/>
          <polygon class="cls-14" points="1431.12 127.26 1650.55 127.26 1649.34 126.27 1431.89 126.27 1431.12 127.26"/>
          <path class="cls-25" d="m1578.57,164.12c3.75,0,7.08-4.06,9.42-11.53l-.32-.08c-2.43,7.75-5.9,11.76-9.71,11.28-7.91-.99-16.1-20.7-16.1-51.98h-.33c0,31.44,8.33,51.27,16.39,52.28.22.03.44.04.66.04Z"/>
          <path class="cls-21" d="m1596.99,134.9h13.61v36.98h-13.61v-36.98Zm13.35.23h-13.1v36.51h13.1v-36.51Z"/>
          <path class="cls-21" d="m1612.73,134.9h13.61v36.98h-13.61v-36.98Zm13.35.23h-13.1v36.51h13.1v-36.51Z"/>
          <path class="cls-21" d="m1629.48,134.9h16.79v15.33h-16.79v-15.33Zm16.53.23h-16.27v14.86h16.27v-14.86Z"/>
          <g>
            <path class="cls-21" d="m1559.49,134.9h16.77v15.33h-16.77v-15.33Zm16.51.23h-16.25v14.86h16.25v-14.86Z"/>
            <path class="cls-21" d="m1577.11,134.9h16.79v15.33h-16.79v-15.33Zm16.53.23h-16.27v14.86h16.27v-14.86Z"/>
            <path class="cls-21" d="m1541.85,134.9h16.79v15.33h-16.79v-15.33Zm16.53.23h-16.27v14.86h16.27v-14.86Z"/>
          </g>
          <path class="cls-21" d="m1525.14,134.9h13.62v36.99h-13.62v-36.99Zm13.36.23h-13.1v36.52h13.1v-36.52Z"/>
          <path class="cls-21" d="m1509.4,134.9h13.62v36.99h-13.62v-36.99Zm13.36.23h-13.1v36.52h13.1v-36.52Z"/>
          <g>
            <path class="cls-21" d="m1471.89,134.9h16.78v15.33h-16.78v-15.33Zm16.53.23h-16.27v14.86h16.27v-14.86Z"/>
            <path class="cls-21" d="m1489.52,134.9h16.78v15.33h-16.78v-15.33Zm16.53.23h-16.27v14.86h16.27v-14.86Z"/>
            <path class="cls-21" d="m1454.26,134.9h16.78v15.33h-16.78v-15.33Zm16.53.23h-16.27v14.86h16.27v-14.86Z"/>
          </g>
          <path class="cls-21" d="m1437.55,134.9h13.62v36.99h-13.62v-36.99Zm13.36.23h-13.1v36.52h13.1v-36.52Z"/>
        </g>
        <g>
          <polygon class="cls-24" points="237.08 354.01 938.87 354.01 922.66 373.93 237.08 373.93 237.08 354.01"/>
          <rect class="cls-21" x="412.56" y="289.65" width="88.47" height="48.63" transform="translate(913.59 627.92) rotate(180)"/>
          <rect class="cls-21" x="758.48" y="289.65" width="88.47" height="48.63" transform="translate(1605.44 627.92) rotate(180)"/>
          <path class="cls-5" d="m208.13,317.2l13.57,15.99,18.31,7.17h175.63c-.25-1.73-.46-3.49-.46-5.29,0-2.74.33-5.44,1-7.99,1.25-5.33,3.79-10.25,7.28-14.45,7.57-9.16,19.68-15.09,33.29-15.09s25.84,5.93,33.38,15.09c3.33,4.02,5.78,8.67,7.08,13.74.79,2.78,1.21,5.71,1.21,8.71,0,1.8-.21,3.57-.46,5.29h263.77c-.25-1.73-.46-3.49-.46-5.29,0-2.74.29-5.44.96-7.99,1.29-5.33,3.83-10.25,7.28-14.45,7.62-9.16,19.73-15.09,33.34-15.09s25.8,5.93,33.38,15.09c3.33,4.02,5.79,8.67,7.07,13.74.79,2.78,1.17,5.71,1.17,8.71,0,1.8-.17,3.57-.46,5.29h109.21l10.32-3.94,9.95-23.8,1.42-3.34,4.45-.75,17.06-2.93-2.87-40.05c-.13-1.84-1.42-3.45-3.29-4.2l-4.12-71.58-26.3-19.22H243.01l-27.51,19.22-1.58,59.68c-1.66,0-3.04,1.2-3.12,2.7l-2.46,59.87-.04.6-.17,4.58Z"/>
          <path class="cls-4" d="m973.48,312.62h-137.26c3.33,4.02,5.79,8.67,7.07,13.74.79,2.78,1.17,5.71,1.17,8.71,0,1.8-.17,3.57-.46,5.29h109.21l10.32-3.94,9.95-23.8Z"/>
          <path class="cls-4" d="m769.51,312.62h-279.38c3.33,4.02,5.78,8.67,7.08,13.74.79,2.78,1.21,5.71,1.21,8.71,0,1.8-.21,3.57-.46,5.29h263.77c-.25-1.73-.46-3.49-.46-5.29,0-2.74.29-5.44.96-7.99,1.29-5.33,3.83-10.25,7.28-14.45Z"/>
          <path class="cls-4" d="m208.13,317.2l13.57,15.99,18.31,7.17h175.63c-.25-1.73-.46-3.49-.46-5.29,0-2.74.33-5.44,1-7.99,1.25-5.33,3.79-10.25,7.28-14.45h-215.16l-.17,4.58Z"/>
          <polygon class="cls-15" points="737.66 171.95 739.76 172.23 741.44 162.25 739.34 161.96 737.66 171.95"/>
          <path class="cls-22" d="m766.33,335.08c0,18.2,16.36,32.95,36.53,32.95s36.57-14.75,36.57-32.95c0-2.63-.36-5.23-1.03-7.66-3.77-14.55-18.24-25.33-35.54-25.33s-32.13,11.1-35.67,25.93c-.58,2.27-.85,4.62-.85,7.05Z"/>
          <path class="cls-18" d="m768.6,335.07c0,17.07,15.34,30.91,34.27,30.91s34.27-13.84,34.27-30.91-15.34-30.91-34.27-30.91-34.27,13.84-34.27,30.91Z"/>
          <path class="cls-20" d="m772.69,335.07c0,15.03,13.51,27.22,30.18,27.22s30.18-12.19,30.18-27.22-13.51-27.22-30.18-27.22-30.18,12.19-30.18,27.22Z"/>
          <path class="cls-11" d="m783.45,335.07c0,9.68,8.7,17.52,19.42,17.52s19.42-7.84,19.42-17.52-8.7-17.52-19.42-17.52-19.42,7.84-19.42,17.52Z"/>
          <path class="cls-16" d="m794.26,335.07c0,4.29,3.86,7.77,8.62,7.77s8.62-3.48,8.62-7.77-3.86-7.77-8.62-7.77-8.62,3.48-8.62,7.77Z"/>
          <path class="cls-16" d="m802.88,319.23c.96,0,1.73.7,1.73,1.56s-.78,1.56-1.73,1.56-1.73-.7-1.73-1.56.78-1.56,1.73-1.56Zm-1.73,30.12c0,.86.78,1.56,1.73,1.56s1.73-.7,1.73-1.56-.78-1.56-1.73-1.56-1.73.7-1.73,1.56Zm-15.83-14.28c0-.86.78-1.56,1.73-1.56s1.73.7,1.73,1.56-.78,1.56-1.73,1.56-1.73-.7-1.73-1.56Zm33.4,1.56c.96,0,1.73-.7,1.73-1.56s-.78-1.56-1.73-1.56-1.73.7-1.73,1.56.78,1.56,1.73,1.56Zm-28.25-12.76c.68-.61,1.77-.61,2.45,0,.68.61.68,1.6,0,2.21-.68.61-1.77.61-2.45,0-.68-.61-.68-1.6,0-2.21Zm22.39,22.4c.68.61,1.77.61,2.45,0,.68-.61.68-1.6,0-2.21-.68-.61-1.77-.61-2.45,0-.68.61-.68,1.6,0,2.21Zm-22.39,0c-.68-.61-.68-1.6,0-2.21s1.77-.61,2.45,0c.68.61.68,1.6,0,2.21-.68.61-1.77.61-2.45,0Zm24.84-20.19c.68-.61.68-1.6,0-2.21-.68-.61-1.77-.61-2.45,0-.68.61-.68,1.6,0,2.21.68.61,1.77.61,2.45,0Z"/>
          <path class="cls-22" d="m420.25,335.08c0,18.2,16.35,32.95,36.53,32.95s36.57-14.75,36.57-32.95c0-2.63-.36-5.23-1.03-7.66-3.77-14.55-18.24-25.33-35.54-25.33s-32.13,11.1-35.67,25.93c-.58,2.27-.85,4.62-.85,7.05Z"/>
          <path class="cls-18" d="m422.52,335.07c0,17.07,15.34,30.91,34.27,30.91s34.27-13.84,34.27-30.91-15.34-30.91-34.27-30.91-34.27,13.84-34.27,30.91Z"/>
          <path class="cls-20" d="m426.61,335.07c0,15.03,13.51,27.22,30.18,27.22s30.18-12.19,30.18-27.22-13.51-27.22-30.18-27.22-30.18,12.19-30.18,27.22Z"/>
          <path class="cls-11" d="m437.37,335.07c0,9.68,8.7,17.52,19.42,17.52s19.42-7.84,19.42-17.52-8.7-17.52-19.42-17.52-19.42,7.84-19.42,17.52Z"/>
          <path class="cls-16" d="m448.18,335.07c0,4.29,3.86,7.77,8.62,7.77s8.62-3.48,8.62-7.77-3.86-7.77-8.62-7.77-8.62,3.48-8.62,7.77Z"/>
          <path class="cls-16" d="m456.8,319.23c.96,0,1.73.7,1.73,1.56s-.78,1.56-1.73,1.56-1.73-.7-1.73-1.56.78-1.56,1.73-1.56Zm-1.73,30.12c0,.86.78,1.56,1.73,1.56s1.73-.7,1.73-1.56-.78-1.56-1.73-1.56-1.73.7-1.73,1.56Zm-15.83-14.28c0-.86.78-1.56,1.73-1.56s1.73.7,1.73,1.56-.78,1.56-1.73,1.56-1.73-.7-1.73-1.56Zm33.4,1.56c.96,0,1.73-.7,1.73-1.56s-.78-1.56-1.73-1.56-1.73.7-1.73,1.56.78,1.56,1.73,1.56Zm-28.25-12.76c.68-.61,1.77-.61,2.45,0,.68.61.68,1.6,0,2.21-.68.61-1.77.61-2.45,0-.68-.61-.68-1.6,0-2.21Zm22.39,22.4c.68.61,1.77.61,2.45,0,.68-.61.68-1.6,0-2.21-.68-.61-1.77-.61-2.45,0-.68.61-.68,1.6,0,2.21Zm-22.39,0c-.68-.61-.68-1.6,0-2.21.68-.61,1.77-.61,2.45,0,.68.61.68,1.6,0,2.21-.68.61-1.77.61-2.45,0Zm24.84-20.19c.68-.61.68-1.6,0-2.21-.68-.61-1.77-.61-2.45,0-.68.61-.68,1.6,0,2.21.68.61,1.77.61,2.45,0Z"/>
          <polygon class="cls-4" points="215.5 189.77 986.13 189.77 959.83 170.55 243.01 170.55 215.5 189.77"/>
          <polygon class="cls-5" points="240.01 312.02 240.01 340.36 221.7 333.19 221.7 312.02 240.01 312.02"/>
          <polygon class="cls-15" points="208.34 312.02 221.7 312.02 221.7 333.19 208.13 317.2 208.34 312.02"/>
          <polygon class="cls-15" points="965.78 331.02 979.77 331.02 984.34 323.55 995.16 305.83 974.9 309.28 967.74 326.33 965.78 331.02"/>
          <polygon class="cls-15" points="965.78 331.02 979.77 331.02 984.34 323.55 967.74 326.33 965.78 331.02"/>
          <rect class="cls-4" x="355.07" y="194.52" width="49.14" height="142.11"/>
          <rect class="cls-13" x="358.79" y="197.88" width="41.7" height="94.14"/>
          <rect class="cls-13" x="358.79" y="295.28" width="41.7" height="37.99"/>
          <path class="cls-4" d="m358.79,285.76c.2,0,.39-.1.48-.28,7.4-14.98,23.22-25.41,41.29-27.22.28-.03.49-.26.46-.52-.03-.26-.3-.44-.57-.41-18.44,1.84-34.57,12.48-42.13,27.77-.12.24,0,.51.26.62.07.03.14.04.21.04Z"/>
          <path class="cls-4" d="m358.79,279.79c.19,0,.37-.1.47-.26,7.39-13.43,23.21-22.79,41.29-24.41.28-.03.49-.25.46-.51-.03-.26-.23-.49-.57-.42-18.43,1.65-34.57,11.2-42.12,24.92-.13.23-.02.51.24.63.07.03.15.05.23.05Z"/>
          <rect class="cls-4" x="305.92" y="194.52" width="49.14" height="142.11"/>
          <rect class="cls-13" x="309.64" y="197.88" width="41.7" height="94.14"/>
          <rect class="cls-13" x="309.64" y="295.28" width="41.7" height="37.99"/>
          <path class="cls-4" d="m351.35,285.76c.07,0,.14-.01.21-.04.26-.11.38-.38.26-.62-7.54-15.29-23.69-25.93-42.13-27.77-.31-.03-.54.15-.57.41-.03.26.17.49.46.52,18.07,1.8,33.89,12.23,41.29,27.22.09.18.28.28.48.28Z"/>
          <path class="cls-4" d="m351.35,279.79c.08,0,.16-.01.23-.05.26-.12.36-.4.24-.63-7.55-13.72-23.69-23.27-42.12-24.92-.33-.07-.54.16-.57.42-.03.26.18.49.46.51,18.08,1.62,33.9,10.97,41.29,24.41.09.16.28.26.47.26Z"/>
          <rect class="cls-4" x="769.09" y="194.52" width="77.27" height="76.31"/>
          <rect class="cls-13" x="802.27" y="197.24" width="41.08" height="24.17"/>
          <rect class="cls-13" x="772.13" y="197.24" width="27.09" height="24.17"/>
          <rect class="cls-13" x="772.13" y="224.15" width="71.21" height="43.95"/>
          <rect class="cls-4" x="684.87" y="194.52" width="77.27" height="76.31"/>
          <rect class="cls-13" x="718.03" y="197.24" width="41.08" height="24.17"/>
          <rect class="cls-13" x="687.89" y="197.25" width="27.1" height="24.17"/>
          <rect class="cls-13" x="687.9" y="224.15" width="71.21" height="43.95"/>
          <rect class="cls-4" x="495.4" y="194.52" width="77.27" height="76.31"/>
          <rect class="cls-13" x="528.59" y="197.24" width="41.08" height="24.17"/>
          <rect class="cls-13" x="498.41" y="197.24" width="27.09" height="24.17"/>
          <rect class="cls-13" x="498.41" y="224.15" width="71.25" height="43.95"/>
          <rect class="cls-4" x="411.17" y="194.52" width="77.27" height="76.31"/>
          <rect class="cls-13" x="444.35" y="197.24" width="41.08" height="24.17"/>
          <rect class="cls-13" x="414.18" y="197.24" width="27.09" height="24.17"/>
          <rect class="cls-13" x="414.18" y="224.15" width="71.25" height="43.95"/>
          <rect class="cls-4" x="237.1" y="194.52" width="61.86" height="76.31"/>
          <rect class="cls-13" x="240.01" y="197.24" width="55.93" height="24.17"/>
          <rect class="cls-13" x="240.01" y="224.15" width="55.93" height="43.95"/>
          <polygon class="cls-15" points="243.01 170.55 231.64 189.77 215.5 189.77 243.01 170.55"/>
          <path class="cls-4" d="m208.34,312.02h19.52l3.79-122.25h-16.15l-1.58,59.68c-1.67,0-3.05,1.19-3.11,2.7l-2.47,59.87Z"/>
          <polygon class="cls-15" points="959.83 170.55 971.53 189.77 986.13 189.77 959.83 170.55"/>
          <path class="cls-4" d="m971.53,189.77l7.82,118.76,17.06-2.93-2.87-40.05c-.13-1.84-1.42-3.45-3.29-4.2l-4.12-71.58h-14.61Z"/>
          <polygon class="cls-13" points="215.37 194.52 224.8 194.52 222.62 249.45 213.91 249.45 215.37 194.52"/>
          <polygon class="cls-17" points="206.46 285.74 220.54 285.74 220.86 278.85 206.78 278.85 206.46 285.74"/>
          <polygon class="cls-9" points="206.14 292.63 220.22 292.63 220.54 285.74 206.46 285.74 206.14 292.63"/>
          <polygon class="cls-17" points="205.83 299.52 214.93 299.52 220.22 292.63 206.14 292.63 205.83 299.52"/>
          <polygon class="cls-9" points="986.4 280.95 996.51 280.95 995.96 273.64 985.84 273.64 986.4 280.95"/>
          <polygon class="cls-17" points="986.73 285.29 997.07 288.26 996.51 280.95 986.4 280.95 986.73 285.29"/>
          <g>
            <polygon class="cls-15" points="971.53 189.77 975.9 255.98 990.25 261.35 990.09 258.42 986.3 192.44 986.13 189.77 971.53 189.77"/>
            <polygon class="cls-13" points="974.65 192.44 978.73 254.14 990.09 258.42 986.3 192.44 974.65 192.44"/>
          </g>
          <rect class="cls-4" x="677.91" y="274.42" width="175.41" height="10.87"/>
          <rect class="cls-4" x="404.21" y="274.42" width="175.41" height="10.87"/>
          <polygon class="cls-4" points="229.02 274.42 305.92 274.42 305.92 285.29 228.68 285.29 229.02 274.42"/>
          <rect class="cls-15" x="287.73" y="167.6" width="25.9" height="2.96" transform="translate(601.36 338.15) rotate(180)"/>
          <polygon class="cls-15" points="280.88 167.6 320.48 167.6 316.32 164.72 285.04 164.72 280.88 167.6"/>
          <polygon class="cls-15" points="444.23 170.51 540.52 170.51 535.13 165.81 449.62 165.81 444.23 170.51"/>
          <polygon class="cls-15" points="721.22 161.27 816.97 170.51 812.16 165.32 727.13 157.11 721.22 161.27"/>
          <rect class="cls-5" x="511.93" y="312.52" width="64.59" height="24.11" transform="translate(1088.45 649.15) rotate(180)"/>
          <rect class="cls-15" x="511.93" y="312.52" width="64.59" height="4.21" transform="translate(1088.45 629.24) rotate(180)"/>
          <rect class="cls-5" x="680.92" y="312.52" width="64.58" height="24.11" transform="translate(1426.42 649.15) rotate(180)"/>
          <rect class="cls-15" x="680.92" y="312.52" width="64.58" height="4.21" transform="translate(1426.42 629.24) rotate(180)"/>
          <path class="cls-15" d="m754.49,336.95v4.92h7.49c-.33-1.58-.58-3.23-.67-4.92-.04-.6-.04-1.24-.04-1.88,0-2.74.33-5.44,1-7.99,4.04-16.89,20.68-29.54,40.58-29.54s36.17,12.27,40.45,28.83c.75,2.78,1.17,5.71,1.17,8.71,0,.64,0,1.28-.04,1.88-.08,1.69-.33,3.34-.67,4.92h7.53v-4.92h-2.75c.04-.6.04-1.24.04-1.88,0-3.27-.46-6.53-1.29-9.57-4.7-18.2-22.81-31.68-44.45-31.68s-40.16,13.89-44.61,32.43c-.75,2.85-1.08,5.78-1.08,8.82,0,.64,0,1.28.04,1.88h-2.71Z"/>
          <path class="cls-15" d="m408.4,336.95v4.92h7.49c-.33-1.58-.58-3.23-.67-4.92-.04-.6-.04-1.24-.04-1.88,0-2.74.33-5.44,1-7.99,4.04-16.89,20.68-29.54,40.58-29.54s36.17,12.27,40.45,28.83c.75,2.78,1.17,5.71,1.17,8.71,0,.64,0,1.28-.04,1.88-.08,1.69-.33,3.34-.67,4.92h7.53v-4.92h-2.75c.04-.6.04-1.24.04-1.88,0-3.27-.46-6.53-1.29-9.57-4.7-18.2-22.81-31.68-44.45-31.68s-40.16,13.89-44.61,32.43c-.75,2.85-1.08,5.78-1.08,8.82,0,.64,0,1.28.04,1.88h-2.71Z"/>
          <polygon class="cls-2" points="827.4 197.24 843.34 218.19 843.34 197.24 827.4 197.24"/>
          <g>
            <rect class="cls-4" x="628.77" y="194.52" width="49.14" height="142.11"/>
            <rect class="cls-13" x="632.49" y="197.88" width="41.7" height="94.14"/>
            <rect class="cls-13" x="632.49" y="295.28" width="41.7" height="37.99"/>
            <path class="cls-4" d="m632.48,285.76c.2,0,.39-.1.48-.28,7.4-14.98,23.22-25.41,41.29-27.22.28-.03.49-.26.46-.52-.03-.26-.29-.44-.57-.41-18.44,1.84-34.57,12.48-42.13,27.77-.12.24,0,.51.26.62.07.03.14.04.21.04Z"/>
            <path class="cls-4" d="m632.48,279.79c.19,0,.37-.1.47-.26,7.39-13.43,23.21-22.79,41.29-24.41.28-.03.49-.25.46-.51-.02-.24-.25-.42-.52-.42-.02,0-.03,0-.05,0-18.43,1.65-34.57,11.2-42.12,24.92-.13.23-.02.51.24.63.07.03.15.05.23.05Z"/>
            <polygon class="cls-2" points="632.49 197.88 632.49 202.68 674.19 257.41 674.19 225.43 653.21 197.88 632.49 197.88"/>
            <polygon class="cls-2" points="632.49 207.53 632.49 216.8 674.19 271.45 674.19 262.18 632.49 207.53"/>
            <polygon class="cls-2" points="632.49 295.28 632.49 300.61 657.37 333.27 674.19 333.27 674.19 309.7 663.2 295.28 632.49 295.28"/>
            <polygon class="cls-2" points="632.49 254.97 632.49 292.02 660.7 292.02 632.49 254.97"/>
            <polygon class="cls-2" points="632.49 307.41 632.49 320.62 642.14 333.27 652.21 333.27 632.49 307.41"/>
          </g>
          <polygon class="cls-2" points="812.09 197.24 830.52 221.41 840.6 221.41 822.16 197.24 812.09 197.24"/>
          <polygon class="cls-2" points="832.6 224.15 843.34 238.23 843.34 225.02 842.68 224.15 832.6 224.15"/>
          <polygon class="cls-2" points="745.83 197.24 759.11 214.66 759.11 197.24 745.83 197.24"/>
          <polygon class="cls-2" points="772.13 224.15 772.13 231.74 799.85 268.11 834.64 268.11 801.14 224.15 772.13 224.15"/>
          <polygon class="cls-2" points="772.13 197.24 772.13 221.41 799.06 221.41 780.62 197.24 772.13 197.24"/>
          <g>
            <rect class="cls-4" x="579.62" y="194.52" width="49.14" height="142.11"/>
            <rect class="cls-13" x="583.34" y="197.88" width="41.7" height="94.14"/>
            <rect class="cls-13" x="583.34" y="295.28" width="41.7" height="37.99"/>
            <path class="cls-4" d="m625.05,285.76c.07,0,.14-.01.21-.04.26-.11.38-.38.26-.62-7.54-15.29-23.69-25.93-42.13-27.77-.31-.03-.54.15-.57.41-.03.26.17.49.46.52,18.07,1.8,33.89,12.23,41.29,27.22.09.18.28.28.48.28Z"/>
            <path class="cls-4" d="m625.05,279.79c.08,0,.16-.01.23-.05.26-.12.36-.4.24-.63-7.55-13.72-23.69-23.27-42.12-24.92-.02,0-.04,0-.05,0-.26,0-.49.18-.52.42-.03.26.18.49.46.51,18.08,1.62,33.9,10.97,41.29,24.41.09.16.28.26.47.26Z"/>
            <polygon class="cls-2" points="618.05 197.88 625.04 207.04 625.04 197.88 618.05 197.88"/>
            <polygon class="cls-2" points="583.34 197.88 583.34 236.13 625.04 290.85 625.04 245.21 588.96 197.88 583.34 197.88"/>
            <polygon class="cls-2" points="613.18 295.28 625.04 310.86 625.04 297.65 623.25 295.28 613.18 295.28"/>
            <polygon class="cls-2" points="583.34 243 583.34 256.17 610.68 292.02 620.75 292.02 583.34 243"/>
            <polygon class="cls-2" points="583.34 297.5 583.34 333.27 610.6 333.27 583.34 297.5"/>
          </g>
          <polygon class="cls-2" points="730.52 197.24 748.95 221.41 759.02 221.41 740.59 197.24 730.52 197.24"/>
          <polygon class="cls-2" points="751.03 224.15 759.11 234.74 759.11 224.15 751.03 224.15"/>
          <polygon class="cls-2" points="772.13 238.57 772.13 251.82 784.58 268.11 794.65 268.11 772.13 238.57"/>
          <polygon class="cls-2" points="687.9 228.13 687.9 268.11 718.36 268.11 687.9 228.13"/>
          <polygon class="cls-2" points="544.86 224.15 569.66 256.73 569.66 224.15 544.86 224.15"/>
          <polygon class="cls-2" points="524.34 197.24 525.51 198.78 525.51 197.24 524.34 197.24"/>
          <polygon class="cls-2" points="528.59 197.24 528.59 202.83 542.74 221.41 569.66 221.41 569.66 211.09 559.09 197.24 528.59 197.24"/>
          <polygon class="cls-2" points="508.98 197.24 525.51 218.94 525.51 205.65 519.1 197.24 508.98 197.24"/>
          <polygon class="cls-2" points="528.59 209.7 528.59 221.41 537.53 221.41 528.59 209.7"/>
          <polygon class="cls-2" points="529.5 224.15 563.05 268.11 569.66 268.11 569.66 263.53 539.62 224.15 529.5 224.15"/>
          <g>
            <rect class="cls-22" x="902.46" y="194.52" width="49.14" height="142.11"/>
            <g>
              <rect class="cls-4" x="925.48" y="194.52" width="26.13" height="142.11"/>
              <rect class="cls-13" x="927.44" y="197.88" width="22.19" height="94.14"/>
              <rect class="cls-13" x="927.44" y="295.28" width="22.19" height="37.99"/>
              <path class="cls-4" d="m927.45,285.76c.11,0,.21-.1.25-.28,3.94-14.98,12.35-25.41,21.95-27.22.15-.03.26-.26.24-.52-.02-.26-.16-.44-.3-.41-9.8,1.84-18.38,12.48-22.4,27.77-.06.24,0,.51.14.62.04.03.08.04.11.04Z"/>
              <path class="cls-4" d="m927.45,279.79c.1,0,.2-.1.25-.26,3.93-13.43,12.34-22.79,21.96-24.41.15-.03.26-.25.25-.51-.01-.24-.13-.42-.27-.42,0,0-.02,0-.03,0-9.8,1.65-18.38,11.2-22.4,24.92-.07.23-.01.51.13.63.04.03.08.05.12.05Z"/>
              <polygon class="cls-2" points="927.44 197.88 927.44 201.03 949.64 255.8 949.64 210.15 944.66 197.88 927.44 197.88"/>
              <polygon class="cls-2" points="927.44 207.9 927.44 221.15 949.64 275.88 949.64 262.66 927.44 207.9"/>
              <polygon class="cls-2" points="927.44 295.28 927.44 333.27 943.55 333.27 928.18 295.28 927.44 295.28"/>
            </g>
            <rect class="cls-22" x="853.32" y="194.52" width="49.14" height="142.11"/>
            <g>
              <rect class="cls-4" x="853.32" y="194.52" width="22.65" height="142.11"/>
              <rect class="cls-13" x="855.04" y="197.88" width="19.22" height="94.14"/>
              <rect class="cls-13" x="855.04" y="295.28" width="19.22" height="37.99"/>
              <path class="cls-4" d="m874.25,285.76s.07-.01.1-.04c.12-.11.18-.38.12-.62-3.48-15.29-10.92-25.93-19.41-27.77-.13-.03-.25.15-.26.41-.01.26.08.49.21.52,8.33,1.8,15.62,12.23,19.03,27.22.04.18.13.28.22.28Z"/>
              <path class="cls-4" d="m874.25,279.79s.07-.01.11-.05c.12-.12.17-.4.11-.63-3.48-13.72-10.92-23.27-19.41-24.92-.15-.07-.25.16-.26.42-.01.26.08.49.21.51,8.33,1.62,15.63,10.97,19.03,24.41.04.16.13.26.22.26Z"/>
              <polygon class="cls-2" points="869.48 197.88 874.26 211.43 874.26 198.18 874.14 197.88 869.48 197.88"/>
              <polygon class="cls-2" points="855.04 229.07 855.04 274.68 861.14 292.02 874.26 292.02 874.26 283.8 855.04 229.07"/>
              <polygon class="cls-2" points="862.27 295.28 874.26 329.4 874.26 295.28 862.27 295.28"/>
              <polygon class="cls-2" points="855.04 281.51 855.04 292.02 858.74 292.02 855.04 281.51"/>
              <polygon class="cls-2" points="855.23 295.28 868.58 333.27 873.24 333.27 859.89 295.28 855.23 295.28"/>
            </g>
          </g>
          <polygon class="cls-2" points="498.41 240.03 498.41 268.11 519.81 268.11 498.41 240.03"/>
          <polygon class="cls-2" points="451.55 224.15 485.05 268.11 485.43 268.11 485.43 224.15 451.55 224.15"/>
          <polygon class="cls-2" points="444.35 197.24 444.35 214.73 449.43 221.41 484.22 221.41 465.79 197.24 444.35 197.24"/>
          <polygon class="cls-2" points="431.03 197.24 441.27 210.68 441.27 197.24 431.03 197.24"/>
          <polygon class="cls-2" points="436.24 224.15 469.78 268.11 479.85 268.11 446.31 224.15 436.24 224.15"/>
          <polygon class="cls-2" points="415.72 197.24 434.16 221.41 441.27 221.41 441.27 217.55 425.79 197.24 415.72 197.24"/>
          <polygon class="cls-2" points="358.79 197.88 358.79 242.43 396.58 292.02 400.49 292.02 400.49 251.52 359.62 197.88 358.79 197.88"/>
          <polygon class="cls-2" points="324.83 197.88 351.34 232.67 351.34 197.88 324.83 197.88"/>
          <polygon class="cls-2" points="399.07 295.28 400.49 297.16 400.49 295.28 399.07 295.28"/>
          <polygon class="cls-2" points="309.64 197.88 309.64 198.07 351.34 252.76 358.79 262.51 381.3 292.02 391.37 292.02 358.79 249.26 351.34 239.51 319.58 197.88 309.64 197.88"/>
          <polygon class="cls-2" points="383.8 295.28 400.49 317.17 400.49 303.95 393.87 295.28 383.8 295.28"/>
          <polygon class="cls-2" points="358.79 299.71 358.79 312.92 374.31 333.27 384.38 333.27 358.79 299.71"/>
          <polygon class="cls-2" points="345.34 295.28 351.34 303.17 351.34 295.28 345.34 295.28"/>
          <polygon class="cls-2" points="270.56 197.24 288.99 221.41 295.94 221.41 295.94 217.32 280.63 197.24 270.56 197.24"/>
          <polygon class="cls-2" points="291.07 224.15 295.94 230.53 295.94 224.15 291.07 224.15"/>
          <polygon class="cls-2" points="309.64 235.3 309.64 248.48 342.85 292.02 351.34 292.02 351.34 289.95 309.64 235.3"/>
          <polygon class="cls-2" points="240.01 197.24 240.01 210.08 248.67 221.41 258.74 221.41 240.3 197.24 240.01 197.24"/>
          <polygon class="cls-2" points="260.82 224.15 250.75 224.15 284.29 268.11 294.36 268.11 260.82 224.15"/>
          <polygon class="cls-2" points="309.64 295.28 309.64 301.36 333.98 333.27 344.05 333.27 315.09 295.28 309.64 295.28"/>
          <polygon class="cls-2" points="309.64 288.15 309.64 292.02 312.59 292.02 309.64 288.15"/>
          <polygon class="cls-15" points="959.83 170.55 243.01 170.55 239.37 174.87 963.16 174.87 959.83 170.55"/>
        </g>
        <path class="cls-8" d="m1714.83,258.3h-367.24l5.3-9.52h361.94v9.52Zm0,7.97h-373.37l-7.44,13.3h380.81v-13.3Zm0,24.13h-389.08l-10.17,18.09h399.26v-18.09Zm0,29.04h-407.93l-13.23,23.39h421.17v-23.39Zm0,36.4h-435.46l-14.13,26.19h449.59v-26.19Z"/>
        <g>
          <path class="cls-25" d="m117.78,159.76h0c-1.06,0-1.93-.78-1.93-1.74V60.71c0-.96.87-1.74,1.93-1.74h0c1.06,0,1.93.78,1.93,1.74v97.32c0,.96-.87,1.74-1.93,1.74Z"/>
          <path class="cls-25" d="m127.69,157.97h0c-1.06,0-1.93-.78-1.93-1.74V58.92c0-.96.87-1.74,1.93-1.74h0c1.06,0,1.93.78,1.93,1.74v97.32c0,.96-.87,1.74-1.93,1.74Z"/>
          <path class="cls-25" d="m513.39,159.76h0c-1.06,0-1.93-.78-1.93-1.74V60.71c0-.96.87-1.74,1.93-1.74h0c1.06,0,1.93.78,1.93,1.74v97.32c0,.96-.87,1.74-1.93,1.74Z"/>
          <path class="cls-25" d="m523.29,157.97h0c-1.06,0-1.93-.78-1.93-1.74V58.92c0-.96.87-1.74,1.93-1.74h0c1.06,0,1.93.78,1.93,1.74v97.32c0,.96-.87,1.74-1.93,1.74Z"/>
          <g>
            <path class="cls-25" d="m711.35,83.51c-66.12,0-132.24-2.4-197.9-7.21-.31-.02-.53-.26-.51-.54.02-.27.3-.48.6-.46,131.26,9.61,264.36,9.61,395.62,0,.3-.02.57.18.6.46.02.28-.2.52-.51.54-65.66,4.81-131.78,7.21-197.9,7.21Z"/>
            <path class="cls-25" d="m315.64,83.51c-66.12,0-132.24-2.4-197.9-7.21-.31-.02-.53-.26-.51-.54.03-.27.3-.48.6-.46,131.26,9.61,264.36,9.61,395.62,0,.31-.02.57.18.6.46.02.28-.2.52-.51.54-65.66,4.81-131.78,7.21-197.9,7.21Z"/>
            <path class="cls-25" d="m515.79,75.8c0,1.14-1.03,2.07-2.29,2.07s-2.29-.93-2.29-2.07,1.03-2.07,2.29-2.07,2.29.93,2.29,2.07Z"/>
            <ellipse class="cls-25" cx="117.78" cy="75.8" rx="2.29" ry="2.07"/>
          </g>
          <g>
            <path class="cls-25" d="m721.26,81.09c-66.12,0-132.24-2.4-197.9-7.21-.31-.02-.53-.26-.51-.54.02-.27.3-.48.6-.46,131.26,9.61,264.36,9.61,395.62,0,.3-.02.57.18.6.46.02.28-.2.52-.51.54-65.66,4.81-131.78,7.21-197.9,7.21Z"/>
            <path class="cls-25" d="m325.55,81.09c-66.12,0-132.24-2.4-197.9-7.21-.31-.02-.53-.26-.51-.54.02-.27.3-.48.6-.46,131.26,9.61,264.36,9.61,395.62,0,.3-.02.57.18.6.46.02.28-.2.52-.51.54-65.66,4.81-131.78,7.21-197.9,7.21Z"/>
            <path class="cls-25" d="m525.7,73.38c0,1.14-1.03,2.07-2.29,2.07s-2.29-.93-2.29-2.07,1.03-2.07,2.29-2.07,2.29.93,2.29,2.07Z"/>
            <path class="cls-25" d="m129.99,73.38c0,1.14-1.03,2.07-2.29,2.07s-2.29-.93-2.29-2.07,1.03-2.07,2.29-2.07,2.29.93,2.29,2.07Z"/>
          </g>
        </g>
        <g>
          <rect class="cls-22" x="247.3" y="204.21" width="7" height="309.27" transform="translate(609.65 108.05) rotate(90)"/>
          <rect class="cls-22" x="44.07" y="197.14" width="7.76" height="211.62"/>
          <rect class="cls-22" x="44.07" y="164.26" width="7.76" height="25.88"/>
          <rect class="cls-22" x="449.78" y="164.26" width="7.76" height="25.88"/>
          <rect class="cls-22" x="247.3" y="-13.09" width="7" height="413.47" transform="translate(444.44 -57.16) rotate(90)"/>
          <rect class="cls-22" x="247.3" y="-45.98" width="7" height="413.47" transform="translate(411.56 -90.04) rotate(90)"/>
          <rect class="cls-22" x="247.3" y="185.36" width="7" height="453.8" transform="translate(663.06 161.45) rotate(90)"/>
          <rect class="cls-22" x="179.3" y="197.14" width="7.76" height="211.62"/>
          <rect class="cls-22" x="314.54" y="197.14" width="7.76" height="211.62"/>
          <rect class="cls-22" x="449.78" y="197.14" width="7.76" height="211.62"/>
          <path class="cls-7" d="m165.25,217.98v169.93l-.23.21c-2.58,2.36-4.35,3.96-6.59,5.98-.69.59-1.43,1.25-2.23,1.98h-81.28c-3.54-3.16-5.51-4.97-9.05-8.16v-169.93c3.54-3.2,5.51-5,9.05-8.16h81.28c3.54,3.16,5.55,4.97,9.05,8.16Z"/>
          <path class="cls-7" d="m300.5,217.98v169.93c-2.43,2.19-4.12,3.72-6.05,5.49-.92.8-1.89,1.67-3,2.68h-81.28c-3.54-3.16-5.51-4.97-9.05-8.16v-169.93c3.54-3.2,5.51-5,9.05-8.16h81.28c3.54,3.16,5.51,4.97,9.05,8.16Z"/>
          <path class="cls-7" d="m435.75,217.98v169.93c-3.54,3.2-5.55,5-9.05,8.16h-81.32c-3.51-3.16-5.51-4.97-9.05-8.16v-169.93l9.05-8.16h81.32c3.51,3.16,5.51,4.97,9.05,8.16Z"/>
          <g>
            <rect class="cls-22" x="84.75" y="202.3" width="12.66" height="2.34" transform="translate(294.56 112.39) rotate(90)"/>
            <rect class="cls-22" x="133.71" y="202.3" width="12.66" height="2.34" transform="translate(343.52 63.43) rotate(90)"/>
            <rect class="cls-22" x="84.75" y="401.25" width="12.66" height="2.34" transform="translate(493.51 311.34) rotate(90)"/>
            <rect class="cls-22" x="133.71" y="401.25" width="12.66" height="2.34" transform="translate(542.47 262.38) rotate(90)"/>
            <rect class="cls-22" x="51.83" y="228.8" width="14.04" height="2.11"/>
            <rect class="cls-22" x="51.83" y="374.99" width="14.04" height="2.11"/>
            <rect class="cls-22" x="165.26" y="228.8" width="14.04" height="2.11"/>
            <rect class="cls-22" x="165.26" y="374.99" width="14.04" height="2.11"/>
          </g>
          <g>
            <rect class="cls-22" x="219.99" y="202.3" width="12.66" height="2.34" transform="translate(429.79 -22.85) rotate(90)"/>
            <rect class="cls-22" x="268.95" y="202.3" width="12.66" height="2.34" transform="translate(478.75 -71.81) rotate(90)"/>
            <rect class="cls-22" x="219.99" y="401.25" width="12.66" height="2.34" transform="translate(628.75 176.1) rotate(90)"/>
            <rect class="cls-22" x="268.95" y="401.25" width="12.66" height="2.34" transform="translate(677.71 127.14) rotate(90)"/>
            <rect class="cls-22" x="187.06" y="228.8" width="14.04" height="2.11"/>
            <rect class="cls-22" x="187.06" y="374.99" width="14.04" height="2.11"/>
            <rect class="cls-22" x="300.5" y="228.8" width="14.04" height="2.11"/>
            <rect class="cls-22" x="300.5" y="374.99" width="14.04" height="2.11"/>
          </g>
          <g>
            <rect class="cls-22" x="355.23" y="202.3" width="12.66" height="2.34" transform="translate(565.03 -158.09) rotate(90)"/>
            <rect class="cls-22" x="404.19" y="202.3" width="12.66" height="2.34" transform="translate(613.99 -207.05) rotate(90)"/>
            <rect class="cls-22" x="355.23" y="401.25" width="12.66" height="2.34" transform="translate(763.99 40.86) rotate(90)"/>
            <rect class="cls-22" x="404.19" y="401.25" width="12.66" height="2.34" transform="translate(812.94 -8.09) rotate(90)"/>
            <rect class="cls-22" x="322.3" y="228.8" width="14.04" height="2.11"/>
            <rect class="cls-22" x="322.3" y="374.99" width="14.04" height="2.11"/>
            <rect class="cls-22" x="435.74" y="228.8" width="14.04" height="2.11"/>
            <rect class="cls-22" x="435.74" y="374.99" width="14.04" height="2.11"/>
          </g>
          <g>
            <path class="cls-19" d="m457.51,157.26c.29-13.33-3.95-27.11-12.75-27.11H56.85c-8.8,0-13.04,13.78-12.75,27.11h413.42Z"/>
            <path class="cls-19" d="m449.77,157.26c.28-13.33-3.8-27.11-12.27-27.11H64.11c-8.47,0-12.55,13.78-12.27,27.11h397.93Z"/>
            <g>
              <path class="cls-19" d="m191,130.16h-7.28c-3.04,0-4.51,13.78-4.41,27.11h7.76c-.09-13.33,1.22-27.11,3.93-27.11Z"/>
              <path class="cls-19" d="m317.89,130.16h-7.28c2.71,0,4.02,13.78,3.93,27.11h7.76c.1-13.33-1.37-27.11-4.41-27.11Z"/>
            </g>
          </g>
        </g>
      </g>
    </g>
  </g>
</svg>